<?xml version="1.0" encoding="utf-8"?>
<!-- Generator: Adobe Illustrator 18.1.1, SVG Export Plug-In . SVG Version: 6.00 Build 0)  -->
<svg version="1.1" id="Layer_1" xmlns="http://www.w3.org/2000/svg" xmlns:xlink="http://www.w3.org/1999/xlink" x="0px" y="0px"
	 viewBox="0 0 232.8 78.5" style="enable-background:new 0 0 232.8 78.5;" xml:space="preserve">
<g>
	<linearGradient id="SVGID_1_" gradientUnits="userSpaceOnUse" x1="42.45" y1="35.6537" x2="233.5028" y2="35.6537">
		<stop  offset="0" style="stop-color:#88D6F5"/>
		<stop  offset="0.1" style="stop-color:#518FA3"/>
		<stop  offset="0.3" style="stop-color:#AEE1F7"/>
		<stop  offset="0.5" style="stop-color:#FFFFFF"/>
		<stop  offset="0.7" style="stop-color:#AEE1F7"/>
		<stop  offset="0.9" style="stop-color:#518FA3"/>
		<stop  offset="1" style="stop-color:#88D6F5"/>
	</linearGradient>
	<path style="fill:url(#SVGID_1_);" d="M42.7,53.9h171.2c2.9,0,6.8-1.8,8.6-4l8.9-10.4c1.9-2.2,1.9-5.8,0-7.9l-8.9-10.4
		c-1.9-2.2-5.8-4-8.6-4H42.7"/>
	<linearGradient id="SVGID_2_" gradientUnits="userSpaceOnUse" x1="137.715" y1="19.7163" x2="137.715" y2="55.3965">
		<stop  offset="0" style="stop-color:#DFF0EF"/>
		<stop  offset="1" style="stop-color:#9CD8DC"/>
	</linearGradient>
	<path style="fill:url(#SVGID_2_);" d="M42.7,56.6h171.2c2.9,0,6.8-1.8,8.6-4l8.9-10.4c1.9-2.2,1.9-5.8,0-7.9l-8.9-10.4
		c-1.9-2.2-5.8-4-8.6-4H42.7"/>
	<linearGradient id="SVGID_3_" gradientUnits="userSpaceOnUse" x1="135.8874" y1="23.4263" x2="135.8874" y2="51.9704">
		<stop  offset="0" style="stop-color:#06262F"/>
		<stop  offset="0.7636" style="stop-color:#2A5A68"/>
		<stop  offset="0.8652" style="stop-color:#E0F2F6"/>
	</linearGradient>
	<path style="fill:url(#SVGID_3_);" d="M42.7,23.6h171.2c1.8,0,4.7,1.3,5.8,2.7l8.9,10.4c0.7,0.8,0.7,2.4,0,3.2l-8.9,10.4
		c-1.2,1.4-4,2.7-5.8,2.7H42.7"/>
	<defs>
		<filter id="Adobe_OpacityMaskFilter" filterUnits="userSpaceOnUse" x="42.7" y="25.7" width="184.3" height="25.1">
			<feFlood  style="flood-color:white;flood-opacity:1" result="back"/>
			<feBlend  in="SourceGraphic" in2="back" mode="normal"/>
		</filter>
	</defs>
	<mask maskUnits="userSpaceOnUse" x="42.7" y="25.7" width="184.3" height="25.1" id="SVGID_4_">
		<g style="filter:url(#Adobe_OpacityMaskFilter);">
			<defs>
				<filter id="Adobe_OpacityMaskFilter_1_" filterUnits="userSpaceOnUse" x="29.5" y="25.7" width="197.5" height="25.1">
					<feFlood  style="flood-color:white;flood-opacity:1" result="back"/>
					<feBlend  in="SourceGraphic" in2="back" mode="normal"/>
				</filter>
			</defs>
			<mask maskUnits="userSpaceOnUse" x="29.5" y="25.7" width="197.5" height="25.1" id="SVGID_4_">
				<g style="filter:url(#Adobe_OpacityMaskFilter_1_);">
				</g>
			</mask>
			<linearGradient id="SVGID_5_" gradientUnits="userSpaceOnUse" x1="128.2644" y1="25.5463" x2="128.2644" y2="50.0127">
				<stop  offset="0" style="stop-color:#FFFFFF"/>
				<stop  offset="0.7697" style="stop-color:#000000"/>
				<stop  offset="1" style="stop-color:#FFFFFF"/>
			</linearGradient>
			<path style="mask:url(#SVGID_4_);fill:url(#SVGID_5_);" d="M42.7,50.8c-1.2,0-3.5-1-4.3-2l-8.9-10.4c0-0.1,0-0.4,0-0.5l8.8-10.3
				c0.8-0.9,3.1-2,4.3-2h171.2c1.2,0,3.5,1,4.3,2L227,38c0,0.1,0,0.4,0,0.5l-8.8,10.3c-0.8,0.9-3.1,2-4.3,2H42.7z"/>
		</g>
	</mask>
	<linearGradient id="SVGID_6_" gradientUnits="userSpaceOnUse" x1="134.8444" y1="25.5463" x2="134.8444" y2="50.0127">
		<stop  offset="0" style="stop-color:#FFFFFF"/>
		<stop  offset="0.7697" style="stop-color:#FFFFFF"/>
		<stop  offset="1" style="stop-color:#FFFFFF"/>
	</linearGradient>
	<path style="fill:url(#SVGID_6_);" d="M42.7,25.7h171.2c1.2,0,3.5,1,4.3,2L227,38c0,0.1,0,0.4,0,0.5l-8.8,10.3
		c-0.8,0.9-3.1,2-4.3,2H42.7"/>
	<linearGradient id="SVGID_7_" gradientUnits="userSpaceOnUse" x1="134.5828" y1="26.0762" x2="134.5828" y2="49.5232">
		<stop  offset="0" style="stop-color:#009E98"/>
		<stop  offset="0.8121" style="stop-color:#113D63"/>
		<stop  offset="1" style="stop-color:#065B73"/>
	</linearGradient>
	<path style="fill:url(#SVGID_7_);" d="M42.7,26.2h171.2c1.1,0,3.2,1,3.9,1.8l8.8,10.2c0,0,0,0,0,0l-8.8,10.2
		c-0.7,0.8-2.8,1.8-3.9,1.8H42.7"/>
	<path style="fill:#023740;" d="M42.5,31.7c0.2-0.1,0.4-0.2,0.5-0.2h170.4c0.2,0.1,0.4,0.2,0.5,0.2l5.6,6.6l-5.6,6.5
		c-0.2,0.1-0.4,0.2-0.5,0.2H43.1c-0.2-0.1-0.4-0.2-0.5-0.2"/>
	<path style="fill:#023740;" d="M43.2,32.6C43.2,32.5,43.2,32.5,43.2,32.6l170.1,0c0,0,0,0,0.1,0l4.9,5.7l-4.9,5.7c0,0,0,0-0.1,0
		h-170c0,0,0,0-0.1,0"/>
</g>
<g>
	<linearGradient id="SVGID_8_" gradientUnits="userSpaceOnUse" x1="-0.5627" y1="37.3937" x2="69.8711" y2="37.3937">
		<stop  offset="0" style="stop-color:#88D6F5"/>
		<stop  offset="0.1" style="stop-color:#518FA3"/>
		<stop  offset="0.3" style="stop-color:#AEE1F7"/>
		<stop  offset="0.5" style="stop-color:#FFFFFF"/>
		<stop  offset="0.7" style="stop-color:#AEE1F7"/>
		<stop  offset="0.9" style="stop-color:#518FA3"/>
		<stop  offset="1" style="stop-color:#88D6F5"/>
	</linearGradient>
	<circle style="fill:url(#SVGID_8_);" cx="36.6" cy="37.4" r="36.6"/>
	<linearGradient id="SVGID_9_" gradientUnits="userSpaceOnUse" x1="36.5788" y1="79.1076" x2="36.5788" y2="8.6738">
		<stop  offset="0" style="stop-color:#B2E0E4"/>
		<stop  offset="1" style="stop-color:#E6EEEE"/>
	</linearGradient>
	<circle style="fill:url(#SVGID_9_);" cx="36.6" cy="42" r="36.6"/>
	<linearGradient id="SVGID_10_" gradientUnits="userSpaceOnUse" x1="36.5788" y1="70.9243" x2="36.5788" y2="13.0078">
		<stop  offset="0.1348" style="stop-color:#E0F2F6"/>
		<stop  offset="0.2364" style="stop-color:#2A5A68"/>
		<stop  offset="1" style="stop-color:#06262F"/>
	</linearGradient>
	<path style="fill:url(#SVGID_10_);" d="M36.6,70.9c-16,0-29-13-29-29s13-29,29-29s29,13,29,29S52.5,70.9,36.6,70.9z"/>
	<linearGradient id="SVGID_11_" gradientUnits="userSpaceOnUse" x1="36.5788" y1="69.4001" x2="36.5788" y2="14.5319">
		<stop  offset="0" style="stop-color:#065B73"/>
		<stop  offset="0.1879" style="stop-color:#113D63"/>
		<stop  offset="1" style="stop-color:#009E98"/>
	</linearGradient>
	<path style="fill:url(#SVGID_11_);" d="M36.6,69.4C21.5,69.4,9.1,57.1,9.1,42s12.3-27.4,27.4-27.4S64,26.8,64,42
		S51.7,69.4,36.6,69.4z"/>
	<defs>
		<filter id="Adobe_OpacityMaskFilter_2_" filterUnits="userSpaceOnUse" x="10.7" y="16.1" width="51.8" height="51.8">
			<feFlood  style="flood-color:white;flood-opacity:1" result="back"/>
			<feBlend  in="SourceGraphic" in2="back" mode="normal"/>
		</filter>
	</defs>
	<mask maskUnits="userSpaceOnUse" x="10.7" y="16.1" width="51.8" height="51.8" id="SVGID_12_">
		<g style="filter:url(#Adobe_OpacityMaskFilter_2_);">
			<defs>
				<filter id="Adobe_OpacityMaskFilter_3_" filterUnits="userSpaceOnUse" x="10.7" y="16.1" width="51.8" height="51.8">
					<feFlood  style="flood-color:white;flood-opacity:1" result="back"/>
					<feBlend  in="SourceGraphic" in2="back" mode="normal"/>
				</filter>
			</defs>
			<mask maskUnits="userSpaceOnUse" x="10.7" y="16.1" width="51.8" height="51.8" id="SVGID_12_">
				<g style="filter:url(#Adobe_OpacityMaskFilter_3_);">
				</g>
			</mask>
			<linearGradient id="SVGID_13_" gradientUnits="userSpaceOnUse" x1="36.5788" y1="16.8181" x2="36.5788" y2="64.7062">
				<stop  offset="0" style="stop-color:#FFFFFF"/>
				<stop  offset="1" style="stop-color:#4D4D4D"/>
			</linearGradient>
			<path style="mask:url(#SVGID_12_);fill:url(#SVGID_13_);" d="M36.6,16.1c-14.3,0-25.9,11.6-25.9,25.9s11.6,25.9,25.9,25.9
				S62.5,56.3,62.5,42S50.9,16.1,36.6,16.1z M36.6,63.3c-11.8,0-21.3-9.6-21.3-21.3s9.6-21.3,21.3-21.3S57.9,30.2,57.9,42
				S48.3,63.3,36.6,63.3z"/>
		</g>
	</mask>
	<linearGradient id="SVGID_14_" gradientUnits="userSpaceOnUse" x1="36.5788" y1="16.8181" x2="36.5788" y2="64.7062">
		<stop  offset="0" style="stop-color:#FFFFFF"/>
		<stop  offset="1" style="stop-color:#FFFFFF"/>
	</linearGradient>
	<path style="fill:url(#SVGID_14_);" d="M36.6,16.1c-14.3,0-25.9,11.6-25.9,25.9s11.6,25.9,25.9,25.9S62.5,56.3,62.5,42
		S50.9,16.1,36.6,16.1z M36.6,63.3c-11.8,0-21.3-9.6-21.3-21.3s9.6-21.3,21.3-21.3S57.9,30.2,57.9,42S48.3,63.3,36.6,63.3z"/>
	<path style="fill:#FFFFFF;" d="M18.3,23.7l3.2,3.2c3.9-3.9,9.2-6.3,15.1-6.3c5.9,0,11.2,2.4,15.1,6.3l3.2-3.2
		c-4.7-4.7-11.2-7.6-18.3-7.6S23,19,18.3,23.7z"/>
</g>
<g>
	<path style="fill-rule:evenodd;clip-rule:evenodd;fill:#231F20;" d="M52.9,31.8C44.7,38,53.3,42.1,52,50.9
		c-0.8,3.2-2.5,5.1-5.5,6.4c-1.8,0.8-4.1,1.4-5.6,2.3c-1.3,0.7-2.6,1.6-3,2.9c-2-3.1-5.3-3.7-8.4-5c-3.1-1.3-4.8-3.3-5.6-6.6
		C22,43,31.4,38.2,23.3,31.7c2.5-0.7,3.4-2.7,3.5-5.5c7.7,5.1,14.9,4.1,22.4-0.1C49.5,27.7,49.3,30.8,52.9,31.8z"/>
	<path style="fill-rule:evenodd;clip-rule:evenodd;fill:#BBBDBF;" d="M27.5,27.7c0.1,1.1-1.6,4.1-2.7,4.4c6.6,6.4-1.6,11.6,0.2,18.8
		c1.7,7,7.7,6,11,8.3c1.8,1.2,1.8,2,2,2c0.2-0.5,1.3-1.9,2.2-2.4c3.4-1.9,9.2-1.1,10.8-7.9c1.7-7.1-6.5-12.3,0.2-18.8
		c-1.1-0.3-2.7-3.3-2.7-4.4C42.1,31.1,33.5,31.4,27.5,27.7z"/>
	<path style="fill-rule:evenodd;clip-rule:evenodd;fill:#E7E7E7;" d="M27.6,27.9c0.1,1.1-1.6,4.1-2.8,4.4c6.7,6.4-1.6,11.5,0.2,18.6
		c1.7,7,7.7,5.9,11.1,8.2c1.8,1.2,1.9,2,2,2c0-0.1,0.1-0.2,0.1-0.3l0-0.2c0.5-2.1,8.2-5.8,9.3-10.6c1.2-5.5-6.7-7.4-3.6-13.4
		c1.9-3.7,2.6-6.1,2.3-7.6C40.2,31.3,32.8,31.1,27.6,27.9z"/>
</g>
</svg>
