<?xml version="1.0" encoding="utf-8"?>
<!-- Generator: Adobe Illustrator 19.0.0, SVG Export Plug-In . SVG Version: 6.00 Build 0)  -->
<svg version="1.1" id="Layer_1" xmlns="http://www.w3.org/2000/svg" xmlns:xlink="http://www.w3.org/1999/xlink" x="0px" y="0px"
	 viewBox="0 0 69.7 77" style="enable-background:new 0 0 69.7 77;" xml:space="preserve">
<style type="text/css">
	.st0{fill:url(#SVGID_1_);}
	.st1{fill:url(#SVGID_2_);}
	.st2{fill:url(#SVGID_3_);}
	.st3{fill:url(#SVGID_4_);}
	.st4{filter:url(#Adobe_OpacityMaskFilter);}
	.st5{filter:url(#Adobe_OpacityMaskFilter_1_);}
	.st6{mask:url(#SVGID_5_);fill:url(#SVGID_6_);}
	.st7{fill:url(#SVGID_7_);}
	.st8{opacity:0.47;fill:#1B0C0D;}
	.st9{fill:#A64023;}
	.st10{fill:#7F2918;}
	.st11{fill:#DF6526;}
	.st12{opacity:0.59;fill:#7F2918;}
	.st13{fill:#CDCCCC;}
	.st14{fill:#FFFFFF;}
	.st15{fill:#ECECEC;}
	.st16{fill:#676767;}
	.st17{opacity:0.55;fill:#333333;}
	.st18{opacity:0.44;fill:#676767;}
	.st19{fill:#DBDBDA;}
	.st20{opacity:0.45;fill:#676767;}
	.st21{opacity:0.53;fill:#676767;}
	.st22{fill:#32332C;}
	.st23{opacity:0.42;fill:#CDCCCC;}
</style>
<g>
	<radialGradient id="SVGID_1_" cx="34.9202" cy="73.8552" r="38.9567" gradientUnits="userSpaceOnUse">
		<stop  offset="0" style="stop-color:#31557E"/>
		<stop  offset="0.5227" style="stop-color:#709FD4"/>
		<stop  offset="1" style="stop-color:#9BBDE4"/>
	</radialGradient>
	<path class="st0" d="M41,4.8C37.6,3,32,3,28.6,4.8L6.2,16.2C2.8,17.9,0,22.5,0,26.3v27.9c0,3.8,2.8,8.4,6.2,10.1l22.4,11.4
		c3.4,1.7,9,1.7,12.4,0l22.4-11.4c3.4-1.7,6.2-6.3,6.2-10.1V26.3c0-3.8-2.8-8.4-6.2-10.1L41,4.8z"/>
	<linearGradient id="SVGID_2_" gradientUnits="userSpaceOnUse" x1="34.8274" y1="2.0381" x2="34.8274" y2="72.5166">
		<stop  offset="0" style="stop-color:#FFFFFF"/>
		<stop  offset="0.6446" style="stop-color:#DCEBF8"/>
		<stop  offset="1" style="stop-color:#B6CFEC"/>
	</linearGradient>
	<path class="st1" d="M41,1.3c-3.4-1.7-9-1.7-12.4,0L6.2,12.7C2.8,14.5,0,19,0,22.8v27.9c0,3.8,2.8,8.4,6.2,10.1l22.4,11.4
		c3.4,1.7,9,1.7,12.4,0l22.4-11.4c3.4-1.7,6.2-6.3,6.2-10.1V22.8c0-3.8-2.8-8.4-6.2-10.1L41,1.3z"/>
	<linearGradient id="SVGID_3_" gradientUnits="userSpaceOnUse" x1="34.8274" y1="9.9391" x2="34.8274" y2="63.5793">
		<stop  offset="0" style="stop-color:#06262F"/>
		<stop  offset="0.7636" style="stop-color:#2A5A68"/>
		<stop  offset="0.8652" style="stop-color:#E0F2F6"/>
	</linearGradient>
	<path class="st2" d="M34.8,66.6c-1.5,0-2.6-0.3-3-0.5L9.4,54.6C8.3,54.1,7,51.9,7,50.7V22.8c0-1.2,1.3-3.4,2.4-3.9L31.8,7.5
		c0.5-0.3,1.6-0.5,3-0.5c1.5,0,2.6,0.3,3,0.5l22.4,11.4c1.1,0.5,2.4,2.7,2.4,3.9v27.9c0,1.2-1.3,3.4-2.4,3.9L37.9,66
		C37.4,66.3,36.3,66.6,34.8,66.6z"/>
	<linearGradient id="SVGID_4_" gradientUnits="userSpaceOnUse" x1="34.8274" y1="9.3974" x2="34.8274" y2="63.1368">
		<stop  offset="0" style="stop-color:#009E98"/>
		<stop  offset="0.8121" style="stop-color:#113D63"/>
		<stop  offset="1" style="stop-color:#065B73"/>
	</linearGradient>
	<path class="st3" d="M34.8,63.8c-1,0-1.7-0.2-1.8-0.3L10.7,52.2c-0.3-0.3-0.9-1.1-0.9-1.5V22.9c0.1-0.4,0.6-1.3,0.9-1.5L33,10
		c0.1-0.1,0.8-0.2,1.8-0.2c1,0,1.7,0.2,1.8,0.3L59,21.4c0.3,0.3,0.9,1.1,0.9,1.5v27.7c-0.1,0.4-0.6,1.3-0.9,1.5L36.6,63.6
		C36.5,63.6,35.8,63.8,34.8,63.8z"/>
	<defs>
		<filter id="Adobe_OpacityMaskFilter" filterUnits="userSpaceOnUse" x="11.1" y="11.1" width="47.4" height="21.1">
			<feFlood  style="flood-color:white;flood-opacity:1" result="back"/>
			<feBlend  in="SourceGraphic" in2="back" mode="normal"/>
		</filter>
	</defs>
	<mask maskUnits="userSpaceOnUse" x="11.1" y="11.1" width="47.4" height="21.1" id="SVGID_5_">
		<g class="st4">
			<defs>
				<filter id="Adobe_OpacityMaskFilter_1_" filterUnits="userSpaceOnUse" x="11.1" y="11.1" width="47.4" height="21.1">
					<feFlood  style="flood-color:white;flood-opacity:1" result="back"/>
					<feBlend  in="SourceGraphic" in2="back" mode="normal"/>
				</filter>
			</defs>
			<mask maskUnits="userSpaceOnUse" x="11.1" y="11.1" width="47.4" height="21.1" id="SVGID_5_">
				<g class="st5">
				</g>
			</mask>
			<linearGradient id="SVGID_6_" gradientUnits="userSpaceOnUse" x1="34.8274" y1="11.247" x2="34.8274" y2="32.5021">
				<stop  offset="0" style="stop-color:#FFFFFF"/>
				<stop  offset="1" style="stop-color:#000000"/>
			</linearGradient>
			<path class="st6" d="M36.1,11.3c-0.1,0-0.5-0.1-1.2-0.1c-0.7,0-1.1,0.1-1.2,0.1L11.5,22.5c-0.1,0.2-0.3,0.5-0.4,0.6v2.5
				c5.8,4.1,14.3,6.6,23.7,6.6s17.9-2.6,23.7-6.6v-2.4c-0.1-0.2-0.3-0.5-0.4-0.6L36.1,11.3z"/>
		</g>
	</mask>
	<linearGradient id="SVGID_7_" gradientUnits="userSpaceOnUse" x1="34.8274" y1="11.247" x2="34.8274" y2="32.5021">
		<stop  offset="0" style="stop-color:#FFFFFF"/>
		<stop  offset="1" style="stop-color:#FFFFFF"/>
	</linearGradient>
	<path class="st7" d="M36.1,11.3c-0.1,0-0.5-0.1-1.2-0.1c-0.7,0-1.1,0.1-1.2,0.1L11.5,22.5c-0.1,0.2-0.3,0.5-0.4,0.6v2.5
		c5.8,4.1,14.3,6.6,23.7,6.6s17.9-2.6,23.7-6.6v-2.4c-0.1-0.2-0.3-0.5-0.4-0.6L36.1,11.3z"/>
</g>
<g id="XMLID_42_">
	<path id="XMLID_128_" class="st8" d="M46.4,52.5c-0.1,0-0.3,0-0.4,0l-8.1-1.9c-0.4-0.1-0.8-0.4-1.1-0.8l-2-2.5l-2,2.5
		c-0.2,0.4-0.6,0.7-1.1,0.8l-8.1,1.9c-0.1,0-0.3,0-0.4,0c-0.2,0-0.5,0-0.7-0.1c-0.2-0.1-0.3-0.2-0.5-0.3c0,0,0,0,0,0
		c-0.4-0.4-0.6-0.9-0.6-1.5l0.6-7.4c0-0.4,0.2-0.9,0.6-1.2l4.4-4.5l-1.6-2c0,0,0-0.1-0.1-0.1c-0.2-0.3-0.4-0.4-0.7-0.4
		c-0.1,0-0.2,0-0.2,0c-0.2,0.1-0.3,0.1-0.5,0.1c-0.1,0-0.3,0-0.4-0.1l-3.5-0.9c-0.6-0.2-1.1-0.6-1.3-1.3c-0.2-0.6,0-1.3,0.5-1.7
		l2.1-2.2c0.3-0.3,0.4-0.9,0.1-1.3l-0.3-0.4c-0.1-0.1-0.1-0.2-0.2-0.3c0-0.1-0.1-0.2-0.2-0.2c0,0-0.1-0.1-0.1-0.1
		c-0.2-0.2-0.4-0.3-0.6-0.3c0,0-0.1,0-0.1,0c-0.1,0-0.1,0-0.2,0c-0.2,0-0.4,0-0.6-0.1c-0.6-0.2-1-0.7-1.1-1.3L17.9,24
		c-0.2-0.7,0.1-1.4,0.6-1.8l3.9-3.3c0.1-0.1,0.3-0.2,0.4-0.3c0.2-0.1,0.5-0.1,0.7-0.1c0.3,0,0.6,0.1,0.8,0.2l1.1,0.6
		c0.5,0.3,0.9,0.8,0.9,1.4c0,0.2,0,0.5-0.1,0.7c-0.1,0.4,0,0.8,0.3,1c0,0,0.1,0.1,0.1,0.1c0.2,0.2,0.4,0.2,0.6,0.2
		c0.2,0,0.4-0.1,0.6-0.3l1.7-1.7c0.2-0.2,0.3-0.3,0.6-0.4c0.2-0.1,0.4-0.1,0.7-0.1c0.1,0,0.2,0,0.4,0c0.6,0.1,1,0.5,1.3,1.1l1.4,3.4
		c0.3,0.7,0.1,1.5-0.4,2c0,0-0.1,0.1-0.1,0.1c-0.3,0.4-0.3,1,0.1,1.3l1.6,1.6l1.6-1.6c0.4-0.4,0.4-1,0.1-1.4c0,0-0.1-0.1-0.1-0.1
		c-0.5-0.5-0.7-1.3-0.4-2l1.4-3.4c0.2-0.6,0.7-1,1.3-1.1c0.1,0,0.2,0,0.4,0c0.2,0,0.5,0,0.7,0.1c0.2,0.1,0.4,0.2,0.6,0.4l1.7,1.7
		c0.2,0.2,0.4,0.3,0.6,0.3c0.2,0,0.4-0.1,0.6-0.2c0,0,0.1-0.1,0.1-0.1c0.3-0.3,0.4-0.7,0.3-1c-0.1-0.2-0.1-0.5-0.1-0.7
		c0.1-0.6,0.4-1.1,0.9-1.4l1.1-0.6c0.2-0.1,0.5-0.2,0.8-0.2c0.2,0,0.5,0,0.7,0.1c0.2,0.1,0.3,0.1,0.4,0.3l3.9,3.3
		c0.5,0.4,0.8,1.2,0.6,1.8l-0.3,1.2c-0.1,0.6-0.6,1.1-1.1,1.3c-0.2,0.1-0.4,0.1-0.6,0.1c-0.1,0-0.1,0-0.2,0c0,0-0.1,0-0.1,0
		c-0.2,0-0.5,0.1-0.6,0.3c0,0,0,0.1-0.1,0.1c-0.1,0.1-0.1,0.2-0.2,0.2c0,0.1-0.1,0.2-0.2,0.3l-0.3,0.4c-0.3,0.4-0.2,0.9,0.1,1.3
		l2.1,2.2c0.4,0.5,0.6,1.1,0.5,1.7c-0.2,0.6-0.6,1.1-1.3,1.3l-3.5,0.9c-0.1,0-0.3,0.1-0.4,0.1c-0.2,0-0.3,0-0.5-0.1
		c-0.1,0-0.2,0-0.2,0c-0.3,0-0.6,0.2-0.7,0.4c0,0,0,0.1-0.1,0.1l-1.6,2l4.4,4.5c0.3,0.3,0.5,0.7,0.5,1.1l0.6,7.4
		c0,0.6-0.2,1.1-0.6,1.5c0,0,0,0,0,0c-0.1,0.1-0.3,0.2-0.5,0.3C46.9,52.5,46.6,52.5,46.4,52.5z"/>
	<g id="XMLID_43_">
		<g id="XMLID_86_">
			<path id="XMLID_127_" class="st8" d="M46.4,51.3c0.1,0,0.3,0,0.4-0.1c0.1,0,0.2-0.1,0.3-0.2c0.2-0.2,0.4-0.5,0.3-0.9l-0.6-7.4
				c0-0.3-0.1-0.5-0.3-0.7L32.7,28.3c-0.6-0.6-0.7-1.7-0.2-2.4c0-0.1,0.1-0.1,0.1-0.2c0.3-0.3,0.4-0.8,0.2-1.2l-1.4-3.4
				c-0.1-0.3-0.4-0.5-0.7-0.6c-0.1,0-0.1,0-0.2,0c-0.1,0-0.3,0-0.4,0.1c-0.1,0.1-0.2,0.1-0.3,0.2l-1.7,1.7C28,22.8,27.6,23,27.2,23
				c-0.4,0-0.8-0.2-1.1-0.5c0,0-0.1-0.1-0.1-0.1c-0.5-0.4-0.7-1.2-0.5-1.8c0-0.1,0.1-0.3,0-0.4c0-0.3-0.2-0.7-0.5-0.8L24,18.9
				c-0.1-0.1-0.3-0.1-0.4-0.1c-0.1,0-0.3,0-0.4,0.1c0,0,0,0,0,0c-0.1,0-0.1,0.1-0.2,0.1L19,22.2c-0.3,0.3-0.4,0.7-0.3,1.1l0.3,1.2
				c0.1,0.3,0.3,0.6,0.6,0.7c0.1,0,0.2,0.1,0.3,0.1c0,0,0.1,0,0.1,0c0.1,0,0.1,0,0.2,0c0.5,0,0.9,0.2,1.2,0.6c0,0,0,0,0.1,0.1
				c0.1,0.1,0.2,0.3,0.3,0.4c0,0.1,0.1,0.1,0.1,0.2l0.3,0.4c0.5,0.7,0.4,1.6-0.2,2.2l-2.1,2.2c-0.3,0.3-0.4,0.6-0.3,1
				c0.1,0.4,0.4,0.6,0.7,0.7l3.5,0.9c0.1,0,0.2,0,0.2,0c0.1,0,0.2,0,0.3,0c0.2,0,0.3-0.1,0.5-0.1c0.6,0,1.1,0.3,1.4,0.8l11.3,14.2
				c0.1,0.2,0.4,0.4,0.6,0.5l8.1,1.9C46.3,51.3,46.3,51.3,46.4,51.3z"/>
			<path id="XMLID_126_" class="st8" d="M46.7,51.1c0.1,0,0.2-0.1,0.2-0.2c0.2-0.2,0.3-0.5,0.3-0.8l-0.6-7.4c0-0.2-0.1-0.4-0.3-0.6
				L31.2,27l1.4-1.4c0.3-0.3,0.3-0.7,0.2-1l-1.4-3.4c-0.1-0.3-0.3-0.5-0.6-0.5c-0.2,0-0.4,0-0.5,0.1c-0.1,0-0.2,0.1-0.3,0.2l-3,3
				c0,0-0.1-0.1-0.1-0.1c0-0.1-0.1-0.3-0.2-0.4L26,22.6c-0.1-0.1-0.2-0.2-0.4-0.3c0-0.1-0.1-0.3-0.2-0.4l-0.6-0.7l0.3-0.2
				c0.2-0.2,0.4-0.5,0.3-0.8c0-0.3-0.2-0.6-0.5-0.7L23.9,19c-0.2-0.1-0.5-0.1-0.7,0C23.1,19,23,19,23,19.1l-3.9,3.3
				c-0.3,0.2-0.4,0.6-0.3,0.9l0.3,1.2c0.1,0.3,0.3,0.5,0.6,0.6c0.2,0.1,0.4,0.1,0.6,0c0.1,0,0.1-0.1,0.2-0.1l0.3-0.3l0.7,1
				c0.1,0.1,0.2,0.2,0.3,0.3c0,0.2,0.1,0.3,0.2,0.4l0.6,0.9c0.1,0.1,0.2,0.2,0.3,0.3c0,0.1,0.1,0.3,0.2,0.4l0,0.1l-3.2,3.3
				c-0.2,0.2-0.3,0.6-0.2,0.9c0.1,0.3,0.3,0.6,0.6,0.6l3.5,0.9c0.2,0,0.4,0,0.5,0c0.1,0,0.2-0.1,0.2-0.2l0.7-0.6l12.3,15.9
				c0.1,0.2,0.3,0.4,0.5,0.4l8.1,1.9C46.4,51.2,46.6,51.2,46.7,51.1z"/>
			<g id="XMLID_87_">
				<g id="XMLID_111_">
					<path id="XMLID_125_" class="st9" d="M23.2,20.9l0.3,0.3c-0.1,0.3,0.2,0.7,0.5,0.6l0.8,0.9c-0.3,0.3,0.1,0.9,0.5,0.7
						c0,0,0.1,0,0.1-0.1l0.7,0.8c-0.1,0.1-0.1,0.3-0.1,0.4l0,0c0.1,0.3,0.4,0.3,0.6,0.2l1.3,1.5l-2.7,3.4l-1.5-2.2
						c0.2-0.1,0.3-0.3,0.2-0.6l0,0c-0.1-0.4-0.5-0.3-0.7-0.1l-0.6-0.9c0.5-0.3,0.1-1-0.4-0.8c-0.1,0-0.1,0.1-0.1,0.1l-1.4-2.1
						L23.2,20.9z"/>
					<g id="XMLID_115_">
						<path id="XMLID_120_" class="st10" d="M21.7,24.2l0.5,0.8c0.1-0.3,0.3-0.7,0.4-1.1c0.3-0.8,0.4-1.6,0.6-2.5l-0.2-0.2l-0.7,0.6
							c-0.1,0.5-0.3,1-0.4,1.5C21.9,23.7,21.8,24,21.7,24.2z M23.5,24.3c-0.2,0.5-0.4,1.1-0.6,1.6l0.5,0.7c0.4-1.2,0.8-2.4,1.2-3.7
							L24,22.3C23.8,22.9,23.7,23.6,23.5,24.3z M25.2,23.7c-0.4,1.3-0.8,2.5-1.2,3.8l0.5,0.7c0.5-1.2,0.9-2.6,1.4-3.9L25.2,23.7z
							 M25.1,29l0.2,0.3l2.3-3l-1.1-1.2C26.1,26.5,25.7,27.8,25.1,29z"/>
						<path id="XMLID_119_" class="st11" d="M24.6,23.5c0,0,0.4-0.1,0.2,0.7c-0.2,0.8-1.2,3.3-1.2,2.7
							C23.7,26.1,24.6,23.5,24.6,23.5z"/>
						<path id="XMLID_118_" class="st11" d="M23.5,22c0,0,0.4-0.1,0.2,0.7c-0.2,0.8-1,3-1,2.3C22.7,24.3,23.5,22,23.5,22z"/>
						<path id="XMLID_117_" class="st11" d="M26,24.8c0,0,0.4-0.1,0.2,0.7c-0.2,0.8-1.2,3.3-1.1,2.7C25.1,27.5,26,24.8,26,24.8z"/>
						<path id="XMLID_116_" class="st11" d="M22,22.1c0,0,0.2-0.1,0.1,0.4c-0.1,0.5-0.7,1.9-0.7,1.5C21.4,23.7,22,22.1,22,22.1z"/>
					</g>
					<path id="XMLID_112_" class="st12" d="M20.6,23.1l0.6,0.8c0.7-0.8,1.6-1.6,2.4-2.2c-0.2-0.1-0.3-0.3-0.2-0.6l-0.3-0.3
						L20.6,23.1z M24,28l1.3,1.8l2.7-3.4l-1.3-1.5C26.2,25.4,24.5,27.6,24,28z"/>
				</g>
				<g id="XMLID_100_">
					<polygon id="XMLID_110_" class="st13" points="29.8,27 45.7,43 46.3,50.3 38.8,47.4 25.6,31.3 					"/>
					<path id="XMLID_109_" class="st14" d="M45.5,43.8c-0.5-1.3-10.1-10.7-11-11.6c-1.6-1.6-3.4-3.1-5-4.8c0,0,0,0-0.1,0l0.3-0.3
						L45.7,43l0.2,1.8C45.8,44.5,45.6,44.1,45.5,43.8z"/>
					<path id="XMLID_108_" class="st15" d="M28.7,28.1c3.4,4,14.1,17.3,16.8,22l-7-2.6L26,31.1L28.7,28.1z"/>
					<path id="XMLID_107_" class="st16" d="M27.7,29.2c2,2.2,11.3,13.1,13.2,15.3c1.6,1.9,3.7,4,5.4,5.8l-8.1-1.9L25.1,31.3
						L27.7,29.2z"/>
					<g id="XMLID_104_">
						<path id="XMLID_106_" class="st17" d="M38.2,48.4c0,0,0.2-1.9-1.5-3.8c-1.7-2-11.3-12.9-11.3-12.9L38.2,48.4z"/>
						<path id="XMLID_105_" class="st18" d="M37.9,47.8c0,0-8.2-10.2-9.3-11.4c-0.4-0.5-1.2-1.6-1.2-1.6L37.9,47.8z"/>
					</g>
					<path id="XMLID_103_" class="st19" d="M45.3,49.2c0,0,0,0-0.1-0.1c-0.4-0.5-2.5-3-3.5-4.1c-1.1-1.2-13.5-15.4-13.5-15.4
						s12.6,16,13.9,16.8C43.3,47.1,45.3,49.2,45.3,49.2z"/>
					<path id="XMLID_102_" class="st20" d="M28.1,31.2c-0.7,0.7-1,1.1-1.7,2.1l-1.3-2l4.6-4.3l0,0C29.8,28.7,29.2,30.1,28.1,31.2z"
						/>
					<path id="XMLID_101_" class="st16" d="M43.6,49c0.6,0.2,1.3,0.4,1.9,0.7c0,0,0.1,0,0.1,0.1c0.2,0.2,0.5,0.5,0.7,0.7l-8.2-2.1
						C38.3,48.3,43.2,48.9,43.6,49z"/>
				</g>
				<polygon id="XMLID_99_" class="st16" points="30.6,21.6 32,25.1 23.9,33 20.4,32.1 				"/>
				<g id="XMLID_94_">
					<polygon id="XMLID_98_" class="st16" points="20.9,32.1 20.5,32 30.6,21.7 30.6,21.7 					"/>
					<path id="XMLID_97_" class="st21" d="M22.4,32.1c-0.3-0.1-0.7-0.3-1-0.4c1.6-1.5,3.1-3.2,4.8-4.7c0.1,1,0.1,2,0.2,3.1
						c-0.9,0.9-1.7,1.8-2.6,2.7C23.4,32.5,22.9,32.3,22.4,32.1z"/>
					<path id="XMLID_96_" class="st13" d="M27,26.2c0.6-0.6,1.3-1.1,2-1.7c0.6-0.5,1.1-1.1,1.6-1.6c0.2,0.7,0.4,1.5,0.6,2.2
						c-0.7,0.6-1.4,1.3-2,2.1c-0.7,0.8-1.4,1.6-2.1,2.3c0-0.3,0-0.6,0-0.9C27.1,27.7,27.1,27,27,26.2z"/>
					<path id="XMLID_95_" class="st14" d="M28.2,27c-0.4,0.3-0.7,0.7-1.1,1c0-0.6,0-1.2-0.1-1.8c0.6-0.6,1.3-1.1,2-1.7
						c0.6-0.5,1.1-1.1,1.6-1.6c0,0.2,0.1,0.4,0.1,0.6C30.1,24.7,29.2,26,28.2,27z"/>
				</g>
				<path id="XMLID_93_" class="st10" d="M23.5,21.6c-0.7,0.3-1.3,0.9-1.8,1.4c-0.2,0.2-0.4,0.4-0.5,0.6l-0.1,0.1c0,0,0,0,0,0
					c-0.1-0.2-0.3-0.4-0.5-0.7c0,0,0,0,0,0l2.6-2.2c0,0,0,0.1,0,0.1c0,0.1,0.2,0.2,0.2,0.3C23.4,21.3,23.4,21.4,23.5,21.6z"/>
				<g id="XMLID_88_">
					<polygon id="XMLID_92_" class="st16" points="23.4,19.9 24.5,20.4 19.8,24.3 19.6,23.1 					"/>
					<path id="XMLID_91_" class="st22" d="M21.2,23.1l-0.9,0.7c0-0.1,0-0.1,0-0.2c-0.1-0.3-0.1-0.7-0.2-1l0.9-0.7L21.2,23.1z"/>
					<path id="XMLID_90_" class="st23" d="M21.3,21.7l1.5-1.3c0.2,0.1,0.4,0.2,0.5,0.4c0.1,0.1,0.3,0.2,0.4,0.3L21.5,23
						C21.5,22.8,21.4,21.9,21.3,21.7z"/>
					<path id="XMLID_89_" class="st13" d="M21.6,21.8l0.9-0.8c0.1,0.1,0.2,0.1,0.3,0.2c0.1,0.1,0.2,0.1,0.3,0.2l-1.4,1.2
						C21.7,22.4,21.6,21.9,21.6,21.8z"/>
				</g>
			</g>
		</g>
		<g id="XMLID_44_">
			<path id="XMLID_85_" class="st8" d="M23.3,51.3c-0.1,0-0.3,0-0.4-0.1c-0.1,0-0.2-0.1-0.3-0.2c-0.2-0.2-0.4-0.5-0.3-0.9l0.6-7.4
				c0-0.3,0.1-0.5,0.3-0.7l13.7-13.8c0.6-0.6,0.7-1.7,0.2-2.4c0-0.1-0.1-0.1-0.1-0.2c-0.3-0.3-0.4-0.8-0.2-1.2l1.4-3.4
				c0.1-0.3,0.4-0.5,0.7-0.6c0.1,0,0.1,0,0.2,0c0.1,0,0.3,0,0.4,0.1c0.1,0.1,0.2,0.1,0.3,0.2l1.7,1.7c0.3,0.3,0.7,0.5,1.1,0.5
				c0.4,0,0.8-0.2,1.1-0.5c0,0,0.1-0.1,0.1-0.1c0.5-0.4,0.7-1.2,0.5-1.8c0-0.1-0.1-0.3,0-0.4c0-0.3,0.2-0.7,0.5-0.8l1.1-0.6
				c0.1-0.1,0.3-0.1,0.4-0.1c0.1,0,0.3,0,0.4,0.1c0,0,0,0,0,0c0.1,0,0.1,0.1,0.2,0.1l3.9,3.3c0.3,0.3,0.4,0.7,0.3,1.1l-0.3,1.2
				c-0.1,0.3-0.3,0.6-0.6,0.7c-0.1,0-0.2,0.1-0.3,0.1c0,0-0.1,0-0.1,0c-0.1,0-0.1,0-0.2,0c-0.5,0-0.9,0.2-1.2,0.6c0,0,0,0-0.1,0.1
				c-0.1,0.1-0.2,0.3-0.3,0.4c0,0.1-0.1,0.1-0.1,0.2l-0.3,0.4c-0.5,0.7-0.4,1.6,0.2,2.2l2.1,2.2c0.3,0.3,0.4,0.6,0.3,1
				c-0.1,0.4-0.4,0.6-0.7,0.7l-3.5,0.9c-0.1,0-0.2,0-0.2,0c-0.1,0-0.2,0-0.3,0c-0.2,0-0.3-0.1-0.5-0.1c-0.6,0-1.1,0.3-1.4,0.8
				L32.2,48.9c-0.1,0.2-0.4,0.4-0.6,0.5l-8.1,1.9C23.4,51.3,23.3,51.3,23.3,51.3z"/>
			<path id="XMLID_84_" class="st8" d="M22.9,51.1c-0.1,0-0.2-0.1-0.2-0.2c-0.2-0.2-0.3-0.5-0.3-0.8l0.6-7.4c0-0.2,0.1-0.4,0.3-0.6
				L38.4,27L37,25.7c-0.3-0.3-0.3-0.7-0.2-1l1.4-3.4c0.1-0.3,0.3-0.5,0.6-0.5c0.2,0,0.4,0,0.5,0.1c0.1,0,0.2,0.1,0.3,0.2l3,3
				c0,0,0.1-0.1,0.1-0.1c0-0.1,0.1-0.3,0.2-0.4l0.7-0.8c0.1-0.1,0.2-0.2,0.4-0.3c0-0.1,0.1-0.3,0.2-0.4l0.6-0.7l-0.3-0.2
				c-0.2-0.2-0.4-0.5-0.3-0.8c0-0.3,0.2-0.6,0.5-0.7l1.1-0.6c0.2-0.1,0.5-0.1,0.7,0c0.1,0,0.1,0.1,0.2,0.1l3.9,3.3
				c0.3,0.2,0.4,0.6,0.3,0.9l-0.3,1.2c-0.1,0.3-0.3,0.5-0.6,0.6c-0.2,0.1-0.4,0.1-0.6,0c-0.1,0-0.1-0.1-0.2-0.1l-0.3-0.3l-0.7,1
				c-0.1,0.1-0.2,0.2-0.3,0.3c0,0.2-0.1,0.3-0.2,0.4l-0.6,0.9c-0.1,0.1-0.2,0.2-0.3,0.3c0,0.1-0.1,0.3-0.2,0.4l0,0.1l3.2,3.3
				c0.2,0.2,0.3,0.6,0.2,0.9c-0.1,0.3-0.3,0.6-0.6,0.6l-3.5,0.9c-0.2,0-0.4,0-0.5,0c-0.1,0-0.2-0.1-0.2-0.2l-0.7-0.6L32.1,48.8
				c-0.1,0.2-0.3,0.4-0.5,0.4l-8.1,1.9C23.3,51.2,23.1,51.2,22.9,51.1z"/>
			<g id="XMLID_45_">
				<g id="XMLID_69_">
					<path id="XMLID_83_" class="st9" d="M46.5,20.9l-0.3,0.3c0.1,0.3-0.2,0.7-0.5,0.6l-0.8,0.9c0.3,0.3-0.1,0.9-0.5,0.7
						c0,0-0.1,0-0.1-0.1l-0.7,0.8c0.1,0.1,0.1,0.3,0.1,0.4l0,0c-0.1,0.3-0.4,0.3-0.6,0.2l-1.3,1.5l2.7,3.4l1.5-2.2
						c-0.2-0.1-0.3-0.3-0.2-0.6l0,0c0.1-0.4,0.5-0.3,0.7-0.1l0.6-0.9c-0.5-0.3-0.1-1,0.4-0.8c0.1,0,0.1,0.1,0.1,0.1l1.4-2.1
						L46.5,20.9z"/>
					<g id="XMLID_73_">
						<path id="XMLID_78_" class="st10" d="M47.6,23.4c-0.1-0.5-0.3-1-0.4-1.5l-0.7-0.6l-0.2,0.2c0.2,0.8,0.3,1.7,0.6,2.5
							c0.1,0.4,0.3,0.7,0.4,1.1l0.5-0.8C47.8,24,47.7,23.7,47.6,23.4z M45.7,22.3l-0.6,0.6c0.4,1.2,0.8,2.4,1.2,3.7l0.5-0.7
							c-0.2-0.5-0.4-1.1-0.6-1.6C46,23.6,45.8,22.9,45.7,22.3z M43.8,24.4c0.4,1.3,0.8,2.6,1.4,3.9l0.5-0.7
							c-0.4-1.3-0.8-2.5-1.2-3.8L43.8,24.4z M43.1,25.1L42,26.4l2.3,3l0.2-0.3C44,27.8,43.6,26.5,43.1,25.1z"/>
						<path id="XMLID_77_" class="st11" d="M45,23.5c0,0-0.4-0.1-0.2,0.7C45,25,46,27.5,46,26.8C45.9,26.1,45,23.5,45,23.5z"/>
						<path id="XMLID_76_" class="st11" d="M46.2,22c0,0-0.4-0.1-0.2,0.7c0.2,0.8,1,3,1,2.3C46.9,24.3,46.2,22,46.2,22z"/>
						<path id="XMLID_75_" class="st11" d="M43.7,24.8c0,0-0.4-0.1-0.2,0.7c0.2,0.8,1.2,3.3,1.1,2.7C44.6,27.5,43.7,24.8,43.7,24.8z
							"/>
						<path id="XMLID_74_" class="st11" d="M47.7,22.1c0,0-0.2-0.1-0.1,0.4c0.1,0.5,0.7,1.9,0.7,1.5C48.2,23.7,47.7,22.1,47.7,22.1z
							"/>
					</g>
					<path id="XMLID_70_" class="st12" d="M46.5,20.9l-0.3,0.3c0.1,0.2,0,0.5-0.2,0.6c0.8,0.6,1.7,1.3,2.4,2.2l0.6-0.8L46.5,20.9z
						 M43,24.9l-1.3,1.5l2.7,3.4l1.3-1.8C45.2,27.6,43.4,25.4,43,24.9z"/>
				</g>
				<g id="XMLID_58_">
					<polygon id="XMLID_68_" class="st13" points="39.9,27 24,43 23.3,50.3 30.9,47.4 44,31.3 					"/>
					<path id="XMLID_67_" class="st14" d="M24.1,43.8c0.5-1.3,10.1-10.7,11-11.6c1.6-1.6,3.4-3.1,5-4.8c0,0,0,0,0.1,0l-0.3-0.3
						L23.9,43l-0.2,1.8C23.9,44.5,24,44.1,24.1,43.8z"/>
					<path id="XMLID_66_" class="st15" d="M40.9,28.1c-3.4,4-14.1,17.3-16.8,22l7-2.6l12.5-16.5L40.9,28.1z"/>
					<path id="XMLID_65_" class="st16" d="M41.9,29.2c-2,2.2-11.3,13.1-13.2,15.3c-1.6,1.9-3.7,4-5.4,5.8l8.1-1.9l13.1-17.1
						L41.9,29.2z"/>
					<g id="XMLID_62_">
						<path id="XMLID_64_" class="st17" d="M31.4,48.4c0,0-0.2-1.9,1.5-3.8c1.7-2,11.3-12.9,11.3-12.9L31.4,48.4z"/>
						<path id="XMLID_63_" class="st18" d="M31.8,47.8c0,0,8.2-10.2,9.3-11.4c0.4-0.5,1.2-1.6,1.2-1.6L31.8,47.8z"/>
					</g>
					<path id="XMLID_61_" class="st19" d="M24.4,49.2c0,0,0,0,0.1-0.1c0.4-0.5,2.5-3,3.5-4.1c1.1-1.2,13.5-15.4,13.5-15.4
						s-12.6,16-13.9,16.8C26.3,47.1,24.4,49.2,24.4,49.2z"/>
					<path id="XMLID_60_" class="st20" d="M41.6,31.2c0.7,0.7,1,1.1,1.7,2.1l1.3-2L39.9,27l0,0C39.9,28.7,40.5,30.1,41.6,31.2z"/>
					<path id="XMLID_59_" class="st16" d="M26.1,49c-0.6,0.2-1.3,0.4-1.9,0.7c0,0-0.1,0-0.1,0.1c-0.2,0.2-0.5,0.5-0.7,0.7l8.2-2.1
						C31.4,48.3,26.4,48.9,26.1,49z"/>
				</g>
				<polygon id="XMLID_57_" class="st16" points="39.1,21.6 37.7,25.1 45.7,33 49.2,32.1 				"/>
				<g id="XMLID_52_">
					<polygon id="XMLID_56_" class="st16" points="48.7,32.1 49.1,32 39.1,21.7 39.1,21.7 					"/>
					<path id="XMLID_55_" class="st21" d="M47.2,32.1c0.3-0.1,0.7-0.3,1-0.4c-1.6-1.5-3.1-3.2-4.8-4.7c-0.1,1-0.1,2-0.2,3.1
						c0.9,0.9,1.7,1.8,2.6,2.7C46.3,32.5,46.7,32.3,47.2,32.1z"/>
					<path id="XMLID_54_" class="st13" d="M42.6,26.2c-0.6-0.6-1.3-1.1-2-1.7c-0.6-0.5-1.1-1.1-1.6-1.6c-0.2,0.7-0.4,1.5-0.6,2.2
						c0.7,0.6,1.4,1.3,2,2.1c0.7,0.8,1.4,1.6,2.1,2.3c0-0.3,0-0.6,0-0.9C42.5,27.7,42.6,27,42.6,26.2z"/>
					<path id="XMLID_53_" class="st14" d="M41.4,27c0.4,0.3,0.7,0.7,1.1,1c0-0.6,0-1.2,0.1-1.8c-0.6-0.6-1.3-1.1-2-1.7
						c-0.6-0.5-1.1-1.1-1.6-1.6c0,0.2-0.1,0.4-0.1,0.6C39.5,24.7,40.4,26,41.4,27z"/>
				</g>
				<path id="XMLID_51_" class="st10" d="M46.2,21.6c0.7,0.3,1.3,0.9,1.8,1.4c0.2,0.2,0.4,0.4,0.5,0.6l0.1,0.1c0,0,0,0,0,0
					c0.1-0.2,0.3-0.4,0.5-0.7c0,0,0,0,0,0l-2.6-2.2c0,0,0,0.1,0,0.1c0,0.1-0.2,0.2-0.2,0.3C46.2,21.3,46.2,21.4,46.2,21.6z"/>
				<g id="XMLID_46_">
					<polygon id="XMLID_50_" class="st16" points="46.2,19.9 45.1,20.4 49.8,24.3 50.1,23.1 					"/>
					<path id="XMLID_49_" class="st22" d="M48.4,23.1l0.9,0.7c0-0.1,0-0.1,0-0.2c0.1-0.3,0.1-0.7,0.2-1l-0.9-0.7L48.4,23.1z"/>
					<path id="XMLID_48_" class="st23" d="M48.3,21.7l-1.5-1.3c-0.2,0.1-0.4,0.2-0.5,0.4c-0.1,0.1-0.3,0.2-0.4,0.3l2.3,1.9
						C48.2,22.8,48.3,21.9,48.3,21.7z"/>
					<path id="XMLID_47_" class="st13" d="M48.1,21.8L47.2,21c-0.1,0.1-0.2,0.1-0.3,0.2c-0.1,0.1-0.2,0.1-0.3,0.2l1.4,1.2
						C48,22.4,48.1,21.9,48.1,21.8z"/>
				</g>
			</g>
		</g>
	</g>
</g>
</svg>
