<?xml version="1.0" encoding="utf-8"?>
<!-- Generator: Adobe Illustrator 18.1.1, SVG Export Plug-In . SVG Version: 6.00 Build 0)  -->
<svg version="1.1" xmlns="http://www.w3.org/2000/svg" xmlns:xlink="http://www.w3.org/1999/xlink" x="0px" y="0px"
	 viewBox="0 0 90.3 100" style="enable-background:new 0 0 90.3 100;" xml:space="preserve">
<g id="Layer_1">
	<g>
		<g>
			<radialGradient id="SVGID_1_" cx="45.2557" cy="95.7261" r="50.4868" gradientUnits="userSpaceOnUse">
				<stop  offset="0" style="stop-color:#31557E"/>
				<stop  offset="0.5227" style="stop-color:#709FD4"/>
				<stop  offset="1" style="stop-color:#9BBDE4"/>
			</radialGradient>
			<path style="fill:url(#SVGID_1_);" d="M53.2,6.2c-4.4-2.3-11.7-2.3-16.1,0L8,21c-4.4,2.3-8,8.2-8,13.1v36.1c0,5,3.6,10.9,8,13.1
				l29,14.8c4.4,2.3,11.7,2.3,16.1,0l29-14.8c4.4-2.3,8-8.2,8-13.1V34.1c0-5-3.6-10.9-8-13.1L53.2,6.2z"/>
			<linearGradient id="SVGID_2_" gradientUnits="userSpaceOnUse" x1="45.1353" y1="2.653" x2="45.1353" y2="93.9914">
				<stop  offset="0" style="stop-color:#FFFFFF"/>
				<stop  offset="0.6446" style="stop-color:#DCEBF8"/>
				<stop  offset="1" style="stop-color:#B6CFEC"/>
			</linearGradient>
			<path style="fill:url(#SVGID_2_);" d="M53.2,1.7c-4.4-2.3-11.7-2.3-16.1,0L8,16.5c-4.4,2.3-8,8.2-8,13.1v36.1
				c0,5,3.6,10.9,8,13.1l29,14.8c4.4,2.3,11.7,2.3,16.1,0l29-14.8c4.4-2.3,8-8.2,8-13.1V29.6c0-5-3.6-10.9-8-13.1L53.2,1.7z"/>
			<linearGradient id="SVGID_3_" gradientUnits="userSpaceOnUse" x1="45.1353" y1="12.8926" x2="45.1353" y2="82.4088">
				<stop  offset="0" style="stop-color:#06262F"/>
				<stop  offset="0.7636" style="stop-color:#2A5A68"/>
				<stop  offset="0.8652" style="stop-color:#E0F2F6"/>
			</linearGradient>
			<path style="fill:url(#SVGID_3_);" d="M45.1,86.3c-1.9,0-3.3-0.4-3.9-0.7l-29-14.8C10.7,70.1,9,67.3,9,65.7V29.6
				c0-1.6,1.7-4.4,3.1-5.1l29-14.8C41.8,9.4,43.2,9,45.1,9c1.9,0,3.3,0.4,3.9,0.7l29,14.8c1.4,0.7,3.1,3.5,3.1,5.1v36.1
				c0,1.6-1.7,4.4-3.1,5.1l-29,14.8C48.4,85.9,47,86.3,45.1,86.3z"/>
			<linearGradient id="SVGID_4_" gradientUnits="userSpaceOnUse" x1="45.1353" y1="12.1905" x2="45.1353" y2="81.8354">
				<stop  offset="0" style="stop-color:#009E98"/>
				<stop  offset="0.8121" style="stop-color:#113D63"/>
				<stop  offset="1" style="stop-color:#065B73"/>
			</linearGradient>
			<path style="fill:url(#SVGID_4_);" d="M45.1,82.7c-1.3,0-2.1-0.2-2.3-0.3L13.9,67.6c-0.4-0.4-1.1-1.5-1.2-2V29.7
				c0.1-0.5,0.8-1.7,1.2-2l29-14.8c0.2-0.1,1-0.3,2.3-0.3c1.3,0,2.1,0.2,2.3,0.3l28.9,14.7c0.4,0.3,1.1,1.5,1.2,2v35.9
				c-0.1,0.5-0.8,1.7-1.2,2l-29,14.8C47.3,82.5,46.4,82.7,45.1,82.7z"/>
			<defs>
				<filter id="Adobe_OpacityMaskFilter" filterUnits="userSpaceOnUse" x="14.4" y="14.4" width="61.4" height="27.3">
					<feFlood  style="flood-color:white;flood-opacity:1" result="back"/>
					<feBlend  in="SourceGraphic" in2="back" mode="normal"/>
				</filter>
			</defs>
			<mask maskUnits="userSpaceOnUse" x="14.4" y="14.4" width="61.4" height="27.3" id="SVGID_5_">
				<g style="filter:url(#Adobe_OpacityMaskFilter);">
					<defs>
						<filter id="Adobe_OpacityMaskFilter_1_" filterUnits="userSpaceOnUse" x="14.4" y="14.4" width="61.4" height="27.3">
							<feFlood  style="flood-color:white;flood-opacity:1" result="back"/>
							<feBlend  in="SourceGraphic" in2="back" mode="normal"/>
						</filter>
					</defs>
					<mask maskUnits="userSpaceOnUse" x="14.4" y="14.4" width="61.4" height="27.3" id="SVGID_5_">
						<g style="filter:url(#Adobe_OpacityMaskFilter_1_);">
						</g>
					</mask>
					<linearGradient id="SVGID_6_" gradientUnits="userSpaceOnUse" x1="45.1353" y1="14.5876" x2="45.1353" y2="42.1335">
						<stop  offset="0" style="stop-color:#FFFFFF"/>
						<stop  offset="1" style="stop-color:#000000"/>
					</linearGradient>
					<path style="mask:url(#SVGID_5_);fill:url(#SVGID_6_);" d="M46.8,14.6c-0.2,0-0.7-0.2-1.6-0.2c-0.9,0-1.5,0.1-1.6,0.2L15,29.2
						c-0.2,0.2-0.4,0.6-0.5,0.8v3.2c7.5,5.2,18.5,8.6,30.7,8.6s23.2-3.3,30.7-8.6V30c-0.1-0.2-0.3-0.6-0.5-0.8L46.8,14.6z"/>
				</g>
			</mask>
			<linearGradient id="SVGID_7_" gradientUnits="userSpaceOnUse" x1="45.1353" y1="14.5876" x2="45.1353" y2="42.1335">
				<stop  offset="0" style="stop-color:#FFFFFF"/>
				<stop  offset="1" style="stop-color:#FFFFFF"/>
			</linearGradient>
			<path style="fill:url(#SVGID_7_);" d="M46.8,14.6c-0.2,0-0.7-0.2-1.6-0.2c-0.9,0-1.5,0.1-1.6,0.2L15,29.2
				c-0.2,0.2-0.4,0.6-0.5,0.8v3.2c7.5,5.2,18.5,8.6,30.7,8.6s23.2-3.3,30.7-8.6V30c-0.1-0.2-0.3-0.6-0.5-0.8L46.8,14.6z"/>
		</g>
	</g>
</g>
<g id="chkGrp">
	<g id="check">
		<path id="shadow" style="opacity:0.5;fill:#010101;" d="M42.1,66.6c-2.7,0-5.2-1.1-7.2-3L25,53.7c-3.9-3.9-3.9-10.4,0-14.3
			c1.9-1.9,4.5-3,7.2-3c2.7,0,5.3,1.1,7.2,3l2.7,2.7l8.8-8.8c1.9-1.9,4.5-3,7.2-3c2.7,0,5.3,1.1,7.2,3c1.9,1.9,3,4.5,3,7.2
			c0,2.7-1.1,5.3-3,7.2L49.3,63.6C47.4,65.5,44.8,66.6,42.1,66.6z"/>
		<path id="blueBdr" style="fill:#7CB0C7;" d="M42.1,64.5c-2.7,0-5.2-1.1-7.2-3L25,51.6c-3.9-3.9-3.9-10.4,0-14.3
			c1.9-1.9,4.5-3,7.2-3c2.7,0,5.3,1.1,7.2,3l2.7,2.7l8.8-8.8c1.9-1.9,4.5-3,7.2-3c2.7,0,5.3,1.1,7.2,3c1.9,1.9,3,4.5,3,7.2
			c0,2.7-1.1,5.3-3,7.2L49.3,61.5C47.4,63.4,44.8,64.5,42.1,64.5z"/>
		<path id="blackOutline" style="fill:#010101;" d="M42.1,60.4c-1.6,0-3.1-0.6-4.2-1.8L28,48.7c-2.3-2.3-2.3-6.1,0-8.5
			c1.1-1.1,2.6-1.8,4.2-1.8l0,0c1.6,0,3.1,0.6,4.2,1.8l5.7,5.7l11.7-11.7c1.1-1.1,2.6-1.8,4.2-1.8c1.6,0,3.1,0.6,4.2,1.8
			c1.1,1.1,1.8,2.6,1.8,4.2c0,1.6-0.6,3.1-1.8,4.2L46.4,58.6C45.2,59.7,43.7,60.4,42.1,60.4z"/>
		<linearGradient id="whiteCheck_1_" gradientUnits="userSpaceOnUse" x1="45.1332" y1="46.7263" x2="45.1332" y2="57.8961">
			<stop  offset="0" style="stop-color:#FFFCFD"/>
			<stop  offset="1" style="stop-color:#CCC7C7"/>
		</linearGradient>
		<path id="whiteCheck" style="fill:url(#whiteCheck_1_);" d="M42.1,58.3L42.1,58.3c-1,0-2-0.4-2.8-1.2l-9.9-9.9
			c-1.5-1.5-1.5-4,0-5.6c1.5-1.5,4-1.5,5.6,0l7.1,7.1l13.2-13.2c1.5-1.5,4-1.5,5.6,0c1.5,1.5,1.5,4,0,5.6L44.9,57.1
			C44.2,57.9,43.2,58.3,42.1,58.3z"/>
	</g>
</g>
</svg>
