<?xml version="1.0" encoding="utf-8"?>
<!-- Generator: Adobe Illustrator 19.0.0, SVG Export Plug-In . SVG Version: 6.00 Build 0)  -->
<svg version="1.1" id="Layer_1" xmlns="http://www.w3.org/2000/svg" xmlns:xlink="http://www.w3.org/1999/xlink" x="0px" y="0px"
	 viewBox="0 0 69.7 77" style="enable-background:new 0 0 69.7 77;" xml:space="preserve">
<style type="text/css">
	.st0{fill:url(#SVGID_1_);}
	.st1{fill:url(#SVGID_2_);}
	.st2{fill:url(#SVGID_3_);}
	.st3{fill:url(#SVGID_4_);}
	.st4{filter:url(#Adobe_OpacityMaskFilter);}
	.st5{filter:url(#Adobe_OpacityMaskFilter_1_);}
	.st6{mask:url(#SVGID_5_);fill:url(#SVGID_6_);}
	.st7{fill:url(#SVGID_7_);}
	.st8{fill:#A16331;}
	.st9{fill:#E09F53;}
	.st10{fill:#8F5125;}
	.st11{fill:#BA7F3D;}
	.st12{fill:#E1A863;}
	.st13{fill:#7D411D;}
	.st14{fill:#213446;}
</style>
<g>
	<radialGradient id="SVGID_1_" cx="34.9202" cy="73.8552" r="38.9567" gradientUnits="userSpaceOnUse">
		<stop  offset="0" style="stop-color:#31557E"/>
		<stop  offset="0.5227" style="stop-color:#709FD4"/>
		<stop  offset="1" style="stop-color:#9BBDE4"/>
	</radialGradient>
	<path class="st0" d="M41,4.8C37.6,3,32,3,28.6,4.8L6.2,16.2C2.8,17.9,0,22.5,0,26.3v27.9c0,3.8,2.8,8.4,6.2,10.1l22.4,11.4
		c3.4,1.7,9,1.7,12.4,0l22.4-11.4c3.4-1.7,6.2-6.3,6.2-10.1V26.3c0-3.8-2.8-8.4-6.2-10.1L41,4.8z"/>
	<linearGradient id="SVGID_2_" gradientUnits="userSpaceOnUse" x1="34.8274" y1="2.0381" x2="34.8274" y2="72.5166">
		<stop  offset="0" style="stop-color:#FFFFFF"/>
		<stop  offset="0.6446" style="stop-color:#DCEBF8"/>
		<stop  offset="1" style="stop-color:#B6CFEC"/>
	</linearGradient>
	<path class="st1" d="M41,1.3c-3.4-1.7-9-1.7-12.4,0L6.2,12.7C2.8,14.5,0,19,0,22.8v27.9c0,3.8,2.8,8.4,6.2,10.1l22.4,11.4
		c3.4,1.7,9,1.7,12.4,0l22.4-11.4c3.4-1.7,6.2-6.3,6.2-10.1V22.8c0-3.8-2.8-8.4-6.2-10.1L41,1.3z"/>
	<linearGradient id="SVGID_3_" gradientUnits="userSpaceOnUse" x1="34.8274" y1="9.9391" x2="34.8274" y2="63.5793">
		<stop  offset="0" style="stop-color:#06262F"/>
		<stop  offset="0.7636" style="stop-color:#2A5A68"/>
		<stop  offset="0.8652" style="stop-color:#E0F2F6"/>
	</linearGradient>
	<path class="st2" d="M34.8,66.6c-1.5,0-2.6-0.3-3-0.5L9.4,54.6C8.3,54.1,7,51.9,7,50.7V22.8c0-1.2,1.3-3.4,2.4-3.9L31.8,7.5
		c0.5-0.3,1.6-0.5,3-0.5c1.5,0,2.6,0.3,3,0.5l22.4,11.4c1.1,0.5,2.4,2.7,2.4,3.9v27.9c0,1.2-1.3,3.4-2.4,3.9L37.9,66
		C37.4,66.3,36.3,66.6,34.8,66.6z"/>
	<linearGradient id="SVGID_4_" gradientUnits="userSpaceOnUse" x1="34.8274" y1="9.3974" x2="34.8274" y2="63.1368">
		<stop  offset="0" style="stop-color:#009E98"/>
		<stop  offset="0.8121" style="stop-color:#113D63"/>
		<stop  offset="1" style="stop-color:#065B73"/>
	</linearGradient>
	<path class="st3" d="M34.8,63.8c-1,0-1.7-0.2-1.8-0.3L10.7,52.2c-0.3-0.3-0.9-1.1-0.9-1.5V22.9c0.1-0.4,0.6-1.3,0.9-1.5L33,10
		c0.1-0.1,0.8-0.2,1.8-0.2c1,0,1.7,0.2,1.8,0.3L59,21.4c0.3,0.3,0.9,1.1,0.9,1.5v27.7c-0.1,0.4-0.6,1.3-0.9,1.5L36.6,63.6
		C36.5,63.6,35.8,63.8,34.8,63.8z"/>
	<defs>
		<filter id="Adobe_OpacityMaskFilter" filterUnits="userSpaceOnUse" x="11.1" y="11.1" width="47.4" height="21.1">
			<feFlood  style="flood-color:white;flood-opacity:1" result="back"/>
			<feBlend  in="SourceGraphic" in2="back" mode="normal"/>
		</filter>
	</defs>
	<mask maskUnits="userSpaceOnUse" x="11.1" y="11.1" width="47.4" height="21.1" id="SVGID_5_">
		<g class="st4">
			<defs>
				<filter id="Adobe_OpacityMaskFilter_1_" filterUnits="userSpaceOnUse" x="11.1" y="11.1" width="47.4" height="21.1">
					<feFlood  style="flood-color:white;flood-opacity:1" result="back"/>
					<feBlend  in="SourceGraphic" in2="back" mode="normal"/>
				</filter>
			</defs>
			<mask maskUnits="userSpaceOnUse" x="11.1" y="11.1" width="47.4" height="21.1" id="SVGID_5_">
				<g class="st5">
				</g>
			</mask>
			<linearGradient id="SVGID_6_" gradientUnits="userSpaceOnUse" x1="34.8274" y1="11.247" x2="34.8274" y2="32.5021">
				<stop  offset="0" style="stop-color:#FFFFFF"/>
				<stop  offset="1" style="stop-color:#000000"/>
			</linearGradient>
			<path class="st6" d="M36.1,11.3c-0.1,0-0.5-0.1-1.2-0.1c-0.7,0-1.1,0.1-1.2,0.1L11.5,22.5c-0.1,0.2-0.3,0.5-0.4,0.6v2.5
				c5.8,4.1,14.3,6.6,23.7,6.6s17.9-2.6,23.7-6.6v-2.4c-0.1-0.2-0.3-0.5-0.4-0.6L36.1,11.3z"/>
		</g>
	</mask>
	<linearGradient id="SVGID_7_" gradientUnits="userSpaceOnUse" x1="34.8274" y1="11.247" x2="34.8274" y2="32.5021">
		<stop  offset="0" style="stop-color:#FFFFFF"/>
		<stop  offset="1" style="stop-color:#FFFFFF"/>
	</linearGradient>
	<path class="st7" d="M36.1,11.3c-0.1,0-0.5-0.1-1.2-0.1c-0.7,0-1.1,0.1-1.2,0.1L11.5,22.5c-0.1,0.2-0.3,0.5-0.4,0.6v2.5
		c5.8,4.1,14.3,6.6,23.7,6.6s17.9-2.6,23.7-6.6v-2.4c-0.1-0.2-0.3-0.5-0.4-0.6L36.1,11.3z"/>
</g>
<g id="XMLID_41_">
	<rect id="XMLID_73_" x="32.1" y="16.8" class="st8" width="5.5" height="13.9"/>
	<rect id="XMLID_72_" x="32.1" y="16.8" class="st9" width="2.7" height="13.9"/>
	<rect id="XMLID_71_" x="34.4" y="38.8" class="st10" width="3.2" height="17.9"/>
	<rect id="XMLID_70_" x="32.1" y="38.8" class="st9" width="2.7" height="17.9"/>
	
		<rect id="XMLID_69_" x="18.7" y="24.8" transform="matrix(-0.7071 -0.7071 0.7071 -0.7071 24.2326 65.1549)" class="st9" width="13.9" height="5.5"/>
	
		<rect id="XMLID_68_" x="17.7" y="27.2" transform="matrix(-0.7071 -0.7071 0.7071 -0.7071 21.8907 66.1249)" class="st8" width="13.9" height="2.7"/>
	<polygon id="XMLID_67_" class="st10" points="50.9,49 38.2,36.3 36.3,38.3 36.3,38.3 34.4,40.2 47,52.9 48.9,50.9 48.9,50.9 	"/>
	<rect id="XMLID_66_" x="14.8" y="34" class="st9" width="13.9" height="5.5"/>
	<polygon id="XMLID_65_" class="st10" points="32.1,52.2 35.2,55.3 35.4,49.6 32.1,49.6 	"/>
	<rect id="XMLID_64_" x="14.8" y="36.8" class="st8" width="13.9" height="2.7"/>
	<rect id="XMLID_63_" x="36.9" y="34.1" class="st8" width="17.9" height="3.2"/>
	<rect id="XMLID_62_" x="36.9" y="36.8" class="st10" width="17.9" height="2.7"/>
	
		<rect id="XMLID_61_" x="18.7" y="43.2" transform="matrix(-0.7071 0.7071 -0.7071 -0.7071 76.2421 60.3994)" class="st9" width="13.9" height="5.5"/>
	
		<rect id="XMLID_60_" x="19.6" y="45.6" transform="matrix(-0.7071 0.7071 -0.7071 -0.7071 78.5834 61.3713)" class="st8" width="13.9" height="2.7"/>
	
		<rect id="XMLID_59_" x="32.9" y="26.6" transform="matrix(-0.7072 0.707 -0.707 -0.7072 91.3449 18.5325)" class="st9" width="17.9" height="3.2"/>
	
		<rect id="XMLID_58_" x="34.7" y="28.6" transform="matrix(-0.7072 0.707 -0.707 -0.7072 95.6272 20.3054)" class="st8" width="17.9" height="2.7"/>
	<path id="XMLID_57_" class="st11" d="M32.4,23.2l-1.7,0.4h-0.7c-0.9,0.3-1.8,0.8-2.6,1.3L27,25.8l-1.1,0.2c-1,0.8-1.9,1.8-2.6,2.9
		l0.2,0.2l-0.6,0.5c-0.3,0.5-0.6,1-0.8,1.6l0,0.7l-0.7,1.2c-0.3,1.2-0.5,2.4-0.5,3.6c0,0,0,0,0,0l0.3,0.5l0,2.2
		c0.1,0.6,0.3,1.2,0.5,1.8l0.3,0.2l0.7,1.5l-0.1,0.4c0.7,1.3,1.6,2.5,2.6,3.5h0.3l1.3,0.8l0.2,0.6c0.8,0.5,1.6,1,2.5,1.4l0.4-0.3
		l1.2,0.8c1.2,0.3,2.5,0.5,3.8,0.5V22.8c-0.8,0-1.5,0.1-2.3,0.2L32.4,23.2z"/>
	<path id="XMLID_56_" class="st10" d="M37.1,50.3l0.6,0.2c0.4-0.1,0.9-0.2,1.3-0.3l0.2-0.5l1.9-0.8l0.4,0.2c0.9-0.5,1.7-1,2.4-1.6
		l-0.1-0.6l0.8-0.1c0.5-0.5,1-1.1,1.5-1.7l0.7-1.7l0.5-0.2c0.5-0.9,0.9-1.9,1.1-2.9L48,40.1l0.4-1.7l0.3-0.1c0.1-0.5,0.1-1,0.1-1.5
		c0-0.5,0-1-0.1-1.5l-0.3-0.4l0.1-1c-0.3-1.4-0.8-2.8-1.5-4l-0.5-0.1l-0.7-1.6v-0.1c-0.7-0.9-1.6-1.8-2.6-2.5h-0.7l-0.7-0.9
		c-1-0.6-2.1-1-3.2-1.4l-1.8-0.2l-0.4-0.2c-0.5-0.1-1-0.1-1.5-0.1v27.9c0.7,0,1.4,0,2-0.1L37.1,50.3z"/>
	<path id="XMLID_55_" class="st12" d="M34.8,23.9c-7.1,0-12.9,5.8-12.9,12.9c0,7.1,5.8,12.9,12.9,12.9V23.9z"/>
	<path id="XMLID_54_" class="st8" d="M34.8,49.6c7.1,0,12.9-5.8,12.9-12.9c0-7.1-5.8-12.9-12.9-12.9V49.6z"/>
	<path id="XMLID_53_" class="st11" d="M34.8,30.1c-3.7,0-6.7,3-6.7,6.7h0.7c0-3.3,2.7-6,6-6c3.3,0,6,2.7,6,6c0,3.3-2.7,6-6,6v0.7
		c3.7,0,6.7-3,6.7-6.7C41.5,33.1,38.5,30.1,34.8,30.1z"/>
	<path id="XMLID_52_" class="st13" d="M34.8,30.1C34.8,30.1,34.8,30.1,34.8,30.1l0,0.7c0,0,0,0,0,0c3.3,0,6,2.7,6,6c0,3.3-2.7,6-6,6
		v0.7c3.7,0,6.7-3,6.7-6.7C41.5,33.1,38.5,30.1,34.8,30.1z"/>
	<path id="XMLID_51_" class="st14" d="M39.1,36.8c0,2.4-1.9,4.3-4.3,4.3c-2.4,0-4.3-1.9-4.3-4.3c0-2.4,1.9-4.3,4.3-4.3
		C37.2,32.5,39.1,34.4,39.1,36.8z"/>
	<path id="XMLID_50_" class="st11" d="M24.8,34.2l0.9,0.2c0,0,0,0,0,0c0.4-1.7,1.3-3.1,2.4-4.2l-0.6-0.6
		C26.2,30.8,25.3,32.3,24.8,34.2C24.8,34.2,24.8,34.2,24.8,34.2z"/>
	<path id="XMLID_49_" class="st8" d="M36.9,46.9L36.7,46c0,0,0,0,0,0c-1.7,0.3-3.4,0.2-4.9-0.3l-0.3,0.8
		C33.2,47.1,35,47.3,36.9,46.9C36.9,46.9,36.9,46.9,36.9,46.9z"/>
	<path id="XMLID_48_" class="st13" d="M45,35.1l-0.9,0.1c0,0,0,0,0,0c0.3,1.7,0.1,3.4-0.5,4.9l0.8,0.3C45.1,38.8,45.3,37,45,35.1
		C45,35.1,45,35.1,45,35.1z"/>
	<path id="XMLID_47_" class="st11" d="M34.8,44.5c-2.1,0-4.1-0.9-5.5-2.3l-0.6,0.5c1.5,1.5,3.7,2.5,6,2.5V44.5z"/>
	<path id="XMLID_46_" class="st11" d="M38.9,27.3l0.2-0.5c-1.3-0.6-2.7-0.9-4.3-0.9c-2.1,0-4,0.6-5.7,1.6l0.3,0.5
		c1.6-0.9,3.4-1.5,5.3-1.5C36.3,26.4,37.6,26.7,38.9,27.3z"/>
	<path id="XMLID_45_" class="st13" d="M34.8,25.8v0.6c0,0,0,0,0,0c1.4,0,2.8,0.3,4,0.8l0.2-0.5C37.8,26.2,36.3,25.8,34.8,25.8
		C34.8,25.8,34.8,25.8,34.8,25.8z"/>
	<path id="XMLID_44_" class="st11" d="M31.4,28.6l0.2,0.4c1-0.4,2.1-0.7,3.3-0.7c2.1,0,4,0.8,5.5,2l0.3-0.3
		c-1.5-1.3-3.6-2.1-5.8-2.1C33.6,27.9,32.5,28.2,31.4,28.6z"/>
	<path id="XMLID_43_" class="st13" d="M34.8,27.9v0.4c0,0,0,0,0,0c2.1,0,4,0.8,5.5,2l0.3-0.3C39,28.7,37,27.9,34.8,27.9
		C34.8,27.9,34.8,27.9,34.8,27.9z"/>
	<path id="XMLID_42_" class="st11" d="M24.8,37.6l-0.6,0.1c0.2,3.2,1.9,6,4.3,7.8l0.4-0.5C26.5,43.2,25,40.6,24.8,37.6z"/>
</g>
</svg>
