<?xml version="1.0" encoding="utf-8"?>
<!-- Generator: Adobe Illustrator 18.1.1, SVG Export Plug-In . SVG Version: 6.00 Build 0)  -->
<svg version="1.1" id="Layer_1" xmlns="http://www.w3.org/2000/svg" xmlns:xlink="http://www.w3.org/1999/xlink" x="0px" y="0px"
	 viewBox="0 0 100 100" enable-background="new 0 0 100 100" xml:space="preserve">
<g>
	<linearGradient id="SVGID_1_" gradientUnits="userSpaceOnUse" x1="49.515" y1="-17.5272" x2="51.3195" y2="161.0309">
		<stop  offset="0" style="stop-color:#303237"/>
		<stop  offset="0.1955" style="stop-color:#30313A"/>
		<stop  offset="0.4655" style="stop-color:#2E3042"/>
		<stop  offset="0.7774" style="stop-color:#282B50"/>
		<stop  offset="0.9939" style="stop-color:#22255B"/>
	</linearGradient>
	<path fill="url(#SVGID_1_)" d="M50.2,100C23.7,100,2.1,77.6,2.1,50c0-27.5,21.6-50,48.1-50c26.5,0,48.1,22.4,48.1,50
		C98.3,77.6,76.7,100,50.2,100z"/>
	<linearGradient id="SVGID_2_" gradientUnits="userSpaceOnUse" x1="49.5735" y1="-12.2043" x2="50.6965" y2="98.9162">
		<stop  offset="0" style="stop-color:#C0E6E9"/>
		<stop  offset="9.278299e-002" style="stop-color:#AEDFE3"/>
		<stop  offset="0.2757" style="stop-color:#7FCFD5"/>
		<stop  offset="0.4" style="stop-color:#55C5CA"/>
		<stop  offset="0.4642" style="stop-color:#50BCC5"/>
		<stop  offset="0.5656" style="stop-color:#3EABBB"/>
		<stop  offset="0.6908" style="stop-color:#1692AB"/>
		<stop  offset="0.7152" style="stop-color:#048DA8"/>
		<stop  offset="1" style="stop-color:#2E6F84"/>
	</linearGradient>
	<ellipse fill="url(#SVGID_2_)" cx="50.2" cy="50" rx="44.3" ry="46"/>
	
		<radialGradient id="SVGID_3_" cx="47.6366" cy="9.9932" r="54.6684" gradientTransform="matrix(0.9626 0 0 1 -5.4228 0)" gradientUnits="userSpaceOnUse">
		<stop  offset="0.1394" style="stop-color:#92D5DB"/>
		<stop  offset="0.5549" style="stop-color:#485C5B"/>
		<stop  offset="0.8608" style="stop-color:#1C2120"/>
		<stop  offset="1" style="stop-color:#010101"/>
	</radialGradient>
	<path opacity="0.69" fill="url(#SVGID_3_)" d="M50.2,15.8c22.5,0,41.1,17.5,43.9,40.1c0.2-1.9,0.4-3.9,0.4-5.9
		c0-25.4-19.8-46-44.3-46C25.7,4,5.9,24.6,5.9,50c0,2,0.2,4,0.4,5.9C9.1,33.3,27.7,15.8,50.2,15.8z"/>
	
		<radialGradient id="SVGID_4_" cx="57.7897" cy="56.3167" r="40.3591" gradientTransform="matrix(0.9626 0 0 1 -5.4228 0)" gradientUnits="userSpaceOnUse">
		<stop  offset="0" style="stop-color:#C8EAF5"/>
		<stop  offset="0.1241" style="stop-color:#B6E3EF"/>
		<stop  offset="0.3702" style="stop-color:#87D3DF"/>
		<stop  offset="0.6848" style="stop-color:#21BECA"/>
		<stop  offset="0.7491" style="stop-color:#22B7C5"/>
		<stop  offset="0.8504" style="stop-color:#18A8BB"/>
		<stop  offset="0.9756" style="stop-color:#0792AB"/>
		<stop  offset="1" style="stop-color:#048DA8"/>
	</radialGradient>
	<path fill="url(#SVGID_4_)" d="M89.1,49.3c0,22.3-17.4,40.4-38.8,40.4S11.4,71.6,11.4,49.3C11.4,27,28.8,8.9,50.2,8.9
		S89.1,27,89.1,49.3z"/>
	<path opacity="0.74" fill="#244B5D" d="M50.2,14.9c20.5,0,37.2,16.5,38.7,37.4c0.1-1,0.1-2,0.1-3C89.1,27,71.7,8.9,50.2,8.9
		S11.4,27,11.4,49.3c0,1,0.1,2,0.1,3C13,31.4,29.7,14.9,50.2,14.9z"/>
	<path opacity="0.69" fill="#DAF0F2" d="M21.6,16c-1.9,0.4-4.2,3.3-3.7,5.3c1.5,0.7,4.4-2,5.3-3.2c1.7-2.5-0.7-3.2-2.5-1.5L21.6,16z
		"/>
	<path opacity="0.69" fill="#DAF0F2" d="M33.7,9.9c-2.1-4.3-9.2,5.6-2.7,3.5C32.1,13,34.4,11.3,33.7,9.9z"/>
	<g>
		<path fill="#55C5CA" d="M11.4,50.5c0.1,0,0.2,2.1,0.9,5.9c0.7,3.7,2.2,9.2,5.8,14.9c3.6,5.7,9.7,11.3,17.8,14.3
			c8.1,3.1,18,3.8,27.5,0.4c9.4-3.3,17.1-10,21.3-17.8c4.3-7.8,4.9-16.3,3.9-23c-1-6.8-3.2-11.9-4.8-15.3c-1.6-3.4-2.8-5.2-2.7-5.3
			c0.1,0,1.3,1.6,3.2,5c1.8,3.4,4.2,8.5,5.3,15.4c1.2,6.8,0.7,15.7-3.7,23.8c-4.3,8.2-12.3,15.1-22,18.5C54.1,91,43.8,90.2,35.5,87
			c-8.4-3.2-14.6-9.1-18.2-15c-3.6-5.9-4.9-11.6-5.5-15.4C11.2,52.7,11.3,50.5,11.4,50.5z"/>
	</g>
	<g>
		<path fill="#DAF0F2" d="M11.9,56.9c0,0-1.6-6-0.2-15.7c0.7-4.8,2.4-10.6,6-15.9c3.5-5.4,9-10.2,15.6-13.2
			c13.4-6,27.5-3.9,35.7,0.7c8.5,4.6,11.3,10.6,11.1,10.5c-0.2,0.3-3.2-5.4-11.6-9.6c-8.1-4.2-21.8-6.1-34.7-0.3
			c-6.4,2.9-11.6,7.5-15.1,12.6c-3.5,5.1-5.2,10.6-6.1,15.3C11.1,50.9,12.3,56.9,11.9,56.9z"/>
	</g>
</g>
</svg>
