<?xml version="1.0" encoding="utf-8"?>
<!-- Generator: Adobe Illustrator 18.1.1, SVG Export Plug-In . SVG Version: 6.00 Build 0)  -->
<svg version="1.1" id="Layer_1" xmlns="http://www.w3.org/2000/svg" xmlns:xlink="http://www.w3.org/1999/xlink" x="0px" y="0px"
	 viewBox="0 0 232.8 78.5" style="enable-background:new 0 0 232.8 78.5;" xml:space="preserve">
<g>
	<linearGradient id="SVGID_1_" gradientUnits="userSpaceOnUse" x1="42.45" y1="35.6537" x2="233.5028" y2="35.6537">
		<stop  offset="0" style="stop-color:#88D6F5"/>
		<stop  offset="0.1" style="stop-color:#518FA3"/>
		<stop  offset="0.3" style="stop-color:#AEE1F7"/>
		<stop  offset="0.5" style="stop-color:#FFFFFF"/>
		<stop  offset="0.7" style="stop-color:#AEE1F7"/>
		<stop  offset="0.9" style="stop-color:#518FA3"/>
		<stop  offset="1" style="stop-color:#88D6F5"/>
	</linearGradient>
	<path style="fill:url(#SVGID_1_);" d="M42.7,53.9h171.2c2.9,0,6.8-1.8,8.6-4l8.9-10.4c1.9-2.2,1.9-5.8,0-7.9l-8.9-10.4
		c-1.9-2.2-5.8-4-8.6-4H42.7"/>
	<linearGradient id="SVGID_2_" gradientUnits="userSpaceOnUse" x1="137.715" y1="19.7163" x2="137.715" y2="55.3965">
		<stop  offset="0" style="stop-color:#DFF0EF"/>
		<stop  offset="1" style="stop-color:#9CD8DC"/>
	</linearGradient>
	<path style="fill:url(#SVGID_2_);" d="M42.7,56.6h171.2c2.9,0,6.8-1.8,8.6-4l8.9-10.4c1.9-2.2,1.9-5.8,0-7.9l-8.9-10.4
		c-1.9-2.2-5.8-4-8.6-4H42.7"/>
	<linearGradient id="SVGID_3_" gradientUnits="userSpaceOnUse" x1="135.8874" y1="23.4263" x2="135.8874" y2="51.9704">
		<stop  offset="0" style="stop-color:#06262F"/>
		<stop  offset="0.7636" style="stop-color:#2A5A68"/>
		<stop  offset="0.8652" style="stop-color:#E0F2F6"/>
	</linearGradient>
	<path style="fill:url(#SVGID_3_);" d="M42.7,23.6h171.2c1.8,0,4.7,1.3,5.8,2.7l8.9,10.4c0.7,0.8,0.7,2.4,0,3.2l-8.9,10.4
		c-1.2,1.4-4,2.7-5.8,2.7H42.7"/>
	<defs>
		<filter id="Adobe_OpacityMaskFilter" filterUnits="userSpaceOnUse" x="42.7" y="25.7" width="184.3" height="25.1">
			<feFlood  style="flood-color:white;flood-opacity:1" result="back"/>
			<feBlend  in="SourceGraphic" in2="back" mode="normal"/>
		</filter>
	</defs>
	<mask maskUnits="userSpaceOnUse" x="42.7" y="25.7" width="184.3" height="25.1" id="SVGID_4_">
		<g style="filter:url(#Adobe_OpacityMaskFilter);">
			<defs>
				<filter id="Adobe_OpacityMaskFilter_1_" filterUnits="userSpaceOnUse" x="29.5" y="25.7" width="197.5" height="25.1">
					<feFlood  style="flood-color:white;flood-opacity:1" result="back"/>
					<feBlend  in="SourceGraphic" in2="back" mode="normal"/>
				</filter>
			</defs>
			<mask maskUnits="userSpaceOnUse" x="29.5" y="25.7" width="197.5" height="25.1" id="SVGID_4_">
				<g style="filter:url(#Adobe_OpacityMaskFilter_1_);">
				</g>
			</mask>
			<linearGradient id="SVGID_5_" gradientUnits="userSpaceOnUse" x1="128.2644" y1="25.5463" x2="128.2644" y2="50.0127">
				<stop  offset="0" style="stop-color:#FFFFFF"/>
				<stop  offset="0.7697" style="stop-color:#000000"/>
				<stop  offset="1" style="stop-color:#FFFFFF"/>
			</linearGradient>
			<path style="mask:url(#SVGID_4_);fill:url(#SVGID_5_);" d="M42.7,50.8c-1.2,0-3.5-1-4.3-2l-8.9-10.4c0-0.1,0-0.4,0-0.5l8.8-10.3
				c0.8-0.9,3.1-2,4.3-2h171.2c1.2,0,3.5,1,4.3,2L227,38c0,0.1,0,0.4,0,0.5l-8.8,10.3c-0.8,0.9-3.1,2-4.3,2H42.7z"/>
		</g>
	</mask>
	<linearGradient id="SVGID_6_" gradientUnits="userSpaceOnUse" x1="134.8444" y1="25.5463" x2="134.8444" y2="50.0127">
		<stop  offset="0" style="stop-color:#FFFFFF"/>
		<stop  offset="0.7697" style="stop-color:#FFFFFF"/>
		<stop  offset="1" style="stop-color:#FFFFFF"/>
	</linearGradient>
	<path style="fill:url(#SVGID_6_);" d="M42.7,25.7h171.2c1.2,0,3.5,1,4.3,2L227,38c0,0.1,0,0.4,0,0.5l-8.8,10.3
		c-0.8,0.9-3.1,2-4.3,2H42.7"/>
	<linearGradient id="SVGID_7_" gradientUnits="userSpaceOnUse" x1="134.5828" y1="26.0762" x2="134.5828" y2="49.5232">
		<stop  offset="0" style="stop-color:#009E98"/>
		<stop  offset="0.8121" style="stop-color:#113D63"/>
		<stop  offset="1" style="stop-color:#065B73"/>
	</linearGradient>
	<path style="fill:url(#SVGID_7_);" d="M42.7,26.2h171.2c1.1,0,3.2,1,3.9,1.8l8.8,10.2c0,0,0,0,0,0l-8.8,10.2
		c-0.7,0.8-2.8,1.8-3.9,1.8H42.7"/>
	<path style="fill:#023740;" d="M42.5,31.7c0.2-0.1,0.4-0.2,0.5-0.2h170.4c0.2,0.1,0.4,0.2,0.5,0.2l5.6,6.6l-5.6,6.5
		c-0.2,0.1-0.4,0.2-0.5,0.2H43.1c-0.2-0.1-0.4-0.2-0.5-0.2"/>
	<path style="fill:#023740;" d="M43.2,32.6C43.2,32.5,43.2,32.5,43.2,32.6l170.1,0c0,0,0,0,0.1,0l4.9,5.7l-4.9,5.7c0,0,0,0-0.1,0
		h-170c0,0,0,0-0.1,0"/>
</g>
<g>
	<g>
		<linearGradient id="SVGID_8_" gradientUnits="userSpaceOnUse" x1="-0.5627" y1="37.3937" x2="69.8711" y2="37.3937">
			<stop  offset="0" style="stop-color:#88D6F5"/>
			<stop  offset="0.1" style="stop-color:#518FA3"/>
			<stop  offset="0.3" style="stop-color:#AEE1F7"/>
			<stop  offset="0.5" style="stop-color:#FFFFFF"/>
			<stop  offset="0.7" style="stop-color:#AEE1F7"/>
			<stop  offset="0.9" style="stop-color:#518FA3"/>
			<stop  offset="1" style="stop-color:#88D6F5"/>
		</linearGradient>
		<circle style="fill:url(#SVGID_8_);" cx="36.6" cy="37.4" r="36.6"/>
		<linearGradient id="SVGID_9_" gradientUnits="userSpaceOnUse" x1="36.5788" y1="79.1076" x2="36.5788" y2="8.6738">
			<stop  offset="0" style="stop-color:#B2E0E4"/>
			<stop  offset="1" style="stop-color:#E6EEEE"/>
		</linearGradient>
		<circle style="fill:url(#SVGID_9_);" cx="36.6" cy="42" r="36.6"/>
		<linearGradient id="SVGID_10_" gradientUnits="userSpaceOnUse" x1="36.5788" y1="70.9243" x2="36.5788" y2="13.0078">
			<stop  offset="0.1348" style="stop-color:#E0F2F6"/>
			<stop  offset="0.2364" style="stop-color:#2A5A68"/>
			<stop  offset="1" style="stop-color:#06262F"/>
		</linearGradient>
		<path style="fill:url(#SVGID_10_);" d="M36.6,70.9c-16,0-29-13-29-29s13-29,29-29s29,13,29,29S52.5,70.9,36.6,70.9z"/>
		<linearGradient id="SVGID_11_" gradientUnits="userSpaceOnUse" x1="36.5788" y1="69.4001" x2="36.5788" y2="14.5319">
			<stop  offset="0" style="stop-color:#065B73"/>
			<stop  offset="0.1879" style="stop-color:#113D63"/>
			<stop  offset="1" style="stop-color:#009E98"/>
		</linearGradient>
		<path style="fill:url(#SVGID_11_);" d="M36.6,69.4C21.5,69.4,9.1,57.1,9.1,42s12.3-27.4,27.4-27.4S64,26.8,64,42
			S51.7,69.4,36.6,69.4z"/>
		<defs>
			<filter id="Adobe_OpacityMaskFilter_2_" filterUnits="userSpaceOnUse" x="10.7" y="16.1" width="51.8" height="51.8">
				<feFlood  style="flood-color:white;flood-opacity:1" result="back"/>
				<feBlend  in="SourceGraphic" in2="back" mode="normal"/>
			</filter>
		</defs>
		<mask maskUnits="userSpaceOnUse" x="10.7" y="16.1" width="51.8" height="51.8" id="SVGID_12_">
			<g style="filter:url(#Adobe_OpacityMaskFilter_2_);">
				<defs>
					<filter id="Adobe_OpacityMaskFilter_3_" filterUnits="userSpaceOnUse" x="10.7" y="16.1" width="51.8" height="51.8">
						<feFlood  style="flood-color:white;flood-opacity:1" result="back"/>
						<feBlend  in="SourceGraphic" in2="back" mode="normal"/>
					</filter>
				</defs>
				<mask maskUnits="userSpaceOnUse" x="10.7" y="16.1" width="51.8" height="51.8" id="SVGID_12_">
					<g style="filter:url(#Adobe_OpacityMaskFilter_3_);">
					</g>
				</mask>
				<linearGradient id="SVGID_13_" gradientUnits="userSpaceOnUse" x1="36.5788" y1="16.8181" x2="36.5788" y2="64.7062">
					<stop  offset="0" style="stop-color:#FFFFFF"/>
					<stop  offset="1" style="stop-color:#4D4D4D"/>
				</linearGradient>
				<path style="mask:url(#SVGID_12_);fill:url(#SVGID_13_);" d="M36.6,16.1c-14.3,0-25.9,11.6-25.9,25.9s11.6,25.9,25.9,25.9
					S62.5,56.3,62.5,42S50.9,16.1,36.6,16.1z M36.6,63.3c-11.8,0-21.3-9.6-21.3-21.3s9.6-21.3,21.3-21.3S57.9,30.2,57.9,42
					S48.3,63.3,36.6,63.3z"/>
			</g>
		</mask>
		<linearGradient id="SVGID_14_" gradientUnits="userSpaceOnUse" x1="36.5788" y1="16.8181" x2="36.5788" y2="64.7062">
			<stop  offset="0" style="stop-color:#FFFFFF"/>
			<stop  offset="1" style="stop-color:#FFFFFF"/>
		</linearGradient>
		<path style="fill:url(#SVGID_14_);" d="M36.6,16.1c-14.3,0-25.9,11.6-25.9,25.9s11.6,25.9,25.9,25.9S62.5,56.3,62.5,42
			S50.9,16.1,36.6,16.1z M36.6,63.3c-11.8,0-21.3-9.6-21.3-21.3s9.6-21.3,21.3-21.3S57.9,30.2,57.9,42S48.3,63.3,36.6,63.3z"/>
		<path style="fill:#FFFFFF;" d="M18.3,23.7l3.2,3.2c3.9-3.9,9.2-6.3,15.1-6.3c5.9,0,11.2,2.4,15.1,6.3l3.2-3.2
			c-4.7-4.7-11.2-7.6-18.3-7.6S23,19,18.3,23.7z"/>
	</g>
	<g>
		<g>
			<path style="fill:#E11E26;" d="M50.8,35.4c0-4-3.3-7.3-7.3-7.3c-2.7,0-5,1.4-6.3,3.6c-0.4,0.6-0.9,0.6-1.3,0.1
				c-1.4-2.1-3.6-3.6-6.3-3.6c-4,0-7.3,3.3-7.3,7.3c0,6.3,6.1,14.4,14.3,20l0,0l0,0l0,0l0,0C44.8,49.9,50.8,41.8,50.8,35.4z"/>
			<linearGradient id="SVGID_15_" gradientUnits="userSpaceOnUse" x1="36.5788" y1="54.0316" x2="36.5788" y2="31.5015">
				<stop  offset="0" style="stop-color:#E22027"/>
				<stop  offset="1" style="stop-color:#E22427"/>
			</linearGradient>
			<path style="fill:url(#SVGID_15_);" d="M29.6,28.4c-3.9,0-7.1,3.2-7.1,7.2c0,6.1,6.1,14.2,14.1,19.5v0l0,0l0,0l0,0
				c8-5.3,14-13.4,14.1-19.5c0-4-3.2-7.2-7.1-7.2c-2.7,0-5,1.4-6.2,3.5c-0.4,0.6-0.9,0.6-1.3,0.1C34.6,30,32.4,28.4,29.6,28.4z"/>
			<linearGradient id="SVGID_16_" gradientUnits="userSpaceOnUse" x1="36.5788" y1="53.6497" x2="36.5788" y2="31.6937">
				<stop  offset="0" style="stop-color:#E22128"/>
				<stop  offset="1" style="stop-color:#E22929"/>
			</linearGradient>
			<path style="fill:url(#SVGID_16_);" d="M29.6,28.6c-3.8,0-7,3.1-6.9,7c0.1,5.9,6.1,13.9,13.9,18.9v0l0,0l0,0l0,0
				c7.7-5,13.8-13,13.9-18.9c0-4-3.1-7-6.9-7c-2.7,0-5,1.5-6.2,3.5c-0.4,0.6-0.9,0.6-1.3,0.1C34.6,30.4,32.4,28.6,29.6,28.6z"/>
			<linearGradient id="SVGID_17_" gradientUnits="userSpaceOnUse" x1="36.5788" y1="53.2677" x2="36.5788" y2="31.886">
				<stop  offset="0" style="stop-color:#E32229"/>
				<stop  offset="1" style="stop-color:#E32D2B"/>
			</linearGradient>
			<path style="fill:url(#SVGID_17_);" d="M29.6,28.9c-3.7,0-6.8,3-6.7,6.9c0.1,5.7,6.1,13.6,13.7,18.4v0l0,0l0,0l0,0
				c7.5-4.8,13.6-12.7,13.7-18.4c0.1-3.9-3-6.9-6.7-6.9c-2.7,0-4.9,1.5-6.2,3.5C37,33,36.4,33.1,36,32.6
				C34.6,30.8,32.5,28.9,29.6,28.9z"/>
			<linearGradient id="SVGID_18_" gradientUnits="userSpaceOnUse" x1="36.5788" y1="52.8858" x2="36.5788" y2="32.0782">
				<stop  offset="0" style="stop-color:#E3232A"/>
				<stop  offset="1" style="stop-color:#E4322E"/>
			</linearGradient>
			<path style="fill:url(#SVGID_18_);" d="M29.6,29.2c-3.6,0-6.6,2.9-6.5,6.8c0.1,5.4,6.2,13.4,13.5,17.9v0l0,0l0,0l0,0
				c7.3-4.5,13.3-12.4,13.5-17.9c0.1-3.9-2.9-6.8-6.5-6.8c-2.7,0-4.9,1.6-6.2,3.5c-0.4,0.6-0.9,0.6-1.3,0.1
				C34.6,31.2,32.5,29.2,29.6,29.2z"/>
			<linearGradient id="SVGID_19_" gradientUnits="userSpaceOnUse" x1="36.5788" y1="52.5039" x2="36.5788" y2="32.2704">
				<stop  offset="0" style="stop-color:#E4242B"/>
				<stop  offset="1" style="stop-color:#E53630"/>
			</linearGradient>
			<path style="fill:url(#SVGID_19_);" d="M29.6,29.5c-3.5,0-6.4,2.8-6.3,6.6c0.2,5.2,6.2,13.1,13.3,17.3v0l0,0l0,0l0,0
				c7.1-4.2,13.1-12.1,13.3-17.3c0.1-3.8-2.8-6.6-6.3-6.6c-2.7,0-4.8,1.6-6.1,3.5c-0.4,0.5-0.9,0.6-1.3,0.2
				C34.6,31.5,32.5,29.5,29.6,29.5z"/>
			<linearGradient id="SVGID_20_" gradientUnits="userSpaceOnUse" x1="36.5788" y1="52.1219" x2="36.5788" y2="32.4627">
				<stop  offset="0" style="stop-color:#E4262D"/>
				<stop  offset="1" style="stop-color:#E53A33"/>
			</linearGradient>
			<path style="fill:url(#SVGID_20_);" d="M29.6,29.7c-3.4,0-6.3,2.7-6.1,6.5c0.2,5,6.2,12.8,13.1,16.8v0l0,0l0,0l0,0
				c6.9-4,12.9-11.8,13.1-16.8c0.1-3.8-2.7-6.5-6.1-6.5c-2.7,0-4.8,1.7-6.1,3.5c-0.4,0.5-0.9,0.6-1.3,0.2
				C34.6,31.9,32.6,29.7,29.6,29.7z"/>
			<linearGradient id="SVGID_21_" gradientUnits="userSpaceOnUse" x1="36.5788" y1="51.74" x2="36.5788" y2="32.6549">
				<stop  offset="0" style="stop-color:#E5272E"/>
				<stop  offset="1" style="stop-color:#E63E36"/>
			</linearGradient>
			<path style="fill:url(#SVGID_21_);" d="M29.6,30c-3.3,0-6.1,2.6-5.9,6.3c0.2,4.7,6.2,12.5,12.9,16.2v0l0,0l0,0l0,0
				c6.6-3.7,12.6-11.5,12.9-16.2c0.2-3.7-2.7-6.3-5.9-6.3c-2.7,0-4.8,1.7-6.1,3.5c-0.4,0.5-0.9,0.6-1.3,0.2
				C34.6,32.3,32.6,30,29.6,30z"/>
			<linearGradient id="SVGID_22_" gradientUnits="userSpaceOnUse" x1="36.5788" y1="51.358" x2="36.5788" y2="32.8471">
				<stop  offset="0" style="stop-color:#E52830"/>
				<stop  offset="1" style="stop-color:#E74239"/>
			</linearGradient>
			<path style="fill:url(#SVGID_22_);" d="M29.6,30.3c-3.2,0-5.9,2.5-5.7,6.2c0.2,4.5,6.2,12.3,12.7,15.7v0l0,0l0,0l0,0
				C43,48.7,49,41,49.2,36.5c0.2-3.7-2.6-6.2-5.7-6.2c-2.7,0-4.7,1.7-6,3.5c-0.4,0.5-0.9,0.6-1.3,0.2C34.6,32.7,32.7,30.3,29.6,30.3
				z"/>
			<linearGradient id="SVGID_23_" gradientUnits="userSpaceOnUse" x1="36.5788" y1="50.9761" x2="36.5788" y2="33.0394">
				<stop  offset="0" style="stop-color:#E62931"/>
				<stop  offset="1" style="stop-color:#E7453C"/>
			</linearGradient>
			<path style="fill:url(#SVGID_23_);" d="M29.6,30.6c-3,0-5.7,2.4-5.5,6c0.3,4.3,6.3,12,12.5,15.2v0l0,0l0,0l0,0
				c6.2-3.2,12.2-10.9,12.5-15.2c0.2-3.7-2.5-6-5.5-6c-2.7,0-4.7,1.8-6,3.5c-0.4,0.5-0.9,0.6-1.3,0.3C34.6,33.1,32.7,30.6,29.6,30.6
				z"/>
			<linearGradient id="SVGID_24_" gradientUnits="userSpaceOnUse" x1="36.5788" y1="50.5941" x2="36.5788" y2="33.2316">
				<stop  offset="0" style="stop-color:#E72A33"/>
				<stop  offset="1" style="stop-color:#E8483F"/>
			</linearGradient>
			<path style="fill:url(#SVGID_24_);" d="M29.6,30.8c-2.9,0-5.6,2.3-5.3,5.9c0.3,4.1,6.3,11.7,12.3,14.6v0l0,0l0,0l0,0
				c6-2.9,12-10.6,12.3-14.6c0.2-3.6-2.4-5.9-5.3-5.9c-2.7,0-4.6,1.8-6,3.5c-0.4,0.5-0.9,0.6-1.3,0.3C34.6,33.5,32.7,30.8,29.6,30.8
				z"/>
			<linearGradient id="SVGID_25_" gradientUnits="userSpaceOnUse" x1="36.5788" y1="50.2122" x2="36.5788" y2="33.4238">
				<stop  offset="0" style="stop-color:#E72B34"/>
				<stop  offset="1" style="stop-color:#E94C42"/>
			</linearGradient>
			<path style="fill:url(#SVGID_25_);" d="M29.6,31.1c-2.8,0-5.4,2.2-5.1,5.8c0.3,3.8,6.3,11.4,12,14.1v0l0,0l0,0l0,0
				c5.7-2.7,11.8-10.3,12-14.1c0.3-3.6-2.3-5.8-5.1-5.8c-2.7,0-4.6,1.9-5.9,3.5c-0.4,0.5-0.9,0.6-1.3,0.3
				C34.6,33.8,32.8,31.1,29.6,31.1z"/>
			<linearGradient id="SVGID_26_" gradientUnits="userSpaceOnUse" x1="36.5788" y1="49.8302" x2="36.5788" y2="33.6161">
				<stop  offset="0" style="stop-color:#E82C36"/>
				<stop  offset="1" style="stop-color:#EA4F46"/>
			</linearGradient>
			<path style="fill:url(#SVGID_26_);" d="M29.6,31.4c-2.7,0-5.2,2.1-4.9,5.6c0.3,3.6,6.3,11.2,11.8,13.6v0l0,0l0,0l0,0
				c5.5-2.4,11.5-10,11.8-13.6c0.3-3.5-2.2-5.6-4.9-5.6c-2.7,0-4.5,1.9-5.9,3.4c-0.4,0.4-0.9,0.6-1.3,0.3
				C34.6,34.2,32.8,31.4,29.6,31.4z"/>
			<linearGradient id="SVGID_27_" gradientUnits="userSpaceOnUse" x1="36.5788" y1="49.4483" x2="36.5788" y2="33.8083">
				<stop  offset="0" style="stop-color:#E82E38"/>
				<stop  offset="1" style="stop-color:#EB5349"/>
			</linearGradient>
			<path style="fill:url(#SVGID_27_);" d="M29.6,31.6c-2.6,0-5,2-4.7,5.5c0.3,3.4,6.4,10.9,11.6,13v0l0,0l0,0l0,0
				c5.3-2.1,11.3-9.7,11.6-13c0.3-3.5-2.1-5.5-4.7-5.5c-2.7,0-4.5,2-5.9,3.4c-0.4,0.4-0.9,0.6-1.3,0.3
				C34.6,34.6,32.9,31.6,29.6,31.6z"/>
			<linearGradient id="SVGID_28_" gradientUnits="userSpaceOnUse" x1="36.5788" y1="49.0663" x2="36.5788" y2="34.0005">
				<stop  offset="0" style="stop-color:#E92F39"/>
				<stop  offset="1" style="stop-color:#EB564C"/>
			</linearGradient>
			<path style="fill:url(#SVGID_28_);" d="M29.6,31.9c-2.5,0-4.9,1.9-4.5,5.3c0.3,3.1,6.4,10.6,11.4,12.5v0l0,0l0,0l0,0
				c5.1-1.9,11.1-9.3,11.4-12.5c0.4-3.4-2-5.3-4.5-5.3c-2.7,0-4.5,2-5.8,3.4c-0.4,0.4-0.9,0.6-1.3,0.4C34.6,35,32.9,31.9,29.6,31.9z
				"/>
			<linearGradient id="SVGID_29_" gradientUnits="userSpaceOnUse" x1="36.5789" y1="48.6844" x2="36.5789" y2="34.1928">
				<stop  offset="0" style="stop-color:#EA303B"/>
				<stop  offset="1" style="stop-color:#EC5950"/>
			</linearGradient>
			<path style="fill:url(#SVGID_29_);" d="M29.6,32.2c-2.4,0-4.7,1.8-4.3,5.2c0.3,2.9,6.4,10.4,11.2,11.9v0l0,0l0,0l0,0
				c4.8-1.6,10.9-9,11.2-11.9c0.4-3.4-1.9-5.2-4.3-5.2c-2.7,0-4.4,2.1-5.8,3.4c-0.4,0.4-0.9,0.5-1.3,0.4
				C34.6,35.4,32.9,32.2,29.6,32.2z"/>
			<linearGradient id="SVGID_30_" gradientUnits="userSpaceOnUse" x1="36.5789" y1="48.3024" x2="36.5789" y2="34.385">
				<stop  offset="0" style="stop-color:#EB313D"/>
				<stop  offset="1" style="stop-color:#ED5C53"/>
			</linearGradient>
			<path style="fill:url(#SVGID_30_);" d="M29.6,32.5c-2.3,0-4.6,1.7-4.1,5.1c0.3,2.7,6.4,10.1,11,11.4v0l0,0l0,0l0,0
				c4.6-1.3,10.7-8.7,11-11.4c0.4-3.4-1.8-5.1-4.1-5.1c-2.7,0-4.4,2.1-5.8,3.4c-0.4,0.4-0.9,0.5-1.3,0.4
				C34.6,35.8,33,32.5,29.6,32.5z"/>
			<linearGradient id="SVGID_31_" gradientUnits="userSpaceOnUse" x1="36.5789" y1="47.9205" x2="36.5789" y2="34.5772">
				<stop  offset="0" style="stop-color:#EB323E"/>
				<stop  offset="1" style="stop-color:#EE5F56"/>
			</linearGradient>
			<path style="fill:url(#SVGID_31_);" d="M29.6,32.7c-2.2,0-4.4,1.6-3.9,4.9c0.4,2.4,6.5,9.8,10.8,10.9v0l0,0l0,0l0,0
				c4.4-1.1,10.5-8.4,10.8-10.9c0.5-3.3-1.8-4.9-3.9-4.9c-2.7,0-4.3,2.1-5.7,3.4c-0.4,0.4-0.9,0.5-1.3,0.4
				C34.6,36.2,33,32.7,29.6,32.7z"/>
			<linearGradient id="SVGID_32_" gradientUnits="userSpaceOnUse" x1="36.5789" y1="47.5385" x2="36.5789" y2="34.7695">
				<stop  offset="0" style="stop-color:#EC3340"/>
				<stop  offset="1" style="stop-color:#EF6259"/>
			</linearGradient>
			<path style="fill:url(#SVGID_32_);" d="M29.6,33c-2.1,0-4.2,1.5-3.7,4.8c0.4,2.2,6.5,9.5,10.6,10.3v0l0,0l0,0l0,0
				c4.2-0.8,10.3-8.1,10.6-10.3c0.5-3.3-1.7-4.8-3.7-4.8c-2.7,0-4.3,2.2-5.7,3.4c-0.4,0.4-0.9,0.5-1.3,0.5
				C34.6,36.5,33.1,33,29.6,33z"/>
			<linearGradient id="SVGID_33_" gradientUnits="userSpaceOnUse" x1="36.5789" y1="47.1566" x2="36.5789" y2="34.9617">
				<stop  offset="0" style="stop-color:#ED3442"/>
				<stop  offset="1" style="stop-color:#F0655D"/>
			</linearGradient>
			<path style="fill:url(#SVGID_33_);" d="M29.6,33.3c-1.9,0-4.1,1.4-3.5,4.6c0.4,2,6.5,9.3,10.4,9.8v0l0,0l0,0l0,0
				c3.9-0.5,10.1-7.8,10.4-9.8c0.6-3.2-1.6-4.6-3.5-4.6c-2.7,0-4.3,2.2-5.7,3.4c-0.4,0.3-0.9,0.5-1.3,0.5
				C34.6,36.9,33.1,33.3,29.6,33.3z"/>
			<linearGradient id="SVGID_34_" gradientUnits="userSpaceOnUse" x1="36.5789" y1="46.7746" x2="36.5789" y2="35.1539">
				<stop  offset="0" style="stop-color:#EE3543"/>
				<stop  offset="1" style="stop-color:#F16860"/>
			</linearGradient>
			<path style="fill:url(#SVGID_34_);" d="M29.6,33.5c-1.8,0-3.9,1.3-3.3,4.5c0.4,1.8,6.5,9,10.2,9.3v0l0,0l0,0l0,0
				c3.7-0.3,9.9-7.5,10.2-9.3c0.6-3.2-1.5-4.5-3.3-4.5c-2.7,0-4.2,2.3-5.7,3.4c-0.4,0.3-0.9,0.5-1.3,0.5
				C34.6,37.3,33.1,33.5,29.6,33.5z"/>
			<linearGradient id="SVGID_35_" gradientUnits="userSpaceOnUse" x1="36.579" y1="46.3927" x2="36.579" y2="35.3462">
				<stop  offset="0" style="stop-color:#EF3645"/>
				<stop  offset="1" style="stop-color:#F26B63"/>
			</linearGradient>
			<path style="fill:url(#SVGID_35_);" d="M43.5,33.8c-3.5,0-4.9,3.9-6.9,3.9l0,0v0c-2,0-3.4-3.9-6.9-3.9c-1.7,0-3.8,1.2-3.1,4.3
				c0.3,1.5,6.6,8.7,10,8.7v0l0,0c3.5,0,9.7-7.2,10-8.7C47.3,35,45.2,33.8,43.5,33.8z"/>
		</g>
		<defs>
			<filter id="Adobe_OpacityMaskFilter_4_" filterUnits="userSpaceOnUse" x="24.7" y="30.1" width="23.7" height="8.5">
				<feFlood  style="flood-color:white;flood-opacity:1" result="back"/>
				<feBlend  in="SourceGraphic" in2="back" mode="normal"/>
			</filter>
		</defs>
		<mask maskUnits="userSpaceOnUse" x="24.7" y="30.1" width="23.7" height="8.5" id="SVGID_36_">
			<g style="filter:url(#Adobe_OpacityMaskFilter_4_);">
				<defs>
					<filter id="Adobe_OpacityMaskFilter_5_" filterUnits="userSpaceOnUse" x="24.7" y="30.1" width="23.7" height="8.5">
						<feFlood  style="flood-color:white;flood-opacity:1" result="back"/>
						<feBlend  in="SourceGraphic" in2="back" mode="normal"/>
					</filter>
				</defs>
				<mask maskUnits="userSpaceOnUse" x="24.7" y="30.1" width="23.7" height="8.5" id="SVGID_36_">
					<g style="filter:url(#Adobe_OpacityMaskFilter_5_);">
					</g>
				</mask>
				<linearGradient id="SVGID_37_" gradientUnits="userSpaceOnUse" x1="36.5794" y1="31.1862" x2="36.5794" y2="38.2823">
					<stop  offset="0" style="stop-color:#FFFFFF"/>
					<stop  offset="1" style="stop-color:#000000"/>
				</linearGradient>
				<path style="mask:url(#SVGID_36_);fill:url(#SVGID_37_);" d="M36.6,37.2c4.1,0,7.9,0.5,11.2,1.4c0.5-1.3,0.7-2.5,0.7-3.6
					c0-2.7-2.2-4.9-4.9-4.9c-1.7,0-3.5,2-4.1,2.7c-0.4,0.5-1.4,1.8-1.5,1.9l0,0l0,0c-0.3,0.4-0.8,0.6-1.3,0.6
					c-0.5,0-0.9-0.2-1.3-0.6l0,0l0,0c0-0.1-1.1-1.4-1.5-1.9c-0.5-0.7-2.5-2.7-4.1-2.7c-2.7,0-4.9,2.2-4.9,4.9c0,1.1,0.2,2.3,0.7,3.6
					C28.7,37.7,32.5,37.2,36.6,37.2z"/>
			</g>
		</mask>
		<linearGradient id="SVGID_38_" gradientUnits="userSpaceOnUse" x1="36.5794" y1="31.1862" x2="36.5794" y2="38.2823">
			<stop  offset="0" style="stop-color:#FFFFFF"/>
			<stop  offset="1" style="stop-color:#FFFFFF"/>
		</linearGradient>
		<path style="fill:url(#SVGID_38_);" d="M36.6,37.2c4.1,0,7.9,0.5,11.2,1.4c0.5-1.3,0.7-2.5,0.7-3.6c0-2.7-2.2-4.9-4.9-4.9
			c-1.7,0-3.5,2-4.1,2.7c-0.4,0.5-1.4,1.8-1.5,1.9l0,0l0,0c-0.3,0.4-0.8,0.6-1.3,0.6c-0.5,0-0.9-0.2-1.3-0.6l0,0l0,0
			c0-0.1-1.1-1.4-1.5-1.9c-0.5-0.7-2.5-2.7-4.1-2.7c-2.7,0-4.9,2.2-4.9,4.9c0,1.1,0.2,2.3,0.7,3.6C28.7,37.7,32.5,37.2,36.6,37.2z"
			/>
		<defs>
			<filter id="Adobe_OpacityMaskFilter_6_" filterUnits="userSpaceOnUse" x="41.4" y="33.5" width="4.6" height="4.6">
				<feFlood  style="flood-color:white;flood-opacity:1" result="back"/>
				<feBlend  in="SourceGraphic" in2="back" mode="normal"/>
			</filter>
		</defs>
		<mask maskUnits="userSpaceOnUse" x="41.4" y="33.5" width="4.6" height="4.6" id="SVGID_39_">
			<g style="filter:url(#Adobe_OpacityMaskFilter_6_);">
				<defs>
					<filter id="Adobe_OpacityMaskFilter_7_" filterUnits="userSpaceOnUse" x="41.4" y="33.5" width="4.6" height="4.6">
						<feFlood  style="flood-color:white;flood-opacity:1" result="back"/>
						<feBlend  in="SourceGraphic" in2="back" mode="normal"/>
					</filter>
				</defs>
				<mask maskUnits="userSpaceOnUse" x="41.4" y="33.5" width="4.6" height="4.6" id="SVGID_39_">
					<g style="filter:url(#Adobe_OpacityMaskFilter_7_);">
					</g>
				</mask>
				<linearGradient id="SVGID_40_" gradientUnits="userSpaceOnUse" x1="43.6648" y1="37.7018" x2="43.6648" y2="33.6406">
					<stop  offset="0" style="stop-color:#000000"/>
					<stop  offset="1" style="stop-color:#FFFFFF"/>
				</linearGradient>
				<circle style="mask:url(#SVGID_39_);fill:url(#SVGID_40_);" cx="43.7" cy="35.8" r="2.3"/>
			</g>
		</mask>
		<linearGradient id="SVGID_41_" gradientUnits="userSpaceOnUse" x1="43.6648" y1="37.7018" x2="43.6648" y2="33.6406">
			<stop  offset="0" style="stop-color:#FFFFFF"/>
			<stop  offset="1" style="stop-color:#FFFFFF"/>
		</linearGradient>
		<circle style="fill:url(#SVGID_41_);" cx="43.7" cy="35.8" r="2.3"/>
		<defs>
			<filter id="Adobe_OpacityMaskFilter_8_" filterUnits="userSpaceOnUse" x="40.7" y="38.7" width="1.7" height="1.7">
				<feFlood  style="flood-color:white;flood-opacity:1" result="back"/>
				<feBlend  in="SourceGraphic" in2="back" mode="normal"/>
			</filter>
		</defs>
		<mask maskUnits="userSpaceOnUse" x="40.7" y="38.7" width="1.7" height="1.7" id="SVGID_42_">
			<g style="filter:url(#Adobe_OpacityMaskFilter_8_);">
				<defs>
					<filter id="Adobe_OpacityMaskFilter_9_" filterUnits="userSpaceOnUse" x="40.7" y="38.7" width="1.7" height="1.7">
						<feFlood  style="flood-color:white;flood-opacity:1" result="back"/>
						<feBlend  in="SourceGraphic" in2="back" mode="normal"/>
					</filter>
				</defs>
				<mask maskUnits="userSpaceOnUse" x="40.7" y="38.7" width="1.7" height="1.7" id="SVGID_42_">
					<g style="filter:url(#Adobe_OpacityMaskFilter_9_);">
					</g>
				</mask>
				
					<linearGradient id="SVGID_43_" gradientUnits="userSpaceOnUse" x1="1641.6904" y1="71.5889" x2="1641.6904" y2="67.5326" gradientTransform="matrix(-0.3704 0 0 -0.3704 649.6161 65.3327)">
					<stop  offset="0" style="stop-color:#FFFFFF"/>
					<stop  offset="1" style="stop-color:#000000"/>
				</linearGradient>
				<circle style="mask:url(#SVGID_42_);fill:url(#SVGID_43_);" cx="41.5" cy="39.5" r="0.8"/>
			</g>
		</mask>
		
			<linearGradient id="SVGID_44_" gradientUnits="userSpaceOnUse" x1="1641.6904" y1="71.5889" x2="1641.6904" y2="67.5326" gradientTransform="matrix(-0.3704 0 0 -0.3704 649.6161 65.3327)">
			<stop  offset="0" style="stop-color:#FFFFFF"/>
			<stop  offset="1" style="stop-color:#FFFFFF"/>
		</linearGradient>
		<circle style="fill:url(#SVGID_44_);" cx="41.5" cy="39.5" r="0.8"/>
		<path style="opacity:0.5;fill:#D32027;" d="M36.6,44.9c-4.5,0-8.6-0.7-12-2c2.5,4.5,6.8,9,12,12.6c5.2-3.5,9.5-8.1,12-12.6
			C45.2,44.1,41,44.9,36.6,44.9z"/>
		<defs>
			<filter id="Adobe_OpacityMaskFilter_10_" filterUnits="userSpaceOnUse" x="29" y="47.1" width="15.2" height="6.9">
				<feFlood  style="flood-color:white;flood-opacity:1" result="back"/>
				<feBlend  in="SourceGraphic" in2="back" mode="normal"/>
			</filter>
		</defs>
		<mask maskUnits="userSpaceOnUse" x="29" y="47.1" width="15.2" height="6.9" id="SVGID_45_">
			<g style="filter:url(#Adobe_OpacityMaskFilter_10_);">
				<defs>
					<filter id="Adobe_OpacityMaskFilter_11_" filterUnits="userSpaceOnUse" x="29" y="47.1" width="15.2" height="6.9">
						<feFlood  style="flood-color:white;flood-opacity:1" result="back"/>
						<feBlend  in="SourceGraphic" in2="back" mode="normal"/>
					</filter>
				</defs>
				<mask maskUnits="userSpaceOnUse" x="29" y="47.1" width="15.2" height="6.9" id="SVGID_45_">
					<g style="filter:url(#Adobe_OpacityMaskFilter_11_);">
					</g>
				</mask>
				<linearGradient id="SVGID_46_" gradientUnits="userSpaceOnUse" x1="36.5785" y1="47.9823" x2="36.5785" y2="53.4754">
					<stop  offset="0" style="stop-color:#000000"/>
					<stop  offset="1" style="stop-color:#FFFFFF"/>
				</linearGradient>
				<path style="mask:url(#SVGID_45_);fill:url(#SVGID_46_);" d="M43.9,47.3c-2.2,1.8-4.3,2.6-7.3,2.6c-3.1,0-5.1-0.8-7.3-2.6
					c-0.1-0.1-0.2-0.1-0.3-0.2c0.5,0.6,1.1,1.3,1.7,1.9c1.8,1.8,3.7,3.5,5.9,5c2.1-1.5,4.1-3.2,5.9-5c0.6-0.6,1.2-1.3,1.7-1.9
					C44.1,47.2,44,47.2,43.9,47.3z"/>
			</g>
		</mask>
		<linearGradient id="SVGID_47_" gradientUnits="userSpaceOnUse" x1="36.5785" y1="47.9823" x2="36.5785" y2="53.4754">
			<stop  offset="0" style="stop-color:#FFFFFF"/>
			<stop  offset="1" style="stop-color:#FFFFFF"/>
		</linearGradient>
		<path style="fill:url(#SVGID_47_);" d="M43.9,47.3c-2.2,1.8-4.3,2.6-7.3,2.6c-3.1,0-5.1-0.8-7.3-2.6c-0.1-0.1-0.2-0.1-0.3-0.2
			c0.5,0.6,1.1,1.3,1.7,1.9c1.8,1.8,3.7,3.5,5.9,5c2.1-1.5,4.1-3.2,5.9-5c0.6-0.6,1.2-1.3,1.7-1.9C44.1,47.2,44,47.2,43.9,47.3z"/>
		<defs>
			<filter id="Adobe_OpacityMaskFilter_12_" filterUnits="userSpaceOnUse" x="24.7" y="30.1" width="23.7" height="6.1">
				<feFlood  style="flood-color:white;flood-opacity:1" result="back"/>
				<feBlend  in="SourceGraphic" in2="back" mode="normal"/>
			</filter>
		</defs>
		<mask maskUnits="userSpaceOnUse" x="24.7" y="30.1" width="23.7" height="6.1" id="SVGID_48_">
			<g style="filter:url(#Adobe_OpacityMaskFilter_12_);">
				<defs>
					<filter id="Adobe_OpacityMaskFilter_13_" filterUnits="userSpaceOnUse" x="24.7" y="30.1" width="23.7" height="6.1">
						<feFlood  style="flood-color:white;flood-opacity:1" result="back"/>
						<feBlend  in="SourceGraphic" in2="back" mode="normal"/>
					</filter>
				</defs>
				<mask maskUnits="userSpaceOnUse" x="24.7" y="30.1" width="23.7" height="6.1" id="SVGID_48_">
					<g style="filter:url(#Adobe_OpacityMaskFilter_13_);">
					</g>
				</mask>
				<linearGradient id="SVGID_49_" gradientUnits="userSpaceOnUse" x1="36.5788" y1="31.0384" x2="36.5788" y2="37.5908">
					<stop  offset="0" style="stop-color:#FFFFFF"/>
					<stop  offset="1" style="stop-color:#000000"/>
				</linearGradient>
				<path style="mask:url(#SVGID_48_);fill:url(#SVGID_49_);" d="M43.5,30.1c-4.1,0-5.4,5.3-6.9,5.3h0c0,0,0,0,0,0
					c-1.5,0-2.9-5.3-6.9-5.3c-2.7,0-4.9,1.1-4.9,5.4c0.9-2.6,2.3-3.5,4.9-3.5c2.6,0,4.5,4.2,6.9,4.2c0,0,0,0,0,0h0
					c2.5,0,4.3-4.2,6.9-4.2c2.6,0,4,0.8,4.9,3.5C48.4,31.2,46.2,30.1,43.5,30.1z"/>
			</g>
		</mask>
		<linearGradient id="SVGID_50_" gradientUnits="userSpaceOnUse" x1="36.5788" y1="31.0384" x2="36.5788" y2="37.5908">
			<stop  offset="0" style="stop-color:#FFFFFF"/>
			<stop  offset="1" style="stop-color:#FFFFFF"/>
		</linearGradient>
		<path style="fill:url(#SVGID_50_);" d="M43.5,30.1c-4.1,0-5.4,5.3-6.9,5.3h0c0,0,0,0,0,0c-1.5,0-2.9-5.3-6.9-5.3
			c-2.7,0-4.9,1.1-4.9,5.4c0.9-2.6,2.3-3.5,4.9-3.5c2.6,0,4.5,4.2,6.9,4.2c0,0,0,0,0,0h0c2.5,0,4.3-4.2,6.9-4.2c2.6,0,4,0.8,4.9,3.5
			C48.4,31.2,46.2,30.1,43.5,30.1z"/>
	</g>
</g>
</svg>
