<?xml version="1.0" encoding="utf-8"?>
<!-- Generator: Adobe Illustrator 19.0.0, SVG Export Plug-In . SVG Version: 6.00 Build 0)  -->
<svg version="1.1" id="Layer_1" xmlns="http://www.w3.org/2000/svg" xmlns:xlink="http://www.w3.org/1999/xlink" x="0px" y="0px"
	 viewBox="0 0 127.4 33.2" style="enable-background:new 0 0 127.4 33.2;" xml:space="preserve">
<style type="text/css">
	.st0{fill:#7CB0C7;}
	.st1{fill:url(#XMLID_61_);}
	.st2{fill:url(#XMLID_62_);}
	.st3{fill:url(#XMLID_63_);}
	.st4{fill:url(#XMLID_64_);}
	.st5{fill:url(#XMLID_65_);}
	.st6{fill:url(#XMLID_66_);}
	.st7{fill:url(#XMLID_67_);}
	.st8{fill:url(#XMLID_68_);}
	.st9{fill:url(#XMLID_69_);}
	.st10{fill:url(#XMLID_70_);}
	.st11{fill:url(#XMLID_71_);}
	.st12{fill:url(#XMLID_72_);}
	.st13{fill:url(#XMLID_73_);}
	.st14{fill:url(#XMLID_74_);}
	.st15{fill:url(#XMLID_75_);}
	.st16{fill:url(#XMLID_76_);}
</style>
<g id="XMLID_27_">
	<path id="XMLID_35_" class="st0" d="M101.9,17.7c-1.7,2.1-3.7,3.7-6.2,4.9c-2.4,1.2-5,1.7-7.7,1.7H0v8.9v0h88.1
		c3.9,0,7.8-0.8,11.5-2.6c3.7-1.8,6.8-4.3,9.2-7.3L127.4,0h-11.3L101.9,17.7z"/>
	<path id="XMLID_34_" class="st0" d="M0,0v2.2h111.5l-11.3,14.1c-1.5,1.8-3.3,3.3-5.4,4.3c-2.1,1-4.4,1.5-6.7,1.5H0v2.2h88.1
		c2.7,0,5.3-0.6,7.7-1.7c2.4-1.2,4.5-2.8,6.2-4.9L116.2,0L0,0L0,0L0,0z"/>
	
		<linearGradient id="XMLID_61_" gradientUnits="userSpaceOnUse" x1="3617.7285" y1="-2785.4983" x2="3617.7285" y2="-2759.9094" gradientTransform="matrix(1 0 0 1 -3559.6467 2785.9104)">
		<stop  offset="0" style="stop-color:#082C35"/>
		<stop  offset="0.303" style="stop-color:#9CD8DC"/>
		<stop  offset="1" style="stop-color:#DFF0EF"/>
	</linearGradient>
	<path id="XMLID_33_" class="st1" d="M0,0v2.2h111.5l-11.3,14.1c-1.5,1.8-3.3,3.3-5.4,4.3c-2.1,1-4.4,1.5-6.7,1.5H0v2.2h88.1
		c2.7,0,5.3-0.6,7.7-1.7c2.4-1.2,4.5-2.8,6.2-4.9L116.2,0L0,0L0,0L0,0z"/>
	<path id="XMLID_32_" class="st0" d="M94.8,20.6c2.1-1,3.9-2.5,5.4-4.3l11.3-14.1H0v19.9h88.1C90.4,22.1,92.7,21.6,94.8,20.6z"/>
	
		<linearGradient id="XMLID_62_" gradientUnits="userSpaceOnUse" x1="3615.4177" y1="-2785.4983" x2="3615.4177" y2="-2759.9094" gradientTransform="matrix(1 0 0 1 -3559.6467 2785.9104)">
		<stop  offset="0" style="stop-color:#082C35"/>
		<stop  offset="0.303" style="stop-color:#9CD8DC"/>
		<stop  offset="1" style="stop-color:#DFF0EF"/>
	</linearGradient>
	<path id="XMLID_31_" class="st2" d="M94.8,20.6c2.1-1,3.9-2.5,5.4-4.3l11.3-14.1H0v19.9h88.1C90.4,22.1,92.7,21.6,94.8,20.6z"/>
	
		<linearGradient id="XMLID_63_" gradientUnits="userSpaceOnUse" x1="3615.4177" y1="-2763.3042" x2="3615.4177" y2="-2784.0732" gradientTransform="matrix(1 0 0 1 -3559.6467 2785.9104)">
		<stop  offset="0" style="stop-color:#065B73"/>
		<stop  offset="0.1879" style="stop-color:#113D63"/>
		<stop  offset="1" style="stop-color:#009E98"/>
	</linearGradient>
	<path id="XMLID_30_" class="st3" d="M94.8,20.6c2.1-1,3.9-2.5,5.4-4.3l11.3-14.1H0v19.9h88.1C90.4,22.1,92.7,21.6,94.8,20.6z"/>
</g>
<g id="XMLID_26_">
	<path id="XMLID_24_" class="st0" d="M-104.3,247.5c-2.4,1.2-5,1.7-7.7,1.7h-88.1v8.9h88.1c3.9,0,7.8-0.8,11.5-2.6
		c3.7-1.8,6.8-4.3,9.2-7.3l18.6-23.2h-11.3l-14.2,17.7C-99.8,244.7-101.9,246.4-104.3,247.5z"/>
	<path id="XMLID_23_" class="st0" d="M-200.1,227.1h0.1h111.4l-11.3,14.1c-1.5,1.8-3.3,3.3-5.4,4.3c-2.1,1-4.4,1.5-6.7,1.5h-88h-0.1
		v2.2h88.1c2.7,0,5.3-0.6,7.7-1.7c2.4-1.2,4.5-2.8,6.2-4.9l14.2-17.7h-116.2v0V227.1z"/>
	
		<linearGradient id="XMLID_64_" gradientUnits="userSpaceOnUse" x1="3417.634" y1="-2560.583" x2="3417.634" y2="-2534.9941" gradientTransform="matrix(1 0 0 1 -3559.6467 2785.9104)">
		<stop  offset="0" style="stop-color:#082C35"/>
		<stop  offset="0.303" style="stop-color:#9CD8DC"/>
		<stop  offset="1" style="stop-color:#DFF0EF"/>
	</linearGradient>
	<path id="XMLID_22_" class="st4" d="M-200.1,227.1h0.1h111.4l-11.3,14.1c-1.5,1.8-3.3,3.3-5.4,4.3c-2.1,1-4.4,1.5-6.7,1.5h-88h-0.1
		v2.2h88.1c2.7,0,5.3-0.6,7.7-1.7c2.4-1.2,4.5-2.8,6.2-4.9l14.2-17.7h-116.2v0V227.1z"/>
	<rect id="XMLID_21_" x="-200.1" y="227.1" class="st0" width="0.1" height="19.9"/>
	
		<linearGradient id="XMLID_65_" gradientUnits="userSpaceOnUse" x1="3359.6099" y1="-2560.583" x2="3359.6099" y2="-2534.9941" gradientTransform="matrix(1 0 0 1 -3559.6467 2785.9104)">
		<stop  offset="0" style="stop-color:#082C35"/>
		<stop  offset="0.303" style="stop-color:#9CD8DC"/>
		<stop  offset="1" style="stop-color:#DFF0EF"/>
	</linearGradient>
	<rect id="XMLID_20_" x="-200.1" y="227.1" class="st5" width="0.1" height="19.9"/>
	
		<linearGradient id="XMLID_66_" gradientUnits="userSpaceOnUse" x1="3359.6099" y1="-2538.3889" x2="3359.6099" y2="-2559.158" gradientTransform="matrix(1 0 0 1 -3559.6467 2785.9104)">
		<stop  offset="0" style="stop-color:#065B73"/>
		<stop  offset="0.1879" style="stop-color:#113D63"/>
		<stop  offset="1" style="stop-color:#009E98"/>
	</linearGradient>
	<rect id="XMLID_19_" x="-200.1" y="227.1" class="st6" width="0.1" height="19.9"/>
	<path id="XMLID_18_" class="st0" d="M-112,247.1c2.3,0,4.6-0.5,6.7-1.5c2.1-1,3.9-2.5,5.4-4.3l11.3-14.1H-200v19.9H-112z"/>
	
		<linearGradient id="XMLID_67_" gradientUnits="userSpaceOnUse" x1="3415.3809" y1="-2560.583" x2="3415.3809" y2="-2534.9941" gradientTransform="matrix(1 0 0 1 -3559.6467 2785.9104)">
		<stop  offset="0" style="stop-color:#082C35"/>
		<stop  offset="0.303" style="stop-color:#9CD8DC"/>
		<stop  offset="1" style="stop-color:#DFF0EF"/>
	</linearGradient>
	<path id="XMLID_17_" class="st7" d="M-112,247.1c2.3,0,4.6-0.5,6.7-1.5c2.1-1,3.9-2.5,5.4-4.3l11.3-14.1H-200v19.9H-112z"/>
	
		<linearGradient id="XMLID_68_" gradientUnits="userSpaceOnUse" x1="3415.3809" y1="-2538.3889" x2="3415.3809" y2="-2559.158" gradientTransform="matrix(1 0 0 1 -3559.6467 2785.9104)">
		<stop  offset="0" style="stop-color:#065B73"/>
		<stop  offset="0.1879" style="stop-color:#113D63"/>
		<stop  offset="1" style="stop-color:#009E98"/>
	</linearGradient>
	<path id="XMLID_16_" class="st8" d="M-112,247.1c2.3,0,4.6-0.5,6.7-1.5c2.1-1,3.9-2.5,5.4-4.3l11.3-14.1H-200v19.9H-112z"/>
	
		<linearGradient id="XMLID_69_" gradientUnits="userSpaceOnUse" x1="3415.3809" y1="-2538.3889" x2="3415.3809" y2="-2559.158" gradientTransform="matrix(1 0 0 1 -3559.6467 2785.9104)">
		<stop  offset="0" style="stop-color:#67C0D8"/>
		<stop  offset="0.1879" style="stop-color:#67A1C9"/>
		<stop  offset="1" style="stop-color:#FFFFFF"/>
	</linearGradient>
	<path id="XMLID_15_" class="st9" d="M-112,247.1c2.3,0,4.6-0.5,6.7-1.5c2.1-1,3.9-2.5,5.4-4.3l11.3-14.1H-200v19.9H-112z"/>
</g>
<g id="XMLID_1_">
	<path id="XMLID_14_" class="st0" d="M-180.2,158.6c1.7,2.1,3.7,3.7,6.2,4.9c2.4,1.2,5,1.7,7.7,1.7h88.1v8.9v0h-88.1
		c-3.9,0-7.8-0.8-11.5-2.6c-3.7-1.8-6.8-4.3-9.2-7.3l-18.6-23.2h11.3L-180.2,158.6z"/>
	<path id="XMLID_13_" class="st0" d="M-78.3,140.9v2.2h-111.5l11.3,14.1c1.5,1.8,3.3,3.3,5.4,4.3c2.1,1,4.4,1.5,6.7,1.5h88.1v2.2
		h-88.1c-2.7,0-5.3-0.6-7.7-1.7c-2.4-1.2-4.5-2.8-6.2-4.9l-14.2-17.7L-78.3,140.9L-78.3,140.9L-78.3,140.9z"/>
	
		<linearGradient id="XMLID_70_" gradientUnits="userSpaceOnUse" x1="-1637.5592" y1="-2644.6418" x2="-1637.5592" y2="-2619.053" gradientTransform="matrix(-1 0 0 1 -1773.9346 2785.9104)">
		<stop  offset="0" style="stop-color:#082C35"/>
		<stop  offset="0.303" style="stop-color:#9CD8DC"/>
		<stop  offset="1" style="stop-color:#DFF0EF"/>
	</linearGradient>
	<path id="XMLID_12_" class="st10" d="M-78.3,140.9v2.2h-111.5l11.3,14.1c1.5,1.8,3.3,3.3,5.4,4.3c2.1,1,4.4,1.5,6.7,1.5h88.1v2.2
		h-88.1c-2.7,0-5.3-0.6-7.7-1.7c-2.4-1.2-4.5-2.8-6.2-4.9l-14.2-17.7L-78.3,140.9L-78.3,140.9L-78.3,140.9z"/>
	<path id="XMLID_11_" class="st0" d="M-173.1,161.5c-2.1-1-3.9-2.5-5.4-4.3l-11.3-14.1h111.5V163h-88.1
		C-168.7,163-171,162.5-173.1,161.5z"/>
	
		<linearGradient id="XMLID_71_" gradientUnits="userSpaceOnUse" x1="-1639.8699" y1="-2644.6418" x2="-1639.8699" y2="-2619.053" gradientTransform="matrix(-1 0 0 1 -1773.9346 2785.9104)">
		<stop  offset="0" style="stop-color:#082C35"/>
		<stop  offset="0.303" style="stop-color:#9CD8DC"/>
		<stop  offset="1" style="stop-color:#DFF0EF"/>
	</linearGradient>
	<path id="XMLID_10_" class="st11" d="M-173.1,161.5c-2.1-1-3.9-2.5-5.4-4.3l-11.3-14.1h111.5V163h-88.1
		C-168.7,163-171,162.5-173.1,161.5z"/>
	
		<linearGradient id="XMLID_72_" gradientUnits="userSpaceOnUse" x1="-1639.8699" y1="-2622.4475" x2="-1639.8699" y2="-2643.2168" gradientTransform="matrix(-1 0 0 1 -1773.9346 2785.9104)">
		<stop  offset="0" style="stop-color:#065B73"/>
		<stop  offset="0.1879" style="stop-color:#113D63"/>
		<stop  offset="1" style="stop-color:#009E98"/>
	</linearGradient>
	<path id="XMLID_9_" class="st12" d="M-173.1,161.5c-2.1-1-3.9-2.5-5.4-4.3l-11.3-14.1h111.5V163h-88.1
		C-168.7,163-171,162.5-173.1,161.5z"/>
</g>
<g id="XMLID_25_">
	<path id="XMLID_8_" class="st0" d="M-216.8,86.8c2.4,1.2,5,1.7,7.7,1.7l88.1,0v8.9l-88.1,0c-3.9,0-7.8-0.8-11.5-2.6
		c-3.7-1.8-6.8-4.3-9.2-7.3l-18.6-23.2h11.3l14.2,17.7C-221.3,84-219.3,85.6-216.8,86.8z"/>
	<path id="XMLID_7_" class="st0" d="M-121.1,66.4h-0.1l-111.4,0l11.3,14.1c1.5,1.8,3.3,3.3,5.4,4.3c2.1,1,4.4,1.5,6.7,1.5l88,0h0.1
		v2.2l-88.1,0c-2.7,0-5.3-0.6-7.7-1.7c-2.4-1.2-4.5-2.8-6.2-4.9l-14.2-17.7l116.2,0v0V66.4z"/>
	
		<linearGradient id="XMLID_73_" gradientUnits="userSpaceOnUse" x1="-1594.7814" y1="-2721.3318" x2="-1594.7814" y2="-2695.7429" gradientTransform="matrix(-1 0 0 1 -1773.9346 2785.9104)">
		<stop  offset="0" style="stop-color:#082C35"/>
		<stop  offset="0.303" style="stop-color:#9CD8DC"/>
		<stop  offset="1" style="stop-color:#DFF0EF"/>
	</linearGradient>
	<path id="XMLID_6_" class="st13" d="M-121.1,66.4h-0.1l-111.4,0l11.3,14.1c1.5,1.8,3.3,3.3,5.4,4.3c2.1,1,4.4,1.5,6.7,1.5l88,0h0.1
		v2.2l-88.1,0c-2.7,0-5.3-0.6-7.7-1.7c-2.4-1.2-4.5-2.8-6.2-4.9l-14.2-17.7l116.2,0v0V66.4z"/>
	<path id="XMLID_5_" class="st0" d="M-209.2,86.3c-2.3,0-4.6-0.5-6.7-1.5c-2.1-1-3.9-2.5-5.4-4.3l-11.3-14.1l111.4,0v19.9
		L-209.2,86.3z"/>
	
		<linearGradient id="XMLID_74_" gradientUnits="userSpaceOnUse" x1="-1597.0344" y1="-2721.3318" x2="-1597.0344" y2="-2695.7429" gradientTransform="matrix(-1 0 0 1 -1773.9346 2785.9104)">
		<stop  offset="0" style="stop-color:#082C35"/>
		<stop  offset="0.303" style="stop-color:#9CD8DC"/>
		<stop  offset="1" style="stop-color:#DFF0EF"/>
	</linearGradient>
	<path id="XMLID_4_" class="st14" d="M-209.2,86.3c-2.3,0-4.6-0.5-6.7-1.5c-2.1-1-3.9-2.5-5.4-4.3l-11.3-14.1l111.4,0v19.9
		L-209.2,86.3z"/>
	
		<linearGradient id="XMLID_75_" gradientUnits="userSpaceOnUse" x1="-1597.0344" y1="-2699.1375" x2="-1597.0344" y2="-2719.9067" gradientTransform="matrix(-1 0 0 1 -1773.9346 2785.9104)">
		<stop  offset="0" style="stop-color:#065B73"/>
		<stop  offset="0.1879" style="stop-color:#113D63"/>
		<stop  offset="1" style="stop-color:#009E98"/>
	</linearGradient>
	<path id="XMLID_3_" class="st15" d="M-209.2,86.3c-2.3,0-4.6-0.5-6.7-1.5c-2.1-1-3.9-2.5-5.4-4.3l-11.3-14.1l111.4,0v19.9
		L-209.2,86.3z"/>
	
		<linearGradient id="XMLID_76_" gradientUnits="userSpaceOnUse" x1="-1597.0344" y1="-2699.1375" x2="-1597.0344" y2="-2719.9067" gradientTransform="matrix(-1 0 0 1 -1773.9346 2785.9104)">
		<stop  offset="0" style="stop-color:#67C0D8"/>
		<stop  offset="0.1879" style="stop-color:#67A1C9"/>
		<stop  offset="1" style="stop-color:#FFFFFF"/>
	</linearGradient>
	<path id="XMLID_2_" class="st16" d="M-209.2,86.3c-2.3,0-4.6-0.5-6.7-1.5c-2.1-1-3.9-2.5-5.4-4.3l-11.3-14.1l111.4,0v19.9
		L-209.2,86.3z"/>
</g>
</svg>
