<?xml version="1.0" encoding="utf-8"?>
<!-- Generator: Adobe Illustrator 18.1.1, SVG Export Plug-In . SVG Version: 6.00 Build 0)  -->
<svg version="1.1" id="Layer_1" xmlns="http://www.w3.org/2000/svg" xmlns:xlink="http://www.w3.org/1999/xlink" x="0px" y="0px"
	 viewBox="0 0 250.9 74.7" style="enable-background:new 0 0 250.9 74.7;" xml:space="preserve">
<g>
</g>
<g>
	
		<linearGradient id="SVGID_1_" gradientUnits="userSpaceOnUse" x1="0.3801" y1="57.7323" x2="88.1344" y2="57.7323" gradientTransform="matrix(2.8637 0 0 -2.8637 -0.8358 201.4097)">
		<stop  offset="0" style="stop-color:#88D6F5"/>
		<stop  offset="0.1" style="stop-color:#518FA3"/>
		<stop  offset="0.15" style="stop-color:#AEE1F7"/>
		<stop  offset="0.3" style="stop-color:#E9F7FE"/>
		<stop  offset="0.35" style="stop-color:#6ABAD4"/>
		<stop  offset="0.5" style="stop-color:#FFFFFF"/>
		<stop  offset="0.65" style="stop-color:#6ABAD4"/>
		<stop  offset="0.7" style="stop-color:#E9F7FE"/>
		<stop  offset="0.85" style="stop-color:#AEE1F7"/>
		<stop  offset="0.9" style="stop-color:#518FA3"/>
		<stop  offset="1" style="stop-color:#88D6F5"/>
	</linearGradient>
	<path style="fill:url(#SVGID_1_);" d="M230.8,4.9c-2-2.9-6-4.9-9.5-4.9h-53.8c-3.4,0-7.4,1.4-9.2,3.2s-5.7,3.2-9.2,3.2h-48.1
		c-3.4,0-7.4-1.4-9.2-3.2C90.2,1.4,86.2,0,82.7,0H28.9c-3.2,0-7.4,2.3-9.5,4.9l-18,26.3c-2,2.9-1.7,7.2,0,10l18,26.1
		c2,2.9,6,4.9,9.5,4.9H83c3.4,0,7.4-1.4,9.2-3.2c1.7-1.7,5.7-3.2,9.2-3.2h48.1c3.4,0,7.4,1.4,9.2,3.2c1.7,1.7,5.7,3.2,9.2,3.2h54.1
		c3.4,0,7.4-2.3,9.5-4.9l18-26.1c2-2.9,2-7.2,0-10L230.8,4.9z"/>
	
		<linearGradient id="SVGID_2_" gradientUnits="userSpaceOnUse" x1="44.0985" y1="69.3606" x2="44.0985" y2="44.4728" gradientTransform="matrix(2.8637 0 0 -2.8637 -0.8358 201.4097)">
		<stop  offset="0" style="stop-color:#FFFFFF"/>
		<stop  offset="0.8036" style="stop-color:#009E98"/>
		<stop  offset="1" style="stop-color:#ABDEE3"/>
	</linearGradient>
	<path style="fill:url(#SVGID_2_);" d="M230.8,7.4c-2-2.9-6-4.9-9.5-4.9h-53.8c-3.4,0-7.4,1.4-9.2,3.2s-5.7,3.2-9.2,3.2h-48.1
		c-3.4,0-7.4-1.4-9.2-3.2c-1.7-1.7-5.7-3.2-9.2-3.2H28.9c-3.4,0-7.4,2.3-9.5,4.9l-18,26.3c-2,2.9-1.7,7.2,0,10l18,26.1
		c2,2.9,6,4.9,9.5,4.9H83c3.4,0,7.4-1.4,9.2-3.2c1.7-1.7,5.7-3.2,9.2-3.2h48.1c3.4,0,7.4,1.4,9.2,3.2c1.7,1.7,5.7,3.2,9.2,3.2h54.1
		c3.4,0,7.4-2.3,9.5-4.9l18-26.1c2-2.9,2-7.2,0-10L230.8,7.4z"/>
	
		<linearGradient id="SVGID_3_" gradientUnits="userSpaceOnUse" x1="44.0301" y1="67.2806" x2="44.0301" y2="46.5407" gradientTransform="matrix(2.8637 0 0 -2.8637 -0.8358 201.4097)">
		<stop  offset="0" style="stop-color:#06262F"/>
		<stop  offset="0.7636" style="stop-color:#2A5A68"/>
		<stop  offset="0.8652" style="stop-color:#E0F2F6"/>
	</linearGradient>
	<path style="fill:url(#SVGID_3_);" d="M167.5,68.7c-2,0-4.3-0.9-4.9-1.4c-3.2-3.2-9.2-4.6-13.2-4.6h-48.4c-4,0-10,1.4-13.2,4.6
		c-0.6,0.6-2.9,1.4-4.9,1.4H28.9c-1.4,0-3.7-1.1-4.6-2.3L6.6,40.1c-0.6-0.6-0.6-2.6,0-3.2l18-26.3c0.6-0.9,3.2-2.3,4.3-2.3H83
		c2,0,4.3,0.9,4.9,1.4c3.4,3.2,9.2,4.6,13.2,4.6h48.1c4,0,10-1.4,13.2-4.6c0.6-0.6,2.9-1.4,4.9-1.4h54.1c1.4,0,3.7,1.1,4.6,2.3
		l18,26.3c0.6,0.6,0.6,2.6,0,3.2l-18,26.1c-0.9,1.1-3.2,2.3-4.6,2.3h-53.8V68.7z"/>
	
		<linearGradient id="SVGID_4_" gradientUnits="userSpaceOnUse" x1="44.0301" y1="66.4487" x2="44.0301" y2="47.3678" gradientTransform="matrix(2.8637 0 0 -2.8637 -0.8358 201.4097)">
		<stop  offset="0" style="stop-color:#009E98"/>
		<stop  offset="0.8121" style="stop-color:#113D63"/>
		<stop  offset="1" style="stop-color:#065B73"/>
	</linearGradient>
	<path style="fill:url(#SVGID_4_);" d="M167.5,66.2c-1.1,0-2.9-0.6-3.4-0.9c-3.7-3.7-10-5.2-14.6-5.2h-48.4
		c-4.6,0-10.9,1.7-14.6,5.2c-0.6,0.3-2,0.9-3.4,0.9H28.9c-0.6,0-2-0.9-2.6-1.4L8.8,38.9c0-0.3,0-0.6,0-0.6l17.8-26.1
		c0.3-0.6,1.7-1.4,2.3-1.4H83c1.1,0,2.9,0.6,3.4,0.9c3.7,3.7,10,5.2,14.6,5.2h48.1c4.6,0,10.9-1.7,14.6-5.2c0.6-0.3,2-0.9,3.4-0.9
		h54.1c0.6,0,2,0.9,2.6,1.4l17.8,26.1c0,0.3,0,0.6,0,0.6L223.9,65c-0.3,0.6-2,1.1-2.6,1.4h-53.8V66.2z"/>
</g>
</svg>
