<?xml version="1.0" encoding="utf-8"?>
<!-- Generator: Adobe Illustrator 18.1.1, SVG Export Plug-In . SVG Version: 6.00 Build 0)  -->
<svg version="1.1" id="Layer_1" xmlns="http://www.w3.org/2000/svg" xmlns:xlink="http://www.w3.org/1999/xlink" x="0px" y="0px"
	 viewBox="0 0 381.9 103.3" enable-background="new 0 0 381.9 103.3" xml:space="preserve">
<path fill="#7CB0C7" d="M342.6,91.8c-2.4,3.1-5.4,5.6-9.1,7.4c-3.7,1.8-7.5,2.7-11.3,2.7H59.6c-3.8,0-7.7-0.8-11.3-2.7
	c-3.7-1.8-6.7-4.4-9.1-7.4L20.9,68.3h340.1L342.6,91.8z"/>
<linearGradient id="SVGID_1_" gradientUnits="userSpaceOnUse" x1="201.1905" y1="69.6834" x2="201.1905" y2="94.8192">
	<stop  offset="0" style="stop-color:#082C35"/>
	<stop  offset="0.303" style="stop-color:#9CD8DC"/>
	<stop  offset="1" style="stop-color:#DFF0EF"/>
</linearGradient>
<path fill="url(#SVGID_1_)" d="M80.9,93.2c-2.6,0-5.2-0.6-7.5-1.7c-2.4-1.1-4.4-2.8-6-4.8l-14-17.4H349l-14,17.4
	c-1.6,2.1-3.7,3.7-6.1,4.8c-2.4,1.1-4.9,1.7-7.5,1.7H80.9z"/>
<linearGradient id="lowerBar_1_" gradientUnits="userSpaceOnUse" x1="209.5128" y1="91.9063" x2="209.5128" y2="71.5048">
	<stop  offset="0" style="stop-color:#065B73"/>
	<stop  offset="0.1879" style="stop-color:#113D63"/>
	<stop  offset="1" style="stop-color:#009E98"/>
</linearGradient>
<path id="lowerBar" fill="url(#lowerBar_1_)" d="M75.9,91.5c-2.3,0,6.1-0.5,4-1.5c-2.1-1,3.5-2.4,2.1-4.2l-3.8-13.9h265.4
	l-11.1,13.9c-1.4,1.8-3.2,3.2-5.3,4.2c-2.1,1-4.3,1.5-6.6,1.5H75.9z"/>
<polygon fill="#7CB0C7" points="46.8,42.7 34.6,68.5 361,68.5 381.9,42.9 "/>
<linearGradient id="SVGID_2_" gradientUnits="userSpaceOnUse" x1="201.5048" y1="65.4594" x2="201.5048" y2="44.5522">
	<stop  offset="0.1348" style="stop-color:#8CD4E2"/>
	<stop  offset="0.2364" style="stop-color:#4E90CD"/>
	<stop  offset="1" style="stop-color:#3968B2"/>
</linearGradient>
<polygon fill="url(#SVGID_2_)" points="48,44.4 38.6,65.4 346.2,65.7 364.4,45.3 "/>
<linearGradient id="levelBar_1_" gradientUnits="userSpaceOnUse" x1="356.5448" y1="55.0599" x2="41.0592" y2="55.0599">
	<stop  offset="0" style="stop-color:#2C57A7"/>
	<stop  offset="1" style="stop-color:#58C6F2"/>
</linearGradient>
<polygon id="levelBar" fill="url(#levelBar_1_)" points="360.1,46.6 56,46.6 39.1,63.5 344.8,63.5 "/>
<linearGradient id="SVGID_3_" gradientUnits="userSpaceOnUse" x1="52.7848" y1="47.5332" x2="52.7848" y2="63.2939">
	<stop  offset="0" style="stop-color:#A2CD3A"/>
	<stop  offset="1" style="stop-color:#70A842"/>
</linearGradient>
<polygon fill="url(#SVGID_3_)" points="55.2,46.6 38.4,63.5 50.4,63.5 67.2,46.6 "/>
<linearGradient id="SVGID_4_" gradientUnits="userSpaceOnUse" x1="67.2132" y1="47.5332" x2="67.2132" y2="63.2939">
	<stop  offset="0" style="stop-color:#A2CD3A"/>
	<stop  offset="1" style="stop-color:#70A842"/>
</linearGradient>
<polygon fill="url(#SVGID_4_)" points="69.6,46.6 52.8,63.5 64.8,63.5 81.6,46.6 "/>
<linearGradient id="SVGID_5_" gradientUnits="userSpaceOnUse" x1="81.6419" y1="47.5332" x2="81.6419" y2="63.2939">
	<stop  offset="0" style="stop-color:#A2CD3A"/>
	<stop  offset="1" style="stop-color:#70A842"/>
</linearGradient>
<polygon fill="url(#SVGID_5_)" points="84,46.6 67.2,63.5 79.2,63.5 96.1,46.6 "/>
<linearGradient id="SVGID_6_" gradientUnits="userSpaceOnUse" x1="96.0704" y1="47.5332" x2="96.0704" y2="63.2939">
	<stop  offset="0" style="stop-color:#A2CD3A"/>
	<stop  offset="1" style="stop-color:#70A842"/>
</linearGradient>
<polygon fill="url(#SVGID_6_)" points="98.5,46.6 81.6,63.5 93.7,63.5 110.5,46.6 "/>
<linearGradient id="SVGID_7_" gradientUnits="userSpaceOnUse" x1="112.2178" y1="47.5332" x2="112.2178" y2="63.2939">
	<stop  offset="0" style="stop-color:#A2CD3A"/>
	<stop  offset="1" style="stop-color:#70A842"/>
</linearGradient>
<polygon fill="url(#SVGID_7_)" points="114.6,46.6 97.8,63.5 109.8,63.5 126.6,46.6 "/>
<linearGradient id="SVGID_8_" gradientUnits="userSpaceOnUse" x1="49.0307" y1="-18.2188" x2="50.8971" y2="166.4698">
	<stop  offset="0" style="stop-color:#303237"/>
	<stop  offset="0.1955" style="stop-color:#30313A"/>
	<stop  offset="0.4655" style="stop-color:#2E3042"/>
	<stop  offset="0.7774" style="stop-color:#282B50"/>
	<stop  offset="0.9939" style="stop-color:#22255B"/>
</linearGradient>
<path fill="url(#SVGID_8_)" d="M49.7,103.3C22.3,103.3,0,80.2,0,51.7C0,23.2,22.3,0,49.7,0c27.4,0,49.7,23.2,49.7,51.7
	C99.5,80.2,77.2,103.3,49.7,103.3z"/>
<linearGradient id="SVGID_9_" gradientUnits="userSpaceOnUse" x1="49.0912" y1="-12.7132" x2="50.2528" y2="102.2225">
	<stop  offset="0" style="stop-color:#C0E6E9"/>
	<stop  offset="9.278299e-002" style="stop-color:#AEDFE3"/>
	<stop  offset="0.2757" style="stop-color:#7FCFD5"/>
	<stop  offset="0.4" style="stop-color:#55C5CA"/>
	<stop  offset="0.4642" style="stop-color:#50BCC5"/>
	<stop  offset="0.5656" style="stop-color:#3EABBB"/>
	<stop  offset="0.6908" style="stop-color:#1692AB"/>
	<stop  offset="0.7152" style="stop-color:#048DA8"/>
	<stop  offset="1" style="stop-color:#2E6F84"/>
</linearGradient>
<ellipse fill="url(#SVGID_9_)" cx="49.7" cy="51.7" rx="45.8" ry="47.6"/>
<radialGradient id="SVGID_10_" cx="41.34" cy="10.2464" r="56.5454" gradientTransform="matrix(0.9626 0 0 1 -0.1581 0)" gradientUnits="userSpaceOnUse">
	<stop  offset="0.1394" style="stop-color:#92D5DB"/>
	<stop  offset="0.5549" style="stop-color:#485C5B"/>
	<stop  offset="0.8608" style="stop-color:#1C2120"/>
	<stop  offset="1" style="stop-color:#010101"/>
</radialGradient>
<path opacity="0.69" fill="url(#SVGID_10_)" d="M49.7,16.3c23.3,0,42.5,18.1,45.4,41.5c0.2-2,0.4-4,0.4-6.1
	C95.6,25.4,75,4.1,49.7,4.1C24.4,4.1,3.9,25.4,3.9,51.7c0,2.1,0.2,4.1,0.4,6.1C7.2,34.4,26.4,16.3,49.7,16.3z"/>
<radialGradient id="insideCircle_1_" cx="51.8416" cy="58.1603" r="41.7448" gradientTransform="matrix(0.9626 0 0 1 -0.1581 0)" gradientUnits="userSpaceOnUse">
	<stop  offset="0" style="stop-color:#C8EAF5"/>
	<stop  offset="0.1241" style="stop-color:#B6E3EF"/>
	<stop  offset="0.3702" style="stop-color:#87D3DF"/>
	<stop  offset="0.6848" style="stop-color:#21BECA"/>
	<stop  offset="0.7491" style="stop-color:#22B7C5"/>
	<stop  offset="0.8504" style="stop-color:#18A8BB"/>
	<stop  offset="0.9756" style="stop-color:#0792AB"/>
	<stop  offset="1" style="stop-color:#048DA8"/>
</radialGradient>
<path id="insideCircle" fill="url(#insideCircle_1_)" d="M89.9,50.9c0,23-18,41.7-40.2,41.7S9.6,74,9.6,50.9
	c0-23.1,18-41.8,40.2-41.8S89.9,27.9,89.9,50.9z"/>
<path opacity="0.74" fill="#244B5D" d="M49.7,15.3c21.2,0,38.5,17.1,40,38.7c0.1-1,0.1-2,0.1-3.1c0-23.1-18-41.8-40.2-41.8
	S9.6,27.9,9.6,50.9c0,1,0.1,2,0.1,3.1C11.2,32.3,28.5,15.3,49.7,15.3z"/>
<path opacity="0.69" fill="#DAF0F2" d="M20.2,16.5c-2,0.5-4.3,3.4-3.8,5.5c1.5,0.7,4.6-2.1,5.5-3.4c1.7-2.6-0.7-3.3-2.6-1.6
	L20.2,16.5z"/>
<path opacity="0.69" fill="#DAF0F2" d="M32.6,10.1c-2.1-4.5-9.5,5.8-2.8,3.6C31,13.3,33.3,11.6,32.6,10.1z"/>
<g>
	<path fill="#55C5CA" d="M9.6,52.2c0.1,0,0.2,2.2,1,6.1c0.8,3.9,2.2,9.5,6,15.4c3.7,5.9,10,11.7,18.4,14.8
		c8.3,3.2,18.7,3.9,28.4,0.4c9.8-3.4,17.7-10.3,22-18.4c4.4-8.1,5-16.9,4-23.8c-1-7-3.3-12.3-5-15.9c-1.7-3.6-2.9-5.4-2.8-5.5
		c0.1,0,1.4,1.7,3.3,5.2c1.8,3.5,4.4,8.8,5.5,16c1.2,7,0.7,16.2-3.9,24.6c-4.4,8.4-12.7,15.7-22.8,19.2c-10.1,3.6-20.8,2.8-29.3-0.5
		c-8.7-3.3-15.1-9.5-18.8-15.6c-3.8-6.1-5.1-12-5.7-15.9C9.4,54.4,9.5,52.2,9.6,52.2z"/>
</g>
<g>
	<path fill="#DAF0F2" d="M10.2,58.8c0,0-1.6-6.2-0.2-16.2c0.8-5,2.5-10.9,6.2-16.5c3.6-5.6,9.3-10.6,16.1-13.6
		c13.8-6.3,28.4-4,37,0.7c8.8,4.8,11.6,11,11.5,10.9c-0.2,0.3-3.3-5.6-12-9.9c-8.4-4.3-22.6-6.3-35.9-0.3c-6.6,3-12,7.7-15.6,13
		c-3.6,5.3-5.4,11-6.3,15.9C9.3,52.5,10.5,58.8,10.2,58.8z"/>
</g>
</svg>
