<?xml version="1.0" encoding="utf-8"?>
<!-- Generator: Adobe Illustrator 18.1.1, SVG Export Plug-In . SVG Version: 6.00 Build 0)  -->
<svg version="1.1" id="Layer_1" xmlns="http://www.w3.org/2000/svg" xmlns:xlink="http://www.w3.org/1999/xlink" x="0px" y="0px"
	 viewBox="0 0 299.9 100" style="enable-background:new 0 0 299.9 100;" xml:space="preserve">
<linearGradient id="SVGID_1_" gradientUnits="userSpaceOnUse" x1="49.3152" y1="-17.6642" x2="51.1248" y2="161.4004">
	<stop  offset="0" style="stop-color:#303237"/>
	<stop  offset="0.1955" style="stop-color:#30313A"/>
	<stop  offset="0.4655" style="stop-color:#2E3042"/>
	<stop  offset="0.7774" style="stop-color:#282B50"/>
	<stop  offset="0.9939" style="stop-color:#22255B"/>
</linearGradient>
<path style="fill:url(#SVGID_1_);" d="M50,100.2c-27.6,0-50-22.5-50-50.1C0,22.5,22.4,0,50,0c27.6,0,50,22.5,50,50.1
	C100,77.7,77.6,100.2,50,100.2z"/>
<g>
	<path style="fill:#7CB0C7;" d="M96.7,66.9c-6.3,17.7-22.3,30.9-41.6,33h179.4c3.8,0,7.6-0.8,11.2-2.6c3.6-1.8,6.6-4.3,9-7.3
		l18.1-23.2L96.7,66.9z"/>
	<linearGradient id="SVGID_2_" gradientUnits="userSpaceOnUse" x1="169.5137" y1="68.1288" x2="169.5137" y2="92.9657">
		<stop  offset="0" style="stop-color:#082C35"/>
		<stop  offset="0.303" style="stop-color:#9CD8DC"/>
		<stop  offset="1" style="stop-color:#DFF0EF"/>
	</linearGradient>
	<path style="fill:url(#SVGID_2_);" d="M96.4,67.7C92.8,77.4,86.3,85.6,78,91.4h155.7c2.6,0,5.1-0.6,7.4-1.7c2.3-1.1,4.4-2.7,6-4.8
		L261,67.7H96.4z"/>
	<linearGradient id="SVGID_3_" gradientUnits="userSpaceOnUse" x1="167.998" y1="90.0875" x2="167.998" y2="69.9286">
		<stop  offset="0" style="stop-color:#065B73"/>
		<stop  offset="0.1879" style="stop-color:#113D63"/>
		<stop  offset="1" style="stop-color:#009E98"/>
	</linearGradient>
	<path style="fill:url(#SVGID_3_);" d="M95.4,70.3c-3.4,7.6-8.5,14.3-15,19.3h152.5c2.3,0,4.5-0.5,6.5-1.5c2-1,3.8-2.4,5.2-4.2
		l11-13.7H95.4z"/>
</g>
<g>
	<path style="fill:#7CB0C7;" d="M96.7,33.4c1.9,5.3,2.9,10.9,2.9,16.8c0,5.8-1,11.4-2.8,16.6h175.8l27-33.2L96.7,33.4z"/>
	<linearGradient id="SVGID_4_" gradientUnits="userSpaceOnUse" x1="192.7073" y1="62.8507" x2="192.7073" y2="35.7414">
		<stop  offset="0.1348" style="stop-color:#8CD4E2"/>
		<stop  offset="0.2364" style="stop-color:#4E90CD"/>
		<stop  offset="1" style="stop-color:#3968B2"/>
	</linearGradient>
	<path style="fill:url(#SVGID_4_);" d="M97.4,35.6c1.4,4.6,2.2,9.5,2.2,14.6c0,4.4-0.6,8.6-1.6,12.6l165.4,0.3L288,35.8L97.4,35.6z"
		/>
	<linearGradient id="SVGID_5_" gradientUnits="userSpaceOnUse" x1="189.8648" y1="60.037" x2="189.8648" y2="38.5779">
		<stop  offset="0" style="stop-color:#2C57A7"/>
		<stop  offset="1" style="stop-color:#58C6F2"/>
	</linearGradient>
	<path style="fill:url(#SVGID_5_);" d="M98.2,38.4c0.9,3.8,1.4,7.7,1.4,11.7c0,3.5-0.4,6.8-1,10.1h163l19.9-21.8H98.2z"/>
</g>
<linearGradient id="SVGID_6_" gradientUnits="userSpaceOnUse" x1="49.3741" y1="-12.3263" x2="50.5002" y2="99.1095">
	<stop  offset="0" style="stop-color:#C0E6E9"/>
	<stop  offset="9.278299e-002" style="stop-color:#AEDFE3"/>
	<stop  offset="0.2757" style="stop-color:#7FCFD5"/>
	<stop  offset="0.4" style="stop-color:#55C5CA"/>
	<stop  offset="0.4642" style="stop-color:#50BCC5"/>
	<stop  offset="0.5656" style="stop-color:#3EABBB"/>
	<stop  offset="0.6908" style="stop-color:#1692AB"/>
	<stop  offset="0.7152" style="stop-color:#048DA8"/>
	<stop  offset="1" style="stop-color:#2E6F84"/>
</linearGradient>
<ellipse style="fill:url(#SVGID_6_);" cx="50" cy="50.1" rx="46.1" ry="46.1"/>
<radialGradient id="SVGID_7_" cx="52.8198" cy="56.3891" r="40.4735" gradientTransform="matrix(0.998 0 0 1 -2.711 0)" gradientUnits="userSpaceOnUse">
	<stop  offset="0" style="stop-color:#C8EAF5"/>
	<stop  offset="0.1241" style="stop-color:#B6E3EF"/>
	<stop  offset="0.3702" style="stop-color:#87D3DF"/>
	<stop  offset="0.6848" style="stop-color:#21BECA"/>
	<stop  offset="0.7491" style="stop-color:#22B7C5"/>
	<stop  offset="0.8504" style="stop-color:#18A8BB"/>
	<stop  offset="0.9756" style="stop-color:#0792AB"/>
	<stop  offset="1" style="stop-color:#048DA8"/>
</radialGradient>
<path style="fill:url(#SVGID_7_);" d="M90.4,49.4c0,22.3-18.1,40.5-40.4,40.5S9.6,71.7,9.6,49.4C9.6,27,27.7,8.9,50,8.9
	S90.4,27,90.4,49.4z"/>
<path style="opacity:0.74;fill:#244B5D;" d="M50,14.8c21.3,0,38.7,16.5,40.2,37.5c0.1-1,0.1-2,0.1-3C90.4,27,72.3,8.9,50,8.9
	S9.6,27,9.6,49.4c0,1,0.1,2,0.1,3C11.3,31.4,28.7,14.8,50,14.8z"/>
<g>
	<path style="fill:#55C5CA;" d="M9.6,50.6c0.1,0,0.2,2.1,1,5.9c0.8,3.7,2.2,9.2,6,14.9c3.7,5.7,10.1,11.3,18.5,14.4
		c8.4,3.1,18.8,3.8,28.6,0.4c9.8-3.3,17.8-10,22.2-17.8c4.4-7.9,5.1-16.4,4-23.1c-1-6.8-3.3-11.9-5-15.4c-1.7-3.5-2.9-5.3-2.8-5.3
		c0.1,0,1.4,1.7,3.3,5.1c1.9,3.4,4.4,8.5,5.6,15.5c1.2,6.8,0.7,15.7-3.9,23.9c-4.4,8.2-12.7,15.2-22.9,18.6
		c-10.1,3.5-20.9,2.7-29.5-0.5C26,83.9,19.5,77.9,15.8,72C12,66.1,10.7,60.4,10,56.6C9.5,52.8,9.6,50.6,9.6,50.6z"/>
</g>
<g>
	<path style="fill:#DAF0F2;" d="M10.2,57c0,0-1.7-6-0.2-15.8c0.8-4.8,2.5-10.6,6.2-16c3.7-5.4,9.3-10.2,16.2-13.2
		C46.4,6,61,8.2,69.6,12.8c8.9,4.6,11.7,10.6,11.6,10.6c-0.2,0.3-3.3-5.4-12-9.6C60.7,9.5,46.5,7.6,33,13.4
		c-6.7,2.9-12.1,7.5-15.7,12.6c-3.6,5.1-5.5,10.7-6.3,15.4C9.4,50.9,10.6,57,10.2,57z"/>
</g>
</svg>
