<?xml version="1.0" encoding="utf-8"?>
<!-- Generator: Adobe Illustrator 19.0.0, SVG Export Plug-In . SVG Version: 6.00 Build 0)  -->
<svg version="1.1" id="Layer_1" xmlns="http://www.w3.org/2000/svg" xmlns:xlink="http://www.w3.org/1999/xlink" x="0px" y="0px"
	 viewBox="0 0 232.8 77.7" style="enable-background:new 0 0 232.8 77.7;" xml:space="preserve">
<style type="text/css">
	.st0{fill:url(#XMLID_77_);}
	.st1{fill:url(#XMLID_78_);}
	.st2{fill:url(#XMLID_79_);}
	.st3{filter:url(#Adobe_OpacityMaskFilter);}
	.st4{filter:url(#Adobe_OpacityMaskFilter_1_);}
	.st5{mask:url(#XMLID_80_);fill:url(#XMLID_81_);}
	.st6{fill:url(#XMLID_82_);}
	.st7{fill:url(#XMLID_83_);}
	.st8{fill:#023740;}
	.st9{fill:url(#XMLID_84_);}
	.st10{fill:url(#XMLID_85_);}
	.st11{fill:url(#XMLID_86_);}
	.st12{fill:url(#XMLID_87_);}
	.st13{filter:url(#Adobe_OpacityMaskFilter_2_);}
	.st14{filter:url(#Adobe_OpacityMaskFilter_3_);}
	.st15{mask:url(#XMLID_88_);fill:url(#XMLID_89_);}
	.st16{fill:url(#XMLID_90_);}
	.st17{fill:#FFFFFF;}
	.st18{fill:#D28D29;}
	.st19{opacity:0.74;fill:#FED401;}
	.st20{fill:#FED401;}
	.st21{opacity:0.48;fill:#FED401;}
</style>
<g id="XMLID_25_">
	<linearGradient id="XMLID_77_" gradientUnits="userSpaceOnUse" x1="42.45" y1="38.354" x2="233.5028" y2="38.354">
		<stop  offset="0" style="stop-color:#88D6F5"/>
		<stop  offset="0.1" style="stop-color:#518FA3"/>
		<stop  offset="0.3" style="stop-color:#AEE1F7"/>
		<stop  offset="0.5" style="stop-color:#FFFFFF"/>
		<stop  offset="0.7" style="stop-color:#AEE1F7"/>
		<stop  offset="0.9" style="stop-color:#518FA3"/>
		<stop  offset="1" style="stop-color:#88D6F5"/>
	</linearGradient>
	<path id="XMLID_39_" class="st0" d="M42.7,56.6h171.2c2.9,0,6.8-1.8,8.6-4l8.9-10.4c1.9-2.2,1.9-5.8,0-7.9L222.5,24
		c-1.9-2.2-5.8-4-8.6-4H42.7"/>
	<linearGradient id="XMLID_78_" gradientUnits="userSpaceOnUse" x1="137.715" y1="22.4167" x2="137.715" y2="58.0968">
		<stop  offset="0" style="stop-color:#DFF0EF"/>
		<stop  offset="1" style="stop-color:#9CD8DC"/>
	</linearGradient>
	<path id="XMLID_38_" class="st1" d="M42.7,59.3h171.2c2.9,0,6.8-1.8,8.6-4l8.9-10.4c1.9-2.2,1.9-5.8,0-7.9l-8.9-10.4
		c-1.9-2.2-5.8-4-8.6-4H42.7"/>
	<linearGradient id="XMLID_79_" gradientUnits="userSpaceOnUse" x1="135.8874" y1="26.1266" x2="135.8874" y2="54.6707">
		<stop  offset="0" style="stop-color:#06262F"/>
		<stop  offset="0.7636" style="stop-color:#2A5A68"/>
		<stop  offset="0.8652" style="stop-color:#E0F2F6"/>
	</linearGradient>
	<path id="XMLID_37_" class="st2" d="M42.7,26.3h171.2c1.8,0,4.7,1.3,5.8,2.7l8.9,10.4c0.7,0.8,0.7,2.4,0,3.2l-8.9,10.4
		c-1.2,1.4-4,2.7-5.8,2.7H42.7"/>
	<defs>
		<filter id="Adobe_OpacityMaskFilter" filterUnits="userSpaceOnUse" x="42.7" y="28.4" width="184.3" height="25.1">
			<feFlood  style="flood-color:white;flood-opacity:1" result="back"/>
			<feBlend  in="SourceGraphic" in2="back" mode="normal"/>
		</filter>
	</defs>
	<mask maskUnits="userSpaceOnUse" x="42.7" y="28.4" width="184.3" height="25.1" id="XMLID_80_">
		<g id="XMLID_33_" class="st3">
			<defs>
				<filter id="Adobe_OpacityMaskFilter_1_" filterUnits="userSpaceOnUse" x="29.5" y="28.4" width="197.5" height="25.1">
					<feFlood  style="flood-color:white;flood-opacity:1" result="back"/>
					<feBlend  in="SourceGraphic" in2="back" mode="normal"/>
				</filter>
			</defs>
			<mask maskUnits="userSpaceOnUse" x="29.5" y="28.4" width="197.5" height="25.1" id="XMLID_80_">
				<g id="XMLID_34_" class="st4">
				</g>
			</mask>
			<linearGradient id="XMLID_81_" gradientUnits="userSpaceOnUse" x1="128.2644" y1="28.2466" x2="128.2644" y2="52.713">
				<stop  offset="0" style="stop-color:#FFFFFF"/>
				<stop  offset="0.7697" style="stop-color:#000000"/>
				<stop  offset="1" style="stop-color:#FFFFFF"/>
			</linearGradient>
			<path id="XMLID_35_" class="st5" d="M42.7,53.5c-1.2,0-3.5-1-4.3-2l-8.9-10.4c0-0.1,0-0.4,0-0.5l8.8-10.3c0.8-0.9,3.1-2,4.3-2
				h171.2c1.2,0,3.5,1,4.3,2l8.9,10.4c0,0.1,0,0.4,0,0.5l-8.8,10.3c-0.8,0.9-3.1,2-4.3,2H42.7z"/>
		</g>
	</mask>
	<linearGradient id="XMLID_82_" gradientUnits="userSpaceOnUse" x1="134.8444" y1="28.2466" x2="134.8444" y2="52.713">
		<stop  offset="0" style="stop-color:#FFFFFF"/>
		<stop  offset="0.7697" style="stop-color:#FFFFFF"/>
		<stop  offset="1" style="stop-color:#FFFFFF"/>
	</linearGradient>
	<path id="XMLID_36_" class="st6" d="M42.7,28.4h171.2c1.2,0,3.5,1,4.3,2l8.9,10.4c0,0.1,0,0.4,0,0.5l-8.8,10.3
		c-0.8,0.9-3.1,2-4.3,2H42.7"/>
	<linearGradient id="XMLID_83_" gradientUnits="userSpaceOnUse" x1="134.5828" y1="28.7766" x2="134.5828" y2="52.2235">
		<stop  offset="0" style="stop-color:#009E98"/>
		<stop  offset="0.8121" style="stop-color:#113D63"/>
		<stop  offset="1" style="stop-color:#065B73"/>
	</linearGradient>
	<path id="XMLID_32_" class="st7" d="M42.7,28.9h171.2c1.1,0,3.2,1,3.9,1.8l8.8,10.2c0,0,0,0,0,0l-8.8,10.2
		c-0.7,0.8-2.8,1.8-3.9,1.8H42.7"/>
	<path id="XMLID_29_" class="st8" d="M42.5,34.4c0.2-0.1,0.4-0.2,0.5-0.2h170.4c0.2,0.1,0.4,0.2,0.5,0.2l5.6,6.6l-5.6,6.5
		c-0.2,0.1-0.4,0.2-0.5,0.2H43.1c-0.2-0.1-0.4-0.2-0.5-0.2"/>
	<path id="XMLID_26_" class="st8" d="M43.2,35.3C43.2,35.2,43.2,35.2,43.2,35.3l170.1,0c0,0,0,0,0.1,0l4.9,5.7l-4.9,5.7
		c0,0,0,0-0.1,0h-170c0,0,0,0-0.1,0"/>
</g>
<linearGradient id="XMLID_84_" gradientUnits="userSpaceOnUse" x1="-0.5627" y1="36.5788" x2="69.8711" y2="36.5788">
	<stop  offset="0" style="stop-color:#88D6F5"/>
	<stop  offset="0.1" style="stop-color:#518FA3"/>
	<stop  offset="0.3" style="stop-color:#AEE1F7"/>
	<stop  offset="0.5" style="stop-color:#FFFFFF"/>
	<stop  offset="0.7" style="stop-color:#AEE1F7"/>
	<stop  offset="0.9" style="stop-color:#518FA3"/>
	<stop  offset="1" style="stop-color:#88D6F5"/>
</linearGradient>
<circle id="XMLID_23_" class="st9" cx="36.6" cy="36.6" r="36.6"/>
<linearGradient id="XMLID_85_" gradientUnits="userSpaceOnUse" x1="36.5788" y1="78.2927" x2="36.5788" y2="7.8589">
	<stop  offset="0" style="stop-color:#B2E0E4"/>
	<stop  offset="1" style="stop-color:#E6EEEE"/>
</linearGradient>
<circle id="XMLID_22_" class="st10" cx="36.6" cy="41.2" r="36.6"/>
<linearGradient id="XMLID_86_" gradientUnits="userSpaceOnUse" x1="36.5788" y1="70.1094" x2="36.5788" y2="12.1929">
	<stop  offset="0.1348" style="stop-color:#E0F2F6"/>
	<stop  offset="0.2364" style="stop-color:#2A5A68"/>
	<stop  offset="1" style="stop-color:#06262F"/>
</linearGradient>
<path id="XMLID_21_" class="st11" d="M36.6,70.1c-16,0-29-13-29-29s13-29,29-29s29,13,29,29S52.5,70.1,36.6,70.1z"/>
<linearGradient id="XMLID_87_" gradientUnits="userSpaceOnUse" x1="36.5788" y1="68.5852" x2="36.5788" y2="13.717">
	<stop  offset="0" style="stop-color:#065B73"/>
	<stop  offset="0.1879" style="stop-color:#113D63"/>
	<stop  offset="1" style="stop-color:#009E98"/>
</linearGradient>
<path id="XMLID_20_" class="st12" d="M36.6,68.6c-15.1,0-27.4-12.3-27.4-27.4s12.3-27.4,27.4-27.4S64,26,64,41.2
	S51.7,68.6,36.6,68.6z"/>
<defs>
	<filter id="Adobe_OpacityMaskFilter_2_" filterUnits="userSpaceOnUse" x="10.7" y="15.2" width="51.8" height="51.8">
		<feFlood  style="flood-color:white;flood-opacity:1" result="back"/>
		<feBlend  in="SourceGraphic" in2="back" mode="normal"/>
	</filter>
</defs>
<mask maskUnits="userSpaceOnUse" x="10.7" y="15.2" width="51.8" height="51.8" id="XMLID_88_">
	<g id="XMLID_12_" class="st13">
		<defs>
			<filter id="Adobe_OpacityMaskFilter_3_" filterUnits="userSpaceOnUse" x="10.7" y="15.2" width="51.8" height="51.8">
				<feFlood  style="flood-color:white;flood-opacity:1" result="back"/>
				<feBlend  in="SourceGraphic" in2="back" mode="normal"/>
			</filter>
		</defs>
		<mask maskUnits="userSpaceOnUse" x="10.7" y="15.2" width="51.8" height="51.8" id="XMLID_88_">
			<g id="XMLID_13_" class="st14">
			</g>
		</mask>
		<linearGradient id="XMLID_89_" gradientUnits="userSpaceOnUse" x1="36.5788" y1="16.0032" x2="36.5788" y2="63.8913">
			<stop  offset="0" style="stop-color:#FFFFFF"/>
			<stop  offset="1" style="stop-color:#4D4D4D"/>
		</linearGradient>
		<path id="XMLID_14_" class="st15" d="M36.6,15.2c-14.3,0-25.9,11.6-25.9,25.9s11.6,25.9,25.9,25.9s25.9-11.6,25.9-25.9
			S50.9,15.2,36.6,15.2z M36.6,62.5c-11.8,0-21.3-9.6-21.3-21.3s9.6-21.3,21.3-21.3s21.3,9.6,21.3,21.3S48.3,62.5,36.6,62.5z"/>
	</g>
</mask>
<linearGradient id="XMLID_90_" gradientUnits="userSpaceOnUse" x1="36.5788" y1="16.0032" x2="36.5788" y2="63.8913">
	<stop  offset="0" style="stop-color:#FFFFFF"/>
	<stop  offset="1" style="stop-color:#FFFFFF"/>
</linearGradient>
<path id="XMLID_17_" class="st16" d="M36.6,15.2c-14.3,0-25.9,11.6-25.9,25.9s11.6,25.9,25.9,25.9s25.9-11.6,25.9-25.9
	S50.9,15.2,36.6,15.2z M36.6,62.5c-11.8,0-21.3-9.6-21.3-21.3s9.6-21.3,21.3-21.3s21.3,9.6,21.3,21.3S48.3,62.5,36.6,62.5z"/>
<path id="XMLID_11_" class="st17" d="M18.3,22.8l3.2,3.2c3.9-3.9,9.2-6.3,15.1-6.3c5.9,0,11.2,2.4,15.1,6.3l3.2-3.2
	c-4.7-4.7-11.2-7.6-18.3-7.6S23,18.1,18.3,22.8z"/>
<g id="XMLID_3_">
	<g id="XMLID_5_">
		<path id="XMLID_10_" class="st18" d="M28.5,57.1c-2.3-2.8,0.8-7.6,0.7-11.2c-0.9,0-1.5-0.1-2.3-0.4c-0.5-0.2-1-0.5-1.4-0.8
			c-1.8-1.4-2.8-3.7-1.8-5.6c0.3-0.5,0.6-1.1,0.8-1.6c0.3-0.5,0.5-1.1,0.7-1.6c1.2-3.2,2-9.1,7.4-10.9c0.8-0.3,1.7-0.5,2.6-0.5
			c4.5,0.8,10.7-1.8,13.4,1.9c1.7,2.4-3.7,5.4-5.9,7.9c-0.4,0.3-0.7,0.6-1.1,0.9c-1.1,0.9-2.1,1.9-3.1,3c-0.4,0.4-0.7,0.9-1.1,1.4
			c0.5,0.1,1,0.1,1.6,0.1c0.8-0.1,1.7-0.2,2.4-0.2c0.8,0,1.4,0.3,1.9,0.9c0.2,0.5,0.1,1.1-0.2,1.5c0,0-0.5,0.6-1.4,1.5
			c-4.8,3.7-8.9,7.9-12,13.3C29.5,57,29,57.2,28.5,57.1z"/>
		<path id="XMLID_9_" class="st19" d="M28.3,56.1c-0.1-3.8,1-7.5,1.8-11.3c-1,0.4-1.8,0.2-2.8,0c-0.6-0.2-1.1-0.4-1.6-0.8
			c-0.9-0.7-1.6-1.6-1.5-2.6c0.1-0.6,0.2-1.2,0.3-1.9c0.1-0.6,0.3-1.2,0.5-1.8c1.5-4,2.9-9.3,6.6-11.1c0.6-0.3,1.3-0.5,2-0.7
			c4.6-0.9,9.6-0.2,14.5-0.1c-1.8,3.1-4,5.8-6.7,8.2c-0.3,0.3-0.7,0.7-1,1c-0.7,0.7-1.3,1.4-2,2.1c-0.5,0.5-1,1.1-1.4,1.6
			c-0.2,0.6-1.2,1-1.3,1.7c1.7,0.2,3.3,0.1,5,0c0.6,0,1.2,0,1.8,0.4c0.1,0.2,0.1,0.4-0.1,0.6c0,0-0.5,0.6-1.4,1.5
			C36,46.5,32,51.2,28.3,56.1C28.3,56.1,28.3,56.1,28.3,56.1z"/>
		<path id="XMLID_8_" class="st20" d="M30,44.8c-0.5,3.8-2.4,7.3-1.5,11.3c0.7-3.9,1.1-7.6,2.2-11.4L30,44.8z"/>
		<path id="XMLID_7_" class="st20" d="M42.1,40.3c-0.5-0.1-1.1-0.2-1.7-0.2c-1.8,0.5-4.6-1-5.7,1.2c2.5-0.1,5.1,0.1,7.6,0
			c0.2-0.2,0.2-0.5,0.1-0.7C42.3,40.5,42.2,40.4,42.1,40.3z"/>
		<path id="XMLID_6_" class="st20" d="M48.1,25.9c-4.6-0.4-9.2-0.8-13.8-0.3c-0.5,0.1-1.1,0.3-1.6,0.5c-0.5,0.2-1,0.5-1.4,0.7
			c-3.4,2.1-4.8,7.2-6.5,11.2c-0.2,0.6-0.4,1.2-0.5,1.8c-0.1,0.6-0.2,1.2-0.2,1.8c0.4-0.4,0.7-0.8,1-1.3c0.3-0.5,0.6-1,0.8-1.6
			c0.6-4.8,2.9-8.5,6.3-10.8c0.6-0.4,1.1-0.7,1.8-1c4.3-2.3,9.2-0.5,13.8-0.6C47.9,26.3,48,26.1,48.1,25.9z"/>
	</g>
	<path id="XMLID_4_" class="st21" d="M45.9,27c-3.8-0.9-7.6-1.8-11.4-0.4c-0.6,0.2-1.2,0.5-1.8,0.7c-1.8,0.8-3.4,2-4.7,3.4
		c-0.4,0.5-0.7,1-1,1.6c-0.9,1.7-1.4,3.7-1.5,6c-0.2,0.4-0.1,0.9,0.1,1.3c0.3,0.7,0.9,1.3,1.6,1.8c0.7,0.5,1.6,0.8,2.4,0.9
		c4.3,0.2,8.9,0.6,12.8-0.9c0.1-0.2,0.2-0.4,0.1-0.6c-0.5-0.4-1.1-0.4-1.8-0.4c-1.8,0.4-3.4,0-5.2,0c0.6-0.5,1.4-1,1.6-1.8
		c0.5-0.6,1.1-1.2,1.6-1.8c0.4-0.4,0.7-0.8,1.1-1.2c0.4-0.5,0.8-0.9,1.1-1.4c0.4-0.5,0.7-1,1.1-1.5c1.2-1.9,2.9-3.5,4.1-5.5
		C46,27.1,45.9,27,45.9,27z"/>
</g>
</svg>
