<?xml version="1.0" encoding="utf-8"?>
<!-- Generator: Adobe Illustrator 18.1.1, SVG Export Plug-In . SVG Version: 6.00 Build 0)  -->
<svg version="1.1" id="Layer_1" xmlns="http://www.w3.org/2000/svg" xmlns:xlink="http://www.w3.org/1999/xlink" x="0px" y="0px"
	 viewBox="0 0 100 100" style="enable-background:new 0 0 100 100;" xml:space="preserve">
<g>
	<path style="fill:#281E18;" d="M56.4,100.1c-1.1,0-2.4-0.1-3.8-0.2c-0.1,0-0.3,0-0.4-0.1c-0.7-0.2-1.8-1-2.3-2.2
		c-0.5-1.2-0.4-2.7,0.4-4.3c0.4-1.5,0.7-3.2,0.7-4.2c-0.7,0.1-1.5,0.1-2.3,0.1c-0.9,0-1.8,0-2.8-0.1c-0.4,0-0.8-0.1-1.2-0.2
		c0,1,0.3,2.8,0.7,4.4c0.8,1.6,0.9,3,0.4,4.3c-0.5,1.2-1.6,1.9-2.3,2.2c-0.1,0-0.3,0.1-0.4,0.1c-1.4,0.1-2.7,0.2-3.8,0.2
		c-3.3,0-5.4-0.6-6.6-1.9c-1.2-1.3-1-2.9-0.9-3.4c0.2-1.9,2.1-2.8,3.9-3.2c-1.2-2.3-1.8-4.8-2.1-6.5c-1.1-0.3-1.9-1.5-2.4-3.3
		c-0.5,0.1-1.2,0.3-1.8,0.4c-1.4,0.4-2.9,0.8-4.4,0.8c-1.7,0-3.1-0.6-4.1-1.7c-1.3-1.5-1.1-2.8-0.8-3.5c0.6-1.5,2.6-2.3,4.6-2.7
		c-1.6-1.8-2.9-4-3.5-5.8c-1.3-3.7,1.1-7.4,2.6-9.3c-0.9-0.9-1.6-1.7-2-2.2c-4.6-1.4-8-4.8-9.6-9.5c-0.5,0.1-0.9,0.1-1.4,0.1
		c-1.6,0-3.1-0.6-4.1-1.8c-2.2-2.5-2.1-7-1.6-10.3c0.3-2.5,2-4,4.6-4c1,0,1.9,0.2,2.8,0.5c1.2-3.8,3.2-7.5,5.9-10.8
		c1.6-2,3.5-3.7,5.6-5.2l-0.5-0.9c-0.3,0-0.5,0-0.8,0c-4.6,0-8.4-3.4-8.4-7.7c0-4.2,3.8-7.7,8.4-7.7c4.6,0,8.4,3.4,8.4,7.7
		c0,1.2-0.3,2.4-0.9,3.5l1,1.2c6.5-2.5,13-2.9,16.4-2.9c1.2,0,2,0.1,2.3,0.1c1.3,0,9.5,0.3,17.8,4.9l2.5-2.4
		c-0.4-0.9-0.6-1.9-0.6-2.9c0-4.2,3.8-7.7,8.4-7.7c4.6,0,8.4,3.4,8.4,7.7c0,4.2-3.8,7.7-8.4,7.7c-0.5,0-0.9,0-1.4-0.1l-1.6,3.2
		c2.1,2,3.9,4.4,5.5,6.9c1.8,3,3,6,3.7,9c0.7-0.2,1.5-0.4,2.3-0.4c1.8,0,3.2,0.8,4.3,2.3c1.7,2.4,1.4,8.3-0.4,11.9
		c-1.1,2.1-2.8,3.3-4.7,3.3h0c-1.1,0-2.3-0.4-3.5-1.2c-2.5,4.4-6.4,7.3-10.4,7.5c-0.3,0.6-0.8,1.3-1.3,2.2c1.4,2,3.8,6,3.5,10.3
		c-0.2,2.3-1.5,4.6-3.1,6.3c2.5,1.4,3.5,3.5,3.3,5.2c-0.2,1.6-1.5,2.6-3.2,2.6c-1.2,0-2.5-0.5-4-1.3c-1.4-0.9-2.2-1-2.5-1
		c-0.3,0-0.4,0.1-1,1.1c-0.4,0.7-0.9,1.5-1.7,2c-0.2,1.1-0.7,2.7-1.7,4.6c1.8,0.4,3.6,1.4,3.8,3.2c0.1,0.5,0.2,2.1-0.9,3.4
		C61.8,99.5,59.7,100.1,56.4,100.1L56.4,100.1z"/>
	<g>
		<g>
			<path style="fill:#BBBDBF;" d="M89.5,39.3c2.3,3.3-0.2,18-7.7,10.2l-0.1,0C83,46.5,83.5,43,83,39.1h0
				C83.1,39.1,87.2,36,89.5,39.3z"/>
			<path style="fill:#7EB7AE;" d="M13.5,46.2c-0.8-3.3-0.8-7.1,0.2-11c1-4.1,3-8.2,6.1-12c2-2.4,4.2-4.3,6.6-5.8
				c1.4-0.8,2.8-1.6,4.2-2.2c9.4-4,19.2-3.2,19.2-3.2s9.2-0.1,18.2,5.3c1.7,1,3.3,2.2,4.9,3.6c2.2,2,4.3,4.4,6.1,7.4
				c2.3,3.8,3.5,7.4,3.9,10.8c0.5,3.9-0.1,7.4-1.3,10.3c-2.3,5.6-6.9,8.9-10.9,8.5c0,0-0.7-1.7-2.3-4c1-0.4,6.5-2.8,6.9-10.3
				c0.4-8.3-8.5-17.6-26.5-18.4C30.8,24.4,23,31,23.2,39.7c0.2,7.5,3.9,9.7,4.9,10.3c-3.6,3.2-5.1,6.3-5.1,6.3
				C17.9,54.9,14.7,51.1,13.5,46.2z"/>
			<path style="fill:#7EB7AE;" d="M75.8,15.3c-1.4-0.4-2.5-1.3-3.3-2.3c-0.7-0.9-1.1-2-1.1-3.2c0-3.3,3-5.9,6.6-5.9
				c3.7,0,6.6,2.6,6.6,5.9c0,3.3-3,5.9-6.6,5.9C77.3,15.7,76.5,15.5,75.8,15.3z"/>
			<path style="fill:#BBBDBF;" d="M72.5,13c0.8,1.1,1.9,1.9,3.3,2.3L73,20.9c-1.6-1.4-3.3-2.6-4.9-3.6l0.1-0.1L72.5,13L72.5,13z"/>
			<path style="fill:#28727B;" d="M66.1,51.1L66.1,51.1c-3.6-3.5-9.4-7.1-18.6-7.5c-7.7-0.3-13.2,1.9-17.1,4.6c-0.8-0.7-3-3-3-8.3
				c0-6.4,9.1-11.8,22.6-10.2c13.5,1.7,21.8,7.7,21.1,13.7C70.4,49.4,66.1,51.1,66.1,51.1z"/>
			<path style="fill:#7EB7AE;" d="M67.7,79c-2.3,1.7-4.8,2.1-5.6-0.2l-0.1,0c1.3-4,1.1-8.6,0.3-12.2l-0.1-0.3
				c2.7-0.9,4.7-2.8,6.1-4.5c0.3,0.4,4.3,5.2,3.9,10.1C72.1,74.6,69.9,77.4,67.7,79z"/>
			<path style="fill:#D1D2D3;" d="M62.1,95c0.2,1.9-0.4,3.9-9.3,3.1c0,0-2.5-0.8-0.8-4.1l5.2-1C57.1,92.9,61.9,93.1,62.1,95z"/>
			<path style="fill:#7EB7AE;" d="M60.9,54.2c0.6,0,1,0.5,1,1c0,0.6-0.5,1-1,1c-0.6,0-1-0.5-1-1C59.8,54.7,60.3,54.2,60.9,54.2z"/>
			<path style="fill:#D1D2D3;" d="M62.1,78.8c0.7,2.3,3.2,1.9,5.6,0.2l0,0c6.6,1.9,6,7.9,0.2,4.4c-5.8-3.5-5.4,1.5-7,2.1
				c-0.2,0.1-0.4,0.1-0.6,0.1c-0.9-0.1-1-1.5-1-2c1.3-1.4,2.2-3,2.7-4.8L62.1,78.8z"/>
			<path style="fill:#7EB7AE;" d="M60.3,85.5c-0.1,0.5-0.4,3.8-3.1,7.4L52,94c0,0,1.6-5.4,0.3-6.8c3.1-0.6,5.3-1.9,6.9-3.6
				C59.2,84,59.4,85.4,60.3,85.5z"/>
			<path style="fill:#7EB7AE;" d="M58.2,67c0,0-1,3.9-9.9,3.5c-8.9-0.4-11.6-4.8-11.6-4.8S47.6,57.9,58.2,67z"/>
			<path style="fill:#7EB7AE;" d="M47.4,48c0.6,0,1,0.5,1,1c0,0.6-0.5,1-1,1c-0.6,0-1-0.5-1-1C46.4,48.4,46.8,48,47.4,48z"/>
			<path style="fill:#D1D2D3;" d="M43.9,94c1.7,3.3-0.8,4.1-0.8,4.1c-8.9,0.8-9.5-1.2-9.3-3.1c0.2-1.9,5-2.1,5-2.1L43.9,94z"/>
			<path style="fill:#7EB7AE;" d="M38.7,92.9C35.8,89,35.2,83,35.2,83l-0.1,0c0.2-0.3,0.4-0.8,0.7-1.6c1.7,2.6,4.2,4.7,8.1,5.6
				c-1.8,0.9,0,7,0,7L38.7,92.9z"/>
			<path style="fill:#BBBDBF;" d="M36.6,65.8c-0.5-0.1-0.9-0.2-1.4-0.4c-0.8-0.2-1.6-0.6-2.3-0.9c-2.6-1.2-4.8-3-6.6-4.6
				c-2.1-2-3.4-3.6-3.4-3.6s1.5-3.2,5.1-6.3c0.7-0.6,1.4-1.2,2.3-1.8c3.9-2.6,9.4-4.8,17.1-4.6c9.2,0.3,15.1,3.9,18.6,7.5
				c1,1,1.8,1.9,2.4,2.8c1.7,2.3,2.3,4,2.3,4s-0.8,1.9-2.5,4c-1.4,1.7-3.4,3.5-6.1,4.5c-0.5,0.2-1,0.3-1.6,0.4
				C59.9,67,59.1,67,58.2,67C47.6,57.9,36.6,65.8,36.6,65.8z M61.9,55.2c0-0.6-0.5-1-1-1c-0.6,0-1,0.5-1,1c0,0.6,0.5,1,1,1
				C61.4,56.3,61.9,55.8,61.9,55.2z M48.4,49c0-0.6-0.5-1-1-1c-0.6,0-1,0.5-1,1c0,0.6,0.5,1,1,1C48,50.1,48.4,49.6,48.4,49z
				 M33.7,54c0-0.6-0.5-1-1-1c-0.6,0-1,0.5-1,1c0,0.6,0.5,1,1,1C33.3,55,33.7,54.6,33.7,54z"/>
			<path style="fill:#FFFFFF;" d="M36.6,65.8c0,0,2.7,4.3,11.6,4.8c8.9,0.4,9.9-3.5,9.9-3.5c0.9,0,1.7-0.1,2.5-0.2l0,0
				c1,7.5-3.5,8.3-7,7.9c-3.5-0.4-3.5,1.5-3.5,1.5c-2.3,1.7-4.6-0.4-4.6-0.4c-0.6-2.1-4.6-2.1-7.5-2.9c-2.9-0.8-2.9-7.2-2.9-7.2
				l0-0.2C35.7,65.6,36.2,65.7,36.6,65.8z"/>
			<path style="fill:#7EB7AE;" d="M35.2,65.6c0,0,0,6.4,2.9,7.2c2.9,0.8,6.8,0.8,7.5,2.9c0,0,2.3,2.1,4.6,0.4c0,0,0-1.9,3.5-1.5
				c3.5,0.4,8.1-0.4,7-7.9l0,0c0.5-0.1,1.1-0.2,1.6-0.4l0.1,0.3c0.8,3.6,1,8.2-0.3,12.2c-0.6,1.8-1.5,3.4-2.7,4.8
				c-1.6,1.8-3.9,3.1-6.9,3.6c-1.8,0.3-3.8,0.4-6.1,0.2c-0.8-0.1-1.6-0.2-2.3-0.4c-3.8-0.9-6.4-3-8.1-5.6c-0.8-1.3-1.5-2.7-1.9-4.1
				c-2-6.1-0.9-12.7-0.9-12.7l0-0.1c0.7,0.4,1.5,0.7,2.3,0.9L35.2,65.6z"/>
			<path style="fill:#7EB7AE;" d="M32.7,53c0.6,0,1,0.5,1,1c0,0.6-0.5,1-1,1c-0.6,0-1-0.5-1-1C31.7,53.4,32.1,53,32.7,53z"/>
			<path style="fill:#D1D2D3;" d="M28.6,76.3c1.9,1.5,3.9,2.2,5.3,1c0.5,1.4,1.1,2.8,1.9,4.1c-0.2,0.7-0.4,1.2-0.7,1.6
				c-0.9,1.2-1.7-0.1-2.2-2.2c-0.6-2.7-7.7,2.7-10.6-0.6C19.4,76.8,28.6,76.4,28.6,76.3L28.6,76.3z"/>
			<path style="fill:#BBBDBF;" d="M30.6,15l0,0.1c-1.4,0.6-2.8,1.3-4.2,2.2L24.4,14c1.5-0.3,2.7-1.1,3.6-2.2L30.6,15z"/>
			<path style="fill:#FFFFFF;" d="M27.3,39.9c0,5.3,2.2,7.6,3,8.3c-0.8,0.6-1.6,1.2-2.3,1.8c-1-0.5-4.7-2.8-4.9-10.3
				C23,31,30.8,24.4,48.9,25.2c18,0.8,26.9,10.1,26.5,18.4c-0.4,7.5-5.9,9.9-6.9,10.3C67.8,53,67,52.1,66,51.1l0,0
				c0,0,4.4-1.7,5-7.7c0.6-6-7.7-12-21.1-13.7C36.4,28.1,27.3,33.5,27.3,39.9z"/>
			<path style="fill:#7EB7AE;" d="M28,11.9c-0.9,1.1-2.2,1.8-3.6,2.2c-0.5,0.1-1.1,0.2-1.7,0.2c-3.7,0-6.6-2.6-6.6-5.9
				c0-3.3,3-5.9,6.6-5.9c3.7,0,6.6,2.6,6.6,5.9C29.4,9.6,28.9,10.9,28,11.9z"/>
			<path style="fill:#7EB7AE;" d="M26.4,59.9c1.7,1.6,4,3.4,6.6,4.6l0,0.1c0,0-1,6.6,0.9,12.7c-1.4,1.3-3.3,0.6-5.3-1
				c-2.5-2-4.8-5.3-5.6-7.6C21.5,64.6,26.3,60,26.4,59.9L26.4,59.9z"/>
			<path style="fill:#BBBDBF;" d="M13.6,35.1L13.6,35.1c-0.9,3.9-1,7.7-0.1,11c-7.1,2.6-7.1-5-6.5-9.6C7.6,32,13.6,35.1,13.6,35.1z"
				/>
		</g>
	</g>
	<g>
		<path style="fill:#4A8F94;" d="M16.5,10.1c0,0,5.2,2.9,8.5,0.8c3.3-2.1,3.3-6.4,1-7.9c0,0,5.2,3.1,2.3,8.7
			C28.4,11.7,20.9,17.1,16.5,10.1z"/>
		<path style="fill:#4A8F94;" d="M71.9,10.5c0,0,3.1,3.5,6.8,2.5c3.7-1,6-3.9,3.9-7.3c0,0,4.4,5.6-1.5,8.7
			C81.2,14.4,75.6,18.4,71.9,10.5z"/>
		<path style="fill:#4A8F94;" d="M15.5,31c0,0,4.8,15.7,11.8,18.2l0.6,1.4l-4.8,5.4C23.2,56.1,7.8,53.8,15.5,31z"/>
		<path style="fill:#4A8F94;" d="M68.8,53.8l2.1,3.5c0,0,7,2.3,11.2-8.3C82,49,75.8,54.6,68.8,53.8z"/>
		<path style="fill:#4A8F94;" d="M54.5,65c0,0-9.1-2.1-12.2,2.5c-0.4,1,2.1,2.7,2.1,2.7s-4.8-1-7-4.6C37.3,65.6,46.4,60.2,54.5,65z"
			/>
		<path style="fill:#4A8F94;" d="M24.6,62.1c0,0,7.3,8.1,8.1,15.3c0,0-0.2-6.8,3.5-6.6c0,0-1.7-2.9-1-4.8c0,0-6.2-3.5-9.1-6.2
			L24.6,62.1z"/>
		<path style="fill:#4A8F94;" d="M60.9,67.3c0,0,0.6,1.9-0.2,3.3c0,0,3.5,3.3,1.2,8.1c0,0,5-14.7,10.2-10.8c0,0-2.1-5.4-3.9-5.8
			C68.1,62.1,64.4,66.4,60.9,67.3z"/>
		<path style="fill:#4A8F94;" d="M35.8,85.3c0,0,5.6,1.2,5.4,7.7l2.3,0.4c0,0-1.2-4.8,0-6.6c0,0-6.6-2.7-8.1-5.4L35,83.2L35.8,85.3z
			"/>
		<path style="fill:#4A8F94;" d="M52.8,87.1L59,84l0.6,1.7l-0.2,1.7c0,0-3.7-0.8-4.4,1.5c-0.6,2.3,0,3.9,0,3.9l-2.5,0.6L52.8,87.1z"
			/>
		<path style="fill:#FFFFFF;" d="M39.7,77.8c0,0,3.5-1.5,5.2,1.2c1.7,2.7,5.8,2.1,6.8,0.6c1-1.5,2.3-2.1,3.7-1c1.5,1-1,6.8-6.2,7
			C44.1,85.9,37.7,82.2,39.7,77.8z"/>
		<path style="fill:#FFFFFF;" d="M71.9,68.9c0,0-4.4,11.8-7.5,7c0,0,0.6,4.6,4.6,2.1C69,78,74.6,72,71.9,68.9z"/>
		<path style="fill:#FFFFFF;" d="M22.8,66c0.1-0.6,7.5,6.2,7.9,8.5c0.4,2.3-4.1,0.2-4.1,0.2S21.9,70.6,22.8,66z"/>
		<path style="fill:#FFFFFF;" d="M66.3,80.1l5.2,3.5C71.4,83.6,73.3,80.3,66.3,80.1z"/>
		<path style="fill:#FFFFFF;" d="M29.4,76.8c0,0-7.9,1.4-6.4,3.3c1.4,1.9,7.5-2.9,7.5-2.9L29.4,76.8z"/>
		<path style="fill:#FFFFFF;" d="M38.3,92.7c0,0-5,0.6-3.7,2.1C35.8,96.3,42.4,95.2,38.3,92.7z"/>
		<path style="fill:#FFFFFF;" d="M55.9,93.1c0,0,5.2,0.2,5,1.7C60.7,96.3,51.6,94.8,55.9,93.1z"/>
		<path style="fill:#808184;" d="M51.8,95.4c0,0,6.6,2.3,9.9,1.2c0,0-2.3,2.3-8.7,1.4C53,98.1,50.9,97.5,51.8,95.4z"/>
		<path style="fill:#808184;" d="M34.8,97.1c0,0,8.1,0,9.3-2.3C44.1,94.8,46.4,99.8,34.8,97.1z"/>
		<path style="fill:#808184;" d="M32.1,78.2c0,0,2.3,5.8,2.9,5c0.6-0.8,0.4-1.9,0.4-1.9L33.5,78L32.1,78.2z"/>
		<path style="fill:#808184;" d="M61.9,79.9L59,84c0,0,1.5,1.9,1.9,1.5c0.4-0.4,2.3-3.3,2.3-3.3S64.4,79.5,61.9,79.9z"/>
		<path style="fill:#808184;" d="M7,41.4c0,0,4.6,1.9,6.2,1l0.6,3.7C13.8,46.1,7.8,47.2,7,41.4z"/>
		<path style="fill:#808184;" d="M82.8,45.1l-1.2,4.8c0,0,5.6,5,8.3-2.9C89.9,46.9,85.5,47.8,82.8,45.1z"/>
		<polygon style="fill:#FFFFFF;" points="83.3,42.4 90.5,42.6 90.1,40.3 83.7,40.9 		"/>
		<polygon style="fill:#FFFFFF;" points="13.2,39.1 13.4,37.4 7.2,37 6.8,40.5 		"/>
		<path style="fill:#FFFFFF;" d="M18.2,4.1c0,0-3.7,4.6-0.2,3.9C21.5,7.4,25.2,1.2,18.2,4.1z"/>
		<path style="fill:#FFFFFF;" d="M75.8,4.5c0,0-5.2,3.5-1.7,3.7C77.7,8.4,83.9,4.1,75.8,4.5z"/>
		<path style="fill:#FFFFFF;" d="M41,12.3c0,0-15.1,3.9-6,5.8c9.1,1.9,26.3-1.4,19.5-6C54.5,12.1,42.6,11.9,41,12.3z"/>
		<path style="fill:#FFFFFF;" d="M43.9,43.6c0,0-12.2,6.2-13.9,11.6c0,0-2.5,2.9,8.3,9.1l-1.7,1c0,0-8.3-1-13.5-9.3
			C23.2,56.1,30.8,44.5,43.9,43.6z"/>
		<path style="fill:#808184;" d="M49.9,62.7c0,0,10.2,2.5,14.9-3.1s0.4-9.1,0.4-9.1l5.6,6.8c0,0-2.9,9.5-12.6,9.5
			C58.2,66.8,54.2,64.3,49.9,62.7z"/>
		<path style="fill:#FFFFFF;" d="M56.9,68.5c0,0-1.7-3.1-5-1.2c-3.3,1.9-3.9,2.9-1,3.3C53.8,71,56.9,68.5,56.9,68.5z"/>
		<path style="fill:#1B5B62;" d="M58.6,31.8c0,0,0.8,7-9.9,8.7c-10.8,1.7-19.9,2.5-20.3-4.4c0,0-3.5,6.4,1.9,11.4
			c0,0,19.3-10.2,35,2.9l0.8,0.6c0,0,6-4.8,5-8.7C70,38.5,66.5,34.1,58.6,31.8z"/>
		<path style="fill:#FFFFFF;" d="M37.9,30.4c0,0-10.2,3.7-1.5,5c8.7,1.2,13.9-3.9,9.7-5.4C46.2,30,41,29.3,37.9,30.4z"/>
	</g>
	<g>
		<path style="fill:#281E18;" d="M90,38.9c-0.7-1-1.6-1.6-2.6-1.7c-1.5-0.2-2.9,0.4-3.8,0.9c-0.5-3-1.7-6.4-3.9-10.1
			c-1.7-2.9-3.8-5.3-5.9-7.2l2.4-4.7c0.6,0.2,1.3,0.3,2,0.3c4,0,7.3-2.9,7.3-6.5c0-3.6-3.3-6.5-7.3-6.5s-7.3,2.9-7.3,6.5
			c0,1.1,0.3,2.2,0.9,3.1l-3.8,3.6c-8.6-5-17.3-5.1-18-5.1c0,0,0,0,0,0c0,0-0.9-0.1-2.3-0.1c-3.5,0-10.2,0.4-16.8,3.1l-2.1-2.5
			c0.7-1,1.2-2.2,1.2-3.5c0-3.6-3.3-6.5-7.3-6.5c-4,0-7.3,2.9-7.3,6.5c0,3.6,3.3,6.5,7.3,6.5c0.5,0,0.9,0,1.4-0.1l1.5,2.4
			c-2.3,1.5-4.4,3.3-6.3,5.6c-2.9,3.5-4.9,7.6-6,11.6c-1.1-0.5-3.6-1.3-5.3-0.4c-0.9,0.5-1.5,1.4-1.7,2.6c-0.5,3.5-0.5,8,1.9,9.9
			c0.7,0.6,1.6,0.9,2.7,0.9c0.7,0,1.4-0.1,2.1-0.3c0,0.2,0.1,0.3,0.1,0.5c1.5,4.7,4.8,8,9.4,9.4c0.4,0.4,1.4,1.7,2.9,3.1
			c-1.1,1.2-4.4,5.2-3.1,9c0.7,2,2.6,4.9,4.8,6.9c-2,0.2-5.2,0.8-5.9,2.4c-0.2,0.5-0.3,1.3,0.6,2.3c1.8,2.1,4.9,1.3,7.4,0.6
			c1.2-0.3,2.5-0.7,2.9-0.4c0,0,0.1,0.1,0.1,0.2c0.3,1.4,1,3.2,2.1,3.2c0,0,0,0,0,0c0.1,0,0.2,0,0.2,0c0.3,1.7,1,5.4,2.9,8.4
			c-1.6,0.2-4.3,0.8-4.5,2.5c-0.1,0.7-0.1,1.7,0.7,2.6c0.9,0.9,2.8,1.4,5.6,1.4c1.1,0,2.3-0.1,3.6-0.2c0,0,0.1,0,0.1,0
			c0,0,1.1-0.4,1.6-1.5c0.4-1,0.3-2.1-0.4-3.4c-0.8-2.5-1.1-5.5-0.5-6.2c0.7,0.1,1.4,0.3,2.1,0.3c0.9,0.1,1.8,0.1,2.7,0.1
			c1.1,0,2.2-0.1,3.2-0.2c0.4,1,0.1,3.6-0.6,5.8c-0.7,1.3-0.8,2.5-0.4,3.5c0.5,1.2,1.6,1.5,1.6,1.5c0,0,0.1,0,0.1,0
			c1.4,0.1,2.6,0.2,3.6,0.2c2.9,0,4.7-0.5,5.6-1.4c0.8-0.8,0.8-1.9,0.7-2.6c-0.2-1.7-2.8-2.3-4.5-2.5c1.8-2.7,2.4-5.2,2.5-6.3
			c0.1,0,0.2,0,0.3-0.1c0.7-0.3,1.1-0.9,1.4-1.6c0.4-0.7,0.8-1.4,1.5-1.6c0.8-0.2,2,0.2,3.5,1.1c2.7,1.6,4.1,1.2,4.7,0.8
			c0.6-0.4,0.9-1.1,0.8-2c-0.2-1.2-1.4-2.9-4.1-4c2-1.8,3.8-4.3,4-6.8c0.4-4.6-2.7-8.9-3.8-10.2c1.1-1.4,1.8-2.7,2.1-3.3
			c0.1,0,0.2,0,0.3,0h0c3.6,0,7.5-2.7,9.8-6.9c0.2-0.3,0.4-0.8,0.6-1.2c1.5,1.4,2.8,1.9,3.8,1.9c1,0,1.7-0.4,2.2-0.8
			C91.1,49,91.6,41.3,90,38.9z M87.2,38.4c0.1,0,0.3,0.1,0.4,0.1c0.2,2.1,0.5,9.4-2.7,12.4c-0.4-0.1-0.8-0.3-1.2-0.6
			c2.7-3.2,2.4-9.8,2.1-11.8C86.3,38.4,86.7,38.3,87.2,38.4z M78.1,4.5c3.3,0,6,2.4,6,5.3c0,2.9-2.7,5.3-6,5.3s-6-2.4-6-5.3
			C72.1,6.8,74.8,4.5,78.1,4.5z M72.4,13.9c0.7,0.7,1.5,1.3,2.5,1.8l-2.1,4.3c-1.2-1-2.5-2-3.8-2.8L72.4,13.9z M16.7,8.3
			c0-2.9,2.7-5.3,6-5.3c3.3,0,6,2.4,6,5.3c0,2.9-2.7,5.3-6,5.3C19.4,13.6,16.7,11.2,16.7,8.3z M25.4,14.4c1-0.4,1.9-0.9,2.6-1.6
			l1.7,2.1c-1,0.5-2,1-3,1.6L25.4,14.4z M7.6,36.7c0.1-0.9,0.4-1.4,1-1.7c0.3-0.2,0.7-0.2,1.1-0.2c-0.6,1.6-2.2,6.6-0.4,10.9
			c-0.1-0.1-0.2-0.1-0.3-0.2C7.5,44.2,7,41.1,7.6,36.7z M10.2,45.9c-2.2-4.3-0.3-9.8,0.2-11.2c0.3,0,0.7,0.1,1,0.2
			c-0.3,1.3-1.7,7.1-0.1,11C11,46,10.6,46,10.2,45.9z M12,45.9c-1.6-3.6-0.3-9.4,0-10.8c0.4,0.1,0.7,0.3,1,0.4
			c-0.8,3.5-0.9,7-0.2,10.2C12.5,45.8,12.3,45.9,12,45.9z M23.7,56.2c1.1-2,7.7-12.5,23.7-11.9c16.3,0.6,22,11.9,22.8,13.7
			c-0.5,1.1-3.3,6.4-8.7,8c-13.6-12.6-25.8-3.5-27.8-1.8C28.6,61.9,24.7,57.4,23.7,56.2z M67,51.3c1.4-0.8,4.1-3,4.6-7.8
			c0.7-6.7-8.4-12.7-21.7-14.4c-8.3-1-15.8,0.6-20.1,4.3c-2.1,1.9-3.2,4.1-3.2,6.4c0,4.6,1.7,7.1,2.7,8.3c-0.5,0.4-0.9,0.7-1.4,1.1
			c-1.2-0.7-4.1-3-4.3-9.5c-0.1-3.3,1.1-6.2,3.4-8.5c4.1-4,11.6-5.9,21.7-5.4c9.8,0.4,17.6,3.5,22.2,8.5c2.5,2.8,3.9,6.1,3.7,9.3
			c-0.3,6.5-4.6,8.9-6.1,9.6C68.2,52.6,67.7,51.9,67,51.3z M30.5,47.4c-0.9-0.8-2.5-3-2.5-7.5c0-2,1-3.9,2.8-5.5
			c4-3.5,11.1-5,19.1-4c12.3,1.5,21.2,7.1,20.6,13c-0.5,4.7-3.3,6.5-4.3,7c-3.7-3.5-9.6-7.1-18.7-7.4C39.9,42.8,34.4,44.9,30.5,47.4
			z M64.5,79.8c-0.9,0.1-1.5-0.3-1.8-1.1l0,0c1.2-3.9,1.1-8.4,0.3-12c1.5-0.6,2.8-1.5,3.9-2.4C68,66,71.6,72.6,67,78.8
			C66.1,79.3,65.2,79.7,64.5,79.8z M60.3,81c-1,0.5-1.9,0.8-2.9,1.1c-0.2-0.5-0.6-0.8-1.2-0.8c-0.7,0-1.2,0.6-1.2,1.2
			c0,0,0,0.1,0,0.1c-1.9,0.4-3.7,0.5-5.5,0.4c-0.1-0.6-0.6-1-1.2-1c-0.5,0-1,0.4-1.2,0.8c-2-0.2-3.9-0.7-5.6-1.1
			c0-0.1,0.1-0.2,0.1-0.3c0-0.7-0.6-1.2-1.2-1.2c-0.5,0-1,0.3-1.2,0.8c-1.8-0.7-3.2-1.3-3.9-1.7c-2.6-5.3-2.2-11.8-1.9-14
			c0.5,0.2,1,0.4,1.5,0.6c0,1.4,0.4,6.4,3.1,7.2c0.8,0.2,1.7,0.4,2.6,0.6c2.2,0.4,4.3,0.8,4.7,2.1c0,0.1,0,0.1,0.1,0.1
			c0,0,1.3,1.1,2.9,1.1c0.7,0,1.4-0.2,2.1-0.7c0.1-0.1,0.1-0.1,0.1-0.2c0,0,0-0.4,0.4-0.7c0.4-0.3,1.1-0.6,2.8-0.5
			c2.6,0.3,4.7-0.2,6-1.5c1.3-1.3,1.8-3.4,1.5-6.2c0.3-0.1,0.5-0.1,0.8-0.2C62.7,71.4,62.6,77,60.3,81z M31.8,77.3
			c-7.2-7.9-4.6-13.2-3.4-14.8c1.2,0.9,2.5,1.7,3.9,2.4c-0.2,1.5-0.7,6.9,0.9,12.2C32.7,77.3,32.3,77.3,31.8,77.3z M59.1,73.1
			c-1.4,1.5-3.8,1.5-5.5,1.3c-1.5-0.2-2.6,0-3.3,0.6c-0.4,0.3-0.5,0.7-0.6,1c-1.8,1.2-3.6-0.1-4-0.4c-0.6-1.6-2.8-2-5.1-2.5
			c-0.8-0.2-1.7-0.3-2.5-0.5c-2.2-0.6-2.6-4.9-2.7-6.4c0.3,0.1,0.5,0.2,0.8,0.2c0.7,0.9,3.9,4.5,11.9,4.8c0.5,0,0.9,0,1.3,0
			c6.5,0,8.5-2.5,9.1-3.6c0.6,0,1.2-0.1,1.8-0.2C60.7,70,60.3,71.9,59.1,73.1z M37.6,65.9c2.3-1.4,11.1-5.9,19.9,1.3
			c-0.5,0.9-2.5,3-9.1,2.7C41.6,69.6,38.5,67,37.6,65.9z M58.4,66.4c-9.9-8.3-20.2-2.4-21.9-1.3c-0.8-0.2-1.5-0.4-2.2-0.7
			c2.5-2,13.6-9.9,26.4,1.7C60,66.3,59.2,66.4,58.4,66.4z M23.6,68.5c-1.1-3.1,1.9-6.7,2.8-7.7c0.5,0.4,1,0.8,1.5,1.3
			c-1.2,1.7-3.8,7.1,2.7,14.8C27.7,75.5,24.5,71.2,23.6,68.5z M33.5,80.6c-0.1-0.4-0.3-0.8-0.7-1c-0.9-0.5-2.2-0.2-3.9,0.3
			c-2.2,0.6-4.8,1.3-6.1-0.2c-0.4-0.4-0.5-0.7-0.4-1c0.4-1,3.8-1.6,6-1.7c0.9,0.7,1.9,1.2,2.8,1.5c0.3,0.1,0.6,0.1,0.9,0.1
			c0.5,0,0.9-0.1,1.4-0.3c0.4,1.1,0.9,2.2,1.6,3.2c-0.4,1.1-0.6,1.3-0.6,1.3C34.3,82.7,33.9,82.1,33.5,80.6z M35.8,83
			c0.1-0.1,0.1-0.2,0.2-0.3c0.6,0.7,1.2,1.3,1.8,1.9c0.1,1,0.4,5.1,2,7.9l-0.7-0.1C36.6,88.9,35.9,83.7,35.8,83z M43.7,96.7
			c-0.2,0.5-0.7,0.8-0.8,0.8c-5.6,0.5-7.5-0.2-8.2-0.9c-0.4-0.4-0.5-0.8-0.4-1.6c0.1-0.9,2.5-1.4,4.3-1.5l4.8,1
			C43.8,95.4,43.9,96.1,43.7,96.7z M43,93.2l-2.4-0.5c-1.6-2.3-2-6-2.2-7.6c1.3,1,2.7,1.7,4.3,2.2C42.1,88.8,42.6,91.5,43,93.2z
			 M46.2,86.7c-4-0.4-7.2-2-9.3-4.8c-0.4-0.5-0.7-1-1-1.5c0.8,0.4,1.9,0.9,3.3,1.4c0.1,0.6,0.6,1.1,1.2,1.1c0.3,0,0.7-0.1,0.9-0.4
			c1.7,0.5,3.7,1,5.8,1.2c0.1,0.6,0.6,1,1.2,1c0.5,0,1-0.4,1.2-0.9c0.3,0,0.6,0,0.9,0c1.6,0,3.2-0.1,4.9-0.5c0.2,0.3,0.6,0.5,1,0.5
			c0.6,0,1.1-0.5,1.2-1.1c0.7-0.2,1.5-0.5,2.2-0.8c-0.2,0.3-0.5,0.7-0.8,1c-1.6,1.8-3.8,3-6.5,3.5c-0.1,0-0.1-0.1-0.2-0.1l-0.1,0.2
			C50.4,86.9,48.4,86.9,46.2,86.7z M57.1,86.1c0,1.8-0.1,5.2-1.6,6.6l-2.6,0.5c0.4-1.6,0.9-4,0.4-5.6C54.7,87.3,55.9,86.8,57.1,86.1
			z M61.5,95.1c0.1,0.8,0,1.2-0.4,1.6c-0.7,0.7-2.6,1.4-8.2,0.9c-0.2-0.1-0.6-0.3-0.8-0.8c-0.2-0.5-0.1-1.3,0.3-2.2l4.8-1
			C59,93.7,61.4,94.2,61.5,95.1z M56.8,92.4l-0.3,0.1c1.3-1.9,1.3-5.3,1.3-6.8c0.4-0.3,0.8-0.6,1.1-0.9c0.1,0.4,0.4,0.8,0.7,1.1l0,0
			C59.4,87,58.8,89.5,56.8,92.4z M71.8,83c0,0.2,0,0.6-0.2,0.7C71.2,84,70,84,68.2,82.9c-1.9-1.1-3.3-1.5-4.5-1.2
			c-1.2,0.3-1.8,1.4-2.3,2.2c-0.3,0.5-0.5,1-0.8,1.1c-0.3,0.1-0.3,0-0.4,0c-0.2-0.1-0.4-0.7-0.4-1.1c0,0,0,0,0,0
			c1-1.1,1.7-2.3,2.3-3.7c0.5,0.6,1.2,0.9,2.1,0.9c0.1,0,0.3,0,0.4,0c1-0.1,2.1-0.6,3.1-1.3C70.3,80.5,71.7,82,71.8,83z M71.7,72
			c-0.2,1.9-1.5,4-3.2,5.6c3.3-6.1-0.1-12.2-1.1-13.7c0.4-0.3,0.7-0.7,1-1C69.4,64.3,72,68.1,71.7,72z M80.2,51.1
			c-2.2,3.8-5.6,6.3-8.7,6.3h0c-0.1,0-0.2,0-0.3,0c-0.3-0.6-0.8-1.7-1.8-3.1c1.9-0.9,6.2-3.8,6.6-10.5c0.2-3.5-1.3-7.1-4-10.2
			c-4.8-5.3-13-8.5-23.1-8.9c-10.4-0.5-18.2,1.5-22.6,5.8c-2.5,2.5-3.8,5.7-3.8,9.4c0.2,6.6,3,9.3,4.5,10.4
			c-2.5,2.3-3.9,4.5-4.4,5.4c-4-1.3-6.9-4.2-8.3-8.4c-2.3-7,0.1-16.3,5.9-23.6c8-10,21.8-11,27.3-11c1.4,0,2.2,0.1,2.3,0.1
			c0.8,0,19.1,0.2,28.6,16.1C85.3,39.8,82,48,80.2,51.1z M83.7,39.4c0.3-0.2,0.9-0.5,1.6-0.8c0.2,2.1,0.5,8.4-2,11.3
			c-0.2-0.2-0.5-0.4-0.7-0.7C83.4,46.9,84.1,43.5,83.7,39.4z M87.2,50.6c-0.5,0.4-1,0.6-1.6,0.5c2.9-3.2,2.8-9.7,2.6-12.2
			c0.3,0.2,0.5,0.4,0.7,0.8C90.3,41.6,89.8,48.5,87.2,50.6z"/>
		<path style="fill:#281E18;" d="M47.4,50.4c0.7,0,1.3-0.6,1.3-1.3c0-0.7-0.6-1.3-1.3-1.3c-0.7,0-1.3,0.6-1.3,1.3
			C46.1,49.8,46.7,50.4,47.4,50.4z M47.4,48.3c0.4,0,0.7,0.3,0.7,0.7c0,0.4-0.3,0.7-0.7,0.7c-0.4,0-0.7-0.3-0.7-0.7
			C46.7,48.6,47,48.3,47.4,48.3z"/>
		<path style="fill:#281E18;" d="M60.9,56.6c0.7,0,1.3-0.6,1.3-1.3c0-0.7-0.6-1.3-1.3-1.3s-1.3,0.6-1.3,1.3
			C59.5,56,60.1,56.6,60.9,56.6z M60.9,54.5c0.4,0,0.7,0.3,0.7,0.7c0,0.4-0.3,0.7-0.7,0.7c-0.4,0-0.7-0.3-0.7-0.7
			C60.2,54.8,60.5,54.5,60.9,54.5z"/>
		<path style="fill:#281E18;" d="M32.7,55.3c0.7,0,1.3-0.6,1.3-1.3s-0.6-1.3-1.3-1.3c-0.7,0-1.3,0.6-1.3,1.3S32,55.3,32.7,55.3z
			 M32.7,53.3c0.4,0,0.7,0.3,0.7,0.7c0,0.4-0.3,0.7-0.7,0.7c-0.4,0-0.7-0.3-0.7-0.7C32,53.6,32.3,53.3,32.7,53.3z"/>
	</g>
</g>
</svg>
