<?xml version="1.0" encoding="utf-8"?>
<!-- Generator: Adobe Illustrator 18.1.1, SVG Export Plug-In . SVG Version: 6.00 Build 0)  -->
<svg version="1.1" id="Layer_1" xmlns="http://www.w3.org/2000/svg" xmlns:xlink="http://www.w3.org/1999/xlink" x="0px" y="0px"
	 viewBox="0 0 144 144" enable-background="new 0 0 144 144" xml:space="preserve">
<g>
	<path fill="#3D322D" d="M118.9,50.3c-1-2.9-2.4-5.9-4.1-8.7c-1.3-2.1-2.6-4.1-4.2-5.9c7-1.4,12.4-7.3,12.4-14.3
		c0-8-7-14.6-15.5-14.6c-8.6,0-15.5,6.5-15.5,14.6c0,0.1,0,0.3,0,0.4c-9.6-4.2-18.2-4.6-20.4-4.6c-0.6,0-1.7-0.1-3.1-0.1
		c-3.5,0-9.7,0.3-16.5,2.1c-0.2-7.9-7.1-14.2-15.5-14.2c-8.6,0-15.5,6.5-15.5,14.6c0,5.5,3.2,10.2,8,12.7c-0.6,0.6-1.1,1.2-1.6,1.9
		c-2.8,3.5-5.2,7.4-6.9,11.5c-0.2,0-0.3,0-0.5,0c-5.6,0-9.8,3.7-10.6,9.2c-1,7.7,0,13.4,3.2,17c1.9,2.2,4.5,3.5,7.5,3.8
		c2.6,5,6.6,8.8,11.7,11c-2.4,4.3-2.9,8.7-1.5,12.6c0.4,1.2,1,2.5,1.8,3.8c-1.4,1-2.4,2.3-3,3.7c-1.3,3.1-0.6,6.6,1.8,9.4
		c2.2,2.5,5.3,3.8,8.9,3.8c1.9,0,3.7-0.4,5.3-0.8c0.5,0.7,1,1.2,1.5,1.7c0.2,0.9,0.5,1.9,0.8,2.9c-2.7,1.9-3.4,4.4-3.6,6.1
		c-0.5,3.9,1,6.5,2.4,8c3.2,3.6,8.4,4,12,4c1.6,0,3.3-0.1,5.3-0.3c0.5,0,1-0.2,1.5-0.3c1.3-0.4,2.8-1.3,4.1-2.7
		c1.3,1.4,2.8,2.3,4.1,2.7c0.5,0.2,1,0.3,1.5,0.3c1.9,0.2,3.7,0.3,5.3,0.3c3.6,0,8.7-0.4,12-4c1.3-1.5,2.8-4.1,2.4-8
		c-0.1-1.3-0.8-3.9-3.4-6c0.1-0.3,0.2-0.5,0.2-0.8c0.3-0.3,0.6-0.6,0.8-0.9c2.4,1.3,4.6,1.9,6.7,1.9c4.6,0,8.3-3.1,8.9-7.5
		c0.4-2.8-0.5-5.6-2.5-8c1.3-2.3,2.1-4.7,2.3-7c0.4-4.7-1.2-9.1-2.9-12.4c3.9-1.2,7.6-3.9,10.5-7.6c0.9,0.2,1.8,0.4,2.8,0.4
		c4.2,0,8-2.5,10.2-6.8c2.9-5.5,3.7-15.2,0.3-20.2C125.7,52.2,122.5,50.4,118.9,50.3z"/>
	<path fill="#F1E7E2" d="M116.4,47.8c-1-2.9-2.4-5.9-4.1-8.7c-1.3-2.1-2.6-4.1-4.2-5.9c7-1.4,12.4-7.3,12.4-14.3
		c0-8-7-14.6-15.5-14.6c-8.6,0-15.5,6.5-15.5,14.6c0,0.1,0,0.3,0,0.4c-9.6-4.2-18.2-4.6-20.4-4.6c-0.6,0-1.7-0.1-3.1-0.1
		c-3.5,0-9.7,0.3-16.5,2.1C49.2,8.7,42.3,2.4,33.9,2.4c-8.6,0-15.5,6.5-15.5,14.6c0,5.5,3.2,10.2,8,12.7c-0.6,0.6-1.1,1.2-1.6,1.9
		c-2.8,3.5-5.2,7.4-6.9,11.5c-0.2,0-0.3,0-0.5,0c-5.6,0-9.8,3.7-10.6,9.2c-1,7.7,0,13.4,3.2,17c1.9,2.2,4.5,3.5,7.5,3.8
		c2.6,5,6.6,8.8,11.7,11c-2.4,4.3-2.9,8.7-1.5,12.6c0.4,1.2,1,2.5,1.8,3.8c-1.4,1-2.4,2.3-3,3.7c-1.3,3.1-0.6,6.6,1.8,9.4
		c2.2,2.5,5.3,3.8,8.9,3.8c1.9,0,3.7-0.4,5.3-0.8c0.5,0.7,1,1.2,1.5,1.7c0.2,0.9,0.5,1.9,0.8,2.9c-2.7,1.9-3.4,4.4-3.6,6.1
		c-0.5,3.9,1,6.5,2.4,8c3.2,3.6,8.4,4,12,4c1.6,0,3.3-0.1,5.3-0.3c0.5,0,1-0.2,1.5-0.3c1.3-0.4,2.8-1.3,4.1-2.7
		c1.3,1.4,2.8,2.3,4.1,2.7c0.5,0.2,1,0.3,1.5,0.3c1.9,0.2,3.7,0.3,5.3,0.3c3.6,0,8.7-0.4,12-4c1.3-1.5,2.8-4.1,2.4-8
		c-0.1-1.3-0.8-3.9-3.4-6c0.1-0.3,0.2-0.5,0.2-0.8c0.3-0.3,0.6-0.6,0.8-0.9c2.4,1.3,4.6,1.9,6.7,1.9c4.6,0,8.3-3.1,8.9-7.5
		c0.4-2.8-0.5-5.6-2.5-8c1.3-2.3,2.1-4.7,2.3-7c0.4-4.7-1.2-9.1-2.9-12.4c3.9-1.2,7.6-3.9,10.5-7.6c0.9,0.2,1.8,0.4,2.8,0.4
		c4.2,0,8-2.5,10.2-6.8c2.9-5.5,3.7-15.2,0.3-20.2C123.2,49.7,120,47.9,116.4,47.8z"/>
	<g>
		<path fill="#281E18" d="M77.1,134.8c-1.4,0-3-0.1-4.8-0.3c-0.2,0-0.3-0.1-0.5-0.1c-1-0.3-2.3-1.2-3-2.8c-0.7-1.6-0.5-3.4,0.5-5.5
			c0.6-1.9,0.9-4.1,0.9-5.4c-0.9,0.1-1.9,0.1-2.9,0.1c-1.1,0-2.4-0.1-3.6-0.2c-0.5-0.1-1-0.1-1.5-0.2c0,1.3,0.3,3.6,0.9,5.6
			c1,2.1,1.1,3.9,0.5,5.5c-0.6,1.6-2,2.5-3,2.8c-0.2,0.1-0.3,0.1-0.5,0.1c-1.8,0.2-3.4,0.3-4.8,0.3c-4.3,0-6.9-0.8-8.4-2.4
			c-1.5-1.7-1.3-3.7-1.2-4.3c0.3-2.4,2.7-3.6,4.9-4.2c-1.5-3-2.3-6.2-2.7-8.3c-1.4-0.4-2.4-1.9-3.1-4.3c-0.6,0.1-1.5,0.3-2.3,0.6
			c-1.7,0.5-3.7,1-5.6,1c-2.2,0-4-0.7-5.3-2.2c-1.7-1.9-1.4-3.6-1-4.5c0.8-1.9,3.3-3,5.9-3.5c-2-2.4-3.7-5.1-4.5-7.4
			c-1.7-4.8,1.4-9.5,3.4-11.9c-1.2-1.2-2.1-2.2-2.6-2.8c-5.9-1.9-10.2-6.1-12.4-12.2c-0.6,0.1-1.2,0.2-1.8,0.2
			c-2.1,0-3.9-0.8-5.2-2.3c-2.8-3.2-2.7-9-2.1-13.2c0.4-3.2,2.6-5.1,5.9-5.1c1.2,0,2.5,0.3,3.5,0.6c1.6-4.9,4.2-9.7,7.6-13.9
			c2-2.5,4.5-4.8,7.2-6.7l-0.7-1.1c-0.3,0-0.7,0-1,0c-5.9,0-10.8-4.4-10.8-9.8c0-5.4,4.8-9.8,10.8-9.8c5.9,0,10.8,4.4,10.8,9.8
			c0,1.6-0.4,3.1-1.2,4.5l1.3,1.6c8.4-3.2,16.7-3.7,21.1-3.7c1.6,0,2.6,0.1,2.9,0.1c1.7,0,12.2,0.3,22.9,6.2l3.2-3.1
			c-0.5-1.2-0.8-2.4-0.8-3.7c0-5.4,4.8-9.8,10.8-9.8c5.9,0,10.8,4.4,10.8,9.8c0,5.4-4.8,9.8-10.8,9.8c-0.6,0-1.2,0-1.7-0.1l-2,4
			c2.7,2.6,5.1,5.6,7,8.9c2.3,3.8,3.9,7.7,4.8,11.6c0.9-0.3,1.9-0.6,3-0.6c2.3,0,4.1,1,5.5,2.9c2.1,3.1,1.9,10.7-0.6,15.3
			c-1.4,2.7-3.6,4.3-6,4.3c0,0,0,0,0,0c-1.5,0-2.9-0.5-4.4-1.6c-3.2,5.7-8.3,9.4-13.4,9.6c-0.4,0.7-1,1.7-1.7,2.8
			c1.8,2.5,4.9,7.7,4.4,13.2c-0.2,2.9-1.9,5.9-4,8.1c3.2,1.8,4.6,4.5,4.3,6.6c-0.3,2-2,3.4-4.2,3.4c-1.5,0-3.2-0.6-5.1-1.7
			c-1.8-1.1-2.8-1.3-3.2-1.3c-0.4,0-0.6,0.1-1.3,1.4c-0.5,0.9-1.1,2-2.2,2.6c-0.3,1.4-0.9,3.5-2.2,5.9c2.3,0.6,4.6,1.7,4.8,4.2
			c0.1,0.6,0.3,2.7-1.2,4.3C84,134.1,81.3,134.8,77.1,134.8L77.1,134.8z"/>
		<g>
			<g>
				<path fill="#BCBEC0" d="M119.5,56.8c2.9,4.3-0.3,23.1-9.8,13l-0.1,0c1.5-3.8,2.3-8.3,1.6-13.3h0
					C111.3,56.5,116.6,52.5,119.5,56.8z"/>
				<path fill="#7EB7AE" d="M22,65.6c-1.1-4.2-1-9.1,0.3-14.1c1.3-5.2,3.9-10.6,7.9-15.5c2.5-3.1,5.4-5.5,8.5-7.5
					c1.8-1.1,3.6-2,5.4-2.8c12.1-5.2,24.7-4.1,24.7-4.1s11.8-0.1,23.3,6.8c2.1,1.3,4.3,2.8,6.3,4.7c2.9,2.6,5.6,5.7,7.9,9.5
					c2.9,4.9,4.5,9.5,5,13.8c0.6,5-0.1,9.5-1.6,13.3c-3,7.2-8.9,11.5-14,10.9c0,0-0.8-2.2-3-5.1c1.3-0.5,8.4-3.6,8.8-13.2
					c0.5-10.6-10.9-22.6-34.1-23.7c-23.2-1.1-33.3,7.4-33,18.6c0.2,9.6,5,12.5,6.3,13.2c-4.7,4.1-6.6,8.1-6.6,8.1
					C27.7,76.8,23.6,71.9,22,65.6z"/>
				<path fill="#7EB7AE" d="M102,26c-1.7-0.6-3.2-1.6-4.2-3c-0.9-1.2-1.4-2.6-1.4-4.1c0-4.2,3.8-7.6,8.5-7.6c4.7,0,8.5,3.4,8.5,7.6
					c0,4.2-3.8,7.6-8.5,7.6C103.9,26.4,102.9,26.3,102,26z"/>
				<path fill="#BCBEC0" d="M97.8,22.9c1,1.4,2.5,2.4,4.2,3l-3.6,7.2c-2-1.8-4.2-3.4-6.3-4.7l0.1-0.2L97.8,22.9L97.8,22.9z"/>
				<path fill="#26707A" d="M89.5,71.9L89.5,71.9c-4.6-4.5-12.1-9.2-23.9-9.6c-9.8-0.3-17,2.5-21.9,5.9c-1-0.8-3.9-3.8-3.9-10.6
					c0-8.3,11.7-15.2,29-13c17.3,2.1,27.9,9.9,27.1,17.6C95.1,69.8,89.5,71.9,89.5,71.9z"/>
				<path fill="#7EB7AE" d="M91.6,107.8c-3,2.2-6.2,2.7-7.2-0.2l-0.2-0.1c1.7-5.1,1.5-11,0.4-15.6l-0.1-0.4c3.5-1.2,6.1-3.5,7.9-5.7
					c0.4,0.5,5.5,6.6,5,13C97.2,102.1,94.5,105.7,91.6,107.8z"/>
				<path fill="#D1D3D4" d="M84.4,128.3c0.3,2.4-0.5,5.1-12,4c0,0-3.2-1.1-1.1-5.3l6.6-1.3C78,125.7,84.2,125.9,84.4,128.3z"/>
				<path fill="#7EB7AE" d="M82.8,75.9c0.7,0,1.3,0.6,1.3,1.3c0,0.7-0.6,1.3-1.3,1.3c-0.7,0-1.3-0.6-1.3-1.3
					C81.5,76.5,82.1,75.9,82.8,75.9z"/>
				<path fill="#D1D3D4" d="M84.4,107.6c0.9,3,4.2,2.4,7.2,0.2l0,0c8.5,2.4,7.7,10.1,0.3,5.6c-7.5-4.5-6.9,1.9-9.1,2.7
					c-0.3,0.1-0.6,0.1-0.8,0.1c-1.1-0.2-1.3-2-1.3-2.6c1.6-1.8,2.8-3.8,3.5-6.1L84.4,107.6z"/>
				<path fill="#7EB7AE" d="M82,116.2c-0.1,0.6-0.5,4.8-4,9.5l-6.6,1.3c0,0,2.1-6.9,0.4-8.7c3.9-0.7,6.8-2.4,8.9-4.6
					C80.7,114.2,80.9,116,82,116.2z"/>
				<path fill="#7EB7AE" d="M79.4,92.4c0,0-1.3,5.1-12.8,4.5c-11.4-0.5-14.9-6.1-14.9-6.1S65.8,80.7,79.4,92.4z"/>
				<path fill="#7EB7AE" d="M65.5,67.9c0.7,0,1.3,0.6,1.3,1.3c0,0.7-0.6,1.3-1.3,1.3c-0.7,0-1.3-0.6-1.3-1.3
					C64.2,68.5,64.8,67.9,65.5,67.9z"/>
				<path fill="#D1D3D4" d="M61,127c2.1,4.3-1.1,5.3-1.1,5.3c-11.4,1.1-12.2-1.6-12-4c0.3-2.4,6.4-2.7,6.4-2.7L61,127z"/>
				<path fill="#7EB7AE" d="M54.4,125.7c-3.7-5.1-4.5-12.8-4.5-12.8l-0.1-0.1c0.3-0.4,0.6-1.1,0.8-2c2.2,3.3,5.4,6,10.3,7.1
					c-2.3,1.2,0.1,9,0.1,9L54.4,125.7z"/>
				<path fill="#BCBEC0" d="M51.7,90.8c-0.6-0.1-1.2-0.3-1.8-0.5c-1-0.3-2-0.7-3-1.2c-3.3-1.6-6.2-3.9-8.4-5.9
					c-2.7-2.5-4.4-4.7-4.4-4.7s1.9-4.1,6.6-8.1c0.9-0.8,1.9-1.5,2.9-2.3c4.9-3.4,12.1-6.2,21.9-5.9c11.8,0.4,19.4,5.1,23.9,9.6
					c1.3,1.2,2.3,2.5,3.1,3.6c2.1,2.9,3,5.1,3,5.1s-1,2.4-3.2,5.1c-1.8,2.2-4.4,4.5-7.9,5.7c-0.6,0.2-1.3,0.4-2,0.6
					c-1,0.2-2.1,0.3-3.2,0.3C65.8,80.7,51.7,90.8,51.7,90.8z M84.2,77.2c0-0.7-0.6-1.3-1.3-1.3c-0.7,0-1.3,0.6-1.3,1.3
					c0,0.7,0.6,1.3,1.3,1.3C83.6,78.6,84.2,78,84.2,77.2z M66.9,69.3c0-0.7-0.6-1.3-1.3-1.3c-0.7,0-1.3,0.6-1.3,1.3
					c0,0.7,0.6,1.3,1.3,1.3C66.3,70.6,66.9,70,66.9,69.3z M48,75.7c0-0.7-0.6-1.3-1.3-1.3c-0.7,0-1.3,0.6-1.3,1.3
					c0,0.7,0.6,1.3,1.3,1.3C47.4,77,48,76.4,48,75.7z"/>
				<path fill="#FFFFFF" d="M51.7,90.8c0,0,3.5,5.6,14.9,6.1c11.4,0.5,12.8-4.5,12.8-4.5c1.1,0,2.2-0.1,3.2-0.3l0,0.1
					c1.3,9.6-4.5,10.6-9.1,10.1c-4.5-0.5-4.5,1.9-4.5,1.9c-2.9,2.1-5.9-0.5-5.9-0.5c-0.8-2.7-5.9-2.7-9.6-3.7
					c-3.7-1.1-3.7-9.3-3.7-9.3l0.1-0.2C50.5,90.5,51.1,90.7,51.7,90.8z"/>
				<path fill="#7EB7AE" d="M49.8,90.6c0,0,0,8.2,3.7,9.3c3.7,1.1,8.8,1.1,9.6,3.7c0,0,2.9,2.7,5.9,0.5c0,0,0-2.4,4.5-1.9
					c4.5,0.5,10.4-0.5,9.1-10.1l0-0.1c0.7-0.1,1.4-0.3,2-0.6l0.1,0.4c1,4.6,1.3,10.6-0.4,15.6c-0.7,2.3-1.9,4.4-3.5,6.1
					c-2.1,2.2-5,3.9-8.9,4.6c-2.3,0.4-4.9,0.5-7.9,0.2c-1.1-0.1-2-0.3-3-0.5c-4.9-1.1-8.2-3.8-10.3-7.1c-1.1-1.6-1.9-3.4-2.5-5.3
					c-2.5-7.9-1.2-16.3-1.2-16.3l0-0.1c1,0.5,1.9,0.9,3,1.2L49.8,90.6z"/>
				<path fill="#7EB7AE" d="M46.6,74.3c0.7,0,1.3,0.6,1.3,1.3c0,0.7-0.6,1.3-1.3,1.3c-0.7,0-1.3-0.6-1.3-1.3
					C45.3,74.9,45.9,74.3,46.6,74.3z"/>
				<path fill="#D1D3D4" d="M41.4,104.3c2.5,2,5,2.9,6.8,1.2c0.6,1.8,1.4,3.6,2.5,5.3c-0.3,0.9-0.6,1.6-0.8,2
					c-1.1,1.6-2.2-0.1-2.9-2.9c-0.8-3.4-9.8,3.5-13.6-0.8C29.6,104.9,41.3,104.4,41.4,104.3L41.4,104.3z"/>
				<path fill="#BCBEC0" d="M44,25.6l0.1,0.1c-1.8,0.8-3.6,1.7-5.4,2.8L36,24.3c1.9-0.4,3.5-1.4,4.7-2.8L44,25.6z"/>
				<path fill="#FFFFFF" d="M39.7,57.6c0,6.8,2.9,9.8,3.9,10.6c-1.1,0.7-2,1.5-2.9,2.3c-1.3-0.7-6.1-3.6-6.3-13.2
					c-0.3-11.2,9.9-19.7,33-18.6c23.1,1.1,34.6,13,34.1,23.7c-0.5,9.6-7.5,12.7-8.8,13.2c-0.8-1.1-1.9-2.4-3.1-3.6l0,0
					c0,0,5.6-2.1,6.4-9.9c0.8-7.7-9.8-15.4-27.1-17.6C51.4,42.4,39.7,49.3,39.7,57.6z"/>
				<path fill="#7EB7AE" d="M40.7,21.5c-1.1,1.4-2.8,2.3-4.7,2.8c-0.7,0.2-1.4,0.3-2.1,0.3c-4.7,0-8.5-3.4-8.5-7.6
					c0-4.2,3.8-7.6,8.5-7.6c4.7,0,8.5,3.4,8.5,7.6C42.4,18.7,41.7,20.3,40.7,21.5z"/>
				<path fill="#7EB7AE" d="M38.5,83.3c2.2,2,5.1,4.3,8.4,5.9l0,0.1c0,0-1.3,8.5,1.2,16.3c-1.8,1.6-4.3,0.7-6.8-1.2
					c-3.2-2.5-6.2-6.8-7.2-9.8c-1.9-5.3,4.3-11.2,4.3-11.2L38.5,83.3z"/>
				<path fill="#BCBEC0" d="M22.2,51.4l0.1,0c-1.3,5-1.4,9.9-0.3,14.1c-9.1,3.3-9.1-6.5-8.3-12.3C14.4,47.5,22.2,51.4,22.2,51.4z"/>
			</g>
		</g>
		<g>
			<path fill="#499095" d="M25.9,19.2c0,0,6.7,3.7,10.9,1.1c4.3-2.7,4.3-8.2,1.3-10.1c0,0,6.7,4,2.9,11.2
				C41.1,21.4,31.5,28.3,25.9,19.2z"/>
			<path fill="#499095" d="M96.9,19.8c0,0,4,4.5,8.8,3.2c4.8-1.3,7.7-5.1,5.1-9.3c0,0,5.6,7.2-1.9,11.2
				C108.9,24.8,101.7,29.9,96.9,19.8z"/>
			<path fill="#499095" d="M24.6,46.1c0,0,6.1,20.2,15.2,23.4l0.8,1.9l-6.1,6.9C34.4,78.3,14.7,75.4,24.6,46.1z"/>
			<path fill="#499095" d="M92.9,75.4l2.7,4.5c0,0,9,2.9,14.4-10.6C110,69.3,102,76.5,92.9,75.4z"/>
			<path fill="#499095" d="M74.6,89.8c0,0-11.7-2.7-15.7,3.2c-0.5,1.3,2.7,3.5,2.7,3.5s-6.1-1.3-9-5.9
				C52.5,90.6,64.2,83.6,74.6,89.8z"/>
			<path fill="#499095" d="M36.3,86c0,0,9.3,10.4,10.4,19.7c0,0-0.3-8.8,4.5-8.5c0,0-2.1-3.7-1.3-6.1c0,0-8-4.5-11.7-8L36.3,86z"/>
			<path fill="#499095" d="M82.8,92.7c0,0,0.8,2.4-0.3,4.3c0,0,4.5,4.3,1.6,10.4c0,0,6.4-18.9,13-13.8c0,0-2.7-6.9-5.1-7.5
				C92.1,86,87.4,91.6,82.8,92.7z"/>
			<path fill="#499095" d="M50.6,115.8c0,0,7.2,1.6,6.9,9.8l2.9,0.5c0,0-1.6-6.1,0-8.5c0,0-8.5-3.5-10.4-6.9l-0.5,2.4L50.6,115.8z"
				/>
			<path fill="#499095" d="M72.5,118.2l8-4l0.8,2.1l-0.3,2.1c0,0-4.8-1.1-5.6,1.9c-0.8,2.9,0,5.1,0,5.1l-3.2,0.8L72.5,118.2z"/>
			<path fill="#FFFFFF" d="M55.7,106.3c0,0,4.5-1.9,6.6,1.6c2.1,3.5,7.4,2.7,8.8,0.8c1.3-1.9,2.9-2.7,4.8-1.3c1.9,1.3-1.3,8.8-8,9
				C61.3,116.6,53,111.8,55.7,106.3z"/>
			<path fill="#FFFFFF" d="M96.9,94.8c0,0-5.6,15.2-9.6,9c0,0,0.8,5.9,5.9,2.7C93.2,106.5,100.4,98.8,96.9,94.8z"/>
			<path fill="#FFFFFF" d="M33.9,91.1c0.1-0.8,9.6,8,10.1,10.9c0.5,2.9-5.3,0.3-5.3,0.3S32.8,96.9,33.9,91.1z"/>
			<path fill="#FFFFFF" d="M89.8,109.2l6.7,4.5C96.4,113.7,98.8,109.4,89.8,109.2z"/>
			<path fill="#FFFFFF" d="M42.4,104.9c0,0-10.1,1.9-8.2,4.3c1.9,2.4,9.6-3.7,9.6-3.7L42.4,104.9z"/>
			<path fill="#FFFFFF" d="M53.8,125.4c0,0-6.4,0.8-4.8,2.7C50.6,129.9,59.2,128.6,53.8,125.4z"/>
			<path fill="#FFFFFF" d="M76.4,125.9c0,0,6.7,0.3,6.4,2.1C82.6,129.9,70.9,128.1,76.4,125.9z"/>
			<path fill="#808285" d="M71.1,128.9c0,0,8.5,2.9,12.8,1.6c0,0-2.9,2.9-11.2,1.9C72.7,132.3,70.1,131.5,71.1,128.9z"/>
			<path fill="#808285" d="M49.3,131c0,0,10.4,0,12-2.9C61.3,128.1,64.2,134.5,49.3,131z"/>
			<path fill="#808285" d="M45.8,106.8c0,0,2.9,7.5,3.7,6.4c0.8-1.1,0.5-2.4,0.5-2.4l-2.4-4.3L45.8,106.8z"/>
			<path fill="#808285" d="M84.2,108.9l-3.7,5.3c0,0,1.9,2.4,2.4,1.9c0.5-0.5,2.9-4.3,2.9-4.3S87.4,108.4,84.2,108.9z"/>
			<path fill="#808285" d="M13.7,59.4c0,0,5.9,2.4,8,1.3l0.8,4.8C22.4,65.5,14.7,66.9,13.7,59.4z"/>
			<path fill="#808285" d="M111,64.2l-1.6,6.1c0,0,7.2,6.4,10.6-3.7C120.1,66.6,114.5,67.7,111,64.2z"/>
			<polygon fill="#FFFFFF" points="111.6,60.8 120.9,61 120.4,58.1 112.1,58.9 			"/>
			<polygon fill="#FFFFFF" points="21.6,56.5 21.9,54.4 13.9,53.8 13.4,58.4 			"/>
			<path fill="#FFFFFF" d="M28,11.5c0,0-4.8,5.9-0.3,5.1C32.3,15.8,37.1,7.8,28,11.5z"/>
			<path fill="#FFFFFF" d="M102,12.1c0,0-6.7,4.5-2.1,4.8C104.4,17.1,112.4,11.5,102,12.1z"/>
			<path fill="#FFFFFF" d="M57.3,22.2c0,0-19.4,5.1-7.7,7.5c11.7,2.4,33.8-1.9,25-7.7C74.6,21.9,59.4,21.6,57.3,22.2z"/>
			<path fill="#FFFFFF" d="M61,62.4c0,0-15.7,8-17.8,14.9c0,0-3.2,3.7,10.6,11.7l-2.1,1.3c0,0-10.6-1.3-17.3-12
				C34.4,78.3,44.3,63.4,61,62.4z"/>
			<path fill="#808285" d="M68.7,86.8c0,0,13,3.2,19.2-4c6.1-7.2,0.5-11.7,0.5-11.7l7.2,8.8c0,0-3.7,12.2-16.2,12.2
				C79.4,92.2,74.3,89,68.7,86.8z"/>
			<path fill="#FFFFFF" d="M77.8,94.3c0,0-2.1-4-6.4-1.6c-4.3,2.4-5.1,3.7-1.3,4.3C73.8,97.5,77.8,94.3,77.8,94.3z"/>
			<path fill="#185961" d="M79.9,47.2c0,0,1.1,9-12.8,11.2c-13.8,2.1-25.5,3.2-26.1-5.6c0,0-4.5,8.2,2.4,14.6c0,0,24.7-13,45,3.7
				l1.1,0.8c0,0,7.7-6.1,6.4-11.2C94.5,55.7,90,50.1,79.9,47.2z"/>
			<path fill="#FFFFFF" d="M53.3,45.3c0,0-13,4.8-1.9,6.4c11.2,1.6,17.8-5.1,12.5-6.9C63.9,44.8,57.3,44,53.3,45.3z"/>
		</g>
		<g>
			<path fill="#281E18" d="M120.2,56.3c-0.9-1.3-2-2-3.4-2.2c-1.9-0.3-3.8,0.5-4.9,1.1c-0.6-3.9-2.1-8.2-5-12.9
				c-2.2-3.7-4.8-6.8-7.6-9.3l3-6c0.8,0.2,1.7,0.3,2.5,0.3c5.1,0,9.3-3.8,9.3-8.4c0-4.6-4.2-8.4-9.3-8.4c-5.1,0-9.3,3.8-9.3,8.4
				c0,1.4,0.4,2.8,1.1,4l-4.8,4.6c-11.1-6.4-22.2-6.6-23.1-6.6c0,0,0,0,0,0c0,0-1.1-0.1-2.9-0.1c-4.5,0-13.1,0.6-21.5,4l-2.6-3.3
				c0.9-1.3,1.5-2.9,1.5-4.6c0-4.6-4.2-8.4-9.3-8.4c-5.1,0-9.3,3.8-9.3,8.4c0,4.6,4.2,8.4,9.3,8.4c0.6,0,1.2-0.1,1.8-0.2l1.9,3.1
				c-2.9,1.9-5.7,4.2-8.1,7.2c-3.7,4.6-6.3,9.7-7.7,14.9c-1.4-0.6-4.6-1.7-6.8-0.6c-1.2,0.6-1.9,1.8-2.1,3.4
				c-0.6,4.4-0.7,10.3,2.4,12.7c0.9,0.8,2.1,1.1,3.4,1.1c0.8,0,1.8-0.1,2.8-0.4c0.1,0.2,0.1,0.4,0.2,0.6c2,6.1,6.2,10.3,12,12
				c0.5,0.6,1.8,2.1,3.7,4c-1.5,1.6-5.7,6.6-4,11.5c0.9,2.6,3.3,6.3,6.1,8.9c-2.5,0.3-6.6,1-7.5,3c-0.3,0.6-0.4,1.7,0.8,2.9
				c2.4,2.7,6.3,1.6,9.5,0.7c1.5-0.4,3.2-0.9,3.8-0.6c0,0,0.1,0.1,0.2,0.3c0.4,1.8,1.2,4,2.7,4.1c0,0,0,0,0,0c0.1,0,0.2,0,0.3-0.1
				c0.4,2.2,1.3,6.9,3.7,10.8c-2.1,0.3-5.5,1-5.8,3.3c-0.1,0.9-0.1,2.2,0.9,3.3c1.2,1.2,3.5,1.8,7.2,1.8c1.4,0,2.9-0.1,4.7-0.2
				c0.1,0,0.1,0,0.2,0c0.1,0,1.4-0.5,2.1-2c0.5-1.2,0.3-2.7-0.5-4.3c-1-3.3-1.4-7.1-0.6-7.9c0.9,0.2,1.7,0.3,2.7,0.4
				c1.2,0.1,2.3,0.2,3.5,0.2c1.4,0,2.8-0.1,4.1-0.3c0.5,1.2,0.1,4.7-0.7,7.5c-0.9,1.7-1,3.2-0.5,4.5c0.6,1.5,2,2,2.1,2
				c0.1,0,0.1,0,0.2,0c1.8,0.2,3.3,0.2,4.7,0.2c3.7,0,6-0.6,7.2-1.8c1.1-1.1,1-2.4,0.9-3.3c-0.2-2.2-3.7-3-5.7-3.3
				c2.3-3.5,3-6.6,3.2-8c0.1,0,0.2-0.1,0.4-0.1c0.9-0.3,1.4-1.2,1.9-2.1c0.5-0.9,1-1.8,2-2.1c1-0.3,2.5,0.2,4.5,1.4
				c3.5,2.1,5.3,1.6,6,1c0.8-0.5,1.2-1.4,1-2.5c-0.3-1.6-1.8-3.8-5.3-5.1c2.6-2.3,4.8-5.6,5.1-8.7c0.5-5.9-3.5-11.4-4.8-13.1
				c1.4-1.8,2.3-3.4,2.7-4.2c0.1,0,0.3,0,0.4,0c0,0,0,0,0,0c4.6,0,9.6-3.5,12.6-8.9c0.3-0.4,0.5-1,0.8-1.6c2,1.8,3.6,2.4,4.9,2.4
				c1.2,0,2.2-0.5,2.8-1C121.7,69.2,122.3,59.4,120.2,56.3z M116.6,55.6c0.2,0,0.4,0.1,0.5,0.1c0.2,2.7,0.7,12.1-3.4,15.9
				c-0.5-0.2-1-0.4-1.5-0.8c3.5-4.1,3-12.6,2.8-15.2C115.5,55.6,116,55.6,116.6,55.6z M104.9,12.1c4.3,0,7.7,3,7.7,6.8
				c0,3.7-3.5,6.8-7.7,6.8c-4.3,0-7.7-3-7.7-6.8C97.2,15.1,100.7,12.1,104.9,12.1z M97.7,24.1c0.9,0.9,1.9,1.7,3.2,2.3l-2.7,5.5
				c-1.6-1.3-3.2-2.5-4.8-3.5L97.7,24.1z M26.2,17c0-3.7,3.5-6.8,7.7-6.8c4.3,0,7.7,3,7.7,6.8c0,3.7-3.5,6.8-7.7,6.8
				C29.6,23.8,26.2,20.7,26.2,17z M37.2,24.8c1.3-0.5,2.4-1.2,3.4-2l2.2,2.7c-1.3,0.6-2.6,1.3-3.9,2L37.2,24.8z M14.4,53.4
				c0.1-1.1,0.6-1.8,1.3-2.2c0.4-0.2,0.9-0.3,1.5-0.3c-0.8,2.1-2.9,8.5-0.5,14c-0.1-0.1-0.3-0.1-0.4-0.2
				C14.3,63.1,13.7,59,14.4,53.4z M17.8,65.3C14.9,59.9,17.3,52.8,18,51c0.4,0.1,0.9,0.1,1.3,0.3c-0.4,1.7-2.2,9.2-0.1,14.2
				C18.7,65.4,18.2,65.4,17.8,65.3z M20.1,65.3c-2.1-4.7-0.4-12.1,0-13.8c0.5,0.2,0.9,0.3,1.3,0.5c-1.1,4.5-1.2,9-0.3,13.1
				C20.7,65.1,20.4,65.3,20.1,65.3z M35.1,78.5c1.4-2.6,9.8-16,30.4-15.3c21,0.7,28.2,15.3,29.2,17.6c-0.7,1.4-4.2,8.2-11.2,10.3
				c-17.4-16.2-33.1-4.4-35.7-2.3C41.4,85.8,36.3,80,35.1,78.5z M90.8,72.2c1.7-1,5.3-3.8,5.9-10c0.9-8.6-10.8-16.3-27.8-18.4
				c-10.7-1.3-20.4,0.8-25.8,5.6c-2.7,2.4-4.1,5.2-4.1,8.3c0,6,2.1,9.2,3.5,10.6c-0.6,0.5-1.2,0.9-1.8,1.4
				c-1.5-0.9-5.3-3.8-5.5-12.3c-0.1-4.3,1.4-7.9,4.3-10.9c5.3-5.1,14.9-7.5,27.8-7C79.9,40,90,43.9,95.9,50.4
				c3.3,3.6,5,7.8,4.8,11.9c-0.4,8.3-5.9,11.5-7.8,12.3C92.2,73.8,91.5,73,90.8,72.2z M43.8,67.3c-1.1-1.1-3.2-3.9-3.2-9.7
				c0-2.6,1.2-5,3.6-7.1c5.1-4.5,14.3-6.4,24.5-5.2c15.9,2,27.2,9.1,26.4,16.7c-0.6,6.1-4.3,8.4-5.5,9c-4.7-4.5-12.4-9.1-24-9.5
				C55.9,61.2,48.8,63.9,43.8,67.3z M87.5,108.8c-1.2,0.1-1.9-0.3-2.3-1.5l-0.1,0c1.6-5,1.4-10.7,0.4-15.4c1.9-0.8,3.6-1.9,5-3.1
				c1.4,2.2,6.1,10.6,0.1,18.6C89.5,108.2,88.4,108.7,87.5,108.8z M82.1,110.4c-1.2,0.6-2.5,1.1-3.7,1.5c-0.2-0.6-0.8-1-1.5-1
				c-0.9,0-1.6,0.7-1.6,1.6c0,0.1,0,0.1,0,0.2c-2.4,0.5-4.8,0.6-7.1,0.5c-0.1-0.7-0.8-1.3-1.5-1.3c-0.7,0-1.3,0.5-1.5,1.1
				c-2.6-0.3-5-0.8-7.2-1.5c0-0.1,0.1-0.3,0.1-0.4c0-0.9-0.7-1.6-1.6-1.6c-0.7,0-1.2,0.4-1.5,1c-2.3-0.9-4.1-1.7-5-2.2
				c-3.3-6.8-2.8-15.2-2.5-18c0.6,0.3,1.2,0.5,1.9,0.7c0.1,1.8,0.5,8.2,4,9.2c1,0.3,2.2,0.5,3.3,0.7c2.8,0.5,5.5,1,6,2.7
				c0,0.1,0.1,0.1,0.1,0.2c0,0,1.6,1.5,3.7,1.5c0.8,0,1.7-0.2,2.7-0.9c0.1-0.1,0.2-0.2,0.2-0.3c0,0,0-0.5,0.5-0.9
				c0.5-0.4,1.5-0.8,3.6-0.6c3.4,0.4,6.1-0.3,7.7-1.9c1.6-1.7,2.3-4.4,1.9-7.9c0.3-0.1,0.7-0.2,1-0.3
				C85.1,98.1,85.1,105.2,82.1,110.4z M45.5,105.5c-9.3-10.2-5.9-17-4.4-19.1c1.5,1.1,3.2,2.2,5,3.1c-0.2,1.9-0.9,8.9,1.1,15.7
				C46.7,105.6,46.1,105.7,45.5,105.5z M80.6,100.2c-1.8,1.9-4.8,2-7,1.7c-2-0.2-3.4,0-4.2,0.8c-0.5,0.4-0.7,1-0.7,1.2
				c-2.4,1.6-4.7-0.2-5.1-0.5c-0.7-2.1-3.6-2.6-6.6-3.2c-1.1-0.2-2.2-0.4-3.2-0.7c-2.8-0.8-3.3-6.3-3.4-8.2c0.3,0.1,0.6,0.2,1,0.3
				c0.9,1.2,5,5.7,15.3,6.2c0.6,0,1.1,0,1.7,0c8.4,0,11-3.2,11.7-4.6c0.8,0,1.6-0.1,2.3-0.3C82.6,96.2,82,98.7,80.6,100.2z M52.9,91
				c2.9-1.8,14.3-7.6,25.5,1.6c-0.7,1.1-3.3,3.9-11.7,3.5C58.1,95.7,54.1,92.4,52.9,91z M79.6,91.6C67,80.9,53.7,88.6,51.6,90
				c-1-0.2-1.9-0.5-2.9-0.9c3.2-2.6,17.5-12.7,33.9,2.2C81.7,91.5,80.7,91.6,79.6,91.6z M34.9,94.3c-1.4-4,2.4-8.5,3.6-9.9
				c0.6,0.5,1.3,1.1,1.9,1.6c-1.6,2.2-4.9,9.1,3.5,19.1C40.3,103.3,36.1,97.7,34.9,94.3z M47.7,109.8c-0.1-0.6-0.4-1-0.9-1.3
				c-1.1-0.7-2.8-0.2-5,0.4c-2.9,0.8-6.1,1.7-7.8-0.2c-0.5-0.5-0.6-0.9-0.5-1.2c0.5-1.3,4.9-2.1,7.7-2.2c1.2,0.9,2.5,1.6,3.6,1.9
				c0.4,0.1,0.8,0.1,1.1,0.1c0.6,0,1.2-0.1,1.7-0.4c0.5,1.4,1.2,2.8,2,4.2c-0.5,1.4-0.8,1.7-0.8,1.7
				C48.7,112.6,48.1,111.7,47.7,109.8z M50.6,112.9c0.1-0.1,0.1-0.3,0.2-0.4c0.7,0.9,1.5,1.7,2.3,2.4c0.1,1.3,0.5,6.5,2.5,10.2
				l-0.9-0.2C51.6,120.4,50.7,113.8,50.6,112.9z M60.8,130.5c-0.3,0.7-0.8,1-1,1.1c-7.1,0.7-9.7-0.2-10.5-1.1c-0.5-0.5-0.6-1-0.5-2
				c0.1-1.1,3.3-1.8,5.5-1.9l6.1,1.2C60.9,128.8,61.1,129.8,60.8,130.5z M59.9,126l-3.1-0.6c-2-3-2.6-7.7-2.8-9.7
				c1.6,1.2,3.5,2.2,5.5,2.8C58.7,120.3,59.3,123.8,59.9,126z M64,117.7c-5.2-0.5-9.2-2.6-12-6.2c-0.5-0.6-0.9-1.3-1.3-2
				c1,0.5,2.5,1.1,4.3,1.8c0.1,0.8,0.8,1.3,1.5,1.3c0.4,0,0.8-0.2,1.1-0.5c2.2,0.7,4.8,1.2,7.5,1.6c0.1,0.7,0.8,1.3,1.5,1.3
				c0.7,0,1.3-0.5,1.5-1.1c0.4,0,0.8,0,1.2,0c2,0,4.1-0.2,6.3-0.6c0.3,0.4,0.7,0.7,1.3,0.7c0.8,0,1.4-0.6,1.6-1.4
				c1-0.3,1.9-0.6,2.9-1.1c-0.3,0.4-0.6,0.9-1,1.3c-2.1,2.3-4.9,3.9-8.4,4.5c-0.1-0.1-0.2-0.1-0.3-0.2l-0.1,0.3
				C69.3,117.9,66.8,118,64,117.7z M78,116.8c0.1,2.3-0.1,6.7-2.1,8.5l-3.4,0.7c0.5-2,1.1-5.2,0.5-7.1
				C74.8,118.4,76.5,117.7,78,116.8z M83.6,128.4c0.1,1,0,1.5-0.5,2c-0.9,0.9-3.4,1.8-10.5,1.1c-0.2-0.1-0.8-0.4-1-1.1
				c-0.3-0.7-0.1-1.6,0.3-2.8l6.1-1.2C80.4,126.6,83.5,127.3,83.6,128.4z M77.6,125l-0.4,0.1c1.7-2.5,1.7-6.7,1.6-8.7
				c0.5-0.3,1-0.7,1.4-1.1c0.2,0.5,0.5,1.1,1,1.4l0,0C80.9,118,80.2,121.3,77.6,125z M96.9,112.9c0,0.3,0,0.7-0.3,0.9
				c-0.6,0.4-2,0.3-4.3-1.1c-2.4-1.5-4.3-2-5.8-1.6c-1.6,0.4-2.3,1.8-2.9,2.8c-0.3,0.6-0.7,1.2-1,1.4c-0.3,0.1-0.4,0-0.5,0
				c-0.3-0.2-0.5-0.8-0.5-1.4c0,0,0,0,0,0c1.2-1.4,2.2-3,2.9-4.7c0.6,0.8,1.5,1.2,2.6,1.2c0.2,0,0.4,0,0.6,0c1.2-0.1,2.6-0.8,4-1.7
				C95,109.7,96.7,111.6,96.9,112.9z M96.7,98.7c-0.2,2.5-2,5.2-4.1,7.2c4.3-7.8-0.2-15.6-1.5-17.6c0.5-0.4,0.9-0.9,1.3-1.3
				C93.8,88.8,97.1,93.8,96.7,98.7z M107.7,71.9c-2.8,4.9-7.2,8.1-11.2,8.1c0,0,0,0,0,0c-0.1,0-0.2,0-0.3,0c-0.3-0.7-1.1-2.2-2.3-4
				c2.4-1.2,8-4.9,8.5-13.5c0.2-4.5-1.6-9.1-5.2-13.1c-6.2-6.8-16.7-10.9-29.7-11.5c-13.4-0.6-23.4,1.9-29,7.4
				c-3.3,3.2-4.9,7.4-4.8,12c0.2,8.5,3.8,12,5.8,13.3c-3.2,2.9-5,5.8-5.7,7c-5.1-1.6-8.9-5.4-10.6-10.8c-2.9-9,0.1-20.9,7.6-30.3
				c10.3-12.8,28-14.2,35.1-14.2c1.7,0,2.8,0.1,2.9,0.1c1,0,24.5,0.2,36.8,20.6C114.1,57.4,109.9,68,107.7,71.9z M112.1,56.9
				c0.4-0.3,1.1-0.7,2-1c0.2,2.7,0.7,10.8-2.6,14.5c-0.3-0.3-0.6-0.6-1-0.9C111.7,66.5,112.7,62.2,112.1,56.9z M116.6,71.3
				c-0.6,0.5-1.3,0.7-2,0.7c3.8-4.1,3.6-12.5,3.3-15.7c0.3,0.3,0.7,0.6,1,1C120.6,59.7,119.9,68.6,116.6,71.3z"/>
			<path fill="#281E18" d="M65.5,71c1,0,1.7-0.8,1.7-1.7c0-1-0.8-1.7-1.7-1.7c-1,0-1.7,0.8-1.7,1.7C63.8,70.2,64.6,71,65.5,71z
				 M65.5,68.3c0.5,0,0.9,0.4,0.9,0.9c0,0.5-0.4,0.9-0.9,0.9c-0.5,0-0.9-0.4-0.9-0.9C64.6,68.8,65,68.3,65.5,68.3z"/>
			<path fill="#281E18" d="M82.8,79c1,0,1.7-0.8,1.7-1.7c0-1-0.8-1.7-1.7-1.7c-1,0-1.7,0.8-1.7,1.7C81.1,78.2,81.9,79,82.8,79z
				 M82.8,76.3c0.5,0,0.9,0.4,0.9,0.9c0,0.5-0.4,0.9-0.9,0.9c-0.5,0-0.9-0.4-0.9-0.9C81.9,76.7,82.3,76.3,82.8,76.3z"/>
			<path fill="#281E18" d="M46.6,77.4c1,0,1.7-0.8,1.7-1.7c0-1-0.8-1.7-1.7-1.7c-1,0-1.7,0.8-1.7,1.7C44.9,76.6,45.7,77.4,46.6,77.4
				z M46.6,74.7c0.5,0,0.9,0.4,0.9,0.9c0,0.5-0.4,0.9-0.9,0.9c-0.5,0-0.9-0.4-0.9-0.9C45.7,75.1,46.1,74.7,46.6,74.7z"/>
		</g>
	</g>
</g>
</svg>
