<?xml version="1.0" encoding="utf-8"?>
<!-- Generator: Adobe Illustrator 18.1.1, SVG Export Plug-In . SVG Version: 6.00 Build 0)  -->
<svg version="1.1" id="Layer_1" xmlns="http://www.w3.org/2000/svg" xmlns:xlink="http://www.w3.org/1999/xlink" x="0px" y="0px"
	 viewBox="75 0 99.8 100" enable-background="new 75 0 99.8 100" xml:space="preserve">
<g>
	
		<linearGradient id="SVGID_1_" gradientUnits="userSpaceOnUse" x1="31.2" y1="37.0271" x2="31.2" y2="97.1926" gradientTransform="matrix(1.6 0 0 -1.6 75 160)">
		<stop  offset="0" style="stop-color:#B2E0E4"/>
		<stop  offset="1" style="stop-color:#E6EEEE"/>
	</linearGradient>
	<circle fill="url(#SVGID_1_)" cx="124.9" cy="49.9" r="49.9"/>
	
		<linearGradient id="SVGID_2_" gradientUnits="userSpaceOnUse" x1="31.2" y1="39.9" x2="31.2" y2="97.6" gradientTransform="matrix(1.6 0 0 -1.6 75 160)">
		<stop  offset="0.1348" style="stop-color:#E0F2F6"/>
		<stop  offset="0.2364" style="stop-color:#2A5A68"/>
		<stop  offset="1" style="stop-color:#06262F"/>
	</linearGradient>
	<path fill="url(#SVGID_2_)" d="M124.9,96.2c-25.4,0-46.1-20.6-46.1-46.1S99.5,3.8,124.9,3.8S171,24.5,171,49.9
		S150.5,96.2,124.9,96.2z"/>
	
		<linearGradient id="SVGID_3_" gradientUnits="userSpaceOnUse" x1="31.25" y1="41.1" x2="31.25" y2="96.4" gradientTransform="matrix(1.6 0 0 -1.6 75 160)">
		<stop  offset="0" style="stop-color:#065B73"/>
		<stop  offset="0.1879" style="stop-color:#113D63"/>
		<stop  offset="1" style="stop-color:#009E98"/>
	</linearGradient>
	<path fill="url(#SVGID_3_)" d="M124.9,94.2c-24.3,0-44.2-19.8-44.2-44.3s19.8-44.2,44.2-44.2c24.5,0,44.3,19.8,44.3,44.3
		S149.4,94.2,124.9,94.2z"/>
</g>
<g>
	<path fill="#281E18" d="M130.4,90c-0.9,0-1.8,0-2.9-0.2c-0.2,0-0.2,0-0.4,0c-0.5-0.2-1.3-0.7-1.8-1.6c-0.4-0.9-0.4-2,0.4-3.3
		c0.4-1.1,0.5-2.3,0.5-3.1c-0.5,0-1.1,0-1.6,0c-0.7,0-1.4,0-2.2-0.2c-0.4,0-0.5,0-0.9-0.2c0,0.7,0.2,2.2,0.5,3.3
		c0.5,1.3,0.7,2.3,0.4,3.3s-1.1,1.4-1.8,1.6c-0.2,0-0.2,0-0.4,0c-1.1,0.2-2,0.2-2.9,0.2c-2.5,0-4-0.4-4.9-1.4
		c-0.9-0.9-0.7-2.2-0.7-2.5c0.2-1.4,1.6-2.2,2.9-2.3c-0.9-1.8-1.3-3.6-1.6-4.9c-0.7-0.2-1.4-1.1-1.8-2.5c-0.4,0-0.9,0.2-1.3,0.4
		c-1.1,0.4-2.2,0.5-3.3,0.5c-1.3,0-2.3-0.4-3.1-1.3c-1.1-1.1-0.7-2.2-0.5-2.5c0.5-1.1,2-1.8,3.4-2c-1.3-1.4-2.2-2.9-2.7-4.3
		c-0.9-2.7,0.9-5.6,2-7c-0.7-0.7-1.3-1.3-1.4-1.6c-3.4-1.1-6-3.6-7.2-7.2c-0.4,0-0.7,0.2-1.1,0.2c-1.3,0-2.3-0.5-3.1-1.3
		c-1.6-1.8-1.6-5.2-1.3-7.8c0.2-1.8,1.6-3.1,3.4-3.1c0.7,0,1.4,0.2,2,0.4c0.9-2.9,2.5-5.6,4.5-8.1c1.3-1.4,2.5-2.7,4.2-4l-0.2-0.5
		c-0.2,0-0.4,0-0.5,0c-3.4,0-6.3-2.5-6.3-5.8s2.9-5.8,6.3-5.8s6.3,2.5,6.3,5.8c0,0.9-0.2,1.8-0.7,2.5l0.7,0.9
		c4.9-1.8,9.8-2.2,12.3-2.2c0.9,0,1.6,0,1.8,0c1.1,0,7,0.2,13.4,3.6l1.8-1.8c-0.4-0.7-0.5-1.4-0.5-2.2c0-3.3,2.9-5.8,6.3-5.8
		c3.4,0,6.3,2.5,6.3,5.8s-2.9,5.8-6.3,5.8c-0.4,0-0.7,0-1.1,0l-1.3,2.3c1.6,1.4,2.9,3.3,4.2,5.2c1.3,2.2,2.3,4.5,2.7,6.9
		c0.5-0.2,1.1-0.4,1.8-0.4c1.3,0,2.3,0.5,3.3,1.8c1.3,1.8,1.1,6.3-0.4,8.9c-0.9,1.6-2.2,2.5-3.6,2.5l0,0c-0.9,0-1.8-0.4-2.5-0.9
		c-1.8,3.3-4.9,5.4-7.8,5.6c-0.2,0.4-0.5,1.1-1.1,1.6c1.1,1.4,2.9,4.5,2.5,7.8c-0.2,1.6-1.1,3.4-2.3,4.7c1.8,1.1,2.7,2.7,2.5,3.8
		c-0.2,1.3-1.1,2-2.5,2c-0.9,0-1.8-0.4-2.9-1.1c-1.1-0.7-1.6-0.7-1.8-0.7s-0.4,0-0.7,0.9c-0.4,0.5-0.7,1.1-1.3,1.4
		c-0.2,0.9-0.5,2-1.3,3.4c1.3,0.4,2.7,1.1,2.9,2.5c0,0.4,0.2,1.6-0.7,2.5C134.6,89.6,133,90,130.4,90L130.4,90z"/>
	<g>
		<g>
			<path fill="#BBBDBF" d="M155.4,44.3c1.8,2.5-0.2,13.5-5.8,7.6l0,0c0.9-2.2,1.3-4.9,0.9-7.8l0,0C150.5,44.1,153.6,41.7,155.4,44.3
				z"/>
			<path fill="#7EB7AE" d="M98.1,49.5c-0.5-2.5-0.5-5.4,0.2-8.3c0.7-3.1,2.3-6.1,4.5-9c1.4-1.8,3.3-3.3,5.1-4.3
				c1.1-0.7,2.2-1.3,3.1-1.6c7-3.1,14.5-2.3,14.5-2.3s6.9,0,13.7,4c1.3,0.7,2.5,1.6,3.8,2.7c1.6,1.4,3.3,3.3,4.7,5.6
				c1.6,2.9,2.5,5.6,2.9,8.1c0.4,2.9,0,5.6-0.9,7.8c-1.8,4.2-5.2,6.7-8.1,6.3c0,0-0.5-1.3-1.8-3.1c0.7-0.4,4.9-2.2,5.2-7.8
				c0.4-6.3-6.3-13.2-19.9-13.9c-13.5-0.5-19.5,4.3-19.3,10.8c0.2,5.6,2.9,7.4,3.6,7.8c-2.7,2.3-3.8,4.7-3.8,4.7
				C101.5,56,99.2,53.1,98.1,49.5z"/>
			<path fill="#7EB7AE" d="M145.1,26.2c-1.1-0.4-1.8-0.9-2.5-1.8c-0.5-0.7-0.7-1.4-0.7-2.3c0-2.5,2.2-4.5,5.1-4.5
				c2.7,0,5.1,2,5.1,4.5s-2.2,4.5-5.1,4.5C146.1,26.6,145.6,26.4,145.1,26.2z"/>
			<path fill="#BBBDBF" d="M142.5,24.4c0.5,0.7,1.4,1.4,2.5,1.8l-2.2,4.2c-1.3-1.1-2.5-2-3.8-2.7v-0.2L142.5,24.4L142.5,24.4z"/>
			<path fill="#28727B" d="M137.7,53.1L137.7,53.1c-2.7-2.7-7-5.4-14.1-5.6c-5.8-0.2-9.9,1.4-12.8,3.4c-0.5-0.5-2.3-2.2-2.3-6.3
				c0-4.9,6.9-8.9,17-7.6s16.4,5.8,15.9,10.3C140.9,51.9,137.7,53.1,137.7,53.1z"/>
			<path fill="#7EB7AE" d="M138.9,74.1c-1.8,1.3-3.6,1.6-4.2-0.2h-0.2c1.1-2.9,0.9-6.5,0.2-9.2v-0.2c2-0.7,3.6-2,4.7-3.4
				c0.2,0.4,3.3,3.8,2.9,7.6C142.2,70.8,140.5,73,138.9,74.1z"/>
			<path fill="#D1D2D3" d="M134.8,86.2c0.2,1.4-0.4,2.9-7,2.3c0,0-1.8-0.5-0.5-3.1l4-0.7C131,84.5,134.6,84.7,134.8,86.2z"/>
			<circle fill="#7EB7AE" cx="133.9" cy="56.2" r="0.7"/>
			<path fill="#D1D2D3" d="M134.8,74.1c0.5,1.8,2.3,1.4,4.2,0.2l0,0c5.1,1.4,4.5,6,0.2,3.3s-4,1.1-5.2,1.6c-0.2,0-0.4,0-0.5,0
				c-0.7-0.2-0.7-1.1-0.7-1.4C133.5,76.6,134.2,75.3,134.8,74.1L134.8,74.1z"/>
			<path fill="#7EB7AE" d="M133.3,79.1c0,0.4-0.4,2.9-2.3,5.6l-4,0.7c0,0,1.3-4,0.2-5.1c2.3-0.4,4-1.4,5.2-2.7
				C132.6,77.9,132.8,78.9,133.3,79.1z"/>
			<path fill="#7EB7AE" d="M131.7,65.2c0,0-0.7,2.9-7.4,2.7c-6.7-0.4-8.7-3.6-8.7-3.6S123.7,58.4,131.7,65.2z"/>
			<circle fill="#7EB7AE" cx="123.7" cy="51.5" r="0.7"/>
			<path fill="#D1D2D3" d="M121,85.4c1.3,2.5-0.5,3.1-0.5,3.1c-6.7,0.5-7.2-0.9-7-2.3c0.2-1.4,3.8-1.6,3.8-1.6L121,85.4z"/>
			<path fill="#7EB7AE" d="M117.1,84.5c-2.2-2.9-2.7-7.4-2.7-7.4l0,0c0.2-0.2,0.4-0.5,0.5-1.1c1.3,2,3.3,3.4,6.1,4.2
				c-1.3,0.7,0,5.2,0,5.2L117.1,84.5z"/>
			<path fill="#BBBDBF" d="M115.6,64.1c-0.4,0-0.7-0.2-1.1-0.4c-0.5-0.2-1.3-0.4-1.8-0.7c-2-0.9-3.6-2.3-4.9-3.4
				c-1.6-1.4-2.5-2.7-2.5-2.7s1.1-2.3,3.8-4.7c0.5-0.4,1.1-0.9,1.6-1.3c2.9-2,7-3.6,12.8-3.4c6.9,0.2,11.4,2.9,14.1,5.6
				c0.7,0.7,1.3,1.4,1.8,2.2c1.3,1.6,1.8,3.1,1.8,3.1s-0.5,1.4-1.8,3.1c-1.1,1.3-2.5,2.7-4.7,3.4c-0.4,0.2-0.7,0.2-1.3,0.4
				c-0.5,0.2-1.3,0.2-1.8,0.2C123.7,58.4,115.6,64.1,115.6,64.1z M134.6,56.2c0-0.4-0.4-0.7-0.7-0.7c-0.4,0-0.7,0.4-0.7,0.7
				s0.4,0.7,0.7,0.7C134.2,56.9,134.6,56.7,134.6,56.2z M124.5,51.5c0-0.4-0.4-0.7-0.7-0.7s-0.7,0.4-0.7,0.7c0,0.4,0.4,0.7,0.7,0.7
				C124.1,52.4,124.5,52,124.5,51.5z M113.5,55.3c0-0.4-0.4-0.7-0.7-0.7s-0.7,0.4-0.7,0.7c0,0.4,0.4,0.7,0.7,0.7
				C113.1,56.2,113.5,55.8,113.5,55.3z"/>
			<path fill="#FFFFFF" d="M115.6,64.1c0,0,2,3.3,8.7,3.6c6.7,0.4,7.4-2.7,7.4-2.7c0.7,0,1.3,0,1.8-0.2l0,0c0.7,5.6-2.7,6.1-5.2,6
				c-2.7-0.4-2.7,1.1-2.7,1.1c-1.8,1.3-3.4-0.4-3.4-0.4c-0.5-1.6-3.4-1.6-5.6-2.2c-2.2-0.5-2.2-5.4-2.2-5.4v-0.2
				C114.9,64,115.3,64.1,115.6,64.1z"/>
			<path fill="#7EB7AE" d="M114.5,64.1c0,0,0,4.9,2.2,5.4s5.1,0.5,5.6,2.2c0,0,1.6,1.6,3.4,0.4c0,0,0-1.4,2.7-1.1
				c2.7,0.4,6.1-0.4,5.2-6l0,0c0.4,0,0.7-0.2,1.3-0.4v0.2c0.5,2.7,0.7,6.1-0.2,9.2c-0.4,1.3-1.1,2.5-2,3.6c-1.3,1.3-2.9,2.3-5.2,2.7
				c-1.3,0.2-2.9,0.4-4.7,0.2c-0.5,0-1.3-0.2-1.8-0.4c-2.9-0.7-4.9-2.2-6.1-4.2c-0.5-0.9-1.1-2-1.4-3.1c-1.4-4.5-0.7-9.6-0.7-9.6
				l0,0C113.3,63.4,114,63.8,114.5,64.1L114.5,64.1z"/>
			<path fill="#7EB7AE" d="M112.5,54.6c0.4,0,0.7,0.4,0.7,0.7c0,0.4-0.4,0.7-0.7,0.7s-0.7-0.4-0.7-0.7
				C111.8,54.9,112.2,54.6,112.5,54.6z"/>
			<path fill="#D1D2D3" d="M109.5,72.1c1.4,1.1,2.9,1.6,4,0.7c0.4,1.1,0.9,2.2,1.4,3.1c-0.2,0.5-0.4,0.9-0.5,1.1
				c-0.7,0.9-1.3,0-1.6-1.6c-0.5-2-5.8,2-7.9-0.5C102.6,72.4,109.5,72.1,109.5,72.1L109.5,72.1z"/>
			<path fill="#BBBDBF" d="M111.1,26L111.1,26c-1.1,0.5-2.2,1.1-3.1,1.6l-1.6-2.3c1.1-0.2,2-0.9,2.7-1.6L111.1,26z"/>
			<path fill="#FFFFFF" d="M108.6,44.8c0,4,1.6,5.8,2.3,6.3c-0.5,0.4-1.3,0.9-1.6,1.3c-0.7-0.4-3.6-2.2-3.6-7.8
				c-0.2-6.5,5.8-11.6,19.3-10.8c13.5,0.5,20.2,7.6,19.9,13.9c-0.4,5.6-4.3,7.4-5.2,7.8c-0.5-0.7-1.1-1.4-1.8-2.2l0,0
				c0,0,3.3-1.3,3.8-5.8s-5.8-9-15.9-10.3C115.4,35.8,108.6,39.9,108.6,44.8z"/>
			<path fill="#7EB7AE" d="M109.1,23.7c-0.7,0.7-1.6,1.3-2.7,1.6c-0.4,0-0.9,0.2-1.3,0.2c-2.7,0-5.1-2-5.1-4.5s2.2-4.5,5.1-4.5
				c2.7,0,5.1,2,5.1,4.5C110.2,22,109.7,23,109.1,23.7z"/>
			<path fill="#7EB7AE" d="M107.9,59.8c1.3,1.3,3.1,2.5,4.9,3.4l0,0c0,0-0.7,5.1,0.7,9.6c-1.1,0.9-2.5,0.4-4-0.7
				c-1.8-1.4-3.6-4-4.2-5.8C104.2,63.2,107.9,59.8,107.9,59.8L107.9,59.8z"/>
			<path fill="#BBBDBF" d="M98.3,41.2L98.3,41.2c-0.7,2.9-0.7,5.8-0.2,8.3c-5.4,2-5.4-3.8-4.9-7.2C93.8,38.8,98.3,41.2,98.3,41.2z"
				/>
		</g>
	</g>
	<g>
		<path fill="#4A8F94" d="M100.4,22.2c0,0,4,2.2,6.3,0.5c2.5-1.4,2.5-4.7,0.9-5.8c0,0,4,2.3,1.6,6.5
			C109.3,23.5,103.7,27.6,100.4,22.2z"/>
		<path fill="#4A8F94" d="M142,22.6c0,0,2.3,2.7,5.1,1.8c2.9-0.7,4.5-2.9,2.9-5.4c0,0,3.3,4.2-1.1,6.5C149,25.5,144.9,28.6,142,22.6
			z"/>
		<path fill="#4A8F94" d="M99.7,37.9c0,0,3.6,11.9,8.9,13.7l0.5,1.1l-3.6,4C105.5,56.9,93.9,55.1,99.7,37.9z"/>
		<path fill="#4A8F94" d="M139.6,55.1l1.6,2.7c0,0,5.2,1.6,8.5-6.3C149.8,51.5,145.1,55.8,139.6,55.1z"/>
		<path fill="#4A8F94" d="M129,63.6c0,0-6.9-1.6-9.2,1.8c-0.4,0.7,1.6,2,1.6,2s-3.6-0.7-5.2-3.4C116,64,122.8,60,129,63.6z"/>
		<path fill="#4A8F94" d="M106.6,61.4c0,0,5.4,6.1,6.1,11.6c0,0-0.2-5.1,2.7-5.1c0,0-1.3-2.2-0.7-3.6c0,0-4.7-2.7-6.9-4.7
			L106.6,61.4z"/>
		<path fill="#4A8F94" d="M133.9,65.2c0,0,0.5,1.4-0.2,2.5c0,0,2.7,2.5,0.9,6.1c0,0,3.8-11,7.6-8.1c0,0-1.6-4-2.9-4.3
			C139.3,61.4,136.4,64.7,133.9,65.2z"/>
		<path fill="#4A8F94" d="M114.9,78.8c0,0,4.2,0.9,4,5.8l1.6,0.4c0,0-0.9-3.6,0-5.1c0,0-5.1-2-6.1-4l-0.4,1.4L114.9,78.8z"/>
		<path fill="#4A8F94" d="M127.7,80.2l4.7-2.3l0.5,1.3l-0.2,1.3c0,0-2.9-0.5-3.3,1.1c-0.5,1.6,0,2.9,0,2.9l-1.8,0.5V80.2z"/>
		<path fill="#FFFFFF" d="M118,73.2c0,0,2.7-1.1,4,0.9c1.3,2,4.3,1.6,5.1,0.5c0.7-1.1,1.6-1.6,2.9-0.7c1.1,0.7-0.7,5.1-4.7,5.2
			S116.3,76.6,118,73.2z"/>
		<path fill="#FFFFFF" d="M142,66.5c0,0-3.3,8.9-5.6,5.2c0,0,0.5,3.4,3.4,1.6C139.8,73.3,144.2,68.8,142,66.5z"/>
		<path fill="#FFFFFF" d="M105.1,64.3c0-0.5,5.6,4.7,6,6.3c0.4,1.6-3.1,0.2-3.1,0.2S104.4,67.7,105.1,64.3z"/>
		<path fill="#FFFFFF" d="M137.8,75l4,2.7C141.8,77.7,143.1,75.2,137.8,75z"/>
		<path fill="#FFFFFF" d="M110.2,72.4c0,0-6,1.1-4.9,2.5c1.1,1.4,5.6-2.2,5.6-2.2L110.2,72.4z"/>
		<path fill="#FFFFFF" d="M116.9,84.5c0,0-3.8,0.5-2.9,1.6C114.9,87.1,120,86.4,116.9,84.5z"/>
		<path fill="#FFFFFF" d="M130.1,84.7c0,0,4,0.2,3.8,1.3C133.7,87.1,126.8,86,130.1,84.7z"/>
		<path fill="#808184" d="M127,86.5c0,0,5.1,1.6,7.4,0.9c0,0-1.6,1.6-6.5,1.1C127.9,88.5,126.3,88,127,86.5z"/>
		<path fill="#808184" d="M114.2,87.8c0,0,6.1,0,7-1.6C121.2,86,122.8,89.8,114.2,87.8z"/>
		<path fill="#808184" d="M112.2,73.5c0,0,1.6,4.3,2.2,3.8s0.4-1.4,0.4-1.4l-1.4-2.5L112.2,73.5z"/>
		<path fill="#808184" d="M134.6,74.8l-2.2,3.1c0,0,1.1,1.4,1.4,1.1c0.4-0.4,1.6-2.5,1.6-2.5S136.4,74.4,134.6,74.8z"/>
		<path fill="#808184" d="M93.2,45.9c0,0,3.4,1.4,4.7,0.7l0.5,2.9C98.5,49.3,93.9,50.2,93.2,45.9z"/>
		<path fill="#808184" d="M150.3,48.6l-0.9,3.6c0,0,4.2,3.8,6.3-2.2C155.5,50,152.3,50.6,150.3,48.6z"/>
		<polygon fill="#FFFFFF" points="150.7,46.6 156.1,46.8 155.7,45 151,45.5 		"/>
		<polygon fill="#FFFFFF" points="97.9,44.1 98.1,42.8 93.4,42.5 93.2,45.2 		"/>
		<path fill="#FFFFFF" d="M101.7,17.7c0,0-2.9,3.4-0.2,2.9C104.2,20.2,106.9,15.5,101.7,17.7z"/>
		<path fill="#FFFFFF" d="M145.1,18.1c0,0-4,2.7-1.3,2.9C146.5,21,151,17.7,145.1,18.1z"/>
		<path fill="#FFFFFF" d="M118.9,24c0,0-11.4,2.9-4.5,4.3c6.9,1.4,19.9-1.1,14.6-4.5C129,23.9,120.1,23.7,118.9,24z"/>
		<path fill="#FFFFFF" d="M121,47.5c0,0-9.2,4.7-10.5,8.7c0,0-1.8,2.2,6.3,6.9l-1.3,0.9c0,0-6.3-0.7-10.1-7
			C105.5,56.9,111.3,48.1,121,47.5z"/>
		<path fill="#808184" d="M125.6,61.8c0,0,7.6,1.8,11.2-2.3c3.6-4.2,0.4-6.9,0.4-6.9l4.2,5.1c0,0-2.2,7.2-9.6,7.2
			C131.7,65,128.8,63.1,125.6,61.8z"/>
		<path fill="#FFFFFF" d="M130.8,66.3c0,0-1.3-2.3-3.8-0.9c-2.5,1.4-2.9,2.2-0.7,2.5C128.4,68.1,130.8,66.3,130.8,66.3z"/>
		<path fill="#1B5B62" d="M132.1,38.7c0,0,0.5,5.2-7.4,6.5c-8.1,1.3-15,1.8-15.4-3.3c0,0-2.7,4.9,1.4,8.5c0,0,14.5-7.6,26.4,2.2
			l0.5,0.5c0,0,4.5-3.6,3.8-6.5C140.7,43.5,138,40.3,132.1,38.7z"/>
		<path fill="#FFFFFF" d="M116.5,37.6c0,0-7.6,2.9-1.1,3.8c6.5,0.9,10.5-2.9,7.4-4C122.7,37.2,118.9,36.9,116.5,37.6z"/>
	</g>
	<g>
		<path fill="#281E18" d="M155.7,43.9c-0.5-0.7-1.3-1.3-2-1.3c-1.1-0.2-2.2,0.4-2.9,0.7c-0.4-2.3-1.3-4.9-2.9-7.6
			c-1.3-2.2-2.9-4-4.5-5.4l1.8-3.6c0.5,0.2,0.9,0.2,1.4,0.2c3.1,0,5.4-2.2,5.4-4.9s-2.5-4.9-5.4-4.9c-3.1,0-5.4,2.2-5.4,4.9
			c0,0.9,0.2,1.6,0.7,2.3l-2.9,2.7c-6.5-3.8-13-3.8-13.5-3.8l0,0c0,0-0.7,0-1.8,0c-2.7,0-7.6,0.4-12.6,2.3l-1.4-2
			c0.5-0.7,0.9-1.6,0.9-2.7c0-2.7-2.5-4.9-5.4-4.9c-3.1,0-5.4,2.2-5.4,4.9s2.5,4.9,5.4,4.9c0.4,0,0.7,0,1.1-0.2l1.1,1.8
			c-1.8,1.3-3.3,2.5-4.7,4.3c-2.2,2.7-3.6,5.6-4.5,8.7c-0.9-0.4-2.7-0.9-4-0.4c-0.7,0.4-1.1,1.1-1.3,2c-0.4,2.5-0.4,6,1.4,7.4
			c0.5,0.4,1.3,0.7,2,0.7c0.5,0,1.1,0,1.6-0.2c0,0.2,0,0.2,0.2,0.4c1.1,3.6,3.6,6,7,7c0.2,0.4,1.1,1.3,2.2,2.3
			c-0.9,0.9-3.3,4-2.3,6.7c0.5,1.4,2,3.6,3.6,5.2c-1.4,0.2-4,0.5-4.3,1.8c-0.2,0.4-0.2,0.9,0.4,1.6c1.4,1.6,3.6,0.9,5.6,0.4
			c0.9-0.2,1.8-0.5,2.2-0.4c0,0,0,0,0.2,0.2c0.2,1.1,0.7,2.3,1.6,2.3l0,0h0.2c0.2,1.3,0.7,4,2.2,6.3c-1.3,0.2-3.3,0.5-3.4,2
			c0,0.5,0,1.3,0.5,2c0.7,0.7,2,1.1,4.2,1.1c0.7,0,1.6,0,2.7-0.2c0,0,0,0,0.2,0c0,0,0.9-0.4,1.3-1.1c0.4-0.7,0.2-1.6-0.4-2.5
			c-0.5-2-0.9-4.2-0.4-4.7c0.5,0.2,1.1,0.2,1.6,0.2c0.7,0,1.4,0.2,2,0.2c0.9,0,1.6,0,2.3-0.2c0.4,0.7,0,2.7-0.4,4.3
			c-0.5,1.1-0.5,1.8-0.4,2.5c0.4,0.9,1.1,1.1,1.3,1.1c0,0,0,0,0.2,0c1.1,0.2,2,0.2,2.7,0.2c2.2,0,3.6-0.4,4.2-1.1
			c0.5-0.5,0.5-1.4,0.5-2c-0.2-1.3-2.2-1.8-3.4-2c1.3-2,1.8-3.8,2-4.7h0.2c0.5-0.2,0.7-0.7,1.1-1.3c0.4-0.5,0.5-1.1,1.1-1.3
			c0.5-0.2,1.4,0.2,2.7,0.9c2,1.3,3.1,0.9,3.6,0.5c0.5-0.4,0.7-0.9,0.5-1.4c-0.2-0.9-1.1-2.2-3.1-3.1c1.6-1.3,2.9-3.3,2.9-5.1
			c0.4-3.4-2-6.7-2.9-7.6c0.9-1.1,1.3-2,1.6-2.5h0.2l0,0c2.7,0,5.6-2,7.4-5.2c0.2-0.2,0.4-0.5,0.5-0.9c1.1,1.1,2.2,1.4,2.9,1.4
			s1.3-0.4,1.6-0.5C156.6,51.5,157,45.7,155.7,43.9z M153.6,43.5c0.2,0,0.2,0,0.4,0c0.2,1.6,0.4,7-2,9.4c-0.4-0.2-0.5-0.2-0.9-0.5
			c2-2.3,1.8-7.4,1.6-8.9C152.8,43.5,153.2,43.5,153.6,43.5z M146.7,18.1c2.5,0,4.5,1.8,4.5,4s-2,4-4.5,4c-2.5,0-4.5-1.8-4.5-4
			S144.2,18.1,146.7,18.1z M142.5,25.1c0.5,0.5,1.1,1.1,1.8,1.3l-1.6,3.3c-0.9-0.7-1.8-1.4-2.9-2.2L142.5,25.1z M100.6,21
			c0-2.2,2-4,4.5-4c2.5,0,4.5,1.8,4.5,4s-2,4-4.5,4S100.6,23.1,100.6,21z M107.1,25.5c0.7-0.2,1.4-0.7,2-1.3l1.3,1.6
			c-0.7,0.4-1.6,0.7-2.3,1.3L107.1,25.5z M93.8,42.3c0-0.7,0.4-1.1,0.7-1.3c0.2-0.2,0.5-0.2,0.9-0.2c-0.5,1.3-1.6,5.1-0.4,8.1
			c0,0-0.2,0-0.2-0.2C93.8,48.1,93.2,45.5,93.8,42.3z M95.7,49.3c-1.6-3.3-0.2-7.4,0.2-8.5c0.2,0,0.5,0,0.7,0.2
			c-0.2,1.1-1.3,5.4,0,8.3C96.3,49.3,95.9,49.3,95.7,49.3z M97,49.3c-1.3-2.7-0.2-7,0-8.1c0.4,0.2,0.5,0.2,0.7,0.4
			c-0.5,2.5-0.5,5.2-0.2,7.6C97.4,49.1,97.2,49.1,97,49.3z M105.9,56.9c0.9-1.4,5.8-9.4,17.9-9c12.3,0.4,16.6,9,17.2,10.3
			c-0.4,0.9-2.5,4.9-6.5,6c-10.3-9.6-19.3-2.5-21-1.4C109.5,61.2,106.6,57.8,105.9,56.9z M138.4,53.3c1.1-0.5,3.1-2.2,3.4-5.8
			c0.5-5.1-6.3-9.6-16.3-10.8c-6.3-0.7-11.9,0.4-15.2,3.3c-1.4,1.3-2.3,3.1-2.3,4.9c0,3.4,1.3,5.4,2,6.1c-0.4,0.2-0.7,0.5-1.1,0.7
			c-0.9-0.5-3.1-2.2-3.3-7.2c0-2.5,0.7-4.7,2.5-6.3c3.1-3.1,8.7-4.3,16.3-4.2c7.4,0.4,13.2,2.5,16.8,6.3c2,2.2,2.9,4.5,2.7,7
			c-0.2,4.9-3.4,6.7-4.5,7.2C139.3,54.2,138.9,53.8,138.4,53.3z M110.9,50.4c-0.7-0.7-1.8-2.3-1.8-5.6c0-1.4,0.7-2.9,2.2-4.2
			c2.9-2.7,8.3-3.8,14.5-3.1c9.2,1.1,15.9,5.4,15.5,9.8c-0.4,3.6-2.5,4.9-3.3,5.2c-2.7-2.7-7.2-5.2-14.1-5.6
			C118,46.8,113.8,48.4,110.9,50.4z M136.6,74.8c-0.7,0-1.1-0.2-1.3-0.9l0,0c0.9-2.9,0.7-6.3,0.2-9c1.1-0.5,2.2-1.1,2.9-1.8
			c0.9,1.3,3.6,6.3,0,10.8C137.7,74.4,137.1,74.6,136.6,74.8z M133.3,75.7c-0.7,0.4-1.4,0.7-2.2,0.9c-0.2-0.4-0.5-0.5-0.9-0.5
			c-0.5,0-0.9,0.4-0.9,0.9c0,0,0,0,0,0.2c-1.4,0.4-2.9,0.4-4.2,0.4c0-0.4-0.4-0.7-0.9-0.7c-0.4,0-0.7,0.2-0.9,0.7
			c-1.4-0.2-2.9-0.5-4.2-0.9v-0.2c0-0.5-0.4-0.9-0.9-0.9c-0.4,0-0.7,0.2-0.9,0.5c-1.4-0.5-2.3-1.1-2.9-1.3c-2-4-1.6-8.9-1.4-10.5
			c0.4,0.2,0.7,0.4,1.1,0.4c0,1.1,0.4,4.9,2.3,5.4c0.5,0.2,1.3,0.4,2,0.4c1.6,0.4,3.3,0.5,3.4,1.6c0,0,0,0,0,0.2
			c0,0,0.9,0.9,2.2,0.9c0.5,0,1.1-0.2,1.6-0.5l0.2-0.2c0,0,0-0.4,0.4-0.5c0.4-0.2,0.9-0.5,2.2-0.4c2,0.2,3.6-0.2,4.5-1.1
			s1.3-2.5,1.1-4.7c0.2,0,0.4-0.2,0.5-0.2C135.1,68.5,135.1,72.6,133.3,75.7z M112,72.8c-5.4-6-3.4-9.9-2.5-11.2
			c0.9,0.7,1.8,1.3,2.9,1.8c-0.2,1.1-0.5,5.2,0.7,9.2C112.7,72.8,112.4,72.8,112,72.8z M132.4,69.7c-1.1,1.1-2.9,1.1-4.2,1.1
			c-1.1-0.2-2,0-2.5,0.5c-0.4,0.2-0.4,0.5-0.4,0.7c-1.4,0.9-2.7-0.2-3.1-0.4c-0.4-1.3-2.2-1.4-3.8-1.8c-0.7-0.2-1.3-0.2-1.8-0.4
			c-1.6-0.5-2-3.6-2-4.9c0.2,0,0.4,0.2,0.5,0.2c0.5,0.7,2.9,3.4,9,3.6c0.4,0,0.7,0,0.9,0c4.9,0,6.5-1.8,6.9-2.7c0.5,0,0.9,0,1.4-0.2
			C133.7,67.4,133.3,68.8,132.4,69.7z M116.3,64.3c1.6-1.1,8.3-4.5,15,0.9c-0.4,0.7-2,2.3-6.9,2C119.2,67,117.1,65,116.3,64.3z
			 M131.9,64.7c-7.4-6.3-15.2-1.8-16.4-0.9c-0.5-0.2-1.1-0.4-1.6-0.5c1.8-1.4,10.3-7.4,19.9,1.3C133.1,64.5,132.6,64.7,131.9,64.7z
			 M105.7,66.3c-0.7-2.3,1.4-5.1,2.2-6c0.4,0.4,0.7,0.7,1.1,0.9c-0.9,1.3-2.9,5.4,2,11.2C108.9,71.5,106.4,68.3,105.7,66.3z
			 M113.3,75.3c0-0.4-0.2-0.5-0.5-0.7c-0.7-0.4-1.6-0.2-2.9,0.2c-1.6,0.5-3.6,0.9-4.5-0.2c-0.2-0.4-0.4-0.5-0.4-0.7
			c0.4-0.7,2.9-1.3,4.5-1.3c0.7,0.5,1.4,0.9,2.2,1.1c0.2,0,0.4,0,0.7,0s0.7,0,1.1-0.2c0.4,0.9,0.7,1.6,1.3,2.3
			c-0.2,0.9-0.5,0.9-0.5,1.1C113.8,77,113.5,76.4,113.3,75.3z M114.9,77.1c0,0,0-0.2,0.2-0.2c0.4,0.5,0.9,1.1,1.4,1.4
			c0,0.7,0.2,3.8,1.4,6l-0.5-0.2C115.6,81.5,115.1,77.7,114.9,77.1z M120.9,87.4c-0.2,0.4-0.5,0.5-0.5,0.5c-4.2,0.4-5.6-0.2-6.1-0.7
			c-0.2-0.2-0.4-0.5-0.4-1.3c0-0.7,2-1.1,3.3-1.1l3.6,0.7C121,86.5,121,87.1,120.9,87.4z M120.3,84.7l-1.8-0.4
			c-1.1-1.8-1.4-4.5-1.6-5.6c0.9,0.7,2,1.3,3.3,1.6C119.6,81.5,120.1,83.5,120.3,84.7z M122.8,80c-3.1-0.4-5.4-1.4-7-3.6
			c-0.4-0.4-0.5-0.7-0.7-1.1c0.5,0.4,1.4,0.7,2.5,1.1c0,0.4,0.4,0.7,0.9,0.7c0.2,0,0.5-0.2,0.7-0.4c1.3,0.4,2.7,0.7,4.3,0.9
			c0,0.4,0.4,0.7,0.9,0.7c0.4,0,0.7-0.4,0.9-0.7c0.2,0,0.5,0,0.7,0c1.3,0,2.3-0.2,3.6-0.4c0.2,0.2,0.4,0.4,0.7,0.4
			c0.5,0,0.9-0.4,0.9-0.7c0.5-0.2,1.1-0.4,1.6-0.5c-0.2,0.2-0.4,0.5-0.5,0.7c-1.3,1.4-2.9,2.2-4.9,2.7c0,0-0.2,0-0.2-0.2v0.2
			C125.9,80,124.5,80,122.8,80z M131,79.5c0,1.3,0,4-1.3,4.9l-2,0.4c0.4-1.1,0.7-3.1,0.4-4.2C129.2,80.4,130.1,80,131,79.5z
			 M134.2,86.2c0,0.5,0,0.9-0.4,1.3c-0.5,0.5-2,1.1-6.1,0.7c-0.2,0-0.4-0.2-0.5-0.5c-0.2-0.4,0-0.9,0.2-1.6l3.6-0.7
			C132.4,85.1,134.2,85.6,134.2,86.2z M130.8,84.2h-0.2c0.9-1.4,0.9-4,0.9-5.1c0.4-0.2,0.5-0.4,0.9-0.7c0.2,0.4,0.4,0.7,0.5,0.9l0,0
			C132.8,80.2,132.2,82,130.8,84.2z M142,77.1c0,0.2,0,0.4-0.2,0.5c-0.4,0.2-1.3,0.2-2.5-0.7c-1.4-0.9-2.5-1.1-3.4-0.9
			c-0.9,0.2-1.4,1.1-1.8,1.6c-0.2,0.4-0.4,0.7-0.5,0.7c-0.2,0-0.2,0-0.4,0c-0.2-0.2-0.2-0.5-0.4-0.9l0,0c0.7-0.9,1.3-1.8,1.6-2.7
			c0.4,0.4,0.9,0.7,1.6,0.7c0.2,0,0.2,0,0.4,0c0.7,0,1.6-0.4,2.3-0.9C140.9,75.3,142,76.4,142,77.1z M142,68.8
			c-0.2,1.4-1.1,3.1-2.3,4.2c2.5-4.5-0.2-9.2-0.9-10.3c0.2-0.2,0.5-0.5,0.7-0.7C140.2,63.1,142.2,65.9,142,68.8z M148.3,53.1
			c-1.6,2.9-4.2,4.7-6.5,4.7l0,0h-0.2c-0.2-0.4-0.5-1.3-1.4-2.3c1.4-0.7,4.7-2.9,4.9-7.9c0.2-2.7-0.9-5.4-3.1-7.6
			c-3.6-4-9.8-6.3-17.3-6.7c-7.8-0.4-13.7,1.1-17,4.3c-2,1.8-2.9,4.3-2.9,7c0.2,4.9,2.2,7,3.4,7.8c-1.8,1.8-2.9,3.4-3.3,4.2
			c-3.1-0.9-5.2-3.3-6.1-6.3c-1.6-5.2,0-12.3,4.5-17.7c6-7.4,16.4-8.3,20.6-8.3c1.1,0,1.6,0,1.6,0c0.5,0,14.5,0.2,21.5,12.1
			C152.1,44.6,149.8,50.8,148.3,53.1z M151,44.3c0.2-0.2,0.7-0.4,1.1-0.5c0.2,1.6,0.4,6.3-1.4,8.5c-0.2-0.2-0.4-0.4-0.5-0.5
			C150.7,50,151.4,47.5,151,44.3z M153.6,52.8c-0.4,0.4-0.7,0.4-1.1,0.4c2.2-2.3,2.2-7.2,2-9.2c0.2,0.2,0.4,0.4,0.5,0.5
			C155.9,45.9,155.5,51.1,153.6,52.8z"/>
		<path fill="#281E18" d="M123.7,52.6c0.5,0,1.1-0.5,1.1-1.1c0-0.5-0.5-1.1-1.1-1.1c-0.5,0-1.1,0.5-1.1,1.1
			C122.7,52.2,123.2,52.6,123.7,52.6z M123.7,50.9c0.4,0,0.5,0.2,0.5,0.5c0,0.4-0.2,0.5-0.5,0.5s-0.5-0.2-0.5-0.5
			C123.2,51.3,123.4,50.9,123.7,50.9z"/>
		<path fill="#281E18" d="M133.9,57.3c0.5,0,1.1-0.5,1.1-1.1s-0.5-1.1-1.1-1.1c-0.5,0-1.1,0.5-1.1,1.1
			C132.8,56.7,133.3,57.3,133.9,57.3z M133.9,55.6c0.4,0,0.5,0.2,0.5,0.5s-0.2,0.5-0.5,0.5c-0.4,0-0.5-0.2-0.5-0.5
			C133.3,56,133.5,55.6,133.9,55.6z"/>
		<path fill="#281E18" d="M112.5,56.4c0.5,0,1.1-0.5,1.1-1.1c0-0.5-0.5-1.1-1.1-1.1c-0.5,0-1.1,0.5-1.1,1.1
			C111.5,55.8,112,56.4,112.5,56.4z M112.5,54.7c0.4,0,0.5,0.2,0.5,0.5c0,0.4-0.2,0.5-0.5,0.5s-0.5-0.2-0.5-0.5
			C112,55.1,112.4,54.7,112.5,54.7z"/>
	</g>
</g>
</svg>
