<?xml version="1.0" encoding="utf-8"?>
<!-- Generator: Adobe Illustrator 18.1.1, SVG Export Plug-In . SVG Version: 6.00 Build 0)  -->
<svg version="1.1" id="Layer_1" xmlns="http://www.w3.org/2000/svg" xmlns:xlink="http://www.w3.org/1999/xlink" x="0px" y="0px"
	 viewBox="0 0 36.2 41.4" enable-background="new 0 0 36.2 41.4" xml:space="preserve">
<g>
	<path fill="#281E18" d="M21.4,41.4c-0.5,0-1,0-1.6-0.1c-0.1,0-0.1,0-0.2,0c-0.3-0.1-0.7-0.4-1-0.9c-0.2-0.5-0.2-1.1,0.2-1.8
		c0.2-0.6,0.3-1.3,0.3-1.7c-0.3,0-0.6,0-0.9,0c-0.4,0-0.8,0-1.2-0.1c-0.2,0-0.3,0-0.5-0.1c0,0.4,0.1,1.2,0.3,1.8
		c0.3,0.7,0.4,1.3,0.2,1.8c-0.2,0.5-0.6,0.8-1,0.9c-0.1,0-0.1,0-0.2,0c-0.6,0.1-1.1,0.1-1.6,0.1c-1.4,0-2.2-0.2-2.7-0.8
		c-0.5-0.5-0.4-1.2-0.4-1.4c0.1-0.8,0.9-1.2,1.6-1.3c-0.5-1-0.7-2-0.9-2.7c-0.4-0.1-0.8-0.6-1-1.4c-0.2,0-0.5,0.1-0.7,0.2
		c-0.6,0.2-1.2,0.3-1.8,0.3c-0.7,0-1.3-0.2-1.7-0.7c-0.6-0.6-0.4-1.2-0.3-1.4c0.3-0.6,1.1-1,1.9-1.1c-0.7-0.8-1.2-1.6-1.5-2.4
		c-0.5-1.5,0.5-3.1,1.1-3.9c-0.4-0.4-0.7-0.7-0.8-0.9c-1.9-0.6-3.3-2-4-4c-0.2,0-0.4,0.1-0.6,0.1c-0.7,0-1.3-0.3-1.7-0.7
		c-0.9-1-0.9-2.9-0.7-4.3c0.1-1,0.9-1.7,1.9-1.7c0.4,0,0.8,0.1,1.1,0.2c0.5-1.6,1.4-3.1,2.5-4.5c0.7-0.8,1.4-1.5,2.3-2.2L7.7,6.4
		c-0.1,0-0.2,0-0.3,0C5.5,6.4,3.9,5,3.9,3.2C3.9,1.4,5.5,0,7.4,0c1.9,0,3.5,1.4,3.5,3.2c0,0.5-0.1,1-0.4,1.4l0.4,0.5
		c2.7-1,5.4-1.2,6.8-1.2c0.5,0,0.9,0,1,0c0.6,0,3.9,0.1,7.4,2l1-1c-0.2-0.4-0.3-0.8-0.3-1.2c0-1.8,1.6-3.2,3.5-3.2
		c1.9,0,3.5,1.4,3.5,3.2c0,1.8-1.6,3.2-3.5,3.2c-0.2,0-0.4,0-0.6,0l-0.7,1.3c0.9,0.8,1.6,1.8,2.3,2.9c0.7,1.2,1.3,2.5,1.5,3.8
		c0.3-0.1,0.6-0.2,1-0.2c0.7,0,1.3,0.3,1.8,1c0.7,1,0.6,3.5-0.2,4.9c-0.5,0.9-1.2,1.4-2,1.4h0c-0.5,0-1-0.2-1.4-0.5
		c-1,1.8-2.7,3-4.3,3.1c-0.1,0.2-0.3,0.6-0.6,0.9c0.6,0.8,1.6,2.5,1.4,4.3c-0.1,0.9-0.6,1.9-1.3,2.6c1,0.6,1.5,1.5,1.4,2.1
		c-0.1,0.7-0.6,1.1-1.4,1.1c-0.5,0-1-0.2-1.6-0.6c-0.6-0.4-0.9-0.4-1-0.4c-0.1,0-0.2,0-0.4,0.5c-0.2,0.3-0.4,0.6-0.7,0.8
		c-0.1,0.5-0.3,1.1-0.7,1.9c0.7,0.2,1.5,0.6,1.6,1.4c0,0.2,0.1,0.9-0.4,1.4C23.7,41.2,22.8,41.4,21.4,41.4L21.4,41.4z"/>
	<g>
		<g>
			<path fill="#BBBDBF" d="M35.2,16.1c1,1.4-0.1,7.5-3.2,4.2l0,0c0.5-1.2,0.7-2.7,0.5-4.3h0C32.5,16,34.2,14.7,35.2,16.1z"/>
			<path fill="#7EB7AE" d="M3.5,19c-0.3-1.4-0.3-3,0.1-4.6c0.4-1.7,1.3-3.4,2.5-5c0.8-1,1.8-1.8,2.8-2.4c0.6-0.4,1.2-0.7,1.7-0.9
				c3.9-1.7,8-1.3,8-1.3s3.8,0,7.6,2.2c0.7,0.4,1.4,0.9,2.1,1.5c0.9,0.8,1.8,1.8,2.6,3.1c0.9,1.6,1.4,3.1,1.6,4.5
				c0.2,1.6,0,3.1-0.5,4.3c-1,2.3-2.9,3.7-4.5,3.5c0,0-0.3-0.7-1-1.7c0.4-0.2,2.7-1.2,2.9-4.3c0.2-3.5-3.5-7.3-11-7.7
				c-7.5-0.3-10.8,2.4-10.7,6c0.1,3.1,1.6,4.1,2,4.3c-1.5,1.3-2.1,2.6-2.1,2.6C5.4,22.6,4.1,21,3.5,19z"/>
			<path fill="#7EB7AE" d="M29.5,6.1c-0.6-0.2-1-0.5-1.4-1c-0.3-0.4-0.4-0.8-0.4-1.3c0-1.4,1.2-2.5,2.8-2.5c1.5,0,2.8,1.1,2.8,2.5
				c0,1.4-1.2,2.5-2.8,2.5C30.1,6.3,29.8,6.2,29.5,6.1z"/>
			<path fill="#BBBDBF" d="M28.1,5.1c0.3,0.4,0.8,0.8,1.4,1l-1.2,2.3c-0.7-0.6-1.4-1.1-2.1-1.5l0-0.1L28.1,5.1L28.1,5.1z"/>
			<path fill="#28727B" d="M25.4,21L25.4,21c-1.5-1.5-3.9-3-7.8-3.1c-3.2-0.1-5.5,0.8-7.1,1.9c-0.3-0.3-1.3-1.2-1.3-3.5
				c0-2.7,3.8-4.9,9.4-4.2c5.6,0.7,9.1,3.2,8.8,5.7C27.2,20.3,25.4,21,25.4,21z"/>
			<path fill="#7EB7AE" d="M26.1,32.6c-1,0.7-2,0.9-2.3-0.1l-0.1,0c0.6-1.6,0.5-3.6,0.1-5.1l0-0.1c1.1-0.4,2-1.1,2.6-1.9
				c0.1,0.2,1.8,2.1,1.6,4.2C27.9,30.8,27,32,26.1,32.6z"/>
			<path fill="#D1D2D3" d="M23.8,39.3c0.1,0.8-0.2,1.6-3.9,1.3c0,0-1-0.3-0.3-1.7l2.2-0.4C21.7,38.4,23.7,38.5,23.8,39.3z"/>
			<circle fill="#7EB7AE" cx="23.3" cy="22.7" r="0.4"/>
			<path fill="#D1D2D3" d="M23.8,32.6c0.3,1,1.3,0.8,2.3,0.1l0,0c2.8,0.8,2.5,3.3,0.1,1.8c-2.4-1.5-2.2,0.6-2.9,0.9
				c-0.1,0-0.2,0-0.3,0c-0.4-0.1-0.4-0.6-0.4-0.8C23.1,34,23.5,33.3,23.8,32.6L23.8,32.6z"/>
			<path fill="#7EB7AE" d="M23,35.4c0,0.2-0.2,1.6-1.3,3.1l-2.2,0.4c0,0,0.7-2.2,0.1-2.8c1.3-0.2,2.2-0.8,2.9-1.5
				C22.6,34.7,22.7,35.3,23,35.4z"/>
			<path fill="#7EB7AE" d="M22.1,27.7c0,0-0.4,1.6-4.1,1.5c-3.7-0.2-4.8-2-4.8-2S17.7,23.9,22.1,27.7z"/>
			<circle fill="#7EB7AE" cx="17.7" cy="20.1" r="0.4"/>
			<path fill="#D1D2D3" d="M16.2,38.9c0.7,1.4-0.3,1.7-0.3,1.7c-3.7,0.3-4-0.5-3.9-1.3c0.1-0.8,2.1-0.9,2.1-0.9L16.2,38.9z"/>
			<path fill="#7EB7AE" d="M14,38.4c-1.2-1.6-1.5-4.1-1.5-4.1l0,0c0.1-0.1,0.2-0.3,0.3-0.6c0.7,1.1,1.8,1.9,3.4,2.3
				c-0.7,0.4,0,2.9,0,2.9L14,38.4z"/>
			<path fill="#BBBDBF" d="M13.2,27.1c-0.2,0-0.4-0.1-0.6-0.2c-0.3-0.1-0.7-0.2-1-0.4c-1.1-0.5-2-1.3-2.7-1.9
				c-0.9-0.8-1.4-1.5-1.4-1.5s0.6-1.3,2.1-2.6c0.3-0.2,0.6-0.5,0.9-0.7c1.6-1.1,3.9-2,7.1-1.9c3.8,0.1,6.3,1.6,7.8,3.1
				c0.4,0.4,0.7,0.8,1,1.2c0.7,0.9,1,1.7,1,1.7s-0.3,0.8-1,1.7c-0.6,0.7-1.4,1.5-2.6,1.9c-0.2,0.1-0.4,0.1-0.7,0.2
				c-0.3,0.1-0.7,0.1-1,0.1C17.7,23.9,13.2,27.1,13.2,27.1z M23.7,22.7c0-0.2-0.2-0.4-0.4-0.4s-0.4,0.2-0.4,0.4
				c0,0.2,0.2,0.4,0.4,0.4S23.7,23,23.7,22.7z M18.1,20.1c0-0.2-0.2-0.4-0.4-0.4c-0.2,0-0.4,0.2-0.4,0.4c0,0.2,0.2,0.4,0.4,0.4
				C17.9,20.6,18.1,20.4,18.1,20.1z M12,22.2c0-0.2-0.2-0.4-0.4-0.4c-0.2,0-0.4,0.2-0.4,0.4s0.2,0.4,0.4,0.4
				C11.8,22.7,12,22.5,12,22.2z"/>
			<path fill="#FFFFFF" d="M13.2,27.1c0,0,1.1,1.8,4.8,2c3.7,0.2,4.1-1.5,4.1-1.5c0.4,0,0.7,0,1-0.1l0,0c0.4,3.1-1.5,3.4-2.9,3.3
				c-1.5-0.2-1.5,0.6-1.5,0.6c-1,0.7-1.9-0.2-1.9-0.2c-0.3-0.9-1.9-0.9-3.1-1.2c-1.2-0.3-1.2-3-1.2-3l0-0.1
				C12.8,27,13,27.1,13.2,27.1z"/>
			<path fill="#7EB7AE" d="M12.6,27.1c0,0,0,2.7,1.2,3c1.2,0.3,2.8,0.3,3.1,1.2c0,0,0.9,0.9,1.9,0.2c0,0,0-0.8,1.5-0.6
				c1.5,0.2,3.4-0.2,2.9-3.3l0,0c0.2,0,0.4-0.1,0.7-0.2l0,0.1c0.3,1.5,0.4,3.4-0.1,5.1c-0.2,0.7-0.6,1.4-1.1,2
				c-0.7,0.7-1.6,1.3-2.9,1.5c-0.7,0.1-1.6,0.2-2.6,0.1c-0.3,0-0.7-0.1-1-0.2c-1.6-0.4-2.7-1.2-3.4-2.3c-0.3-0.5-0.6-1.1-0.8-1.7
				c-0.8-2.5-0.4-5.3-0.4-5.3l0,0C11.9,26.7,12.3,26.9,12.6,27.1L12.6,27.1z"/>
			<path fill="#7EB7AE" d="M11.5,21.8c0.2,0,0.4,0.2,0.4,0.4s-0.2,0.4-0.4,0.4c-0.2,0-0.4-0.2-0.4-0.4S11.3,21.8,11.5,21.8z"/>
			<path fill="#D1D2D3" d="M9.8,31.5c0.8,0.6,1.6,0.9,2.2,0.4c0.2,0.6,0.5,1.2,0.8,1.7c-0.1,0.3-0.2,0.5-0.3,0.6
				c-0.4,0.5-0.7,0-0.9-0.9c-0.3-1.1-3.2,1.1-4.4-0.3C6,31.7,9.8,31.5,9.8,31.5L9.8,31.5z"/>
			<path fill="#BBBDBF" d="M10.7,6L10.7,6c-0.6,0.3-1.2,0.6-1.7,0.9L8.1,5.6c0.6-0.1,1.1-0.5,1.5-0.9L10.7,6z"/>
			<path fill="#FFFFFF" d="M9.3,16.4c0,2.2,0.9,3.2,1.3,3.5c-0.3,0.2-0.7,0.5-0.9,0.7c-0.4-0.2-2-1.2-2-4.3c-0.1-3.6,3.2-6.4,10.7-6
				c7.5,0.3,11.2,4.2,11,7.7c-0.2,3.1-2.4,4.1-2.9,4.3c-0.3-0.4-0.6-0.8-1-1.2l0,0c0,0,1.8-0.7,2.1-3.2c0.3-2.5-3.2-5-8.8-5.7
				C13.1,11.4,9.3,13.7,9.3,16.4z"/>
			<path fill="#7EB7AE" d="M9.6,4.7C9.2,5.1,8.7,5.4,8.1,5.6C7.9,5.6,7.6,5.7,7.4,5.7c-1.5,0-2.8-1.1-2.8-2.5c0-1.4,1.2-2.5,2.8-2.5
				c1.5,0,2.8,1.1,2.8,2.5C10.2,3.8,9.9,4.3,9.6,4.7z"/>
			<path fill="#7EB7AE" d="M8.9,24.7c0.7,0.7,1.7,1.4,2.7,1.9l0,0c0,0-0.4,2.8,0.4,5.3c-0.6,0.5-1.4,0.2-2.2-0.4
				c-1-0.8-2-2.2-2.3-3.2C6.9,26.6,8.9,24.7,8.9,24.7L8.9,24.7z"/>
			<path fill="#BBBDBF" d="M3.6,14.4L3.6,14.4C3.2,16,3.2,17.6,3.5,19c-3,1.1-3-2.1-2.7-4C1.1,13.1,3.6,14.4,3.6,14.4z"/>
		</g>
	</g>
	<g>
		<path fill="#4A8F94" d="M4.8,3.9c0,0,2.2,1.2,3.5,0.3C9.7,3.4,9.7,1.6,8.8,1c0,0,2.2,1.3,0.9,3.6C9.7,4.6,6.6,6.9,4.8,3.9z"/>
		<path fill="#4A8F94" d="M27.8,4.1c0,0,1.3,1.5,2.8,1c1.6-0.4,2.5-1.6,1.6-3c0,0,1.8,2.3-0.6,3.6C31.7,5.7,29.4,7.4,27.8,4.1z"/>
		<path fill="#4A8F94" d="M4.4,12.6c0,0,2,6.6,4.9,7.6l0.3,0.6l-2,2.2C7.6,23.1,1.2,22.1,4.4,12.6z"/>
		<path fill="#4A8F94" d="M26.5,22.1l0.9,1.5c0,0,2.9,0.9,4.7-3.5C32.1,20.1,29.5,22.5,26.5,22.1z"/>
		<path fill="#4A8F94" d="M20.6,26.8c0,0-3.8-0.9-5.1,1c-0.2,0.4,0.9,1.1,0.9,1.1s-2-0.4-2.9-1.9C13.4,27,17.2,24.8,20.6,26.8z"/>
		<path fill="#4A8F94" d="M8.2,25.6c0,0,3,3.4,3.4,6.4c0,0-0.1-2.8,1.5-2.8c0,0-0.7-1.2-0.4-2c0,0-2.6-1.5-3.8-2.6L8.2,25.6z"/>
		<path fill="#4A8F94" d="M23.3,27.7c0,0,0.3,0.8-0.1,1.4c0,0,1.5,1.4,0.5,3.4c0,0,2.1-6.1,4.2-4.5c0,0-0.9-2.2-1.6-2.4
			C26.3,25.6,24.7,27.4,23.3,27.7z"/>
		<path fill="#4A8F94" d="M12.8,35.2c0,0,2.3,0.5,2.2,3.2l0.9,0.2c0,0-0.5-2,0-2.8c0,0-2.8-1.1-3.4-2.2l-0.2,0.8L12.8,35.2z"/>
		<path fill="#4A8F94" d="M19.9,36l2.6-1.3l0.3,0.7l-0.1,0.7c0,0-1.6-0.3-1.8,0.6c-0.3,0.9,0,1.6,0,1.6l-1,0.3L19.9,36z"/>
		<path fill="#FFFFFF" d="M14.5,32.1c0,0,1.5-0.6,2.2,0.5c0.7,1.1,2.4,0.9,2.8,0.3c0.4-0.6,0.9-0.9,1.6-0.4c0.6,0.4-0.4,2.8-2.6,2.9
			C16.3,35.5,13.6,34,14.5,32.1z"/>
		<path fill="#FFFFFF" d="M27.8,28.4c0,0-1.8,4.9-3.1,2.9c0,0,0.3,1.9,1.9,0.9C26.6,32.2,29,29.7,27.8,28.4z"/>
		<path fill="#FFFFFF" d="M7.4,27.2c0-0.3,3.1,2.6,3.3,3.5c0.2,0.9-1.7,0.1-1.7,0.1S7,29.1,7.4,27.2z"/>
		<path fill="#FFFFFF" d="M25.5,33.1l2.2,1.5C27.7,34.6,28.4,33.2,25.5,33.1z"/>
		<path fill="#FFFFFF" d="M10.2,31.7c0,0-3.3,0.6-2.7,1.4c0.6,0.8,3.1-1.2,3.1-1.2L10.2,31.7z"/>
		<path fill="#FFFFFF" d="M13.9,38.4c0,0-2.1,0.3-1.6,0.9C12.8,39.8,15.6,39.4,13.9,38.4z"/>
		<path fill="#FFFFFF" d="M21.2,38.5c0,0,2.2,0.1,2.1,0.7C23.2,39.8,19.4,39.2,21.2,38.5z"/>
		<path fill="#808184" d="M19.5,39.5c0,0,2.8,0.9,4.1,0.5c0,0-0.9,0.9-3.6,0.6C20,40.6,19.1,40.3,19.5,39.5z"/>
		<path fill="#808184" d="M12.4,40.2c0,0,3.4,0,3.9-0.9C16.3,39.2,17.2,41.3,12.4,40.2z"/>
		<path fill="#808184" d="M11.3,32.3c0,0,0.9,2.4,1.2,2.1c0.3-0.3,0.2-0.8,0.2-0.8l-0.8-1.4L11.3,32.3z"/>
		<path fill="#808184" d="M23.7,33l-1.2,1.7c0,0,0.6,0.8,0.8,0.6c0.2-0.2,0.9-1.4,0.9-1.4S24.7,32.8,23.7,33z"/>
		<path fill="#808184" d="M0.8,17c0,0,1.9,0.8,2.6,0.4l0.3,1.6C3.7,18.9,1.2,19.4,0.8,17z"/>
		<path fill="#808184" d="M32.4,18.5l-0.5,2c0,0,2.3,2.1,3.5-1.2C35.3,19.3,33.5,19.6,32.4,18.5z"/>
		<polygon fill="#FFFFFF" points="32.6,17.4 35.6,17.5 35.4,16.5 32.8,16.8 		"/>
		<polygon fill="#FFFFFF" points="3.4,16 3.5,15.3 0.9,15.1 0.8,16.6 		"/>
		<path fill="#FFFFFF" d="M5.5,1.4c0,0-1.6,1.9-0.1,1.6C6.9,2.8,8.4,0.2,5.5,1.4z"/>
		<path fill="#FFFFFF" d="M29.5,1.6c0,0-2.2,1.5-0.7,1.6C30.3,3.2,32.8,1.4,29.5,1.6z"/>
		<path fill="#FFFFFF" d="M15,4.9c0,0-6.3,1.6-2.5,2.4c3.8,0.8,11-0.6,8.1-2.5C20.6,4.8,15.7,4.7,15,4.9z"/>
		<path fill="#FFFFFF" d="M16.2,17.9c0,0-5.1,2.6-5.8,4.8c0,0-1,1.2,3.5,3.8L13.2,27c0,0-3.5-0.4-5.6-3.9
			C7.6,23.1,10.8,18.2,16.2,17.9z"/>
		<path fill="#808184" d="M18.7,25.8c0,0,4.2,1,6.2-1.3s0.2-3.8,0.2-3.8l2.3,2.8c0,0-1.2,4-5.3,4C22.1,27.6,20.5,26.5,18.7,25.8z"/>
		<path fill="#FFFFFF" d="M21.6,28.3c0,0-0.7-1.3-2.1-0.5c-1.4,0.8-1.6,1.2-0.4,1.4C20.3,29.3,21.6,28.3,21.6,28.3z"/>
		<path fill="#1B5B62" d="M22.3,13c0,0,0.3,2.9-4.1,3.6c-4.5,0.7-8.3,1-8.5-1.8c0,0-1.5,2.7,0.8,4.7c0,0,8-4.2,14.6,1.2l0.3,0.3
			c0,0,2.5-2,2.1-3.6C27.1,15.7,25.6,13.9,22.3,13z"/>
		<path fill="#FFFFFF" d="M13.7,12.4c0,0-4.2,1.6-0.6,2.1c3.6,0.5,5.8-1.6,4.1-2.2C17.1,12.2,15,12,13.7,12.4z"/>
	</g>
	<g>
		<path fill="#281E18" d="M35.4,15.9c-0.3-0.4-0.7-0.7-1.1-0.7c-0.6-0.1-1.2,0.2-1.6,0.4c-0.2-1.3-0.7-2.7-1.6-4.2
			c-0.7-1.2-1.6-2.2-2.5-3l1-2c0.3,0.1,0.5,0.1,0.8,0.1c1.7,0,3-1.2,3-2.7c0-1.5-1.4-2.7-3-2.7c-1.7,0-3,1.2-3,2.7
			c0,0.5,0.1,0.9,0.4,1.3l-1.6,1.5c-3.6-2.1-7.2-2.1-7.5-2.1c0,0,0,0,0,0c0,0-0.4,0-1,0c-1.5,0-4.2,0.2-7,1.3L9.9,4.7
			c0.3-0.4,0.5-0.9,0.5-1.5c0-1.5-1.4-2.7-3-2.7c-1.7,0-3,1.2-3,2.7c0,1.5,1.4,2.7,3,2.7c0.2,0,0.4,0,0.6-0.1l0.6,1
			C7.6,7.5,6.8,8.2,6,9.2c-1.2,1.5-2,3.1-2.5,4.8C3,13.8,2,13.5,1.3,13.8c-0.4,0.2-0.6,0.6-0.7,1.1c-0.2,1.4-0.2,3.3,0.8,4.1
			c0.3,0.2,0.7,0.4,1.1,0.4c0.3,0,0.6,0,0.9-0.1c0,0.1,0,0.1,0.1,0.2c0.6,2,2,3.3,3.9,3.9c0.1,0.2,0.6,0.7,1.2,1.3
			c-0.5,0.5-1.8,2.2-1.3,3.7c0.3,0.8,1.1,2,2,2.9c-0.8,0.1-2.2,0.3-2.4,1c-0.1,0.2-0.1,0.5,0.2,0.9c0.8,0.9,2,0.5,3.1,0.2
			c0.5-0.1,1-0.3,1.2-0.2c0,0,0,0,0.1,0.1c0.1,0.6,0.4,1.3,0.9,1.3c0,0,0,0,0,0c0,0,0.1,0,0.1,0c0.1,0.7,0.4,2.2,1.2,3.5
			c-0.7,0.1-1.8,0.3-1.9,1.1c0,0.3,0,0.7,0.3,1.1c0.4,0.4,1.1,0.6,2.3,0.6c0.4,0,0.9,0,1.5-0.1c0,0,0,0,0.1,0c0,0,0.5-0.2,0.7-0.6
			c0.2-0.4,0.1-0.9-0.2-1.4c-0.3-1.1-0.5-2.3-0.2-2.6c0.3,0.1,0.6,0.1,0.9,0.1c0.4,0,0.8,0.1,1.1,0.1c0.5,0,0.9,0,1.3-0.1
			c0.2,0.4,0,1.5-0.2,2.4c-0.3,0.6-0.3,1-0.2,1.4c0.2,0.5,0.6,0.6,0.7,0.6c0,0,0,0,0.1,0c0.6,0.1,1.1,0.1,1.5,0.1
			c1.2,0,2-0.2,2.3-0.6c0.3-0.3,0.3-0.8,0.3-1.1c-0.1-0.7-1.2-1-1.9-1.1c0.7-1.1,1-2.1,1.1-2.6c0,0,0.1,0,0.1,0
			c0.3-0.1,0.4-0.4,0.6-0.7c0.2-0.3,0.3-0.6,0.6-0.7c0.3-0.1,0.8,0.1,1.5,0.5c1.1,0.7,1.7,0.5,2,0.3c0.3-0.2,0.4-0.5,0.3-0.8
			c-0.1-0.5-0.6-1.2-1.7-1.7c0.9-0.7,1.6-1.8,1.6-2.8c0.2-1.9-1.1-3.7-1.6-4.2c0.5-0.6,0.7-1.1,0.9-1.4c0,0,0.1,0,0.1,0h0
			c1.5,0,3.1-1.1,4.1-2.9c0.1-0.1,0.2-0.3,0.3-0.5c0.6,0.6,1.2,0.8,1.6,0.8c0.4,0,0.7-0.2,0.9-0.3C35.9,20.1,36.1,16.9,35.4,15.9z
			 M34.2,15.7c0.1,0,0.1,0,0.2,0c0.1,0.9,0.2,3.9-1.1,5.2c-0.2-0.1-0.3-0.1-0.5-0.3c1.1-1.3,1-4.1,0.9-4.9
			C33.8,15.7,34,15.7,34.2,15.7z M30.4,1.6c1.4,0,2.5,1,2.5,2.2C32.9,5,31.8,6,30.4,6s-2.5-1-2.5-2.2C27.9,2.6,29,1.6,30.4,1.6z
			 M28.1,5.5c0.3,0.3,0.6,0.6,1,0.7L28.2,8c-0.5-0.4-1-0.8-1.6-1.2L28.1,5.5z M4.9,3.2C4.9,2,6,1,7.4,1c1.4,0,2.5,1,2.5,2.2
			c0,1.2-1.1,2.2-2.5,2.2C6,5.4,4.9,4.4,4.9,3.2z M8.5,5.7c0.4-0.1,0.8-0.4,1.1-0.7l0.7,0.9C9.9,6.1,9.4,6.3,9,6.6L8.5,5.7z M1.1,15
			c0-0.4,0.2-0.6,0.4-0.7c0.1-0.1,0.3-0.1,0.5-0.1c-0.3,0.7-0.9,2.8-0.2,4.5c0,0-0.1,0-0.1-0.1C1.1,18.2,0.8,16.8,1.1,15z M2.2,18.9
			c-0.9-1.8-0.1-4.1,0.1-4.7c0.1,0,0.3,0,0.4,0.1c-0.1,0.6-0.7,3,0,4.6C2.5,18.9,2.3,18.9,2.2,18.9z M2.9,18.9
			c-0.7-1.5-0.1-3.9,0-4.5c0.2,0.1,0.3,0.1,0.4,0.2C3,16,3,17.5,3.2,18.8C3.1,18.8,3,18.8,2.9,18.9z M7.8,23.1
			c0.5-0.8,3.2-5.2,9.9-5c6.8,0.2,9.2,5,9.5,5.7c-0.2,0.5-1.4,2.7-3.6,3.3c-5.7-5.3-10.7-1.4-11.6-0.8C9.8,25.5,8.2,23.6,7.8,23.1z
			 M25.8,21.1c0.6-0.3,1.7-1.2,1.9-3.2c0.3-2.8-3.5-5.3-9-6c-3.5-0.4-6.6,0.2-8.4,1.8C9.5,14.4,9,15.4,9,16.4c0,1.9,0.7,3,1.1,3.4
			c-0.2,0.1-0.4,0.3-0.6,0.4c-0.5-0.3-1.7-1.2-1.8-4c0-1.4,0.4-2.6,1.4-3.5c1.7-1.7,4.8-2.4,9-2.3c4.1,0.2,7.3,1.4,9.3,3.5
			c1.1,1.2,1.6,2.5,1.5,3.9c-0.1,2.7-1.9,3.7-2.5,4C26.3,21.6,26.1,21.4,25.8,21.1z M10.6,19.5c-0.4-0.4-1-1.3-1-3.1
			c0-0.8,0.4-1.6,1.2-2.3c1.6-1.5,4.6-2.1,8-1.7c5.1,0.6,8.8,3,8.6,5.4c-0.2,2-1.4,2.7-1.8,2.9c-1.5-1.5-4-2.9-7.8-3.1
			C14.5,17.5,12.2,18.4,10.6,19.5z M24.8,33c-0.4,0-0.6-0.1-0.7-0.5l0,0c0.5-1.6,0.4-3.5,0.1-5c0.6-0.3,1.2-0.6,1.6-1
			c0.5,0.7,2,3.5,0,6C25.4,32.8,25.1,32.9,24.8,33z M23,33.5c-0.4,0.2-0.8,0.4-1.2,0.5c-0.1-0.2-0.3-0.3-0.5-0.3
			c-0.3,0-0.5,0.2-0.5,0.5c0,0,0,0,0,0.1c-0.8,0.2-1.6,0.2-2.3,0.2c0-0.2-0.2-0.4-0.5-0.4c-0.2,0-0.4,0.1-0.5,0.4
			c-0.8-0.1-1.6-0.3-2.3-0.5c0,0,0-0.1,0-0.1c0-0.3-0.2-0.5-0.5-0.5c-0.2,0-0.4,0.1-0.5,0.3c-0.8-0.3-1.3-0.6-1.6-0.7
			c-1.1-2.2-0.9-4.9-0.8-5.8c0.2,0.1,0.4,0.2,0.6,0.2c0,0.6,0.2,2.7,1.3,3c0.3,0.1,0.7,0.2,1.1,0.2c0.9,0.2,1.8,0.3,1.9,0.9
			c0,0,0,0,0,0.1c0,0,0.5,0.5,1.2,0.5c0.3,0,0.6-0.1,0.9-0.3c0,0,0.1-0.1,0.1-0.1c0,0,0-0.2,0.2-0.3c0.2-0.1,0.5-0.3,1.2-0.2
			c1.1,0.1,2-0.1,2.5-0.6c0.5-0.5,0.7-1.4,0.6-2.6c0.1,0,0.2-0.1,0.3-0.1C24,29.5,24,31.8,23,33.5z M11.2,31.9
			c-3-3.3-1.9-5.5-1.4-6.2c0.5,0.4,1,0.7,1.6,1c-0.1,0.6-0.3,2.9,0.4,5.1C11.6,31.9,11.4,31.9,11.2,31.9z M22.5,30.2
			c-0.6,0.6-1.6,0.6-2.3,0.6c-0.6-0.1-1.1,0-1.4,0.3c-0.2,0.1-0.2,0.3-0.2,0.4c-0.8,0.5-1.5-0.1-1.7-0.2c-0.2-0.7-1.2-0.8-2.1-1
			c-0.4-0.1-0.7-0.1-1-0.2c-0.9-0.3-1.1-2-1.1-2.7c0.1,0,0.2,0.1,0.3,0.1c0.3,0.4,1.6,1.9,5,2c0.2,0,0.4,0,0.5,0
			c2.7,0,3.6-1,3.8-1.5c0.3,0,0.5,0,0.8-0.1C23.2,28.9,23,29.7,22.5,30.2z M13.6,27.2c0.9-0.6,4.6-2.5,8.3,0.5
			c-0.2,0.4-1.1,1.3-3.8,1.1C15.2,28.7,14,27.6,13.6,27.2z M22.2,27.4c-4.1-3.5-8.4-1-9.1-0.5c-0.3-0.1-0.6-0.2-0.9-0.3
			c1-0.8,5.7-4.1,11,0.7C22.9,27.3,22.6,27.4,22.2,27.4z M7.7,28.3C7.3,27,8.5,25.5,8.9,25c0.2,0.2,0.4,0.4,0.6,0.5
			c-0.5,0.7-1.6,3,1.1,6.2C9.5,31.2,8.1,29.4,7.7,28.3z M11.9,33.3c0-0.2-0.1-0.3-0.3-0.4c-0.4-0.2-0.9-0.1-1.6,0.1
			c-0.9,0.3-2,0.5-2.5-0.1c-0.1-0.2-0.2-0.3-0.2-0.4c0.2-0.4,1.6-0.7,2.5-0.7c0.4,0.3,0.8,0.5,1.2,0.6c0.1,0,0.2,0,0.4,0
			c0.2,0,0.4,0,0.6-0.1c0.2,0.5,0.4,0.9,0.7,1.3c-0.1,0.5-0.3,0.5-0.3,0.6C12.2,34.2,12,33.9,11.9,33.3z M12.8,34.3
			c0,0,0-0.1,0.1-0.1c0.2,0.3,0.5,0.6,0.8,0.8c0,0.4,0.1,2.1,0.8,3.3l-0.3-0.1C13.2,36.7,12.9,34.6,12.8,34.3z M16.1,40
			c-0.1,0.2-0.3,0.3-0.3,0.3c-2.3,0.2-3.1-0.1-3.4-0.4c-0.1-0.1-0.2-0.3-0.2-0.7c0-0.4,1.1-0.6,1.8-0.6l2,0.4
			C16.2,39.5,16.2,39.8,16.1,40z M15.8,38.5l-1-0.2c-0.6-1-0.8-2.5-0.9-3.1c0.5,0.4,1.1,0.7,1.8,0.9C15.4,36.7,15.7,37.8,15.8,38.5z
			 M17.2,35.9c-1.7-0.2-3-0.8-3.9-2c-0.2-0.2-0.3-0.4-0.4-0.6c0.3,0.2,0.8,0.4,1.4,0.6c0,0.2,0.2,0.4,0.5,0.4c0.1,0,0.3-0.1,0.4-0.2
			c0.7,0.2,1.5,0.4,2.4,0.5c0,0.2,0.2,0.4,0.5,0.4c0.2,0,0.4-0.2,0.5-0.4c0.1,0,0.3,0,0.4,0c0.7,0,1.3-0.1,2-0.2
			c0.1,0.1,0.2,0.2,0.4,0.2c0.3,0,0.5-0.2,0.5-0.4c0.3-0.1,0.6-0.2,0.9-0.3c-0.1,0.1-0.2,0.3-0.3,0.4c-0.7,0.8-1.6,1.2-2.7,1.5
			c0,0-0.1,0-0.1-0.1l0,0.1C18.9,35.9,18.1,35.9,17.2,35.9z M21.7,35.6c0,0.7,0,2.2-0.7,2.7l-1.1,0.2c0.2-0.6,0.4-1.7,0.2-2.3
			C20.7,36.1,21.2,35.9,21.7,35.6z M23.5,39.3c0,0.3,0,0.5-0.2,0.7c-0.3,0.3-1.1,0.6-3.4,0.4c-0.1,0-0.2-0.1-0.3-0.3
			c-0.1-0.2,0-0.5,0.1-0.9l2-0.4C22.5,38.7,23.5,39,23.5,39.3z M21.6,38.2l-0.1,0C22,37.4,22,36,22,35.4c0.2-0.1,0.3-0.2,0.5-0.4
			c0.1,0.2,0.2,0.4,0.3,0.5l0,0C22.7,36,22.4,37,21.6,38.2z M27.8,34.3c0,0.1,0,0.2-0.1,0.3c-0.2,0.1-0.7,0.1-1.4-0.4
			c-0.8-0.5-1.4-0.6-1.9-0.5c-0.5,0.1-0.8,0.6-1,0.9c-0.1,0.2-0.2,0.4-0.3,0.4c-0.1,0-0.1,0-0.2,0c-0.1-0.1-0.1-0.3-0.2-0.5
			c0,0,0,0,0,0c0.4-0.5,0.7-1,0.9-1.5c0.2,0.2,0.5,0.4,0.9,0.4c0.1,0,0.1,0,0.2,0c0.4,0,0.9-0.2,1.3-0.5
			C27.2,33.3,27.8,33.9,27.8,34.3z M27.8,29.7c-0.1,0.8-0.6,1.7-1.3,2.3c1.4-2.5-0.1-5.1-0.5-5.7c0.1-0.1,0.3-0.3,0.4-0.4
			C26.8,26.5,27.9,28.1,27.8,29.7z M31.3,21c-0.9,1.6-2.3,2.6-3.6,2.6h0c0,0-0.1,0-0.1,0c-0.1-0.2-0.3-0.7-0.8-1.3
			c0.8-0.4,2.6-1.6,2.7-4.4c0.1-1.5-0.5-3-1.7-4.2c-2-2.2-5.4-3.5-9.6-3.7c-4.3-0.2-7.6,0.6-9.4,2.4c-1.1,1-1.6,2.4-1.6,3.9
			c0.1,2.7,1.2,3.9,1.9,4.3c-1,1-1.6,1.9-1.8,2.3c-1.7-0.5-2.9-1.8-3.4-3.5c-0.9-2.9,0-6.8,2.5-9.8c3.3-4.1,9.1-4.6,11.4-4.6
			c0.6,0,0.9,0,0.9,0c0.3,0,8,0.1,11.9,6.7C33.4,16.3,32.1,19.7,31.3,21z M32.8,16.1c0.1-0.1,0.4-0.2,0.6-0.3
			c0.1,0.9,0.2,3.5-0.8,4.7c-0.1-0.1-0.2-0.2-0.3-0.3C32.6,19.3,33,17.9,32.8,16.1z M34.2,20.8C34,21,33.8,21,33.6,21
			c1.2-1.3,1.2-4,1.1-5.1c0.1,0.1,0.2,0.2,0.3,0.3C35.5,17,35.3,19.9,34.2,20.8z"/>
		<path fill="#281E18" d="M17.7,20.7c0.3,0,0.6-0.3,0.6-0.6c0-0.3-0.3-0.6-0.6-0.6c-0.3,0-0.6,0.3-0.6,0.6
			C17.1,20.5,17.4,20.7,17.7,20.7z M17.7,19.8c0.2,0,0.3,0.1,0.3,0.3c0,0.2-0.1,0.3-0.3,0.3c-0.2,0-0.3-0.1-0.3-0.3
			C17.4,20,17.5,19.8,17.7,19.8z"/>
		<path fill="#281E18" d="M23.3,23.3c0.3,0,0.6-0.3,0.6-0.6c0-0.3-0.3-0.6-0.6-0.6s-0.6,0.3-0.6,0.6C22.7,23,23,23.3,23.3,23.3z
			 M23.3,22.4c0.2,0,0.3,0.1,0.3,0.3c0,0.2-0.1,0.3-0.3,0.3c-0.2,0-0.3-0.1-0.3-0.3C23,22.6,23.1,22.4,23.3,22.4z"/>
		<path fill="#281E18" d="M11.5,22.8c0.3,0,0.6-0.3,0.6-0.6s-0.3-0.6-0.6-0.6c-0.3,0-0.6,0.3-0.6,0.6S11.2,22.8,11.5,22.8z
			 M11.5,21.9c0.2,0,0.3,0.1,0.3,0.3c0,0.2-0.1,0.3-0.3,0.3c-0.2,0-0.3-0.1-0.3-0.3C11.2,22.1,11.4,21.9,11.5,21.9z"/>
	</g>
</g>
</svg>
