<?xml version="1.0" encoding="utf-8"?>
<!-- Generator: Adobe Illustrator 19.0.0, SVG Export Plug-In . SVG Version: 6.00 Build 0)  -->
<svg version="1.1" id="Layer_1" xmlns="http://www.w3.org/2000/svg" xmlns:xlink="http://www.w3.org/1999/xlink" x="0px" y="0px"
	 viewBox="0 0 69.7 77" style="enable-background:new 0 0 69.7 77;" xml:space="preserve">
<style type="text/css">
	.st0{fill:url(#SVGID_1_);}
	.st1{fill:url(#SVGID_2_);}
	.st2{fill:url(#SVGID_3_);}
	.st3{fill:url(#SVGID_4_);}
	.st4{filter:url(#Adobe_OpacityMaskFilter);}
	.st5{filter:url(#Adobe_OpacityMaskFilter_1_);}
	.st6{mask:url(#SVGID_5_);fill:url(#SVGID_6_);}
	.st7{fill:url(#SVGID_7_);}
	.st8{opacity:0.4;fill:#593518;}
	.st9{fill:#D38028;}
	.st10{fill:url(#SVGID_8_);}
	.st11{opacity:0.6;fill:#D38028;}
	.st12{fill:#E2A725;}
	.st13{fill:url(#SVGID_9_);}
	.st14{fill:#FFFFFF;}
	.st15{opacity:0.5;fill:#D5A62A;}
	.st16{fill:url(#SVGID_10_);}
	.st17{fill:url(#SVGID_11_);}
	.st18{fill:url(#SVGID_12_);}
	.st19{fill:url(#SVGID_13_);}
	.st20{opacity:0.6;fill:url(#SVGID_14_);}
	.st21{fill:#965824;}
	.st22{fill:#FFCC22;}
	.st23{fill:#F7EC2C;}
	.st24{opacity:0.9;fill:#D5A62A;}
</style>
<g>
	<radialGradient id="SVGID_1_" cx="34.9202" cy="73.8552" r="38.9567" gradientUnits="userSpaceOnUse">
		<stop  offset="0" style="stop-color:#31557E"/>
		<stop  offset="0.5227" style="stop-color:#709FD4"/>
		<stop  offset="1" style="stop-color:#9BBDE4"/>
	</radialGradient>
	<path class="st0" d="M41,4.8C37.6,3,32,3,28.6,4.8L6.2,16.2C2.8,17.9,0,22.5,0,26.3v27.9c0,3.8,2.8,8.4,6.2,10.1l22.4,11.4
		c3.4,1.7,9,1.7,12.4,0l22.4-11.4c3.4-1.7,6.2-6.3,6.2-10.1V26.3c0-3.8-2.8-8.4-6.2-10.1L41,4.8z"/>
	<linearGradient id="SVGID_2_" gradientUnits="userSpaceOnUse" x1="34.8274" y1="2.0381" x2="34.8274" y2="72.5166">
		<stop  offset="0" style="stop-color:#FFFFFF"/>
		<stop  offset="0.6446" style="stop-color:#DCEBF8"/>
		<stop  offset="1" style="stop-color:#B6CFEC"/>
	</linearGradient>
	<path class="st1" d="M41,1.3c-3.4-1.7-9-1.7-12.4,0L6.2,12.7C2.8,14.5,0,19,0,22.8v27.9c0,3.8,2.8,8.4,6.2,10.1l22.4,11.4
		c3.4,1.7,9,1.7,12.4,0l22.4-11.4c3.4-1.7,6.2-6.3,6.2-10.1V22.8c0-3.8-2.8-8.4-6.2-10.1L41,1.3z"/>
	<linearGradient id="SVGID_3_" gradientUnits="userSpaceOnUse" x1="34.8274" y1="9.9391" x2="34.8274" y2="63.5793">
		<stop  offset="0" style="stop-color:#06262F"/>
		<stop  offset="0.7636" style="stop-color:#2A5A68"/>
		<stop  offset="0.8652" style="stop-color:#E0F2F6"/>
	</linearGradient>
	<path class="st2" d="M34.8,66.6c-1.5,0-2.6-0.3-3-0.5L9.4,54.6C8.3,54.1,7,51.9,7,50.7V22.8c0-1.2,1.3-3.4,2.4-3.9L31.8,7.5
		c0.5-0.3,1.6-0.5,3-0.5c1.5,0,2.6,0.3,3,0.5l22.4,11.4c1.1,0.5,2.4,2.7,2.4,3.9v27.9c0,1.2-1.3,3.4-2.4,3.9L37.9,66
		C37.4,66.3,36.3,66.6,34.8,66.6z"/>
	<linearGradient id="SVGID_4_" gradientUnits="userSpaceOnUse" x1="34.8274" y1="9.3974" x2="34.8274" y2="63.1368">
		<stop  offset="0" style="stop-color:#009E98"/>
		<stop  offset="0.8121" style="stop-color:#113D63"/>
		<stop  offset="1" style="stop-color:#065B73"/>
	</linearGradient>
	<path class="st3" d="M34.8,63.8c-1,0-1.7-0.2-1.8-0.3L10.7,52.2c-0.3-0.3-0.9-1.1-0.9-1.5V22.9c0.1-0.4,0.6-1.3,0.9-1.5L33,10
		c0.1-0.1,0.8-0.2,1.8-0.2c1,0,1.7,0.2,1.8,0.3L59,21.4c0.3,0.3,0.9,1.1,0.9,1.5v27.7c-0.1,0.4-0.6,1.3-0.9,1.5L36.6,63.6
		C36.5,63.6,35.8,63.8,34.8,63.8z"/>
	<defs>
		<filter id="Adobe_OpacityMaskFilter" filterUnits="userSpaceOnUse" x="11.1" y="11.1" width="47.4" height="21.1">
			<feFlood  style="flood-color:white;flood-opacity:1" result="back"/>
			<feBlend  in="SourceGraphic" in2="back" mode="normal"/>
		</filter>
	</defs>
	<mask maskUnits="userSpaceOnUse" x="11.1" y="11.1" width="47.4" height="21.1" id="SVGID_5_">
		<g class="st4">
			<defs>
				<filter id="Adobe_OpacityMaskFilter_1_" filterUnits="userSpaceOnUse" x="11.1" y="11.1" width="47.4" height="21.1">
					<feFlood  style="flood-color:white;flood-opacity:1" result="back"/>
					<feBlend  in="SourceGraphic" in2="back" mode="normal"/>
				</filter>
			</defs>
			<mask maskUnits="userSpaceOnUse" x="11.1" y="11.1" width="47.4" height="21.1" id="SVGID_5_">
				<g class="st5">
				</g>
			</mask>
			<linearGradient id="SVGID_6_" gradientUnits="userSpaceOnUse" x1="34.8274" y1="11.247" x2="34.8274" y2="32.5021">
				<stop  offset="0" style="stop-color:#FFFFFF"/>
				<stop  offset="1" style="stop-color:#000000"/>
			</linearGradient>
			<path class="st6" d="M36.1,11.3c-0.1,0-0.5-0.1-1.2-0.1c-0.7,0-1.1,0.1-1.2,0.1L11.5,22.5c-0.1,0.2-0.3,0.5-0.4,0.6v2.5
				c5.8,4.1,14.3,6.6,23.7,6.6s17.9-2.6,23.7-6.6v-2.4c-0.1-0.2-0.3-0.5-0.4-0.6L36.1,11.3z"/>
		</g>
	</mask>
	<linearGradient id="SVGID_7_" gradientUnits="userSpaceOnUse" x1="34.8274" y1="11.247" x2="34.8274" y2="32.5021">
		<stop  offset="0" style="stop-color:#FFFFFF"/>
		<stop  offset="1" style="stop-color:#FFFFFF"/>
	</linearGradient>
	<path class="st7" d="M36.1,11.3c-0.1,0-0.5-0.1-1.2-0.1c-0.7,0-1.1,0.1-1.2,0.1L11.5,22.5c-0.1,0.2-0.3,0.5-0.4,0.6v2.5
		c5.8,4.1,14.3,6.6,23.7,6.6s17.9-2.6,23.7-6.6v-2.4c-0.1-0.2-0.3-0.5-0.4-0.6L36.1,11.3z"/>
</g>
<g>
	<path class="st8" d="M32.5,50.3c-10.2,0-17.9-3-17.9-7v-4.6c0,0,0-0.1,0-0.1c0,0,0-0.1,0-0.1c0-0.9,0.4-2.3,2.3-3.6
		c-1-1-1.3-2-1.3-2.7v-4.6c0,0,0-0.1,0-0.1c0,0,0-0.1,0-0.1c0-4,7.7-7,17.9-7c10.2,0,17.9,3,17.9,7c0,0,0,0.1,0,0.1c0,0,0,0.1,0,0.1
		v2c2.9,1.5,3.5,3.1,3.5,4.2c0,0,0,0.1,0,0.1c0,0,0,0.1,0,0.1v4.6c0,1.8-1.6,3.5-4.6,4.7C50.3,47.4,42.6,50.3,32.5,50.3z"/>
	<g>
		<g>
			<g>
				<path class="st9" d="M49.3,39.5c0-3.4-7.6-6.1-17.1-6.1c-9.4,0-17.1,2.7-17.1,6.1c0,0.5,0,4,0,4.2c0,3.4,7.6,6.1,17.1,6.1
					c9.4,0,17.1-2.7,17.1-6.1C49.3,43.5,49.3,40,49.3,39.5z"/>
				<linearGradient id="SVGID_8_" gradientUnits="userSpaceOnUse" x1="15.2199" y1="41.1812" x2="49.3269" y2="41.1812">
					<stop  offset="5.660080e-002" style="stop-color:#FEBE25"/>
					<stop  offset="8.843874e-002" style="stop-color:#F0AB27"/>
					<stop  offset="0.1467" style="stop-color:#DF9227"/>
					<stop  offset="0.1968" style="stop-color:#D68428"/>
					<stop  offset="0.2326" style="stop-color:#D38028"/>
					<stop  offset="0.2426" style="stop-color:#D48228"/>
					<stop  offset="0.2811" style="stop-color:#D68528"/>
					<stop  offset="0.3208" style="stop-color:#DC8E28"/>
					<stop  offset="0.361" style="stop-color:#E79E27"/>
					<stop  offset="0.4013" style="stop-color:#F9B826"/>
					<stop  offset="0.4086" style="stop-color:#FEBE25"/>
					<stop  offset="0.4239" style="stop-color:#FEC923"/>
					<stop  offset="0.4478" style="stop-color:#FED421"/>
					<stop  offset="0.4768" style="stop-color:#FEDD20"/>
					<stop  offset="0.5163" style="stop-color:#FEE11E"/>
					<stop  offset="0.6124" style="stop-color:#FEE31E"/>
					<stop  offset="0.751" style="stop-color:#E5AB27"/>
					<stop  offset="0.878" style="stop-color:#D38028"/>
					<stop  offset="0.9756" style="stop-color:#FFC319"/>
				</linearGradient>
				<path class="st10" d="M49.3,39.1c0-3.4-7.6-6.1-17.1-6.1c-9.4,0-17.1,2.7-17.1,6.1c0,0.5,0,4,0,4.2c0,3.4,7.6,6.1,17.1,6.1
					c9.4,0,17.1-2.7,17.1-6.1C49.3,43.1,49.3,39.6,49.3,39.1z"/>
				<path class="st11" d="M16.6,45.7c0.9,0.7,2.1,1.3,3.6,1.9c0-4.3,0.3-8.6,0.4-12.9c-1.2,0.4-2.3,0.9-3.1,1.4
					C17.5,39.3,16.8,42.6,16.6,45.7z M32.3,33c-0.2,0-0.3,0-0.5,0c0,5.5,0,10.9-0.1,16.4c0.2,0,0.4,0,0.6,0c1.7,0,3.4-0.1,4.9-0.3
					c0.2-5.3,0.2-10.6-0.1-15.9C35.6,33.1,33.9,33,32.3,33z M40.5,48.6c1.7-0.3,3.2-0.8,4.4-1.3c0.1-4.1,0.1-8.2,0.1-12.3
					c-1.3-0.5-2.9-1-4.7-1.3C40.7,38.7,40.7,43.6,40.5,48.6z M48.4,37.1c0,2.8,0,5.5-0.1,8.3c0.7-0.6,1-1.3,1-2.1v-4.2
					C49.3,38.4,49,37.7,48.4,37.1z M23.5,48.5c1.5,0.3,3.2,0.6,4.9,0.7c0.1-5.4,0.1-10.7,0.1-16.1c-1.6,0.1-3.2,0.3-4.6,0.6
					C23.8,38.7,23.4,43.6,23.5,48.5z"/>
				<ellipse class="st12" cx="32.3" cy="39.3" rx="17.1" ry="6.1"/>
				<linearGradient id="SVGID_9_" gradientUnits="userSpaceOnUse" x1="15.6584" y1="21.7782" x2="43.4037" y2="50.407">
					<stop  offset="0.4086" style="stop-color:#FEBE25"/>
					<stop  offset="0.6456" style="stop-color:#FAD328"/>
					<stop  offset="0.9255" style="stop-color:#F7EC2C"/>
				</linearGradient>
				<ellipse class="st13" cx="32.3" cy="38.9" rx="17.1" ry="6.1"/>
				<path class="st9" d="M32.3,43.7c-9.2,0-16-2.7-16-5c0-2.4,6.8-5,16-5c9.2,0,16,2.7,16,5C48.3,41,41.4,43.7,32.3,43.7z"/>
				<path class="st9" d="M32.3,43.4c-9.6,0-15.7-2.8-15.7-4.8c0-1.9,6.1-4.8,15.7-4.8c9.6,0,15.7,2.8,15.7,4.8
					C48,40.6,41.9,43.4,32.3,43.4z"/>
				<path class="st14" d="M48,37.4c0.3,0.4,0.5,0.7,0.5,1.1c0,2.2-6.4,5.3-16.4,5.3c-8,0-13.6-2-15.6-3.9c1.6,2,7.5,4.2,15.9,4.2
					c10,0,16.4-3.2,16.4-5.3C48.8,38.4,48.5,37.9,48,37.4z"/>
				<path class="st15" d="M32.3,35.6c8.3,0,13.9,2.1,15.4,3.9c0.2-0.3,0.4-0.6,0.4-0.9c0-1.9-6.1-4.8-15.7-4.8
					c-9.6,0-15.7,2.8-15.7,4.8c0,0.3,0.1,0.6,0.4,0.9C18.3,37.7,24,35.6,32.3,35.6z"/>
			</g>
		</g>
	</g>
	<g>
		<g>
			<g>
				<path class="st9" d="M54.6,34.6c0-3.4-7.6-6.1-17.1-6.1c-9.4,0-17.1,2.7-17.1,6.1c0,0.5,0,4,0,4.2c0,3.4,7.6,6.1,17.1,6.1
					c9.4,0,17.1-2.7,17.1-6.1C54.6,38.5,54.6,35.1,54.6,34.6z"/>
				<linearGradient id="SVGID_10_" gradientUnits="userSpaceOnUse" x1="20.4569" y1="36.2719" x2="54.5643" y2="36.2719">
					<stop  offset="5.660080e-002" style="stop-color:#FEBE25"/>
					<stop  offset="8.843874e-002" style="stop-color:#F0AB27"/>
					<stop  offset="0.1467" style="stop-color:#DF9227"/>
					<stop  offset="0.1968" style="stop-color:#D68428"/>
					<stop  offset="0.2326" style="stop-color:#D38028"/>
					<stop  offset="0.2426" style="stop-color:#D48228"/>
					<stop  offset="0.2811" style="stop-color:#D68528"/>
					<stop  offset="0.3208" style="stop-color:#DC8E28"/>
					<stop  offset="0.361" style="stop-color:#E79E27"/>
					<stop  offset="0.4013" style="stop-color:#F9B826"/>
					<stop  offset="0.4086" style="stop-color:#FEBE25"/>
					<stop  offset="0.4239" style="stop-color:#FEC923"/>
					<stop  offset="0.4478" style="stop-color:#FED421"/>
					<stop  offset="0.4768" style="stop-color:#FEDD20"/>
					<stop  offset="0.5163" style="stop-color:#FEE11E"/>
					<stop  offset="0.6124" style="stop-color:#FEE31E"/>
					<stop  offset="0.751" style="stop-color:#E5AB27"/>
					<stop  offset="0.878" style="stop-color:#D38028"/>
					<stop  offset="0.9756" style="stop-color:#FFC319"/>
				</linearGradient>
				<path class="st16" d="M54.6,34.2c0-3.4-7.6-6.1-17.1-6.1c-9.4,0-17.1,2.7-17.1,6.1c0,0.5,0,4,0,4.2c0,3.4,7.6,6.1,17.1,6.1
					c9.4,0,17.1-2.7,17.1-6.1C54.6,38.2,54.6,34.7,54.6,34.2z"/>
				<path class="st11" d="M21.9,40.8c0.9,0.7,2.1,1.3,3.6,1.9c0-4.3,0.3-8.6,0.4-12.9c-1.2,0.4-2.3,0.9-3.1,1.4
					C22.8,34.3,22,37.7,21.9,40.8z M37.5,28.1c-0.2,0-0.3,0-0.5,0c0,5.5,0,10.9-0.1,16.4c0.2,0,0.4,0,0.6,0c1.7,0,3.4-0.1,4.9-0.3
					c0.2-5.3,0.2-10.6-0.1-15.9C40.8,28.2,39.2,28.1,37.5,28.1z M45.8,43.7c1.7-0.3,3.2-0.8,4.4-1.3c0.1-4.1,0.1-8.2,0.1-12.3
					c-1.3-0.5-2.9-1-4.7-1.3C46,33.8,46,38.7,45.8,43.7z M53.6,32.2c0,2.8,0,5.5-0.1,8.3c0.7-0.6,1-1.3,1-2.1v-4.2
					C54.6,33.5,54.2,32.8,53.6,32.2z M28.7,43.6c1.5,0.3,3.2,0.6,4.9,0.7c0.1-5.4,0.1-10.7,0.1-16.1c-1.6,0.1-3.2,0.3-4.6,0.6
					C29.1,33.8,28.6,38.7,28.7,43.6z"/>
				<ellipse class="st12" cx="37.5" cy="34.4" rx="17.1" ry="6.1"/>
				<linearGradient id="SVGID_11_" gradientUnits="userSpaceOnUse" x1="20.8955" y1="16.8689" x2="48.641" y2="45.4979">
					<stop  offset="0.4086" style="stop-color:#FEBE25"/>
					<stop  offset="0.6456" style="stop-color:#FAD328"/>
					<stop  offset="0.9255" style="stop-color:#F7EC2C"/>
				</linearGradient>
				<ellipse class="st17" cx="37.5" cy="34" rx="17.1" ry="6.1"/>
				<path class="st9" d="M37.5,38.8c-9.2,0-16-2.7-16-5c0-2.4,6.8-5,16-5c9.2,0,16,2.7,16,5C53.5,36.1,46.7,38.8,37.5,38.8z"/>
				<path class="st9" d="M37.5,38.5c-9.6,0-15.7-2.8-15.7-4.8c0-1.9,6.1-4.8,15.7-4.8c9.6,0,15.7,2.8,15.7,4.8
					C53.2,35.7,47.1,38.5,37.5,38.5z"/>
				<path class="st14" d="M53.2,32.5c0.3,0.4,0.5,0.7,0.5,1.1c0,2.2-6.4,5.3-16.4,5.3c-8,0-13.6-2-15.6-3.9c1.6,2,7.5,4.2,15.9,4.2
					c10,0,16.4-3.2,16.4-5.3C54,33.5,53.7,33,53.2,32.5z"/>
				<path class="st15" d="M37.5,30.7c8.3,0,13.9,2.1,15.4,3.9c0.2-0.3,0.4-0.6,0.4-0.9c0-1.9-6.1-4.8-15.7-4.8
					c-9.6,0-15.7,2.8-15.7,4.8c0,0.3,0.1,0.6,0.4,0.9C23.6,32.8,29.3,30.7,37.5,30.7z"/>
			</g>
		</g>
	</g>
	<g>
		<g>
			<g>
				<path class="st9" d="M50.6,28.1c0-3.4-7.6-6.1-17.1-6.1c-9.4,0-17.1,2.7-17.1,6.1c0,0.5,0,4,0,4.2c0,3.4,7.6,6.1,17.1,6.1
					c9.4,0,17.1-2.7,17.1-6.1C50.6,32,50.6,28.6,50.6,28.1z"/>
				<linearGradient id="SVGID_12_" gradientUnits="userSpaceOnUse" x1="16.5263" y1="29.769" x2="50.6338" y2="29.769">
					<stop  offset="5.660080e-002" style="stop-color:#FEBE25"/>
					<stop  offset="8.843874e-002" style="stop-color:#F0AB27"/>
					<stop  offset="0.1467" style="stop-color:#DF9227"/>
					<stop  offset="0.1968" style="stop-color:#D68428"/>
					<stop  offset="0.2326" style="stop-color:#D38028"/>
					<stop  offset="0.2426" style="stop-color:#D48228"/>
					<stop  offset="0.2811" style="stop-color:#D68528"/>
					<stop  offset="0.3208" style="stop-color:#DC8E28"/>
					<stop  offset="0.361" style="stop-color:#E79E27"/>
					<stop  offset="0.4013" style="stop-color:#F9B826"/>
					<stop  offset="0.4086" style="stop-color:#FEBE25"/>
					<stop  offset="0.4239" style="stop-color:#FEC923"/>
					<stop  offset="0.4478" style="stop-color:#FED421"/>
					<stop  offset="0.4768" style="stop-color:#FEDD20"/>
					<stop  offset="0.5163" style="stop-color:#FEE11E"/>
					<stop  offset="0.6124" style="stop-color:#FEE31E"/>
					<stop  offset="0.751" style="stop-color:#E5AB27"/>
					<stop  offset="0.878" style="stop-color:#D38028"/>
					<stop  offset="0.9756" style="stop-color:#FFC319"/>
				</linearGradient>
				<path class="st18" d="M50.6,27.7c0-3.4-7.6-6.1-17.1-6.1c-9.4,0-17.1,2.7-17.1,6.1c0,0.5,0,4,0,4.2c0,3.4,7.6,6.1,17.1,6.1
					c9.4,0,17.1-2.7,17.1-6.1C50.6,31.7,50.6,28.2,50.6,27.7z"/>
				<path class="st11" d="M17.9,34.3c0.9,0.7,2.1,1.3,3.6,1.9c0-4.3,0.3-8.6,0.4-12.9c-1.2,0.4-2.3,0.9-3.1,1.4
					C18.8,27.8,18.1,31.2,17.9,34.3z M33.6,21.6c-0.2,0-0.3,0-0.5,0c0,5.5,0,10.9-0.1,16.4c0.2,0,0.4,0,0.6,0c1.7,0,3.4-0.1,4.9-0.3
					c0.2-5.3,0.2-10.6-0.1-15.9C36.9,21.7,35.3,21.6,33.6,21.6z M41.8,37.2c1.7-0.3,3.2-0.8,4.4-1.3c0.1-4.1,0.1-8.2,0.1-12.3
					c-1.3-0.5-2.9-1-4.7-1.3C42,27.3,42,32.2,41.8,37.2z M49.7,25.7c0,2.8,0,5.5-0.1,8.3c0.7-0.6,1-1.3,1-2.1v-4.2
					C50.6,27,50.3,26.3,49.7,25.7z M24.8,37.1c1.5,0.3,3.2,0.6,4.9,0.7c0.1-5.4,0.1-10.7,0.1-16.1c-1.6,0.1-3.2,0.3-4.6,0.6
					C25.1,27.3,24.7,32.2,24.8,37.1z"/>
				<ellipse class="st12" cx="33.6" cy="27.9" rx="17.1" ry="6.1"/>
				<linearGradient id="SVGID_13_" gradientUnits="userSpaceOnUse" x1="16.9649" y1="10.3658" x2="44.7104" y2="38.9949">
					<stop  offset="0.4086" style="stop-color:#FEBE25"/>
					<stop  offset="0.6456" style="stop-color:#FAD328"/>
					<stop  offset="0.9255" style="stop-color:#F7EC2C"/>
				</linearGradient>
				<ellipse class="st19" cx="33.6" cy="27.5" rx="17.1" ry="6.1"/>
				<path class="st9" d="M33.6,32.3c-9.2,0-16-2.7-16-5c0-2.4,6.8-5,16-5c9.2,0,16,2.7,16,5C49.6,29.6,42.7,32.3,33.6,32.3z"/>
				<path class="st9" d="M33.6,32c-9.6,0-15.7-2.8-15.7-4.8c0-1.9,6.1-4.8,15.7-4.8c9.6,0,15.7,2.8,15.7,4.8
					C49.3,29.2,43.2,32,33.6,32z"/>
				<linearGradient id="SVGID_14_" gradientUnits="userSpaceOnUse" x1="17.8519" y1="26.6524" x2="46.6952" y2="26.6524">
					<stop  offset="0.4086" style="stop-color:#FEBE25"/>
					<stop  offset="0.6456" style="stop-color:#FAD328"/>
					<stop  offset="0.9255" style="stop-color:#F7EC2C"/>
				</linearGradient>
				<path class="st20" d="M23.7,30.8c5.7-2.5,11.9-4,18-5.2c1.7-0.3,3.4-0.6,5.1-0.8c-2.7-1.3-7.2-2.3-13.1-2.3
					c-9.6,0-15.7,2.8-15.7,4.8C17.9,28.4,20,29.8,23.7,30.8z"/>
				<path class="st14" d="M49.3,26c0.3,0.4,0.5,0.7,0.5,1.1c0,2.2-6.4,5.3-16.4,5.3c-8,0-13.6-2-15.6-3.9c1.6,2,7.5,4.2,15.9,4.2
					c10,0,16.4-3.2,16.4-5.3C50.1,27,49.8,26.5,49.3,26z"/>
				<path class="st15" d="M33.6,24.2c8.3,0,13.9,2.1,15.4,3.9c0.2-0.3,0.4-0.6,0.4-0.9c0-1.9-6.1-4.8-15.7-4.8
					c-9.6,0-15.7,2.8-15.7,4.8c0,0.3,0.1,0.6,0.4,0.9C19.6,26.3,25.3,24.2,33.6,24.2z"/>
			</g>
			<path class="st21" d="M33.6,32.3c-0.2,0-0.3-0.1-0.4-0.2c-0.4-0.5-0.7-1-0.8-1.5l-0.2,0c-0.9,0-2-0.1-3.3-0.2
				c-2.1-0.3-2.8-0.6-2.8-1.2c0-0.6,0.8-0.8,1-0.9c0.4-0.1,0.8-0.1,1.3-0.1c0.3,0,0.6,0,0.9,0.1c-0.3-0.2-0.6-0.5-0.6-0.9
				c0-1,1.3-1.4,1.7-1.5c0.4-0.1,1.1-0.3,2.2-0.5v-0.9c0-0.4,0.3-0.8,1-0.9c0.4-0.1,0.9-0.2,1.4-0.2c0.3,0,0.6,0,0.9,0.1
				c0.2,0.1,0.4,0.1,0.6,0.2c0.2,0.1,0.4,0.3,0.4,0.5v0.2c0,0.2-0.1,0.4-0.3,0.5c0.3,0,0.6,0,0.7,0c0.5,0,1,0,1.5,0.1
				c0.4,0.1,1.3,0.2,1.3,0.9c0,0.7-1,0.9-1.5,0.9c-0.5,0.1-1.1,0.1-1.7,0.1c-0.1,0-0.3,0-0.6,0c-0.1,0-0.3,0-0.4,0
				c0,0.1-0.1,0.3-0.1,0.4c0.6,0.1,1.3,0.1,1.9,0.2c0,0,0,0,0,0c0.6,0.1,1.9,0.3,1.9,1.2c0,1-1.3,1.2-1.8,1.3c0,0-0.1,0-2,0.3
				c0,0.1,0,0.1,0,0.2c0,0,0,0,0,0c0,0,0,0,0,0c0.1,0.1,0.1,0.3,0.1,0.4c0,0.4-0.1,0.7-0.3,0.9c0,0,0,0,0,0
				c-0.3,0.2-0.7,0.3-1.3,0.3L33.6,32.3z"/>
			<path class="st9" d="M33.6,31.8c-0.2,0-0.3-0.1-0.4-0.2c-0.4-0.5-0.7-1-0.8-1.5l-0.2,0c-0.9,0-2-0.1-3.3-0.2
				c-2.1-0.3-2.8-0.6-2.8-1.2c0-0.6,0.8-0.8,1-0.9c0.4-0.1,0.8-0.1,1.3-0.1c0.3,0,0.6,0,0.9,0.1c-0.3-0.2-0.6-0.5-0.6-0.9
				c0-1,1.3-1.4,1.7-1.5c0.4-0.1,1.1-0.3,2.2-0.5v-0.9c0-0.4,0.3-0.8,1-0.9c0.4-0.1,0.9-0.2,1.4-0.2c0.3,0,0.6,0,0.9,0.1
				c0.2,0.1,0.4,0.1,0.6,0.2c0.2,0.1,0.4,0.3,0.4,0.5v0.2c0,0.2-0.1,0.4-0.3,0.5c0.3,0,0.6,0,0.7,0c0.5,0,1,0,1.5,0.1
				c0.4,0.1,1.3,0.2,1.3,0.9c0,0.7-1,0.9-1.5,0.9c-0.5,0.1-1.1,0.1-1.7,0.1c-0.1,0-0.3,0-0.6,0c-0.1,0-0.3,0-0.4,0
				c0,0.1-0.1,0.3-0.1,0.4c0.6,0.1,1.3,0.1,1.9,0.2c0,0,0,0,0,0c0.6,0.1,1.9,0.3,1.9,1.2c0,1-1.3,1.2-1.8,1.3c0,0-0.1,0-2,0.3
				c0,0.1,0,0.1,0,0.2c0,0,0,0,0,0c0,0,0,0,0,0c0.1,0.1,0.1,0.3,0.1,0.4c0,0.4-0.1,0.7-0.3,0.9c0,0,0,0,0,0
				c-0.3,0.2-0.7,0.3-1.3,0.3L33.6,31.8z"/>
			<path class="st22" d="M39.4,25.3c0,0.2-0.3,0.3-1,0.4c-0.5,0.1-1,0.1-1.6,0.1c-0.1,0-0.3,0-0.5,0c-0.2,0-0.4,0-0.5,0
				c-0.1,0-0.2,0-0.3,0c-0.1,0.3-0.2,0.8-0.3,1.4c0.8,0.1,1.6,0.2,2.5,0.3c1,0.2,1.4,0.4,1.4,0.7c0,0.4-0.5,0.6-1.4,0.8
				c0,0-0.9,0.1-2.5,0.3v0.1c0,0.3,0,0.5,0.1,0.7c0,0,0,0.1,0.1,0.2c0,0.1,0.1,0.2,0.1,0.2c0,0.2,0,0.4-0.1,0.5
				c-0.2,0.1-0.5,0.2-1,0.2h-0.7c-0.5-0.5-0.7-1.1-0.7-1.7c-0.1,0-0.2,0-0.3,0c-0.1,0-0.2,0-0.3,0c-0.9,0-2-0.1-3.2-0.2
				c-1.6-0.2-2.4-0.4-2.4-0.7c0-0.2,0.2-0.3,0.6-0.4c0.3-0.1,0.7-0.1,1.1-0.1c0.4,0,0.8,0.1,1.2,0.2c0.6,0.2,1,0.3,1,0.3
				c0.4,0.1,1.2,0.1,2.4,0.1c-0.1-0.1-0.1-0.3-0.1-0.7c-1.1-0.2-1.9-0.3-2.3-0.4c-0.8-0.2-1.2-0.5-1.2-0.8c0-0.4,0.4-0.7,1.3-1
				c0.4-0.1,1.2-0.3,2.5-0.6v-1.4c0-0.2,0.2-0.3,0.6-0.4c0.4-0.1,0.8-0.2,1.3-0.2c0.2,0,0.5,0,0.7,0.1c0.2,0.1,0.4,0.1,0.6,0.2v0.2
				c0,0.1-0.1,0.2-0.3,0.3c-0.1,0.1-0.2,0.3-0.2,0.8c0.8-0.1,1.3-0.1,1.5-0.1c0.5,0,0.9,0,1.4,0.1C39.1,25,39.4,25.2,39.4,25.3z
				 M32.9,27.1v-0.9c-0.4,0.1-0.7,0.2-0.7,0.2c-0.2,0.1-0.3,0.2-0.3,0.3c0,0.1,0.1,0.2,0.3,0.2C32.4,27,32.7,27,32.9,27.1z
				 M36.1,28.4c0-0.1-0.1-0.1-0.4-0.2l-0.6,0v0.6c0.2,0,0.4,0,0.6,0C35.9,28.7,36.1,28.6,36.1,28.4z"/>
			<path class="st23" d="M30.4,27.6c0.4,0.1,1,0.2,1.8,0.3c1-0.3,2-0.5,2.9-0.7c0.1-0.6,0.2-1.1,0.3-1.4c0.1,0,0.2,0,0.3,0
				c0.1,0,0.3,0,0.5,0c0.2,0,0.4,0,0.5,0c0.6,0,1.1,0,1.6-0.1c0.7-0.1,1-0.2,1-0.4c0-0.2-0.3-0.3-0.8-0.4c-0.5-0.1-0.9-0.1-1.4-0.1
				c-0.2,0-0.7,0-1.5,0.1c0-0.5,0.1-0.8,0.2-0.8c0.2-0.1,0.3-0.2,0.3-0.3v-0.2c-0.2-0.1-0.4-0.1-0.6-0.2c-0.2-0.1-0.5-0.1-0.7-0.1
				c-0.5,0-0.9,0.1-1.3,0.2c-0.4,0.1-0.6,0.3-0.6,0.4v1.4c-1.3,0.3-2.1,0.5-2.5,0.6c-0.9,0.3-1.3,0.6-1.3,1
				C29.2,27.1,29.6,27.4,30.4,27.6z M32.2,26.4c0,0,0.3-0.1,0.7-0.2v0.9c-0.2,0-0.5-0.1-0.7-0.1c-0.2-0.1-0.3-0.1-0.3-0.2
				C31.9,26.6,32,26.5,32.2,26.4z"/>
			<path class="st23" d="M28.4,29.2c0.6-0.2,1.2-0.5,1.9-0.7c-0.2-0.1-0.4-0.1-0.8-0.2c-0.4-0.1-0.8-0.2-1.2-0.2
				c-0.4,0-0.8,0-1.1,0.1c-0.4,0.1-0.6,0.2-0.6,0.4C26.6,28.8,27.2,29.1,28.4,29.2z"/>
			<path class="st24" d="M32,26.6c0.1-0.1,0.1-0.1,0.2-0.1c0,0,0.3-0.1,0.7-0.2V26c-0.4,0.1-0.7,0.2-0.7,0.2
				c-0.2,0.1-0.3,0.2-0.3,0.3C31.9,26.6,31.9,26.6,32,26.6z M35.9,24.1c0.2-0.1,0.3-0.2,0.3-0.3v-0.2c0,0,0,0,0,0
				c0,0.1-0.1,0.2-0.3,0.2c-0.1,0.1-0.2,0.3-0.2,0.8c0,0,0,0,0,0C35.8,24.4,35.8,24.2,35.9,24.1z M36,28.4c0-0.1,0.1-0.1,0.1-0.2
				c0-0.1-0.1-0.1-0.4-0.2l-0.6,0v0.3l0.6,0C35.8,28.3,35.9,28.3,36,28.4z M30.4,27.7c0.4,0.1,1.2,0.3,2.3,0.4c0,0.2,0,0.3,0,0.5
				c0,0,0.1,0,0.1,0c-0.1-0.1-0.1-0.3-0.1-0.7c-1.1-0.2-1.9-0.3-2.3-0.4c-0.7-0.2-1.1-0.4-1.2-0.7c0,0,0,0.1,0,0.2
				C29.2,27.2,29.6,27.5,30.4,27.7z M35.3,30.9c-0.2,0.1-0.5,0.2-1,0.2h-0.7c-0.5-0.5-0.7-1.1-0.7-1.7c-0.1,0-0.2,0-0.3,0h-0.3
				c-0.9,0-2-0.1-3.2-0.2c-1.3-0.2-2.1-0.3-2.3-0.6c-0.1,0-0.1,0.1-0.1,0.2c0,0.3,0.8,0.5,2.4,0.7c1.3,0.2,2.4,0.2,3.2,0.2h0.3
				c0.2,0,0.3,0,0.3,0c0,0.6,0.3,1.2,0.7,1.7h0.7c0.5,0,0.8-0.1,1-0.2c0.1-0.1,0.1-0.3,0.1-0.5c0,0,0,0,0-0.1
				C35.4,30.7,35.4,30.8,35.3,30.9z M39.3,25.3c-0.1,0.1-0.4,0.2-0.9,0.3c-0.5,0.1-1,0.1-1.6,0.1c-0.1,0-0.3,0-0.5,0
				c-0.2,0-0.4,0-0.5,0c-0.1,0-0.2,0-0.3,0c-0.1,0.3-0.2,0.8-0.3,1.4c0,0,0,0,0,0c0.1-0.5,0.2-0.9,0.2-1.1c0.1,0,0.2,0,0.3,0
				c0.1,0,0.3,0,0.5,0c0.2,0,0.4,0,0.5,0c0.6,0,1.1,0,1.6-0.1c0.7-0.1,1-0.2,1-0.4C39.4,25.4,39.4,25.3,39.3,25.3z M37.7,28.9
				c0,0-0.9,0.1-2.5,0.3v0.1c0,0.1,0,0.1,0,0.2c1.6-0.2,2.4-0.3,2.5-0.3c0.9-0.2,1.4-0.5,1.4-0.8c0,0,0-0.1,0-0.1
				C39,28.5,38.5,28.7,37.7,28.9z"/>
		</g>
	</g>
</g>
</svg>
