<?xml version="1.0" encoding="utf-8"?>
<!-- Generator: Adobe Illustrator 18.1.1, SVG Export Plug-In . SVG Version: 6.00 Build 0)  -->
<svg version="1.1" id="Layer_1" xmlns="http://www.w3.org/2000/svg" xmlns:xlink="http://www.w3.org/1999/xlink" x="0px" y="0px"
	 viewBox="0 0 250 37.8" style="enable-background:new 0 0 250 37.8;" xml:space="preserve">
<g>
	<linearGradient id="SVGID_1_" gradientUnits="userSpaceOnUse" x1="1.8303" y1="18.886" x2="250.9842" y2="18.886">
		<stop  offset="0" style="stop-color:#518FA3"/>
		<stop  offset="0.3884" style="stop-color:#AEE1F7"/>
		<stop  offset="0.5882" style="stop-color:#518FA3"/>
		<stop  offset="0.6752" style="stop-color:#AEE1F7"/>
		<stop  offset="0.7323" style="stop-color:#FFFFFF"/>
		<stop  offset="0.8051" style="stop-color:#AEE1F7"/>
		<stop  offset="0.9" style="stop-color:#518FA3"/>
		<stop  offset="1" style="stop-color:#88D6F5"/>
	</linearGradient>
	<path style="fill:url(#SVGID_1_);" d="M0.4,0L0,37.8h214.4c3.7,0,7.4-0.9,10.9-2.8c3.5-1.9,6.2-4.6,8.2-7.7l17-27.2H0.4z"/>
	<linearGradient id="SVGID_2_" gradientUnits="userSpaceOnUse" x1="124.9079" y1="-5.399586e-002" x2="124.9079" y2="34.6617">
		<stop  offset="0" style="stop-color:#DFF0EF"/>
		<stop  offset="1" style="stop-color:#9CD8DC"/>
	</linearGradient>
	<path style="fill:url(#SVGID_2_);" d="M233.5,25.4c-2,3.1-4.7,5.8-8.2,7.7c-3.5,1.9-7.2,2.8-10.9,2.8H0.4V0h248.9L233.5,25.4z"/>
	<defs>
		<filter id="Adobe_OpacityMaskFilter" filterUnits="userSpaceOnUse" x="0.4" y="0" width="248.9" height="36">
			<feFlood  style="flood-color:white;flood-opacity:1" result="back"/>
			<feBlend  in="SourceGraphic" in2="back" mode="normal"/>
		</filter>
	</defs>
	<mask maskUnits="userSpaceOnUse" x="0.4" y="0" width="248.9" height="36" id="SVGID_3_">
		<g style="filter:url(#Adobe_OpacityMaskFilter);">
			<defs>
				<filter id="Adobe_OpacityMaskFilter_1_" filterUnits="userSpaceOnUse" x="154.9" y="0" width="94.4" height="36">
					<feFlood  style="flood-color:white;flood-opacity:1" result="back"/>
					<feBlend  in="SourceGraphic" in2="back" mode="normal"/>
				</filter>
			</defs>
			<mask maskUnits="userSpaceOnUse" x="154.9" y="0" width="94.4" height="36" id="SVGID_3_">
				<g style="filter:url(#Adobe_OpacityMaskFilter_1_);">
				</g>
			</mask>
			<linearGradient id="SVGID_4_" gradientUnits="userSpaceOnUse" x1="209.7778" y1="38.4928" x2="196.7373" y2="3.4185">
				<stop  offset="0" style="stop-color:#FFFFFF"/>
				<stop  offset="1" style="stop-color:#000000"/>
			</linearGradient>
			<path style="mask:url(#SVGID_3_);fill:url(#SVGID_4_);" d="M248.4,0L233,24.5c-2,3.1-4.7,5.8-8.2,7.7c-3.5,1.9-7.2,2.8-10.9,2.8
				h-59V36h59.5c3.7,0,7.4-0.9,10.9-2.8c3.5-1.9,6.2-4.6,8.2-7.7L249.4,0H248.4z"/>
		</g>
	</mask>
	<linearGradient id="SVGID_5_" gradientUnits="userSpaceOnUse" x1="141.3778" y1="62.285" x2="98.3898" y2="-53.3379">
		<stop  offset="0" style="stop-color:#FFFFFF"/>
		<stop  offset="1" style="stop-color:#FFFFFF"/>
	</linearGradient>
	<path style="fill:url(#SVGID_5_);" d="M248.4,0L233,24.5c-2,3.1-4.7,5.8-8.2,7.7c-3.5,1.9-7.2,2.8-10.9,2.8H0.4V36h214
		c3.7,0,7.4-0.9,10.9-2.8c3.5-1.9,6.2-4.6,8.2-7.7L249.4,0H248.4z"/>
	<linearGradient id="SVGID_6_" gradientUnits="userSpaceOnUse" x1="120.8512" y1="4.4562" x2="120.8512" y2="30.4929">
		<stop  offset="0" style="stop-color:#06262F"/>
		<stop  offset="0.7636" style="stop-color:#2A5A68"/>
		<stop  offset="0.8652" style="stop-color:#E0F2F6"/>
	</linearGradient>
	<path style="fill:url(#SVGID_6_);" d="M0.4,31.5v-27h240.8L229.7,23c-1.6,2.6-3.9,4.7-6.5,6.2c-2.7,1.5-5.7,2.3-8.7,2.3H0.4z"/>
	<defs>
		<filter id="Adobe_OpacityMaskFilter_2_" filterUnits="userSpaceOnUse" x="0.4" y="6.3" width="237.6" height="23.4">
			<feFlood  style="flood-color:white;flood-opacity:1" result="back"/>
			<feBlend  in="SourceGraphic" in2="back" mode="normal"/>
		</filter>
	</defs>
	<mask maskUnits="userSpaceOnUse" x="0.4" y="6.3" width="237.6" height="23.4" id="SVGID_7_">
		<g style="filter:url(#Adobe_OpacityMaskFilter_2_);">
			<defs>
				<filter id="Adobe_OpacityMaskFilter_3_" filterUnits="userSpaceOnUse" x="154.9" y="6.3" width="83.1" height="23.4">
					<feFlood  style="flood-color:white;flood-opacity:1" result="back"/>
					<feBlend  in="SourceGraphic" in2="back" mode="normal"/>
				</filter>
			</defs>
			<mask maskUnits="userSpaceOnUse" x="154.9" y="6.3" width="83.1" height="23.4" id="SVGID_7_">
				<g style="filter:url(#Adobe_OpacityMaskFilter_3_);">
				</g>
			</mask>
			<linearGradient id="SVGID_8_" gradientUnits="userSpaceOnUse" x1="196.4744" y1="6.2602" x2="196.4744" y2="28.8254">
				<stop  offset="0" style="stop-color:#FFFFFF"/>
				<stop  offset="1" style="stop-color:#000000"/>
			</linearGradient>
			<path style="mask:url(#SVGID_7_);fill:url(#SVGID_8_);" d="M154.9,29.7V6.3H238l-9.9,15.8c-1.5,2.3-3.5,4.3-5.9,5.6
				c-2.4,1.3-5.1,2-7.8,2H154.9z"/>
		</g>
	</mask>
	<linearGradient id="SVGID_9_" gradientUnits="userSpaceOnUse" x1="119.2287" y1="6.2602" x2="119.2287" y2="28.8254">
		<stop  offset="0" style="stop-color:#FFFFFF"/>
		<stop  offset="1" style="stop-color:#FFFFFF"/>
	</linearGradient>
	<path style="fill:url(#SVGID_9_);" d="M0.4,29.7V6.3H238l-9.9,15.8c-1.5,2.3-3.5,4.3-5.9,5.6c-2.4,1.3-5.1,2-7.8,2H0.4z"/>
	<linearGradient id="SVGID_10_" gradientUnits="userSpaceOnUse" x1="118.4176" y1="7.1623" x2="118.4176" y2="27.9917">
		<stop  offset="0" style="stop-color:#009E98"/>
		<stop  offset="0.8121" style="stop-color:#113D63"/>
		<stop  offset="1" style="stop-color:#065B73"/>
	</linearGradient>
	<path style="fill:url(#SVGID_10_);" d="M0.4,28.8V7.2h235.9l-9,14.4c-1.4,2.2-3.3,4-5.6,5.3c-2.3,1.3-4.8,1.9-7.4,1.9H0.4z"/>
</g>
</svg>
